<svg width="17" height="16" viewBox="0 0 17 16" fill="none" xmlns="http://www.w3.org/2000/svg">
<g id="ic_arrow" clip-path="url(#clip0_809_28533)">
<g id="Union">
<path fill-rule="evenodd" clip-rule="evenodd" d="M6.26562 2.40016H4.02563V0.160156H6.26562V2.40016ZM8.50391 4.64039H6.26391V2.40039H8.50391V4.64039ZM8.50414 6.88062H10.7366V9.11988H12.9766V6.87988H10.7441V4.64062H8.50414V6.88062ZM8.50414 11.3601H10.7441V9.12012H8.50414V11.3601ZM8.50391 13.6004H6.26391V11.3604H8.50391V13.6004ZM4.02563 15.8406H6.26562V13.6006H4.02563V15.8406Z" fill="#0D0D0D"/>
<path d="M4.02563 2.40016V2.65016H3.77563V2.40016H4.02563ZM6.26562 2.40016H6.51562V2.65016H6.26562V2.40016ZM4.02563 0.160156H3.77563V-0.0898438H4.02563V0.160156ZM6.26562 0.160156V-0.0898438H6.51562V0.160156H6.26562ZM6.26391 4.64039V4.89039H6.01391V4.64039H6.26391ZM8.50391 4.64039H8.75391V4.89039H8.50391V4.64039ZM6.26391 2.40039H6.01391V2.15039H6.26391V2.40039ZM8.50391 2.40039V2.15039H8.75391V2.40039H8.50391ZM10.7366 6.88062V6.63062H10.9866V6.88062H10.7366ZM8.50414 6.88062V7.13062H8.25414V6.88062H8.50414ZM10.7366 9.11988V9.36988H10.4866V9.11988H10.7366ZM12.9766 9.11988H13.2266V9.36988H12.9766V9.11988ZM12.9766 6.87988V6.62988H13.2266V6.87988H12.9766ZM10.7441 6.87988V7.12988H10.4941V6.87988H10.7441ZM10.7441 4.64062V4.39062H10.9941V4.64062H10.7441ZM8.50414 4.64062H8.25414V4.39062H8.50414V4.64062ZM10.7441 11.3601H10.9941V11.6101H10.7441V11.3601ZM8.50414 11.3601V11.6101H8.25414V11.3601H8.50414ZM10.7441 9.12012V8.87012H10.9941V9.12012H10.7441ZM8.50414 9.12012H8.25414V8.87012H8.50414V9.12012ZM6.26391 13.6004V13.8504H6.01391V13.6004H6.26391ZM8.50391 13.6004H8.75391V13.8504H8.50391V13.6004ZM6.26391 11.3604H6.01391V11.1104H6.26391V11.3604ZM8.50391 11.3604V11.1104H8.75391V11.3604H8.50391ZM6.26562 15.8406H6.51562V16.0906H6.26562V15.8406ZM4.02563 15.8406V16.0906H3.77563V15.8406H4.02563ZM6.26562 13.6006V13.3506H6.51562V13.6006H6.26562ZM4.02563 13.6006H3.77563V13.3506H4.02563V13.6006ZM4.02563 2.15016H6.26562V2.65016H4.02563V2.15016ZM4.27563 0.160156V2.40016H3.77563V0.160156H4.27563ZM6.26562 0.410156H4.02563V-0.0898438H6.26562V0.410156ZM6.01562 2.40016V0.160156H6.51562V2.40016H6.01562ZM6.26391 4.39039H8.50391V4.89039H6.26391V4.39039ZM6.51391 2.40039V4.64039H6.01391V2.40039H6.51391ZM8.50391 2.65039H6.26391V2.15039H8.50391V2.65039ZM8.25391 4.64039V2.40039H8.75391V4.64039H8.25391ZM10.7366 7.13062H8.50414V6.63062H10.7366V7.13062ZM10.4866 9.11988V6.88062H10.9866V9.11988H10.4866ZM12.9766 9.36988H10.7366V8.86988H12.9766V9.36988ZM13.2266 6.87988V9.11988H12.7266V6.87988H13.2266ZM10.7441 6.62988H12.9766V7.12988H10.7441V6.62988ZM10.9941 4.64062V6.87988H10.4941V4.64062H10.9941ZM8.50414 4.39062H10.7441V4.89062H8.50414V4.39062ZM8.25414 6.88062V4.64062H8.75414V6.88062H8.25414ZM10.7441 11.6101H8.50414V11.1101H10.7441V11.6101ZM10.9941 9.12012V11.3601H10.4941V9.12012H10.9941ZM8.50414 8.87012H10.7441V9.37012H8.50414V8.87012ZM8.25414 11.3601V9.12012H8.75414V11.3601H8.25414ZM6.26391 13.3504H8.50391V13.8504H6.26391V13.3504ZM6.51391 11.3604V13.6004H6.01391V11.3604H6.51391ZM8.50391 11.6104H6.26391V11.1104H8.50391V11.6104ZM8.25391 13.6004V11.3604H8.75391V13.6004H8.25391ZM6.26562 16.0906H4.02563V15.5906H6.26562V16.0906ZM6.51562 13.6006V15.8406H6.01562V13.6006H6.51562ZM4.02563 13.3506H6.26562V13.8506H4.02563V13.3506ZM3.77563 15.8406V13.6006H4.27563V15.8406H3.77563Z" fill="#0D0D0D"/>
</g>
</g>
<defs>
<clipPath id="clip0_809_28533">
<rect width="16" height="16" fill="white" transform="translate(0.5)"/>
</clipPath>
</defs>
</svg>
