<svg width="33" height="32" viewBox="0 0 33 32" fill="none" xmlns="http://www.w3.org/2000/svg">
<g id="celebrate">
<g id="Group 1707479764">
<g id="Group 1707479765">
<g id="Union">
<path d="M8.69617 9.11133H12.8962V10.3113H8.69617V9.11133Z" fill="#0D0D0D"/>
<path d="M8.69617 10.3113L7.49615 10.3113V11.5113H8.69615L8.69617 10.3113Z" fill="#0D0D0D"/>
<path d="M7.49615 11.5113L6.29614 11.5114V14.7114H7.49614L7.49615 11.5113Z" fill="#0D0D0D"/>
<path d="M15.0962 11.5114H16.2962V12.7114H15.0962V11.5114Z" fill="#0D0D0D"/>
<path d="M17.4962 12.7113L16.2962 12.7114L16.2962 13.9113H17.4962V12.7113Z" fill="#0D0D0D"/>
<path d="M17.4962 13.9113L18.6962 13.9113V15.1113H17.4962L17.4962 13.9113Z" fill="#0D0D0D"/>
<path d="M19.8962 15.1114L18.6962 15.1113L18.6962 16.3114H19.8962V15.1114Z" fill="#0D0D0D"/>
<path d="M19.8962 16.3114L21.0962 16.3114V17.5114H19.8962L19.8962 16.3114Z" fill="#0D0D0D"/>
<path d="M20.4962 22.5114H19.2962V23.7114H20.4962V22.5114Z" fill="#0D0D0D"/>
<path d="M16.2962 23.7114L19.2962 23.7114L19.2962 24.9114H16.2962V23.7114Z" fill="#0D0D0D"/>
<path d="M16.2962 24.9114L12.8935 24.9114V26.1114H16.2962L16.2962 24.9114Z" fill="#0D0D0D"/>
<path d="M9.49347 26.1114H12.8962V27.3114H9.49347V26.1114Z" fill="#0D0D0D"/>
<path d="M9.49347 27.3114L6.09076 27.3114V28.0922H2.69611V29.2922H6.0988V28.5114H9.49346L9.49347 27.3114Z" fill="#0D0D0D"/>
<path d="M21.6962 17.5114H20.4962L20.4962 22.5114H21.6962V17.5114Z" fill="#0D0D0D"/>
<path d="M15.0962 10.3113L12.8962 10.3113L12.8962 11.5113L15.0962 11.5114L15.0962 10.3113Z" fill="#0D0D0D"/>
<path d="M5.09613 14.7114L6.29614 14.7114L6.29613 17.9114H5.09613V14.7114Z" fill="#0D0D0D"/>
<path d="M5.09613 17.9114L3.89612 17.9114V21.1114H5.09612L5.09613 17.9114Z" fill="#0D0D0D"/>
<path d="M2.69611 21.1114L3.89612 21.1114L3.89611 24.3114H2.69611V21.1114Z" fill="#0D0D0D"/>
<path d="M2.69611 24.3114L1.49609 24.3114V28.3114H2.69609L2.69611 24.3114Z" fill="#0D0D0D"/>
</g>
<path id="Vector" d="M8.69531 10.3086V11.5086H7.49531V14.7086H6.29531V17.9086H5.09531V21.1086H3.89531V24.3086H2.69531V28.0886H6.08531V27.3086H9.49531V26.1086H12.8953V24.9086H16.2953V23.7086H19.2953V22.5086H20.4953V17.5086H19.8953V16.3086H18.6953V15.1086H17.4953V13.9086H16.2953V12.7086H15.0953V11.5086H12.8953V10.3086H8.69531Z" fill="#00FC6E"/>
<path id="Union_2" fill-rule="evenodd" clip-rule="evenodd" d="M12.943 10.3086H8.69531V11.5117H7.49219V14.7148H7.38086V16.9802H8.48828V19.1833H9.59766V20.3161H10.7051V21.4489H11.834V22.5202H13.1465V23.6521V23.706H19.2993V22.5198H20.5352V17.4883H19.9042V16.3164H18.7185V15.1133H17.5056V13.9102H16.3826V12.7148H15.1401V11.5117H12.943V10.3086ZM19.2988 17.5195H18.1544V16.3164H16.9688V15.1133H15.7559V13.918H14.6328V12.7148H12.8945V11.5117H8.71637V14.7148H9.5975V16.918H10.7049V18.0508H11.8143V19.1836H12.9217V20.2549H14.0506V21.3867H15.3631V22.5195H19.2988V17.5195ZM5.0957 17.9084H6.31989V20.2549H7.38043V21.3867H8.48785V22.5186H9.66559V23.6514H10.8297V24.9199H12.8949V26.1203H8.54492V25.9167V24.9199V24.7839H7.38086V23.6521H6.20312V22.5202H5.0957V22.5198V20.2549V17.9084ZM2.69531 24.3094H5.18301V25.7822H6.09424V28.1002H5.18301H2.69531V25.7822V24.3094Z" fill="#FFEF5C"/>
<g id="Union_3">
<path fill-rule="evenodd" clip-rule="evenodd" d="M8.69531 9.11133H12.8953V10.3113H8.69531V9.11133ZM8.69615 10.3113H7.49615V11.5113H8.69615V10.3113ZM7.49687 11.5117H6.29688V14.7117H7.49687V11.5117ZM15.0957 11.5117H16.2957V12.7117H15.0957V11.5117ZM17.4969 12.7109H16.2969V13.9109H17.4969V12.7109ZM17.4962 13.9113H18.6962V15.1113H19.8953V16.3113H18.6953V15.1113H17.4962V13.9113ZM19.8965 16.3115H21.0965V17.5115H19.8965V16.3115ZM20.4969 23.7117V22.5117H21.6961V17.5117H20.4961V22.5117H19.2969V23.7109H16.2969V24.9109H19.2969V23.7117H20.4969ZM16.2953 24.9111H12.8926V26.1111H16.2953V24.9111ZM9.49414 26.1113H12.8968V27.3113H9.49414V26.1113ZM9.49254 27.3115H6.08984V28.0918H2.69609V24.3114H1.49609V28.3114H2.69531V29.2918H6.09801V28.5115H9.49254V27.3115ZM15.0965 10.3115H12.8965V11.5115H15.0965V10.3115ZM5.0957 14.7109H6.2957V17.9109H5.0957V14.7109ZM5.09648 17.9111H3.89648V21.1111H5.09648V17.9111ZM2.69531 21.1113H3.89531V24.3113H2.69531V21.1113Z" fill="#0D0D0D"/>
<path d="M12.8953 9.11133H12.9953V9.01133H12.8953V9.11133ZM8.69531 9.11133V9.01133H8.59531V9.11133H8.69531ZM12.8953 10.3113V10.4113H12.9953V10.3113H12.8953ZM8.69531 10.3113H8.59531V10.4113H8.69531V10.3113ZM7.49615 10.3113V10.2113H7.39615V10.3113H7.49615ZM8.69615 10.3113H8.79615V10.2113H8.69615V10.3113ZM7.49615 11.5113H7.39615V11.6113H7.49615V11.5113ZM8.69615 11.5113V11.6113H8.79615V11.5113H8.69615ZM6.29688 11.5117V11.4117H6.19688V11.5117H6.29688ZM7.49687 11.5117H7.59687V11.4117H7.49687V11.5117ZM6.29688 14.7117H6.19688V14.8117H6.29688V14.7117ZM7.49687 14.7117V14.8117H7.59687V14.7117H7.49687ZM16.2957 11.5117H16.3957V11.4117H16.2957V11.5117ZM15.0957 11.5117V11.4117H14.9957V11.5117H15.0957ZM16.2957 12.7117V12.8117H16.3957V12.7117H16.2957ZM15.0957 12.7117H14.9957V12.8117H15.0957V12.7117ZM16.2969 12.7109V12.6109H16.1969V12.7109H16.2969ZM17.4969 12.7109H17.5969V12.6109H17.4969V12.7109ZM16.2969 13.9109H16.1969V14.0109H16.2969V13.9109ZM17.4969 13.9109V14.0109H17.5969V13.9109H17.4969ZM18.6962 13.9113H18.7962V13.8113H18.6962V13.9113ZM17.4962 13.9113V13.8113H17.3962V13.9113H17.4962ZM18.6962 15.1113H18.5962V15.2113H18.6962V15.1113ZM19.8953 15.1113H19.9953V15.0113H19.8953V15.1113ZM19.8953 16.3113V16.4113H19.9953V16.3113H19.8953ZM18.6953 16.3113H18.5953V16.4113H18.6953V16.3113ZM18.6953 15.1113H18.7953V15.0113H18.6953V15.1113ZM17.4962 15.1113H17.3962V15.2113H17.4962V15.1113ZM21.0965 16.3115H21.1965V16.2115H21.0965V16.3115ZM19.8965 16.3115V16.2115H19.7965V16.3115H19.8965ZM21.0965 17.5115V17.6115H21.1965V17.5115H21.0965ZM19.8965 17.5115H19.7965V17.6115H19.8965V17.5115ZM20.4969 22.5117V22.4117H20.3969V22.5117H20.4969ZM20.4969 23.7117V23.8117H20.5969V23.7117H20.4969ZM21.6961 22.5117V22.6117H21.7961V22.5117H21.6961ZM21.6961 17.5117H21.7961V17.4117H21.6961V17.5117ZM20.4961 17.5117V17.4117H20.3961V17.5117H20.4961ZM20.4961 22.5117V22.6117H20.5961V22.5117H20.4961ZM19.2969 22.5117V22.4117H19.1969V22.5117H19.2969ZM19.2969 23.7109V23.8109H19.3969V23.7109H19.2969ZM16.2969 23.7109V23.6109H16.1969V23.7109H16.2969ZM16.2969 24.9109H16.1969V25.0109H16.2969V24.9109ZM19.2969 24.9109V25.0109H19.3969V24.9109H19.2969ZM19.2969 23.7117V23.6117H19.1969V23.7117H19.2969ZM12.8926 24.9111V24.8111H12.7926V24.9111H12.8926ZM16.2953 24.9111H16.3953V24.8111H16.2953V24.9111ZM12.8926 26.1111H12.7926V26.2111H12.8926V26.1111ZM16.2953 26.1111V26.2111H16.3953V26.1111H16.2953ZM12.8968 26.1113H12.9968V26.0113H12.8968V26.1113ZM9.49414 26.1113V26.0113H9.39414V26.1113H9.49414ZM12.8968 27.3113V27.4113H12.9968V27.3113H12.8968ZM9.49414 27.3113H9.39414V27.4113H9.49414V27.3113ZM6.08984 27.3115V27.2115H5.98984V27.3115H6.08984ZM9.49254 27.3115H9.59254V27.2115H9.49254V27.3115ZM6.08984 28.0918V28.1918H6.18984V28.0918H6.08984ZM2.69609 28.0918H2.59609V28.1918H2.69609V28.0918ZM2.69609 24.3114H2.79609V24.2114H2.69609V24.3114ZM1.49609 24.3114V24.2114H1.39609V24.3114H1.49609ZM1.49609 28.3114H1.39609V28.4114H1.49609V28.3114ZM2.69531 28.3114H2.79531V28.2114H2.69531V28.3114ZM2.69531 29.2918H2.59531V29.3918H2.69531V29.2918ZM6.09801 29.2918V29.3918H6.19801V29.2918H6.09801ZM6.09801 28.5115V28.4115H5.99801V28.5115H6.09801ZM9.49254 28.5115V28.6115H9.59254V28.5115H9.49254ZM12.8965 10.3115V10.2115H12.7965V10.3115H12.8965ZM15.0965 10.3115H15.1965V10.2115H15.0965V10.3115ZM12.8965 11.5115H12.7965V11.6115H12.8965V11.5115ZM15.0965 11.5115V11.6115H15.1965V11.5115H15.0965ZM6.2957 14.7109H6.3957V14.6109H6.2957V14.7109ZM5.0957 14.7109V14.6109H4.9957V14.7109H5.0957ZM6.2957 17.9109V18.0109H6.3957V17.9109H6.2957ZM5.0957 17.9109H4.9957V18.0109H5.0957V17.9109ZM3.89648 17.9111V17.8111H3.79648V17.9111H3.89648ZM5.09648 17.9111H5.19648V17.8111H5.09648V17.9111ZM3.89648 21.1111H3.79648V21.2111H3.89648V21.1111ZM5.09648 21.1111V21.2111H5.19648V21.1111H5.09648ZM3.89531 21.1113H3.99531V21.0113H3.89531V21.1113ZM2.69531 21.1113V21.0113H2.59531V21.1113H2.69531ZM3.89531 24.3113V24.4113H3.99531V24.3113H3.89531ZM2.69531 24.3113H2.59531V24.4113H2.69531V24.3113ZM12.8953 9.01133H8.69531V9.21133H12.8953V9.01133ZM12.9953 10.3113V9.11133H12.7953V10.3113H12.9953ZM8.69531 10.4113H12.8953V10.2113H8.69531V10.4113ZM8.59531 9.11133V10.3113H8.79531V9.11133H8.59531ZM7.49615 10.4113H8.69615V10.2113H7.49615V10.4113ZM7.59615 11.5113V10.3113H7.39615V11.5113H7.59615ZM8.69615 11.4113H7.49615V11.6113H8.69615V11.4113ZM8.59615 10.3113V11.5113H8.79615V10.3113H8.59615ZM6.29688 11.6117H7.49687V11.4117H6.29688V11.6117ZM6.39687 14.7117V11.5117H6.19688V14.7117H6.39687ZM7.49687 14.6117H6.29688V14.8117H7.49687V14.6117ZM7.39687 11.5117V14.7117H7.59687V11.5117H7.39687ZM16.2957 11.4117H15.0957V11.6117H16.2957V11.4117ZM16.3957 12.7117V11.5117H16.1957V12.7117H16.3957ZM15.0957 12.8117H16.2957V12.6117H15.0957V12.8117ZM14.9957 11.5117V12.7117H15.1957V11.5117H14.9957ZM16.2969 12.8109H17.4969V12.6109H16.2969V12.8109ZM16.3969 13.9109V12.7109H16.1969V13.9109H16.3969ZM17.4969 13.8109H16.2969V14.0109H17.4969V13.8109ZM17.3969 12.7109V13.9109H17.5969V12.7109H17.3969ZM18.6962 13.8113H17.4962V14.0113H18.6962V13.8113ZM18.7962 15.1113V13.9113H18.5962V15.1113H18.7962ZM19.8953 15.0113H18.6962V15.2113H19.8953V15.0113ZM19.9953 16.3113V15.1113H19.7953V16.3113H19.9953ZM18.6953 16.4113H19.8953V16.2113H18.6953V16.4113ZM18.5953 15.1113V16.3113H18.7953V15.1113H18.5953ZM17.4962 15.2113H18.6953V15.0113H17.4962V15.2113ZM17.3962 13.9113V15.1113H17.5962V13.9113H17.3962ZM21.0965 16.2115H19.8965V16.4115H21.0965V16.2115ZM21.1965 17.5115V16.3115H20.9965V17.5115H21.1965ZM19.8965 17.6115H21.0965V17.4115H19.8965V17.6115ZM19.7965 16.3115V17.5115H19.9965V16.3115H19.7965ZM20.3969 22.5117V23.7117H20.5969V22.5117H20.3969ZM21.6961 22.4117H20.4969V22.6117H21.6961V22.4117ZM21.5961 17.5117V22.5117H21.7961V17.5117H21.5961ZM20.4961 17.6117H21.6961V17.4117H20.4961V17.6117ZM20.5961 22.5117V17.5117H20.3961V22.5117H20.5961ZM19.2969 22.6117H20.4961V22.4117H19.2969V22.6117ZM19.3969 23.7109V22.5117H19.1969V23.7109H19.3969ZM16.2969 23.8109H19.2969V23.6109H16.2969V23.8109ZM16.3969 24.9109V23.7109H16.1969V24.9109H16.3969ZM19.2969 24.8109H16.2969V25.0109H19.2969V24.8109ZM19.1969 23.7117V24.9109H19.3969V23.7117H19.1969ZM20.4969 23.6117H19.2969V23.8117H20.4969V23.6117ZM12.8926 25.0111H16.2953V24.8111H12.8926V25.0111ZM12.9926 26.1111V24.9111H12.7926V26.1111H12.9926ZM16.2953 26.0111H12.8926V26.2111H16.2953V26.0111ZM16.1953 24.9111V26.1111H16.3953V24.9111H16.1953ZM12.8968 26.0113H9.49414V26.2113H12.8968V26.0113ZM12.9968 27.3113V26.1113H12.7968V27.3113H12.9968ZM9.49414 27.4113H12.8968V27.2113H9.49414V27.4113ZM9.39414 26.1113V27.3113H9.59414V26.1113H9.39414ZM6.08984 27.4115H9.49254V27.2115H6.08984V27.4115ZM6.18984 28.0918V27.3115H5.98984V28.0918H6.18984ZM2.69609 28.1918H6.08984V27.9918H2.69609V28.1918ZM2.59609 24.3114V28.0918H2.79609V24.3114H2.59609ZM1.49609 24.4114H2.69609V24.2114H1.49609V24.4114ZM1.59609 28.3114V24.3114H1.39609V28.3114H1.59609ZM2.69531 28.2114H1.49609V28.4114H2.69531V28.2114ZM2.79531 29.2918V28.3114H2.59531V29.2918H2.79531ZM6.09801 29.1918H2.69531V29.3918H6.09801V29.1918ZM5.99801 28.5115V29.2918H6.19801V28.5115H5.99801ZM9.49254 28.4115H6.09801V28.6115H9.49254V28.4115ZM9.39254 27.3115V28.5115H9.59254V27.3115H9.39254ZM12.8965 10.4115H15.0965V10.2115H12.8965V10.4115ZM12.9965 11.5115V10.3115H12.7965V11.5115H12.9965ZM15.0965 11.4115H12.8965V11.6115H15.0965V11.4115ZM14.9965 10.3115V11.5115H15.1965V10.3115H14.9965ZM6.2957 14.6109H5.0957V14.8109H6.2957V14.6109ZM6.3957 17.9109V14.7109H6.1957V17.9109H6.3957ZM5.0957 18.0109H6.2957V17.8109H5.0957V18.0109ZM4.9957 14.7109V17.9109H5.1957V14.7109H4.9957ZM3.89648 18.0111H5.09648V17.8111H3.89648V18.0111ZM3.99648 21.1111V17.9111H3.79648V21.1111H3.99648ZM5.09648 21.0111H3.89648V21.2111H5.09648V21.0111ZM4.99648 17.9111V21.1111H5.19648V17.9111H4.99648ZM3.89531 21.0113H2.69531V21.2113H3.89531V21.0113ZM3.99531 24.3113V21.1113H3.79531V24.3113H3.99531ZM2.69531 24.4113H3.89531V24.2113H2.69531V24.4113ZM2.59531 21.1113V24.3113H2.79531V21.1113H2.59531Z" fill="#0D0D0D"/>
</g>
</g>
<g id="Group 1707479766">
<path id="Union_4" fill-rule="evenodd" clip-rule="evenodd" d="M11.9676 3.01172H10.7676V4.21172H11.9676V3.01172ZM9.56836 4.21173H10.7684V5.41173H9.56836V4.21173ZM11.9676 5.41211H10.7676V6.61133H9.56836V7.81133H10.7684V6.61211H11.9676V5.41211ZM11.9676 7.81152H10.7676V9.01152H11.9676V7.81152ZM9.56836 9.01175H10.7684V10.2117H9.56836V9.01175ZM10.7676 10.2119H11.9676V11.4119H10.7676V10.2119ZM9.56836 11.4121H10.7684V12.6113H11.9676V13.8113H10.7684V14.9111H9.56836V13.7111H10.7676V12.6121H9.56836V11.4121ZM11.9676 14.9111H10.7676V16.1111H11.9676V14.9111Z" fill="#557AFF"/>
<path id="Union_5" fill-rule="evenodd" clip-rule="evenodd" d="M15.6395 0.321289H14.4395V1.52129H15.6395V0.321289ZM14.4402 1.5213H13.2402V2.7213H14.4402V1.5213ZM14.4395 2.72168H15.6395V3.92168H14.4402V5.1209H13.2402V3.9209H14.4395V2.72168ZM14.4395 5.12109H15.6395V6.32109H14.4395V5.12109ZM14.4402 6.32135H13.2402V7.52135H14.4402V6.32135Z" fill="#FF8DDF"/>
<path id="Union_6" fill-rule="evenodd" clip-rule="evenodd" d="M26.1316 1.2002H24.9316V2.4002H26.1316V1.2002ZM23.7313 4.80039H24.9305V2.40039H23.7305V4.7998H22.5312V5.9998H23.7313V4.80039ZM20.1309 8.40027H21.3309V9.60027H20.1309V8.40027ZM21.3301 6H22.5301V8.4H21.3301V6Z" fill="#FFC700"/>
<rect id="Rectangle 176594" x="25.7148" y="5.85156" width="1.2" height="1.2" fill="#66E700"/>
<path id="Union_7" fill-rule="evenodd" clip-rule="evenodd" d="M19.1316 4.00586H17.9316V7.00586H19.1316V4.00586ZM16.7305 7.00586H17.9305V10.0059H16.7313V13.0059H15.5312V10.0059H16.7305V7.00586ZM14.3301 13.0059H15.5301V16.0059H14.3309V19.0059H13.1309V16.0059H14.3301V13.0059Z" fill="#FF68A8"/>
<path id="Union_8" fill-rule="evenodd" clip-rule="evenodd" d="M24.3301 13.8711H25.5301V15.0711H24.3309V16.2684H23.1309V15.0684H24.3301V13.8711ZM21.9297 16.2686H23.1297V17.4686H21.9297V16.2686ZM18.9297 18.6687H17.7305V19.8687H18.9305V18.6687H21.9297V17.4688H18.9297V18.6687ZM17.7305 19.8691H14.7305V21.0691H17.7305V19.8691Z" fill="#FF50CE"/>
<path id="Union_9" fill-rule="evenodd" clip-rule="evenodd" d="M30.3316 14.5088H27.9316V15.7088H30.3316V14.5088ZM27.9305 15.709H26.7305V16.909H27.9305V15.709ZM24.3309 18.1076H23.1309V19.3076H24.3309V18.1076ZM24.3301 16.9072H26.7301V18.1072H24.3301V16.9072Z" fill="#557AFF"/>
<rect id="Rectangle 176589" x="19.5059" y="12.6709" width="2.4" height="2.4" fill="#66E700"/>
<rect id="Rectangle 176596" x="18.3047" width="2.4" height="2.4" fill="#FF50CE"/>
<rect id="Rectangle 176595" x="28.3047" y="1.2002" width="2.4" height="2.4" fill="#FF8DDF"/>
<path id="Union_10" fill-rule="evenodd" clip-rule="evenodd" d="M29.9141 7.05176H31.1141V8.25176H29.9141V7.05176ZM22.7148 11.8516H23.9148V13.0516H22.7148V11.8516ZM27.5145 9.45215H26.3145V10.6521H27.5145V9.45215ZM23.9141 10.6514H26.3141V11.8514H23.9141V10.6514ZM29.9156 8.25195H27.5156V9.45195H29.9156V8.25195Z" fill="#20D7FF"/>
<rect id="Rectangle 176590" x="28.3047" y="11.4707" width="1.2" height="1.2" fill="#FFC700"/>
<path id="Union_11" fill-rule="evenodd" clip-rule="evenodd" d="M23.1043 20.1211H21.9043V21.3211H23.1043V20.1211ZM25.5047 20.1211H24.3047V21.3211H25.5047V20.1211ZM26.7051 20.1211H27.9051V21.3211H26.7051V20.1211ZM30.3035 20.1211H29.1035V21.3211H30.3035V20.1211ZM23.1035 21.3213H24.3035V22.5213H23.1035V21.3213ZM26.7039 21.3213H25.5039V22.5213H26.7039V21.3213ZM27.9044 21.3211H29.1044V22.5211H27.9044V21.3211ZM31.5047 21.3213H30.3047V22.5213H31.5047V21.3213Z" fill="#66E700"/>
</g>
</g>
</g>
</svg>
