<svg width="40" height="40" viewBox="0 0 40 40" fill="none" xmlns="http://www.w3.org/2000/svg">
<g id="Group 1707479929">
<circle id="Ellipse 1195" cx="20" cy="20" r="19" fill="#00FC6E" stroke="#0D0D0D" stroke-width="2"/>
<g id="Union">
<path fill-rule="evenodd" clip-rule="evenodd" d="M26 14H28V16H26V14ZM24 18V16H26V18H24ZM22 20V18H24V20H22ZM20 22H22V20H20V22ZM18 24H20V22H18V24ZM16 24V26H18V24H16ZM14 22H16V24H14V22ZM14 22H12V20H14V22Z" fill="#0D0D0D"/>
<path d="M28 14H28.3V13.7H28V14ZM26 14V13.7H25.7V14H26ZM28 16V16.3H28.3V16H28ZM24 16V15.7H23.7V16H24ZM26 18V18.3H26.3V18H26ZM22 18V17.7H21.7V18H22ZM24 20V20.3H24.3V20H24ZM22 22V22.3H22.3V22H22ZM20 20V19.7H19.7V20H20ZM20 24V24.3H20.3V24H20ZM18 22V21.7H17.7V22H18ZM16 26H15.7V26.3H16V26ZM18 26V26.3H18.3V26H18ZM16 22H16.3V21.7H16V22ZM14 24H13.7V24.3H14V24ZM12 22H11.7V22.3H12V22ZM12 20V19.7H11.7V20H12ZM14 20H14.3V19.7H14V20ZM28 13.7H26V14.3H28V13.7ZM28.3 16V14H27.7V16H28.3ZM26 16.3H28V15.7H26V16.3ZM25.7 14V16H26.3V14H25.7ZM23.7 16V18H24.3V16H23.7ZM26 15.7H24V16.3H26V15.7ZM26.3 18V16H25.7V18H26.3ZM24 18.3H26V17.7H24V18.3ZM21.7 18V20H22.3V18H21.7ZM24 17.7H22V18.3H24V17.7ZM24.3 20V18H23.7V20H24.3ZM22 20.3H24V19.7H22V20.3ZM20 22.3H22V21.7H20V22.3ZM22.3 22V20H21.7V22H22.3ZM22 19.7H20V20.3H22V19.7ZM19.7 20V22H20.3V20H19.7ZM18 24.3H20V23.7H18V24.3ZM20.3 24V22H19.7V24H20.3ZM20 21.7H18V22.3H20V21.7ZM17.7 22V24H18.3V22H17.7ZM16.3 26V24H15.7V26H16.3ZM18 25.7H16V26.3H18V25.7ZM17.7 24V26H18.3V24H17.7ZM16 24.3H18V23.7H16V24.3ZM14 22.3H16V21.7H14V22.3ZM15.7 22V24H16.3V22H15.7ZM16 23.7H14V24.3H16V23.7ZM14.3 24V22H13.7V24H14.3ZM14 21.7H12V22.3H14V21.7ZM12.3 22V20H11.7V22H12.3ZM12 20.3H14V19.7H12V20.3ZM13.7 20V22H14.3V20H13.7Z" fill="#0D0D0D"/>
</g>
</g>
</svg>
