<svg width="38" height="38" viewBox="0 0 38 38" fill="none" xmlns="http://www.w3.org/2000/svg">
<circle cx="20" cy="19.5" r="17" fill="#0D0D0D" stroke="#0D0D0D" stroke-width="2"/>
<circle cx="18" cy="18.5" r="17" fill="white" stroke="#0D0D0D" stroke-width="2"/>
<g clip-path="url(#clip0_631_1911)">
<path d="M11 14.3H13.8V11.5H11V14.3Z" fill="black"/>
<path d="M13.8 17.1H16.6V14.3H13.8V17.1Z" fill="black"/>
<path d="M19.4 22.7H22.2V19.9H19.4V22.7Z" fill="black"/>
<path d="M22.2 25.5H25V22.7H22.2V25.5Z" fill="black"/>
<path d="M11 25.5H13.8V22.7H11V25.5Z" fill="black"/>
<path d="M13.8 22.7H16.6V19.9H13.8V22.7Z" fill="black"/>
<path d="M16.6 19.9H19.4V17.1H16.6V19.9Z" fill="black"/>
<path d="M19.4 17.1H22.2V14.3H19.4V17.1Z" fill="black"/>
<path d="M22.2 14.3H25V11.5H22.2V14.3Z" fill="black"/>
</g>
<defs>
<clipPath id="clip0_631_1911">
<rect width="14" height="14" fill="white" transform="translate(11 11.5)"/>
</clipPath>
</defs>
</svg>
