<svg width="37" height="37" viewBox="0 0 37 37" fill="none" xmlns="http://www.w3.org/2000/svg">
<circle cx="18.9609" cy="18.0693" r="17" fill="#0D0D0D" stroke="#0D0D0D" stroke-width="2"/>
<circle cx="18.5" cy="18" r="17" fill="white" stroke="#0D0D0D" stroke-width="2"/>
<g clip-path="url(#clip0_644_35874)">
<path d="M11.5 13.8H14.3V11H11.5V13.8Z" fill="black"/>
<path d="M14.3 16.6H17.1V13.8H14.3V16.6Z" fill="black"/>
<path d="M19.9 22.2H22.7V19.4H19.9V22.2Z" fill="black"/>
<path d="M22.7 25H25.5V22.2H22.7V25Z" fill="black"/>
<path d="M11.5 25H14.3V22.2H11.5V25Z" fill="black"/>
<path d="M14.3 22.2H17.1V19.4H14.3V22.2Z" fill="black"/>
<path d="M17.1 19.4H19.9V16.6H17.1V19.4Z" fill="black"/>
<path d="M19.9 16.6H22.7V13.8H19.9V16.6Z" fill="black"/>
<path d="M22.7 13.8H25.5V11H22.7V13.8Z" fill="black"/>
</g>
<defs>
<clipPath id="clip0_644_35874">
<rect width="14" height="14" fill="white" transform="translate(11.5 11)"/>
</clipPath>
</defs>
</svg>
