<svg width="32" height="33" viewBox="0 0 32 33" fill="none" xmlns="http://www.w3.org/2000/svg">
<g id="cloud-upload">
<path id="Union" fill-rule="evenodd" clip-rule="evenodd" d="M13.1839 5.62598H21.1839V7.99635H23.5543V10.3667H25.9246V12.7371H28.295V15.1075H30.6654V25.0038H28.295V27.3741H19.1098V24.1149H27.4061V15.9963H22.6654V11.2556H20.295V8.88524H14.0728V11.2556H11.7024V13.626H6.96166V15.9963H4.59129V24.1149H12.8876V27.3741H3.7024V25.0038H1.33203V15.1075H3.7024V12.7371H6.07277V10.3667H10.8135V7.99635H13.1839V5.62598ZM14.8137 11.9964H17.184V14.3667H19.5544V16.7371H21.9248V19.1075H17.184V26.9297H14.8137V19.1075H10.0729V16.7371H12.4433V14.3667H14.8137V11.9964Z" fill="#656765"/>
</g>
</svg>
