<svg width="17" height="17" viewBox="0 0 17 17" fill="none" xmlns="http://www.w3.org/2000/svg">
<g id="Group">
<path id="Vector" d="M5.9987 7.16699H4.33203V8.83366H5.9987V7.16699Z" fill="black"/>
<path id="Vector_2" d="M9.33268 7.16699H7.66602V8.83366H9.33268V7.16699Z" fill="black"/>
<path id="Vector_3" d="M12.6667 7.16699H11V8.83366H12.6667V7.16699Z" fill="black"/>
<path id="Vector_4" d="M5.9987 10.5H4.33203V12.1667H5.9987V10.5Z" fill="black"/>
<path id="Vector_5" d="M9.33268 10.5H7.66602V12.1667H9.33268V10.5Z" fill="black"/>
<path id="Vector_6" d="M12.6667 10.5H11V12.1667H12.6667V10.5Z" fill="black"/>
<path id="Vector_7" d="M15.9993 2.16667V1.33333H12.666V0.5H10.9993V1.33333H5.99935V0.5H4.33268V1.33333H0.999349V2.16667H0.166016V15.5H0.999349V16.3333H15.9993V15.5H16.8327V2.16667H15.9993ZM15.166 13.8333H14.3327V14.6667H2.66602V13.8333H1.83268V3.83333H2.66602V3H4.33268V4.66667H5.99935V3H10.9993V4.66667H12.666V3.83333V3H14.3327V3.83333H15.166V13.8333Z" fill="black"/>
</g>
</svg>
