<svg width="25" height="25" viewBox="0 0 25 25" fill="none" xmlns="http://www.w3.org/2000/svg">
<g id="business-prodect-diamond-25">
<g id="Group">
<path id="Vector 25" d="M7.52541 8.48201L7.52539 4.0586H16.1562L16.1562 9.55345H8.52897V8.48201H7.52541Z" fill="#00FC6E"/>
<path id="Vector 26" d="M19.059 5.16211H17.9746L17.9746 9.50705H22.2049V8.29867H21.1685V7.25731H20.1124V6.22046H19.059L19.059 5.16211Z" fill="#00FC6E"/>
<path id="Vector 27" d="M15.9215 12.499V10.3877H11.6348V18.7941H12.9144V16.7218H13.9061V14.696H14.9298V12.499H15.9215Z" fill="#00FC6E"/>
<path id="Vector" d="M22.1981 9.36191H18.0112V5.16816H19.0562V4.12316H18.0112V3.07129H6.48875V4.12316H5.43688V5.16816H4.39188V6.21316H3.34687V7.26504H2.295V8.31004H1.25V11.4519H2.295V10.4069H7.53375V12.5038H8.57875V14.5938H9.63062V16.6907H10.6756V18.7875H11.7275V10.4069H15.9144V12.5038H14.8694V14.5938H13.8175V16.6907H12.7725V18.7875H11.7275V19.8325H10.6756V20.8844H11.7275V21.9294H12.7725V20.8844H13.8175V19.8325H14.8694V18.7875H15.9144V17.7425H16.9663V16.6907H18.0112V15.6457H19.0562V14.5938H20.1081V13.5488H21.1531V12.5038H22.1981V11.4519H23.25V8.31004H22.1981V9.36191ZM15.9144 9.36191H8.57875V8.31004H7.53375V4.12316H11.7275V5.16816H12.7725V6.21316H13.8175V7.26504H14.8694V8.31004H15.9144V9.36191Z" fill="#0D0D0D"/>
<path id="Vector_2" d="M22.1973 7.26465H21.1523V8.30965H22.1973V7.26465Z" fill="#0D0D0D"/>
<path id="Vector_3" d="M21.1524 6.21289H20.1074V7.26477H21.1524V6.21289Z" fill="#0D0D0D"/>
<path id="Vector_4" d="M20.1085 5.16797H19.0566V6.21297H20.1085V5.16797Z" fill="#0D0D0D"/>
<path id="Vector_5" d="M11.7277 5.16797H10.6758V6.21297H11.7277V5.16797Z" fill="#0D0D0D"/>
<path id="Vector_6" d="M10.6759 18.7881H9.63086V19.8331H10.6759V18.7881Z" fill="#0D0D0D"/>
<path id="Vector_7" d="M10.6759 6.21289H9.63086V7.26477H10.6759V6.21289Z" fill="#0D0D0D"/>
<path id="Vector_8" d="M9.63 17.7422H8.57812V18.7872H9.63V17.7422Z" fill="#0D0D0D"/>
<path id="Vector_9" d="M9.63 7.26465H8.57812V8.30965H9.63V7.26465Z" fill="#0D0D0D"/>
<path id="Vector_10" d="M8.5782 16.6904H7.5332V17.7423H8.5782V16.6904Z" fill="#0D0D0D"/>
<path id="Vector_11" d="M7.53328 15.6455H6.48828V16.6905H7.53328V15.6455Z" fill="#0D0D0D"/>
<path id="Vector_12" d="M6.48937 14.5938H5.4375V15.6456H6.48937V14.5938Z" fill="#0D0D0D"/>
<path id="Vector_13" d="M5.43758 13.5488H4.39258V14.5938H5.43758V13.5488Z" fill="#0D0D0D"/>
<path id="Vector_14" d="M4.39266 12.5039H3.34766V13.5489H4.39266V12.5039Z" fill="#0D0D0D"/>
<path id="Vector_15" d="M3.3468 11.4521H2.29492V12.504H3.3468V11.4521Z" fill="#0D0D0D"/>
</g>
</g>
</svg>
