<svg width="24" height="24" viewBox="0 0 24 24" fill="none" xmlns="http://www.w3.org/2000/svg">
<g id="ic_successful">
<g id="Group 1707479989">
<path id="Union" fill-rule="evenodd" clip-rule="evenodd" d="M17.5 3.75V6.5H20.25V17.5H17.5V20.25H6.5V17.5H3.75V6.5H6.5V3.75H17.5Z" fill="#FF5757"/>
<path id="Union_2" fill-rule="evenodd" clip-rule="evenodd" d="M17.5 1H6.5V3.75H3.75V6.5H1V17.5H3.75V20.25H6.5V23H17.5V20.25H20.25V17.5H23V6.5H20.25V3.75H17.5V1ZM17.5 3.75V6.5H20.25V17.5H17.5V20.25H6.5V17.5H3.75V6.5H6.5V3.75H17.5Z" fill="#0D0D0D"/>
<path id="Union_3" fill-rule="evenodd" clip-rule="evenodd" d="M7 7H10.3333V10.3333H7V7ZM13.6667 10.3333H10.3333V13.6667H7V17H10.3333V13.6667H13.6667V17H17V13.6667H13.6667V10.3333ZM13.6667 10.3333L13.6667 7H17V10.3333H13.6667Z" fill="#0D0D0D"/>
</g>
</g>
</svg>
