<svg width="20" height="21" viewBox="0 0 20 21" fill="none" xmlns="http://www.w3.org/2000/svg">
<g id="file_music">
<path id="Union" fill-rule="evenodd" clip-rule="evenodd" d="M10.8331 18.8332H15.8331H17.4998V17.1665L17.4998 7.16651H15.8331L15.8331 5.49984H14.1664L14.1664 3.83317L12.4998 3.83317V2.16651L10.8331 2.1665H4.16642L2.49976 2.16651V3.83317V10.4998H4.16642V3.83317H10.8331V7.1665V8.83317H12.4998H15.8331L15.8331 17.1665H10.8331V18.8332ZM14.1664 5.49984L12.4998 5.49984V7.16651H14.1664V5.49984ZM4.57075 10.6708H10.4596V17.9034H6.4226V13.8664H9.20038V12.3479H5.83001V17.9034H1.79297V13.8664H4.57075V10.6708ZM3.05223 15.1257V16.6442H4.57075V15.1257H3.05223ZM7.68186 15.1257V16.6442H9.20038V15.1257H7.68186Z" fill="#0D0D0D"/>
</g>
</svg>
