<svg width="13" height="13" viewBox="0 0 13 13" fill="none" xmlns="http://www.w3.org/2000/svg">
<path d="M5.5 5.00112C5.5881 4.75068 5.76199 4.5395 5.99087 4.40499C6.21975 4.27047 6.48885 4.2213 6.75051 4.26618C7.01217 4.31107 7.2495 4.4471 7.42047 4.6502C7.59144 4.8533 7.68502 5.11036 7.68462 5.37584C7.68462 6.12528 6.56046 6.5 6.56046 6.5V6.94668M6.57495 8.25H6.57995M11.5 6.5C11.5 9.26142 9.26142 11.5 6.5 11.5C3.73858 11.5 1.5 9.26142 1.5 6.5C1.5 3.73858 3.73858 1.5 6.5 1.5C9.26142 1.5 11.5 3.73858 11.5 6.5Z" stroke="#404140" stroke-linecap="round"/>
</svg>
