<svg width="16" height="16" viewBox="0 0 16 16" fill="none" xmlns="http://www.w3.org/2000/svg">
<g id="Check circle 001">
<path id="Icon" d="M10.6222 6.41939C10.854 6.07611 10.7636 5.60991 10.4204 5.37811C10.0771 5.14631 9.61089 5.23668 9.37909 5.57996L10.6222 6.41939ZM7.29962 9.99967L6.72922 10.4867C6.88134 10.6648 7.10797 10.7617 7.34187 10.7485C7.57578 10.7353 7.79008 10.6135 7.92118 10.4194L7.29962 9.99967ZM6.57105 7.99122C6.3021 7.6762 5.82869 7.63885 5.51367 7.90781C5.19865 8.17676 5.1613 8.65016 5.43026 8.96518L6.57105 7.99122ZM9.37909 5.57996L6.67806 9.57996L7.92118 10.4194L10.6222 6.41939L9.37909 5.57996ZM7.87001 9.5127L6.57105 7.99122L5.43026 8.96518L6.72922 10.4867L7.87001 9.5127ZM13.9173 7.99967C13.9173 11.2674 11.2683 13.9163 8.00065 13.9163V15.4163C12.0968 15.4163 15.4173 12.0958 15.4173 7.99967H13.9173ZM8.00065 13.9163C4.73297 13.9163 2.08398 11.2674 2.08398 7.99967H0.583984C0.583984 12.0958 3.90454 15.4163 8.00065 15.4163V13.9163ZM2.08398 7.99967C2.08398 4.73199 4.73297 2.08301 8.00065 2.08301V0.583008C3.90454 0.583008 0.583984 3.90356 0.583984 7.99967H2.08398ZM8.00065 2.08301C11.2683 2.08301 13.9173 4.73199 13.9173 7.99967H15.4173C15.4173 3.90356 12.0968 0.583008 8.00065 0.583008V2.08301Z" fill="#004D22"/>
</g>
</svg>
