<svg width="20" height="20" viewBox="0 0 20 20" fill="none" xmlns="http://www.w3.org/2000/svg">
<g id="Search">
<g id="Vector">
<path fill-rule="evenodd" clip-rule="evenodd" d="M4.9974 1.66406V3.33073H3.33073V4.9974H1.66406V11.6641H3.33073V13.3307H4.9974V14.9974H11.6641V13.3307H13.3307V14.9974H14.9974V16.6641H16.6641V18.3307H18.3307V16.6641H16.6641V14.9974H14.9974V13.3307H13.3307V11.6641H14.9974V4.9974H13.3307V3.33073H11.6641V1.66406H4.9974ZM11.6641 3.33073V4.9974H13.3307V11.6641H11.6641V13.3307H4.9974V11.6641H3.33073V4.9974H4.9974V3.33073H11.6641Z" fill="black"/>
<path d="M4.9974 3.33073V1.66406H11.6641V3.33073M4.9974 3.33073H3.33073V4.9974M4.9974 3.33073V4.9974H3.33073M4.9974 3.33073H11.6641M3.33073 4.9974H1.66406V11.6641H3.33073M3.33073 4.9974V11.6641M3.33073 11.6641V13.3307H4.9974M3.33073 11.6641H4.9974V13.3307M4.9974 13.3307V14.9974H11.6641V13.3307M4.9974 13.3307H11.6641M11.6641 13.3307H13.3307M11.6641 13.3307V11.6641H13.3307M13.3307 13.3307V14.9974H14.9974M13.3307 13.3307H14.9974V14.9974M13.3307 13.3307V11.6641M14.9974 14.9974V16.6641H16.6641M14.9974 14.9974H16.6641V16.6641M16.6641 16.6641V18.3307H18.3307V16.6641H16.6641ZM13.3307 11.6641H14.9974V4.9974H13.3307M13.3307 11.6641V4.9974M13.3307 4.9974V3.33073H11.6641M13.3307 4.9974H11.6641V3.33073" stroke="black" stroke-width="0.2"/>
</g>
</g>
</svg>
