<svg width="24" height="24" viewBox="0 0 24 24" fill="none" xmlns="http://www.w3.org/2000/svg">
<g id="ic_successful">
<g id="Group 1707479989">
<path id="Union" fill-rule="evenodd" clip-rule="evenodd" d="M17.5 3.75V6.5H20.25V17.5H17.5V20.25H6.5V17.5H3.75V6.5H6.5V3.75H17.5Z" fill="#00FC6E"/>
<path id="Union_2" fill-rule="evenodd" clip-rule="evenodd" d="M17.5 1H6.5V3.75H3.75V6.5H1V17.5H3.75V20.25H6.5V23H17.5V20.25H20.25V17.5H23V6.5H20.25V3.75H17.5V1ZM17.5 3.75V6.5H20.25V17.5H17.5V20.25H6.5V17.5H3.75V6.5H6.5V3.75H17.5Z" fill="black"/>
<path id="Union_3" fill-rule="evenodd" clip-rule="evenodd" d="M18 8H15V11H12V14H9V11H6V14H9V17H12V14H15V11H18V8Z" fill="black"/>
</g>
</g>
</svg>
