<svg width="20" height="21" viewBox="0 0 20 21" fill="none" xmlns="http://www.w3.org/2000/svg">
<g id="ic_twitter">
<g id="Group 40">
<path id="Vector 4" d="M3.25 5.01562H2.125V8.10938H3.25V9.23438H5.5V10.3594H3.25V11.4844H4.375V12.6094H5.5V13.7344H4.375V14.8594H2.125V15.9844H3.25V17.1094H10V15.9844H12.25V14.8594H14.5V13.7344H15.625V12.6094H16.75V6.14062H14.2188V5.01562H11.125V6.14062H10V7.26562H5.5V6.14062H3.25C3.1375 6.14062 3.20312 5.39062 3.25 5.01562Z" fill="#62F6FF"/>
<path id="Union" d="M16.75 6.14062H15.9062V7.26562H15.3438V9.23438H14.2188V11.4844H13.0938V12.6094H11.9688V13.7344H9.71875V14.8594H7.46875V15.9844H3.25V17.1094H10V15.9844H12.25V14.8594H14.5V13.7344H15.625V12.6094H16.75V6.14062Z" fill="#18B0F1"/>
<g id="Union_2">
<path d="M2.125 5.01562H3.25V6.14062H5.78125V7.26562H10V8.39062H5.5V7.26562H2.96875V6.14062H2.125V5.01562Z" fill="#CFFCFF"/>
<path d="M11.125 6.14062H10V7.26562H11.125V6.14062Z" fill="#CFFCFF"/>
<path d="M11.125 6.14062V5.01562H12.25V6.14062H11.125Z" fill="#CFFCFF"/>
</g>
<g id="Vector">
<path d="M16.75 2.76562H17.875V3.89062H16.75V2.76562Z" fill="#0D0D0D"/>
<path fill-rule="evenodd" clip-rule="evenodd" d="M16.75 6.14062V3.89062H15.3438V5.01562H14.2188V3.89062H11.125V5.01562H10V6.14062H5.5V5.01562H3.25V3.89062H2.125V5.01562H1V8.10938H2.125V9.23438H3.25V10.3594H2.125V11.4844H3.25V12.6094H4.375V13.7344H1V15.9844H2.125V17.1094H3.25V18.2344H10V17.1094H12.25V15.9844H14.5V14.8594H15.625V13.7344H16.75V12.6094H17.875V6.14062H19V5.01562H17.875V6.14062H16.75ZM16.75 6.14062V12.6094H15.625V13.7344H14.5V14.8594H12.25V15.9844H10V17.1094H3.25V15.9844H2.125V14.8594H4.375V13.7344H5.5V12.6094H4.375V11.4844H3.25V10.3594H5.5V9.23438H3.25V8.10938H2.125V5.01562H3.25V6.14062H5.5V7.26562H10V6.14062H11.125V5.01562H14.2188V6.14062H16.75Z" fill="#0D0D0D"/>
<path d="M16.75 3.89062H17.875V2.76562H16.75V3.89062ZM16.75 3.89062H15.3438V5.01562H14.2188M16.75 3.89062V6.14062M16.75 6.14062H17.875M16.75 6.14062V12.6094M16.75 6.14062H14.2188V5.01562M14.2188 5.01562V3.89062H11.125V5.01562M14.2188 5.01562H11.125M11.125 5.01562H10V6.14062M11.125 5.01562V6.14062H10M10 6.14062H5.5M10 6.14062V7.26562H5.5V6.14062M5.5 6.14062V5.01562H3.25M5.5 6.14062H3.25V5.01562M3.25 5.01562V3.89062H2.125V5.01562M3.25 5.01562H2.125M2.125 5.01562H1V8.10938H2.125M2.125 5.01562V8.10938M2.125 8.10938V9.23438H3.25M2.125 8.10938H3.25V9.23438M3.25 9.23438V10.3594M3.25 9.23438H5.5V10.3594H3.25M3.25 10.3594H2.125V11.4844H3.25M3.25 10.3594V11.4844M3.25 11.4844V12.6094H4.375M3.25 11.4844H4.375V12.6094M4.375 12.6094V13.7344M4.375 12.6094H5.5V13.7344H4.375M4.375 13.7344H1V15.9844H2.125M4.375 13.7344V14.8594H2.125V15.9844M2.125 15.9844V17.1094H3.25M2.125 15.9844H3.25V17.1094M3.25 17.1094V18.2344H10V17.1094M3.25 17.1094H10M10 17.1094H12.25V15.9844M10 17.1094V15.9844H12.25M12.25 15.9844H14.5V14.8594M12.25 15.9844V14.8594H14.5M14.5 14.8594H15.625V13.7344M14.5 14.8594V13.7344H15.625M15.625 13.7344H16.75V12.6094M15.625 13.7344V12.6094H16.75M16.75 12.6094H17.875V6.14062M17.875 6.14062H19V5.01562H17.875V6.14062Z" stroke="#0D0D0D" stroke-width="0.2"/>
</g>
<path id="Vector_2" d="M11.9688 6.14062H13.4688V7.64062H11.9688V6.14062Z" fill="#0D0D0D"/>
</g>
</g>
</svg>
