<svg width="17" height="16" viewBox="0 0 17 16" fill="none" xmlns="http://www.w3.org/2000/svg">
<g id="ic_warning">
<g id="Group 1707479837">
<path id="Vector" fill-rule="evenodd" clip-rule="evenodd" d="M7.36242 1.86621V3.22693H5.99374V4.59835H4.62507V5.95907H3.24562V7.31978H1.87695V8.6805H3.24562V10.0519H4.62507V11.4126H5.99374V12.7734H7.36242V14.1341H8.73109V12.7734H10.1105V11.4126H11.4792V10.0519H12.8479V8.6805H14.2166V7.31978H12.8479V5.95907H11.4792V4.59835H10.1105V3.22693H8.73109V1.86621H7.36242Z" fill="#FFB72B"/>
<g id="Vector_2">
<path d="M8.68182 4.59091H7.31818V8.68182H8.68182V4.59091Z" fill="#0D0D0D"/>
<path d="M8.68182 10.0455H7.31818V11.4091H8.68182V10.0455Z" fill="#0D0D0D"/>
<path fill-rule="evenodd" clip-rule="evenodd" d="M8.68182 0.5H7.31818V1.86364H5.95455V3.22727H4.59091V4.59091H3.22727V5.95455H1.86364V7.31818H0.5V8.68182H1.86364V10.0455H3.22727V11.4091H4.59091V12.7727H5.95455V14.1364H7.31818V15.5H8.68182V14.1364H10.0455V12.7727H11.4091V11.4091H12.7727V10.0455H14.1364V8.68182H15.5V7.31818H14.1364V5.95455H12.7727V4.59091H11.4091V3.22727H10.0455V1.86364H8.68182V0.5ZM8.68182 1.86364V3.22727H10.0455V4.59091H11.4091V5.95455H12.7727V7.31818H14.1364V8.68182H12.7727V10.0455H11.4091V11.4091H10.0455V12.7727H8.68182V14.1364H7.31818V12.7727H5.95455V11.4091H4.59091V10.0455H3.22727V8.68182H1.86364V7.31818H3.22727V5.95455H4.59091V4.59091H5.95455V3.22727H7.31818V1.86364H8.68182Z" fill="#0D0D0D"/>
<path d="M7.31818 1.86364V0.5H8.68182V1.86364M7.31818 1.86364H5.95455V3.22727M7.31818 1.86364V3.22727H5.95455M7.31818 1.86364H8.68182M5.95455 3.22727H4.59091V4.59091M5.95455 3.22727V4.59091H4.59091M4.59091 4.59091H3.22727V5.95455M4.59091 4.59091V5.95455H3.22727M3.22727 5.95455H1.86364V7.31818M3.22727 5.95455V7.31818H1.86364M1.86364 7.31818H0.5V8.68182H1.86364M1.86364 7.31818V8.68182M1.86364 8.68182V10.0455H3.22727M1.86364 8.68182H3.22727V10.0455M3.22727 10.0455V11.4091H4.59091M3.22727 10.0455H4.59091V11.4091M4.59091 11.4091V12.7727H5.95455M4.59091 11.4091H5.95455V12.7727M5.95455 12.7727V14.1364H7.31818M5.95455 12.7727H7.31818V14.1364M7.31818 14.1364V15.5H8.68182V14.1364M7.31818 14.1364H8.68182M8.68182 14.1364H10.0455V12.7727M8.68182 14.1364V12.7727H10.0455M10.0455 12.7727H11.4091V11.4091M10.0455 12.7727V11.4091H11.4091M11.4091 11.4091H12.7727V10.0455M11.4091 11.4091V10.0455H12.7727M12.7727 10.0455H14.1364V8.68182M12.7727 10.0455V8.68182H14.1364M14.1364 8.68182H15.5V7.31818H14.1364M14.1364 8.68182V7.31818M14.1364 7.31818V5.95455H12.7727M14.1364 7.31818H12.7727V5.95455M12.7727 5.95455V4.59091H11.4091M12.7727 5.95455H11.4091V4.59091M11.4091 4.59091V3.22727H10.0455M11.4091 4.59091H10.0455V3.22727M10.0455 3.22727V1.86364H8.68182M10.0455 3.22727H8.68182V1.86364M7.31818 4.59091H8.68182V8.68182H7.31818V4.59091ZM7.31818 10.0455H8.68182V11.4091H7.31818V10.0455Z" stroke="#0D0D0D" stroke-width="0.2"/>
</g>
</g>
</g>
</svg>
