<svg width="24" height="24" viewBox="0 0 24 24" fill="none" xmlns="http://www.w3.org/2000/svg">
<g id="travel-wayfinding-balloon-39">
<g id="Union">
<path d="M9.16171 6.75802H10.3V2.21972H13.7V6.75802H14.8308V12.7048H15.9691V6.75786L14.8308 6.75802L14.8309 2.21972H15.9692V1.08887H8.03086V2.21937H5.76174V3.35767H8.03088L8.03086 2.21937L9.16171 2.21972V6.75802L8.03086 6.75786V12.7048H9.16171V6.75802Z" fill="#0D0D0D"/>
<path d="M15.9692 2.21972L18.2383 2.21937V3.35763H19.3691V5.61933H18.2383L18.2383 3.35763L15.9692 3.35767L15.9692 2.21972Z" fill="#0D0D0D"/>
<path d="M19.3691 5.61933L20.5 5.61961V11.5739H19.3691L19.3691 5.61933Z" fill="#0D0D0D"/>
<path d="M18.2383 11.5744L19.3691 11.5739L19.3691 13.8435H18.2383V14.974H17.1V13.8431L18.2383 13.8435L18.2383 11.5744Z" fill="#0D0D0D"/>
<path d="M17.1 14.974L15.9692 14.9736V16.1119H17.1L17.1 14.974Z" fill="#0D0D0D"/>
<path fill-rule="evenodd" clip-rule="evenodd" d="M13.7 12.7049L14.8308 12.7048L14.8309 16.1123L15.9692 16.1119L15.9692 17.2432H14.8309V19.5123H16.9611V21.7815H15.8228V22.9123H8.16974V21.7815H7.03888V19.5123H9.16171V17.2432H8.03086V16.1123H9.16171V12.7048L10.3 12.7049V16.1123H13.7V12.7049ZM10.3 19.5123H13.7V17.2432H10.3V19.5123Z" fill="#0D0D0D"/>
<path d="M8.03084 14.9736H6.90003V13.8431H5.76174V14.974L6.90003 14.9736L6.89999 16.1119L8.03086 16.1123L8.03084 14.9736Z" fill="#0D0D0D"/>
<path d="M4.63087 11.5744H5.76172L5.76174 13.8431L4.63087 13.8435V11.5744Z" fill="#0D0D0D"/>
<path d="M5.76174 3.35767L4.63087 3.35763V5.61933H5.76172L5.76174 3.35767Z" fill="#0D0D0D"/>
<path d="M3.5 5.61961L4.63087 5.61933V11.5744L3.5 11.5739V5.61961Z" fill="#0D0D0D"/>
<path d="M9.16171 6.75802H10.3V2.21972H13.7V6.75802H14.8308M9.16171 6.75802V2.21972L8.03086 2.21937M9.16171 6.75802L8.03086 6.75786V12.7048H9.16171M9.16171 6.75802V12.7048M14.8308 6.75802V12.7048M14.8308 6.75802L15.9691 6.75786V12.7048H14.8308M14.8308 6.75802L14.8309 2.21972H15.9692M14.8308 12.7048L13.7 12.7049V16.1123H10.3V12.7049L9.16171 12.7048M14.8308 12.7048L14.8309 16.1123L15.9692 16.1119M15.9692 2.21972V1.08887H8.03086V2.21937M15.9692 2.21972L18.2383 2.21937V3.35763M15.9692 2.21972L15.9692 3.35767L18.2383 3.35763M8.03086 2.21937H5.76174V3.35767M8.03086 2.21937L8.03088 3.35767H5.76174M5.76174 3.35767L4.63087 3.35763V5.61933M5.76174 3.35767L5.76172 5.61933H4.63087M9.16171 12.7048V16.1123H8.03086M18.2383 3.35763H19.3691V5.61933M18.2383 3.35763L18.2383 5.61933H19.3691M19.3691 5.61933L20.5 5.61961V11.5739H19.3691M19.3691 5.61933L19.3691 11.5739M19.3691 11.5739L18.2383 11.5744L18.2383 13.8435M19.3691 11.5739L19.3691 13.8435H18.2383M18.2383 13.8435V14.974H17.1M18.2383 13.8435L17.1 13.8431V14.974M17.1 14.974L15.9692 14.9736V16.1119M17.1 14.974L17.1 16.1119H15.9692M15.9692 16.1119L15.9692 17.2432H14.8309V19.5123H16.9611V21.7815H15.8228V22.9123H8.16974V21.7815H7.03888V19.5123H9.16171V17.2432H8.03086V16.1123M8.03086 16.1123L6.89999 16.1119L6.90003 14.9736M8.03086 16.1123L8.03084 14.9736H6.90003M6.90003 14.9736V13.8431H5.76174M6.90003 14.9736L5.76174 14.974V13.8431M5.76174 13.8431L5.76172 11.5744H4.63087M5.76174 13.8431L4.63087 13.8435V11.5744M4.63087 11.5744V5.61933M4.63087 11.5744L3.5 11.5739V5.61961L4.63087 5.61933M13.7 19.5123H10.3V17.2432H13.7V19.5123Z" stroke="#0D0D0D" stroke-width="0.8"/>
</g>
</g>
</svg>
