<svg width="20" height="20" viewBox="0 0 20 20" fill="none" xmlns="http://www.w3.org/2000/svg">
<g id="arrow_down">
<g id="Group 1707479767">
<path id="Union" fill-rule="evenodd" clip-rule="evenodd" d="M2.99922 7.19946L2.99922 4.39946L0.199218 4.39946L0.199218 7.19946L2.99922 7.19946ZM5.79927 9.99951L5.79927 7.19951L2.99927 7.19951L2.99927 9.99951L5.79927 9.99951ZM8.59932 9.99956L8.59932 12.7996L5.79932 12.7996L5.79932 9.99956L8.59932 9.99956ZM11.3994 15.5996L11.3994 12.7705L8.59937 12.7705L8.59937 15.5996L11.3994 15.5996ZM14.1994 9.99956L14.1994 12.7996L11.3994 12.7996L11.3994 9.99956L14.1994 9.99956ZM16.9995 9.99951L16.9995 7.19951L14.1995 7.19951L14.1995 9.99951L16.9995 9.99951ZM19.7995 4.39946L19.7995 7.19946L16.9995 7.19946L16.9995 4.39946L19.7995 4.39946Z" fill="black"/>
</g>
</g>
</svg>
