<svg width="239" height="16" viewBox="0 0 239 16" fill="none" xmlns="http://www.w3.org/2000/svg">
<rect y="6" width="1.5" height="4" rx="0.75" fill="#949694"/>
<rect x="3" y="6" width="1.5" height="4" rx="0.75" fill="#949694"/>
<rect x="6" y="6" width="1.5" height="4" rx="0.75" fill="#949694"/>
<rect x="9" y="6" width="1.5" height="4" rx="0.75" fill="#949694"/>
<rect x="12" y="6" width="1.5" height="4" rx="0.75" fill="#949694"/>
<rect x="15" y="6" width="1.5" height="4" rx="0.75" fill="#949694"/>
<rect x="18" y="6" width="1.5" height="4" rx="0.75" fill="#949694"/>
<rect x="21" y="6" width="1.5" height="4" rx="0.75" fill="#949694"/>
<rect x="24" y="6" width="1.5" height="4" rx="0.75" fill="#949694"/>
<rect x="27" y="6" width="1.5" height="4" rx="0.75" fill="#949694"/>
<rect x="30" y="6" width="1.5" height="4" rx="0.75" fill="#949694"/>
<rect x="33" y="6" width="1.5" height="4" rx="0.75" fill="#949694"/>
<rect x="36" y="6" width="1.5" height="4" rx="0.75" fill="#949694"/>
<rect x="39" y="6" width="1.5" height="4" rx="0.75" fill="#949694"/>
<rect x="42" y="6" width="1.5" height="4" rx="0.75" fill="#949694"/>
<rect x="45" y="6" width="1.5" height="4" rx="0.75" fill="#949694"/>
<rect x="48" y="6" width="1.5" height="4" rx="0.75" fill="#949694"/>
<rect x="51" y="6" width="1.5" height="4" rx="0.75" fill="#949694"/>
<rect x="54" y="4" width="1.5" height="8" rx="0.75" fill="#949694"/>
<rect x="57" y="1" width="1.5" height="14" rx="0.75" fill="#949694"/>
<rect x="60" y="6" width="1.5" height="4" rx="0.75" fill="#949694"/>
<rect x="63" y="6" width="1.5" height="4" rx="0.75" fill="#949694"/>
<rect x="66" y="6" width="1.5" height="4" rx="0.75" fill="#949694"/>
<rect x="69" y="6" width="1.5" height="4" rx="0.75" fill="#949694"/>
<rect x="72" y="6" width="1.5" height="4" rx="0.75" fill="#949694"/>
<rect x="75" y="6" width="1.5" height="4" rx="0.75" fill="#949694"/>
<rect x="78" y="6" width="1.5" height="4" rx="0.75" fill="#949694"/>
<rect x="81" y="6" width="1.5" height="4" rx="0.75" fill="#949694"/>
<rect x="84" y="6" width="1.5" height="4" rx="0.75" fill="#949694"/>
<rect x="87" y="6" width="1.5" height="4" rx="0.75" fill="#949694"/>
<rect x="90" y="2" width="1.5" height="12" rx="0.75" fill="#949694"/>
<rect x="93" y="6" width="1.5" height="4" rx="0.75" fill="#949694"/>
<rect x="96" y="6" width="1.5" height="4" rx="0.75" fill="#949694"/>
<rect x="99" y="6" width="1.5" height="4" rx="0.75" fill="#949694"/>
<rect x="102" y="6" width="1.5" height="4" rx="0.75" fill="#949694"/>
<rect x="105" y="6" width="1.5" height="4" rx="0.75" fill="#949694"/>
<rect x="108" y="6" width="1.5" height="4" rx="0.75" fill="#949694"/>
<rect x="111" y="6" width="1.5" height="4" rx="0.75" fill="#949694"/>
<rect x="114" y="6" width="1.5" height="4" rx="0.75" fill="#949694"/>
<rect x="117" y="6" width="1.5" height="4" rx="0.75" fill="#949694"/>
<rect x="120" y="6" width="1.5" height="4" rx="0.75" fill="#949694"/>
<rect x="123" y="6" width="1.5" height="4" rx="0.75" fill="#949694"/>
<rect x="126" y="6" width="1.5" height="4" rx="0.75" fill="#949694"/>
<rect x="129" y="6" width="1.5" height="4" rx="0.75" fill="#949694"/>
<rect x="132" y="6" width="1.5" height="4" rx="0.75" fill="#949694"/>
<rect x="135" y="6" width="1.5" height="4" rx="0.75" fill="#949694"/>
<rect x="138" y="6" width="1.5" height="4" rx="0.75" fill="#949694"/>
<rect x="141" y="6" width="1.5" height="4" rx="0.75" fill="#949694"/>
<rect x="144" y="6" width="1.5" height="4" rx="0.75" fill="#949694"/>
<rect x="147" y="6" width="1.5" height="4" rx="0.75" fill="#949694"/>
<rect x="150" y="6" width="1.5" height="4" rx="0.75" fill="#949694"/>
<rect x="153" y="3.5" width="1.5" height="9" rx="0.75" fill="#949694"/>
<rect x="156" width="1.5" height="16" rx="0.75" fill="#949694"/>
<rect x="159" y="3" width="1.5" height="10" rx="0.75" fill="#949694"/>
<rect x="162" y="6" width="1.5" height="4" rx="0.75" fill="#949694"/>
<rect x="165" y="6" width="1.5" height="4" rx="0.75" fill="#949694"/>
<rect x="168" y="6" width="1.5" height="4" rx="0.75" fill="#949694"/>
<rect x="171" y="6" width="1.5" height="4" rx="0.75" fill="#949694"/>
<rect x="174" y="6" width="1.5" height="4" rx="0.75" fill="#949694"/>
<rect x="177" y="6" width="1.5" height="4" rx="0.75" fill="#949694"/>
<rect x="180" y="6" width="1.5" height="4" rx="0.75" fill="#949694"/>
<rect x="183" y="6" width="1.5" height="4" rx="0.75" fill="#949694"/>
<rect x="186" y="6" width="1.5" height="4" rx="0.75" fill="#949694"/>
<rect x="189" y="6" width="1.5" height="4" rx="0.75" fill="#949694"/>
<rect x="192" y="6" width="1.5" height="4" rx="0.75" fill="#949694"/>
<rect x="195" y="6" width="1.5" height="4" rx="0.75" fill="#949694"/>
<rect x="198" y="6" width="1.5" height="4" rx="0.75" fill="#949694"/>
<rect x="201" y="5" width="1.5" height="6" rx="0.75" fill="#949694"/>
<rect x="204" y="6" width="1.5" height="4" rx="0.75" fill="#949694"/>
<rect x="207" y="6" width="1.5" height="4" rx="0.75" fill="#949694"/>
<rect x="210" y="6" width="1.5" height="4" rx="0.75" fill="#949694"/>
<rect x="213" y="4" width="1.5" height="8" rx="0.75" fill="#949694"/>
<rect x="216" y="6" width="1.5" height="4" rx="0.75" fill="#949694"/>
<rect x="219" y="6" width="1.5" height="4" rx="0.75" fill="#949694"/>
<rect x="222" y="6" width="1.5" height="4" rx="0.75" fill="#949694"/>
<rect x="225" y="6" width="1.5" height="4" rx="0.75" fill="#949694"/>
<rect x="228" y="6" width="1.5" height="4" rx="0.75" fill="#949694"/>
<rect x="231" y="6" width="1.5" height="4" rx="0.75" fill="#949694"/>
<rect x="234" y="2" width="1.5" height="12" rx="0.75" fill="#949694"/>
<rect x="237" y="6" width="1.5" height="4" rx="0.75" fill="#949694"/>
</svg>
