<svg width="14" height="10" viewBox="0 0 14 10" fill="none" xmlns="http://www.w3.org/2000/svg">
<rect width="14" height="10" fill="#1E1E1E"/>
<g id="&#229;&#174;&#154;&#231;&#168;&#191;">
<path d="M-395.5 -687C-395.5 -688.105 -394.605 -689 -393.5 -689H2784C2785.1 -689 2786 -688.105 2786 -687V677C2786 678.105 2785.1 679 2784 679H-393.5C-394.605 679 -395.5 678.105 -395.5 677V-687Z" fill="#404040"/>
<path d="M-393.5 -688H2784V-690H-393.5V-688ZM2785 -687V677H2787V-687H2785ZM2784 678H-393.5V680H2784V678ZM-394.5 677V-687H-396.5V677H-394.5ZM-393.5 678C-394.052 678 -394.5 677.552 -394.5 677H-396.5C-396.5 678.657 -395.157 680 -393.5 680V678ZM2785 677C2785 677.552 2784.55 678 2784 678V680C2785.66 680 2787 678.657 2787 677H2785ZM2784 -688C2784.55 -688 2785 -687.552 2785 -687H2787C2787 -688.657 2785.66 -690 2784 -690V-688ZM-393.5 -690C-395.157 -690 -396.5 -688.657 -396.5 -687H-394.5C-394.5 -687.552 -394.052 -688 -393.5 -688V-690Z" fill="white" fill-opacity="0.1"/>
<g id="0-0-&#233;&#166;&#150;&#233;&#161;&#181;" clip-path="url(#clip0_287_351)">
<rect width="1440" height="900" transform="translate(-295.5 -321)" fill="#FAF4F0"/>
<g id="big_bg">
<path id="Rectangle 98" d="M-278.5 -289C-278.5 -297.284 -271.784 -304 -263.5 -304H-112.438C-105.504 -304 -98.94 -300.872 -94.5729 -295.485L-46.5793 -236.293C-43.3514 -232.312 -38.4997 -230 -33.3745 -230H1112.5C1120.78 -230 1127.5 -223.284 1127.5 -215V547C1127.5 555.284 1120.78 562 1112.5 562H-263.5C-271.784 562 -278.5 555.284 -278.5 547V-289Z" fill="url(#paint0_linear_287_351)" stroke="#0D0D0D" stroke-width="2"/>
</g>
<g id="content" clip-path="url(#clip1_287_351)">
<g id="Frame 38">
<g id="lists">
<g id="2">
<g id="bg">
<path id="Rectangle 93" d="M-31.5 -93C-31.5 -101.837 -24.3366 -109 -15.5 -109H307.5C316.337 -109 323.5 -101.837 323.5 -93V230C323.5 238.837 316.337 246 307.5 246H-15.5C-24.3366 246 -31.5 238.837 -31.5 230V-93Z" fill="#0D0D0D"/>
<path id="Rectangle 96" d="M-34.5 -97C-34.5 -105.284 -27.7843 -112 -19.5 -112H307.5C315.784 -112 322.5 -105.284 322.5 -97V230C322.5 238.284 315.784 245 307.5 245H-19.5C-27.7843 245 -34.5 238.284 -34.5 230V-97Z" fill="white" stroke="#0D0D0D" stroke-width="2"/>
</g>
<g id="info">
<g id="event">
<path id="Rectangle 109" d="M-18.75 -5C-18.75 -10.1086 -14.6086 -14.25 -9.5 -14.25H297.5C302.609 -14.25 306.75 -10.1086 306.75 -5V60C306.75 65.1086 302.609 69.25 297.5 69.25H-9.49999C-14.6086 69.25 -18.75 65.1086 -18.75 60V-5Z" fill="#D8FCD1" stroke="#0D0D0D" stroke-width="1.5"/>
<g id="Group 1707479714">
<g id="Frame 36">
<g id="live">
<rect x="-8" y="-3.5" width="55.5" height="17" rx="8.5" fill="#00FC6E"/>
<rect x="-8" y="-3.5" width="55.5" height="17" rx="8.5" stroke="#0D0D0D"/>
<g id="Frame 35">
<g id="Group 1707479713">
<path id="Union" fill-rule="evenodd" clip-rule="evenodd" d="M6.5 0.75C6.5 0.335786 6.83579 0 7.25 0C7.66421 0 8 0.335786 8 0.75V9.25C8 9.66421 7.66421 10 7.25 10C6.83579 10 6.5 9.66421 6.5 9.25V0.75ZM3.5 2.75C3.5 2.33579 3.83579 2 4.25 2C4.66421 2 5 2.33579 5 2.75V7.25C5 7.66421 4.66421 8 4.25 8C3.83579 8 3.5 7.66421 3.5 7.25V2.75ZM1.25 3C0.835786 3 0.5 3.33579 0.5 3.75V6.25C0.5 6.66421 0.835786 7 1.25 7C1.66421 7 2 6.66421 2 6.25V3.75C2 3.33579 1.66421 3 1.25 3ZM9.5 2.75C9.5 2.33579 9.83579 2 10.25 2C10.6642 2 11 2.33579 11 2.75V7.25C11 7.66421 10.6642 8 10.25 8C9.83579 8 9.5 7.66421 9.5 7.25V2.75ZM13.25 3C12.8358 3 12.5 3.33579 12.5 3.75V6.25C12.5 6.66421 12.8358 7 13.25 7C13.6642 7 14 6.66421 14 6.25V3.75C14 3.33579 13.6642 3 13.25 3Z" fill="#0D0D0D"/>
</g>
</g>
</g>
</g>
</g>
</g>
</g>
</g>
</g>
</g>
</g>
</g>
</g>
<defs>
<linearGradient id="paint0_linear_287_351" x1="424.5" y1="-305" x2="424.5" y2="563" gradientUnits="userSpaceOnUse">
<stop stop-color="#F0EBE8"/>
<stop offset="1" stop-color="#ECECEC"/>
</linearGradient>
<clipPath id="clip0_287_351">
<rect width="1440" height="900" fill="white" transform="translate(-295.5 -321)"/>
</clipPath>
<clipPath id="clip1_287_351">
<rect width="1125" height="790" fill="white" transform="translate(-35.5 -229)"/>
</clipPath>
</defs>
</svg>
