<svg width="33" height="32" viewBox="0 0 33 32" fill="none" xmlns="http://www.w3.org/2000/svg">
<path d="M18.002 25.961L18.0165 15.2274H21.0682L21.0536 13.7299H24.115V12.167H27.1465V10.6548H28.733V21.3588H27.2252V22.8838H24.148V24.4632H21.098V25.961H18.002Z" fill="#00FC6E"/>
<path d="M14.9752 4.57492V3.04492H18.0252V4.57492H19.5452V6.09492H18.0252V7.61492H14.9752V6.09492H13.4552V4.57492H14.9752Z" fill="#0D0D0D"/>
<path d="M25.6452 7.61491V9.14491H24.1152V10.6649H21.0752V9.14491H19.5452V7.61491H21.0752V6.09491H24.1152V7.61491H25.6452Z" fill="#0D0D0D"/>
<path d="M28.6852 9.1449H27.1652V10.6649H28.6852V9.1449Z" fill="#0D0D0D"/>
<path d="M28.6852 10.6649L30.2152 10.6649V21.3349H28.6852L28.6852 10.6649Z" fill="#0D0D0D"/>
<path d="M27.1652 21.3349L28.6852 21.3349L28.6852 22.8549H27.1652V21.3349Z" fill="#0D0D0D"/>
<path d="M24.1152 10.6649L27.1652 10.6649L27.1651 12.1849H24.1151L24.1152 10.6649Z" fill="#0D0D0D"/>
<path d="M27.1652 22.8549L24.1151 22.8549V24.3849H27.1651L27.1652 22.8549Z" fill="#0D0D0D"/>
<path d="M24.1151 12.1849L21.0752 12.1849V13.7149H24.1152L24.1151 12.1849Z" fill="#0D0D0D"/>
<path d="M21.0752 24.3849L24.1151 24.3849L24.1152 25.9049H21.0752V24.3849Z" fill="#0D0D0D"/>
<path d="M18.0251 28.9549V27.4249H21.0751L21.0752 25.9049L18.0251 25.9049V15.2349H14.9751V16.7649H16.4951V27.4249H14.9751V28.9549H18.0251Z" fill="#0D0D0D"/>
<path d="M18.0251 13.7149L21.0752 13.7149L21.0751 15.2349L18.0251 15.2349L18.0251 13.7149Z" fill="#0D0D0D"/>
<path d="M18.0252 12.1849H19.5452V10.6649H18.0252V9.1449H14.9752V10.6649H13.4552V12.1849H14.9752V13.7149L18.0251 13.7149L18.0252 12.1849Z" fill="#0D0D0D"/>
<path d="M14.9752 25.9049H11.9252V27.4249L14.9751 27.4249L14.9752 25.9049Z" fill="#0D0D0D"/>
<path d="M11.9252 13.7149L14.9752 13.7149L14.9751 15.2349L11.9252 15.2349V13.7149Z" fill="#0D0D0D"/>
<path d="M11.9251 24.3849H8.88513V25.9049L11.9252 25.9049L11.9251 24.3849Z" fill="#0D0D0D"/>
<path d="M13.4551 9.14491H11.9251V10.6649H8.8851V9.14491H7.3551V7.61491H8.8851V6.09491H11.9251V7.61491H13.4551V9.14491Z" fill="#0D0D0D"/>
<path d="M11.9251 12.1849H8.88513V13.7149L11.9252 13.7149L11.9251 12.1849Z" fill="#0D0D0D"/>
<path d="M5.83521 22.8549H8.88521L8.88513 24.3849L5.83521 24.3849V22.8549Z" fill="#0D0D0D"/>
<path d="M8.8851 10.6649L5.83521 10.6649V12.1849L8.88513 12.1849L8.8851 10.6649Z" fill="#0D0D0D"/>
<path d="M4.30518 21.3349H5.83518L5.83521 22.8549L4.30518 22.8549V21.3349Z" fill="#0D0D0D"/>
<path d="M5.83518 9.1449H4.30518V10.6649L5.83521 10.6649L5.83518 9.1449Z" fill="#0D0D0D"/>
<path d="M2.78516 10.6649L4.30518 10.6649V21.3349L2.78516 21.3349V10.6649Z" fill="#0D0D0D"/>
</svg>
