<svg width="13" height="12" viewBox="0 0 13 12" fill="none" xmlns="http://www.w3.org/2000/svg">
<g clip-path="url(#clip0_479_2936)">
<path fill-rule="evenodd" clip-rule="evenodd" d="M7.97251 1.24365H6.03158V1.88916H4.73639V2.53897H6.03176V1.88921L7.97251 1.88921V1.24365ZM7.97254 1.88916H9.2679V2.53897H7.97254V1.88916ZM9.26798 2.53903H9.91354V3.18459H9.26798V2.53903ZM9.91349 3.1846H10.559V4.47997H9.91349V3.1846ZM11.2089 4.47992H10.5591V7.71621H11.2089V4.47992ZM11.2089 7.71625H11.8545V8.36176H12.5V9.65713H11.8544V8.36181H11.2089V7.71625ZM11.8545 9.6572H11.2089V10.3028H11.8545V9.6572ZM9.91349 10.3028H11.2089V10.9526H9.91354V11.5981H4.09076V10.9526H2.79544V10.3028H4.09081V10.9525H9.91349V10.3028ZM10.559 9.00733H9.91349V9.65714H10.559V9.00733ZM5.38188 9.65713H6.03169V10.3027H7.97261V9.65713H8.61817V9.00732H9.91354V8.36176H4.09076V9.00732H5.38188V9.65713ZM4.73632 2.53903H4.09076V3.18459H4.73632V2.53903ZM4.09076 9.00733H3.44095V9.65714H4.09076V9.00733ZM3.44095 3.1846H4.09076V4.47997H3.441V7.71621H2.79544V4.47992H3.44095V3.1846ZM2.14551 9.6572H2.79532V10.3028H2.14551V9.6572ZM2.79532 7.71625H2.14551V8.36176H1.5V9.65713H2.14556V8.36181H2.79532V7.71625Z" fill="#0D0D0D"/>
<path d="M6.03158 1.24365V1.09365L5.88158 1.09365V1.24365H6.03158ZM7.97251 1.24365H8.12251V1.09365H7.97251V1.24365ZM6.03158 1.88916V2.03916H6.18158V1.88916H6.03158ZM4.73639 1.88916V1.73916H4.58639V1.88916H4.73639ZM4.73639 2.53897H4.58639V2.68897H4.73639V2.53897ZM6.03176 2.53897V2.68897H6.18176V2.53897H6.03176ZM6.03176 1.88921V1.73921H5.88176V1.88921H6.03176ZM7.97251 1.88921V2.03921H8.12251V1.88921H7.97251ZM9.2679 1.88916H9.4179V1.73916H9.2679V1.88916ZM7.97254 1.88916V1.73916H7.82254V1.88916H7.97254ZM9.2679 2.53897V2.68897H9.4179V2.53897H9.2679ZM7.97254 2.53897H7.82254V2.68897H7.97254V2.53897ZM9.91354 2.53903H10.0635V2.38903H9.91354V2.53903ZM9.26798 2.53903V2.38903H9.11798V2.53903H9.26798ZM9.91354 3.18459V3.33459H10.0635V3.18459H9.91354ZM9.26798 3.18459H9.11798V3.33459H9.26798V3.18459ZM10.559 3.1846H10.709V3.0346H10.559V3.1846ZM9.91349 3.1846V3.0346H9.76349V3.1846H9.91349ZM10.559 4.47997V4.62997H10.709V4.47997H10.559ZM9.91349 4.47997H9.76349V4.62997H9.91349V4.47997ZM10.5591 4.47992V4.32992H10.4091V4.47992H10.5591ZM11.2089 4.47992H11.3589V4.32992H11.2089V4.47992ZM10.5591 7.71621H10.4091V7.86621H10.5591V7.71621ZM11.2089 7.71621V7.86621H11.3589V7.71621H11.2089ZM11.8545 7.71625H12.0045V7.56625H11.8545V7.71625ZM11.2089 7.71625V7.56625H11.0589V7.71625H11.2089ZM11.8545 8.36176H11.7045V8.51176H11.8545V8.36176ZM12.5 8.36176H12.65V8.21176H12.5V8.36176ZM12.5 9.65713V9.80713H12.65V9.65713H12.5ZM11.8544 9.65713H11.7044V9.80713H11.8544V9.65713ZM11.8544 8.36181H12.0044V8.21181H11.8544V8.36181ZM11.2089 8.36181H11.0589V8.51181H11.2089V8.36181ZM11.2089 9.6572V9.5072H11.0589V9.6572H11.2089ZM11.8545 9.6572H12.0045V9.5072H11.8545V9.6572ZM11.2089 10.3028H11.0589V10.4528H11.2089V10.3028ZM11.8545 10.3028V10.4528H12.0045V10.3028H11.8545ZM11.2089 10.3028H11.3589V10.1528H11.2089V10.3028ZM9.91349 10.3028V10.1528H9.76349V10.3028H9.91349ZM11.2089 10.9526V11.1026H11.3589V10.9526H11.2089ZM9.91354 10.9526V10.8026H9.76354V10.9526H9.91354ZM9.91354 11.5981V11.7481H10.0635V11.5981H9.91354ZM4.09076 11.5981H3.94076V11.7481H4.09076V11.5981ZM4.09076 10.9526H4.24076V10.8026H4.09076V10.9526ZM2.79544 10.9526H2.64544V11.1026H2.79544V10.9526ZM2.79544 10.3028V10.1528H2.64544V10.3028H2.79544ZM4.09081 10.3028H4.24081V10.1528H4.09081V10.3028ZM4.09081 10.9525H3.94081V11.1025H4.09081V10.9525ZM9.91349 10.9525V11.1025H10.0635V10.9525H9.91349ZM9.91349 9.00733V8.85733H9.76349V9.00733H9.91349ZM10.559 9.00733H10.709V8.85733H10.559V9.00733ZM9.91349 9.65714H9.76349V9.80714H9.91349V9.65714ZM10.559 9.65714V9.80714H10.709V9.65714H10.559ZM6.03169 9.65713H6.18169V9.50713H6.03169V9.65713ZM5.38188 9.65713H5.23188V9.80713H5.38188V9.65713ZM6.03169 10.3027H5.88169V10.4527H6.03169V10.3027ZM7.97261 10.3027V10.4527H8.12261V10.3027H7.97261ZM7.97261 9.65713V9.50713H7.82261V9.65713H7.97261ZM8.61817 9.65713V9.80713H8.76817V9.65713H8.61817ZM8.61817 9.00732V8.85732H8.46817V9.00732H8.61817ZM9.91354 9.00732V9.15732H10.0635V9.00732H9.91354ZM9.91354 8.36176H10.0635V8.21176H9.91354V8.36176ZM4.09076 8.36176V8.21176H3.94076V8.36176H4.09076ZM4.09076 9.00732H3.94076V9.15732H4.09076V9.00732ZM5.38188 9.00732H5.53188V8.85732H5.38188V9.00732ZM4.09076 2.53903V2.38903H3.94076V2.53903H4.09076ZM4.73632 2.53903H4.88632V2.38903H4.73632V2.53903ZM4.09076 3.18459H3.94076V3.33459H4.09076V3.18459ZM4.73632 3.18459V3.33459H4.88632V3.18459H4.73632ZM3.44095 9.00733V8.85733H3.29095V9.00733H3.44095ZM4.09076 9.00733H4.24076V8.85733H4.09076V9.00733ZM3.44095 9.65714H3.29095V9.80714H3.44095V9.65714ZM4.09076 9.65714V9.80714H4.24076V9.65714H4.09076ZM4.09076 3.1846H4.24076V3.0346H4.09076V3.1846ZM3.44095 3.1846V3.0346H3.29095V3.1846H3.44095ZM4.09076 4.47997V4.62997H4.24076V4.47997H4.09076ZM3.441 4.47997V4.32997H3.291V4.47997H3.441ZM3.441 7.71621V7.86621H3.591V7.71621H3.441ZM2.79544 7.71621H2.64544V7.86621H2.79544V7.71621ZM2.79544 4.47992V4.32992H2.64544V4.47992H2.79544ZM3.44095 4.47992V4.62992H3.59095V4.47992H3.44095ZM2.79532 9.6572H2.94532V9.5072H2.79532V9.6572ZM2.14551 9.6572V9.5072H1.99551V9.6572H2.14551ZM2.79532 10.3028V10.4528H2.94532V10.3028H2.79532ZM2.14551 10.3028H1.99551V10.4528H2.14551V10.3028ZM2.14551 7.71625V7.56625H1.99551V7.71625H2.14551ZM2.79532 7.71625H2.94532V7.56625H2.79532V7.71625ZM2.14551 8.36176V8.51176H2.29551V8.36176H2.14551ZM1.5 8.36176V8.21176H1.35V8.36176H1.5ZM1.5 9.65713H1.35V9.80713H1.5V9.65713ZM2.14556 9.65713V9.80713H2.29556V9.65713H2.14556ZM2.14556 8.36181V8.21181H1.99556V8.36181H2.14556ZM2.79532 8.36181V8.51181H2.94532V8.36181H2.79532ZM6.03158 1.39365H7.97251V1.09365H6.03158V1.39365ZM6.18158 1.88916V1.24365H5.88158V1.88916H6.18158ZM4.73639 2.03916H6.03158V1.73916H4.73639V2.03916ZM4.88639 2.53897V1.88916H4.58639V2.53897H4.88639ZM6.03176 2.38897H4.73639V2.68897H6.03176V2.38897ZM5.88176 1.88921V2.53897H6.18176V1.88921H5.88176ZM7.97251 1.73921L6.03176 1.73921V2.03921H7.97251V1.73921ZM7.82251 1.24365V1.88921H8.12251V1.24365H7.82251ZM9.2679 1.73916H7.97254V2.03916H9.2679V1.73916ZM9.4179 2.53897V1.88916H9.1179V2.53897H9.4179ZM7.97254 2.68897H9.2679V2.38897H7.97254V2.68897ZM7.82254 1.88916V2.53897H8.12254V1.88916H7.82254ZM9.91354 2.38903H9.26798V2.68903H9.91354V2.38903ZM10.0635 3.18459V2.53903H9.76354V3.18459H10.0635ZM9.26798 3.33459L9.91354 3.33459V3.03459H9.26798V3.33459ZM9.11798 2.53903V3.18459H9.41798V2.53903H9.11798ZM10.559 3.0346H9.91349V3.3346H10.559V3.0346ZM10.709 4.47997V3.1846H10.409V4.47997H10.709ZM9.91349 4.62997H10.559V4.32997H9.91349V4.62997ZM9.76349 3.1846V4.47997H10.0635V3.1846H9.76349ZM10.5591 4.62992H11.2089V4.32992H10.5591V4.62992ZM10.7091 7.71621V4.47992H10.4091V7.71621H10.7091ZM11.2089 7.56621H10.5591V7.86621H11.2089V7.56621ZM11.0589 4.47992V7.71621H11.3589V4.47992H11.0589ZM11.8545 7.56625H11.2089V7.86625H11.8545V7.56625ZM12.0045 8.36176V7.71625H11.7045V8.36176H12.0045ZM12.5 8.21176H11.8545V8.51176H12.5V8.21176ZM12.65 9.65713V8.36176H12.35V9.65713H12.65ZM11.8544 9.80713H12.5V9.50713H11.8544V9.80713ZM11.7044 8.36181V9.65713H12.0044V8.36181H11.7044ZM11.2089 8.51181H11.8544V8.21181H11.2089V8.51181ZM11.0589 7.71625V8.36181H11.3589V7.71625H11.0589ZM11.2089 9.8072H11.8545V9.5072H11.2089V9.8072ZM11.3589 10.3028V9.6572H11.0589V10.3028H11.3589ZM11.8545 10.1528H11.2089V10.4528H11.8545V10.1528ZM11.7045 9.6572V10.3028H12.0045V9.6572H11.7045ZM11.2089 10.1528H9.91349V10.4528H11.2089V10.1528ZM11.3589 10.9526V10.3028H11.0589V10.9526H11.3589ZM9.91354 11.1026H11.2089V10.8026H9.91354V11.1026ZM10.0635 11.5981V10.9526H9.76354V11.5981H10.0635ZM4.09076 11.7481H9.91354V11.4481H4.09076V11.7481ZM3.94076 10.9526V11.5981H4.24076V10.9526H3.94076ZM2.79544 11.1026H4.09076V10.8026H2.79544V11.1026ZM2.64544 10.3028V10.9526H2.94544V10.3028H2.64544ZM4.09081 10.1528H2.79544V10.4528H4.09081V10.1528ZM4.24081 10.9525V10.3028H3.94081V10.9525H4.24081ZM9.91349 10.8025H4.09081V11.1025H9.91349V10.8025ZM9.76349 10.3028V10.9525H10.0635V10.3028H9.76349ZM9.91349 9.15733H10.559V8.85733H9.91349V9.15733ZM10.0635 9.65714V9.00733H9.76349V9.65714H10.0635ZM10.559 9.50714H9.91349V9.80714H10.559V9.50714ZM10.409 9.00733V9.65714H10.709V9.00733H10.409ZM6.03169 9.50713H5.38188V9.80713H6.03169V9.50713ZM6.18169 10.3027V9.65713H5.88169V10.3027H6.18169ZM7.97261 10.1527H6.03169V10.4527H7.97261V10.1527ZM7.82261 9.65713V10.3027H8.12261V9.65713H7.82261ZM8.61817 9.50713H7.97261V9.80713H8.61817V9.50713ZM8.46817 9.00732V9.65713H8.76817V9.00732H8.46817ZM9.91354 8.85732H8.61817V9.15732H9.91354V8.85732ZM9.76354 8.36176V9.00732H10.0635V8.36176H9.76354ZM4.09076 8.51176H9.91354V8.21176H4.09076V8.51176ZM4.24076 9.00732V8.36176H3.94076V9.00732H4.24076ZM5.38188 8.85732H4.09076V9.15732H5.38188V8.85732ZM5.53188 9.65713V9.00732H5.23188V9.65713H5.53188ZM4.09076 2.68903H4.73632V2.38903H4.09076V2.68903ZM4.24076 3.18459V2.53903H3.94076V3.18459H4.24076ZM4.73632 3.03459H4.09076V3.33459H4.73632V3.03459ZM4.58632 2.53903V3.18459H4.88632V2.53903H4.58632ZM3.44095 9.15733H4.09076V8.85733H3.44095V9.15733ZM3.59095 9.65714L3.59095 9.00733H3.29095V9.65714H3.59095ZM4.09076 9.50714H3.44095V9.80714H4.09076V9.50714ZM3.94076 9.00733L3.94076 9.65714H4.24076V9.00733H3.94076ZM4.09076 3.0346H3.44095V3.3346H4.09076V3.0346ZM4.24076 4.47997V3.1846H3.94076V4.47997H4.24076ZM3.441 4.62997H4.09076V4.32997H3.441V4.62997ZM3.591 7.71621V4.47997H3.291V7.71621H3.591ZM2.79544 7.86621H3.441V7.56621H2.79544V7.86621ZM2.64544 4.47992V7.71621H2.94544V4.47992H2.64544ZM3.44095 4.32992H2.79544V4.62992H3.44095V4.32992ZM3.29095 3.1846V4.47992H3.59095V3.1846H3.29095ZM2.79532 9.5072H2.14551V9.8072H2.79532V9.5072ZM2.94532 10.3028V9.6572H2.64532V10.3028H2.94532ZM2.14551 10.4528H2.79532V10.1528H2.14551V10.4528ZM1.99551 9.6572V10.3028H2.29551V9.6572H1.99551ZM2.14551 7.86625H2.79532V7.56625H2.14551V7.86625ZM2.29551 8.36176V7.71625H1.99551V8.36176H2.29551ZM2.14551 8.21176H1.5V8.51176H2.14551V8.21176ZM1.35 8.36176V9.65713H1.65V8.36176H1.35ZM1.5 9.80713H2.14556V9.50713H1.5V9.80713ZM2.29556 9.65713V8.36181H1.99556V9.65713H2.29556ZM2.79532 8.21181H2.14556V8.51181H2.79532V8.21181ZM2.64532 7.71625V8.36181H2.94532V7.71625H2.64532Z" fill="#0D0D0D"/>
</g>
<defs>
<clipPath id="clip0_479_2936">
<rect width="12" height="12" fill="white" transform="translate(0.5)"/>
</clipPath>
</defs>
</svg>
