<svg width="24" height="24" viewBox="0 0 24 24" fill="none" xmlns="http://www.w3.org/2000/svg">
<g id="cloud-upload">
<path id="Union" fill-rule="evenodd" clip-rule="evenodd" d="M9.97092 3.92773H15.8043V5.70551H17.582V7.48329H19.3598V9.26107H21.1376V11.0388H22.9154V18.2944H21.1376V20.0722H14.4154V17.7944H20.6376V11.5388H17.082V7.98329H15.3043V6.20551H10.4709V7.98329H8.69314V9.76107H5.13759V11.5388H3.35981V17.7944H9.58203V20.0722H2.85981V18.2944H1.08203V11.0388H2.85981V9.26107H4.63759V7.48329H8.19314V5.70551H9.97092V3.92773ZM11.1098 8.62207H12.8875V10.3998H14.6653V12.1776H16.4431V13.9554H12.8875V19.8221H11.1098V13.9554H7.5542V12.1776H9.33198V10.3998H11.1098V8.62207Z" fill="#0D0D0D"/>
</g>
</svg>
