<svg width="33" height="32" viewBox="0 0 33 32" fill="none" xmlns="http://www.w3.org/2000/svg">
<path d="M11.7349 10.4211V8.84082H21.3842V10.4211H22.9416V24.7491H10.1074V10.4211H11.7349Z" fill="#00FC6E"/>
<path fill-rule="evenodd" clip-rule="evenodd" d="M18.0837 2.5H14.9158V4.08394H18.0837V2.5ZM18.0836 4.08398H19.678V5.67835H18.0836V4.08398ZM24.4403 24.7273H22.8563V10.4406H24.4403V15.2028H26.0242V16.7972H24.4403V21.5594H26.0242V23.1434L27.6185 23.1434V18.3811H26.0242V16.7972H27.6185V18.3811H29.2025V26.3217H27.6185V24.7273H26.0242V23.1434L24.4403 23.1434V24.7273ZM21.2619 21.5594H19.678V23.1433H21.2619V21.5594ZM19.678 18.3811H21.2619V19.965H19.678V18.3811ZM19.678 29.5V27.9057H21.2619V26.3217H22.8563V24.7274H10.1431V26.3217H11.7374V27.9057H13.3214V26.3217H19.678V27.9056H13.3214V29.5H19.678ZM18.0837 12.0245H19.678V15.2028H18.0837V16.7972H14.9158V15.2028H13.3214V12.0245H14.9158V13.6189H16.4997V12.0245H14.9158V10.4406H18.0837V12.0245ZM13.3214 4.08398H14.9158V5.67835H13.3214V4.08398ZM13.3214 7.26223V5.67828H11.7374V7.26223H10.1431V10.4405H11.7374V8.85659H21.2619V10.4405H22.8563V7.26223H21.2619V5.67828H19.678V7.26223H13.3214ZM8.55916 10.4406H10.1431V24.7273H8.55916V23.1434H6.97522V21.5594H8.55916V16.7972H6.97522V15.2028H8.55916V10.4406ZM6.97522 16.7972H5.38086V18.3811H6.97522V16.7972ZM3.79688 18.3811H5.38082V23.1434H6.97518V24.7273H5.38082V26.3217H3.79688V18.3811Z" fill="#0D0D0D"/>
</svg>
