<svg width="16" height="17" viewBox="0 0 16 17" fill="none" xmlns="http://www.w3.org/2000/svg">
<g id="Group 1707479923">
<path id="Vector" fill-rule="evenodd" clip-rule="evenodd" d="M14 14.25V12.25H16V4.25H14V2.25H12V0.25H4V2.25H2V4.25H0V12.25H2V14.25H4V16.25H12V14.25H14ZM12 2.25V4.25H14V12.25H12V14.25H4V12.25H2V4.25H4V2.25H12Z" fill="#0D0D0D"/>
<g id="Group 1707479924">
<path id="Union" fill-rule="evenodd" clip-rule="evenodd" d="M4 8.75H6V10.75H4V8.75ZM10 10.75V12.75H6V10.75H10ZM10 10.75H12V8.75H10V10.75Z" fill="#0D0D0D"/>
<path id="Union_2" fill-rule="evenodd" clip-rule="evenodd" d="M6.25 5.5H4.25V7.5H6.25V5.5ZM11.75 5.5H9.75V7.5H11.75V5.5Z" fill="#0D0D0D"/>
</g>
</g>
</svg>
