<svg width="16" height="16" viewBox="0 0 16 16" fill="none" xmlns="http://www.w3.org/2000/svg">
<g clip-path="url(#clip0_2048_16613)">
<path fill-rule="evenodd" clip-rule="evenodd" d="M11.6667 2.5V4.33333H13.5V11.6667H11.6667V13.5H4.33333V11.6667H2.5V4.33333H4.33333V2.5H11.6667Z" fill="#FF5757"/>
<path fill-rule="evenodd" clip-rule="evenodd" d="M11.6693 0.667969H4.33594V2.5013H11.668V4.33333H13.5013V2.5H11.6693V0.667969ZM4.33594 13.5H11.668V11.668H13.5V4.33594H15.3333V11.6693H13.5013V13.5013H11.6693V15.3333H4.33594V13.5ZM0.667969 4.33594H2.5013V11.668H4.33333V13.5013H2.5V11.6693H0.667969V4.33594ZM2.5 2.5H4.33333V4.33333H2.5V2.5Z" fill="#0D0D0D"/>
<path fill-rule="evenodd" clip-rule="evenodd" d="M4.66797 4.66797H6.89019V6.89019H4.66797V4.66797ZM6.89062 6.89062H9.11285V9.11285H6.89062V6.89062ZM11.3355 9.11328H9.11328V11.3355H11.3355V9.11328ZM11.3359 4.66797H9.11372V6.89019H11.3359V4.66797ZM4.6684 9.11328H6.89062V11.3355H4.6684V9.11328Z" fill="#0D0D0D"/>
</g>
<defs>
<clipPath id="clip0_2048_16613">
<rect width="16" height="16" fill="white"/>
</clipPath>
</defs>
</svg>
