<svg width="24" height="24" viewBox="0 0 24 24" fill="none" xmlns="http://www.w3.org/2000/svg">
<g id="ethereum-crypto-cryptocurrency-2-svgrepo-com 1">
<g id="Group 1707479734">
<path id="Union" d="M10.6982 13.2251H13.3021V14.4455H14.8718V15.666H16.5116V16.8864H18.1194V18.1068H17.6614V19.3273H15.4228V20.5477H14.7611V21.7759H9.23906V20.5477H8.57742V19.3273H6.00019V18.1068H5.89844V16.8864H7.50619V15.666H9.14596V14.4455H10.6982V13.2251Z" fill="#00FC6E"/>
<g id="Union_2">
<path d="M12.0002 2.63086H12.8192V12.8016H12L12.0002 2.63086Z" fill="#0D0D0D"/>
<path d="M12.8199 4.23978H15.26V7.51686H16.6292V9.13058H17.7773V10.7747H19.0859V12.4055H21.3737L21.3739 16.8901H17.7233V15.6669H15.26L15.2601 14.4489H14.0395L14.0397 13.2266H12.8192L12.8199 4.23978Z" fill="#0D0D0D"/>
</g>
<g id="Union_3">
<path d="M11.184 1H12.8151V2.62963H11.184V1Z" fill="#0D0D0D"/>
<path d="M9.96181 4.25926V2.62963H11.184V4.25926H9.96181Z" fill="#0D0D0D"/>
<path d="M8.73958 5.88889V4.25926H9.96181V5.88889H8.73958Z" fill="#0D0D0D"/>
<path d="M7.51736 7.51852V5.88889H8.73958V7.51852H7.51736Z" fill="#0D0D0D"/>
<path d="M6.29514 9.14815V7.51852H7.51736V9.14815H6.29514Z" fill="#0D0D0D"/>
<path d="M5.07292 10.7778V9.14815H6.29514V10.7778H5.07292Z" fill="#0D0D0D"/>
<path d="M3.85069 12.4074V10.7778H5.07292V12.4074H3.85069Z" fill="#0D0D0D"/>
<path d="M2.62847 14.037V12.4074H3.85069V14.037H2.62847Z" fill="#0D0D0D"/>
<path d="M2.62847 15.6667H1.40625V14.037H2.62847V15.6667Z" fill="#0D0D0D"/>
<path d="M4.2581 16.8889H2.62847V15.6667H4.2581V16.8889Z" fill="#0D0D0D"/>
<path d="M5.88773 18.1111H4.2581V16.8889H5.88773V18.1111Z" fill="#0D0D0D"/>
<path d="M7.51736 19.3333H5.88773V18.1111H7.51736V19.3333Z" fill="#0D0D0D"/>
<path d="M9.14699 20.5556H7.51736V19.3333H9.14699V20.5556Z" fill="#0D0D0D"/>
<path d="M9.14699 20.5556H10.7766V21.7778H9.14699V20.5556Z" fill="#0D0D0D"/>
<path d="M14.0373 4.25926H12.8151V2.62963H14.0373V4.25926Z" fill="#0D0D0D"/>
<path d="M15.2595 5.88889H14.0373V4.25926H15.2595V5.88889Z" fill="#0D0D0D"/>
<path d="M16.4817 7.51852H15.2595V5.88889H16.4817V7.51852Z" fill="#0D0D0D"/>
<path d="M17.7039 9.14815H16.4817V7.51852H17.7039V9.14815Z" fill="#0D0D0D"/>
<path d="M18.9262 10.7778H17.7039V9.14815H18.9262V10.7778Z" fill="#0D0D0D"/>
<path d="M20.1484 12.4074H18.9262V10.7778H20.1484V12.4074Z" fill="#0D0D0D"/>
<path d="M21.3706 14.037H20.1484V12.4074H21.3706V14.037Z" fill="#0D0D0D"/>
<path d="M21.3706 15.6667V14.037H22.5928V15.6667H21.3706Z" fill="#0D0D0D"/>
<path d="M19.741 16.8889V15.6667H21.3706V16.8889H19.741Z" fill="#0D0D0D"/>
<path d="M18.1113 18.1111V16.8889H19.741V18.1111H18.1113Z" fill="#0D0D0D"/>
<path d="M16.4817 19.3333V18.1111H18.1113V19.3333H16.4817Z" fill="#0D0D0D"/>
<path d="M14.8521 20.5556V19.3333H16.4817V20.5556H14.8521Z" fill="#0D0D0D"/>
<path d="M14.8521 20.5556V21.7778H13.2225V20.5556H14.8521Z" fill="#0D0D0D"/>
<path d="M10.7766 21.7778V23H13.2225V21.7778H10.7766Z" fill="#0D0D0D"/>
<path d="M7.52025 15.6697L5.88773 15.6667V16.8889L7.52025 16.8919V15.6697Z" fill="#0D0D0D"/>
<path d="M7.52025 15.6697H9.14988V14.4474H7.52025V15.6697Z" fill="#0D0D0D"/>
<path d="M10.796 13.2252H9.16639V14.4474H10.796V13.2252Z" fill="#0D0D0D"/>
<path d="M13.2045 13.2252H14.8341V14.4474H13.2045V13.2252Z" fill="#0D0D0D"/>
<path d="M16.4637 15.6667L14.8341 15.6697V14.4474H16.4637V15.6667Z" fill="#0D0D0D"/>
<path d="M16.4637 15.6667H18.1113V16.8889L16.4637 16.8919V15.6667Z" fill="#0D0D0D"/>
<path d="M13.2045 13.2252H10.796V12.003H13.2045V13.2252Z" fill="#0D0D0D"/>
<path d="M12.8151 2.62963V1H11.184V2.62963M12.8151 2.62963V4.25926H14.0373M12.8151 2.62963H14.0373V4.25926M12.8151 2.62963H11.184M11.184 2.62963H9.96181V4.25926M11.184 2.62963V4.25926H9.96181M9.96181 4.25926H8.73958V5.88889M9.96181 4.25926V5.88889H8.73958M8.73958 5.88889H7.51736V7.51852M8.73958 5.88889V7.51852H7.51736M7.51736 7.51852H6.29514V9.14815M7.51736 7.51852V9.14815H6.29514M6.29514 9.14815H5.07292V10.7778M6.29514 9.14815V10.7778H5.07292M5.07292 10.7778H3.85069V12.4074M5.07292 10.7778V12.4074H3.85069M3.85069 12.4074H2.62847V14.037M3.85069 12.4074V14.037H2.62847M2.62847 14.037H1.40625V15.6667H2.62847M2.62847 14.037V15.6667M2.62847 15.6667V16.8889H4.2581M2.62847 15.6667H4.2581V16.8889M4.2581 16.8889V18.1111H5.88773M4.2581 16.8889H5.88773M5.88773 18.1111V16.8889M5.88773 18.1111V19.3333H7.51736M5.88773 18.1111H7.51736V19.3333M5.88773 16.8889V15.6667L7.52025 15.6697M5.88773 16.8889L7.52025 16.8919V15.6697M7.51736 19.3333V20.5556H9.14699M7.51736 19.3333H9.14699V20.5556M9.14699 20.5556H10.7766V21.7778M9.14699 20.5556V21.7778H10.7766M10.7766 21.7778V23H13.2225V21.7778M10.7766 21.7778H13.2225M14.0373 4.25926V5.88889H15.2595M14.0373 4.25926H15.2595V5.88889M15.2595 5.88889V7.51852H16.4817M15.2595 5.88889H16.4817V7.51852M16.4817 7.51852V9.14815H17.7039M16.4817 7.51852H17.7039V9.14815M17.7039 9.14815V10.7778H18.9262M17.7039 9.14815H18.9262V10.7778M18.9262 10.7778V12.4074H20.1484M18.9262 10.7778H20.1484V12.4074M20.1484 12.4074V14.037H21.3706M20.1484 12.4074H21.3706V14.037M21.3706 14.037V15.6667M21.3706 14.037H22.5928V15.6667H21.3706M21.3706 15.6667H19.741V16.8889M21.3706 15.6667V16.8889H19.741M19.741 16.8889H18.1113M19.741 16.8889V18.1111H18.1113M18.1113 16.8889V18.1111M18.1113 16.8889V15.6667H16.4637M18.1113 16.8889L16.4637 16.8919V15.6667M18.1113 18.1111H16.4817V19.3333M18.1113 18.1111V19.3333H16.4817M16.4817 19.3333H14.8521V20.5556M16.4817 19.3333V20.5556H14.8521M14.8521 20.5556V21.7778H13.2225M14.8521 20.5556H13.2225V21.7778M7.52025 15.6697H9.14988V14.4474H7.52025V15.6697ZM10.796 13.2252H9.16639V14.4474H10.796V13.2252ZM10.796 13.2252H13.2045M10.796 13.2252V12.003H13.2045V13.2252M13.2045 13.2252H14.8341V14.4474M13.2045 13.2252V14.4474H14.8341M14.8341 14.4474V15.6697L16.4637 15.6667M14.8341 14.4474H16.4637V15.6667" stroke="#0D0D0D" stroke-width="0.2"/>
</g>
</g>
</g>
</svg>
