<svg width="24" height="25" viewBox="0 0 24 25" fill="none" xmlns="http://www.w3.org/2000/svg">
<g id="hand-love-sign-15">
<rect id="Rectangle 176513" x="15.0605" y="21.1431" width="3.38794" height="1.98999" fill="#00FC6E"/>
<g id="Group">
<g id="Union">
<path fill-rule="evenodd" clip-rule="evenodd" d="M7.8125 1.64307H9.9025V2.68799H10.9543V7.92674H16.193V4.78486H17.238V14.2174H16.193V8.97861H14.0962V14.2174H13.0512V15.2624H11.9993V13.1655H10.9543V12.1205H13.0512V8.97861H10.9543V12.1205H8.85742V11.0686L5.71688 11.0686V12.1202H4.67188V11.0684H5.7168V10.0236H6.7618V2.68799H7.8125V1.64307ZM7.81367 2.68807V10.0236H8.85867V11.0686L9.90242 11.0686V2.68807H7.81367ZM17.2383 3.74023H19.3352V4.78523H17.2383V3.74023ZM20.3809 4.78516H19.3359V18.4043H18.2843V20.5012H7.81367V19.4562H6.7618L6.7618 18.4043H5.71688V16.3076H4.67188V18.4045H5.7168V19.4562H6.7618V20.5012H5.7168V23.643H20.3812V20.5012H19.3362V18.4045H20.3809V4.78516ZM18.2843 23.0502H15.1943V21.3541H18.2843V23.0502ZM16.1945 14.2178H14.0977V15.2628H16.1945V14.2178ZM7.8125 15.2628H8.85742V16.3077H11.9993V15.2627H8.8575V14.2178H7.8125V15.2628ZM3.61914 12.1206H4.67102V16.3075H3.61914V12.1206Z" fill="#0D0D0D"/>
<path d="M9.9025 1.64307H10.0525V1.49307H9.9025V1.64307ZM7.8125 1.64307V1.49307H7.6625V1.64307H7.8125ZM9.9025 2.68799H9.7525V2.83799H9.9025V2.68799ZM10.9543 2.68799H11.1043V2.53799H10.9543V2.68799ZM10.9543 7.92674H10.8043V8.07674H10.9543V7.92674ZM16.193 7.92674V8.07674H16.343V7.92674H16.193ZM16.193 4.78486V4.63486H16.043V4.78486H16.193ZM17.238 4.78486H17.388V4.63486H17.238V4.78486ZM17.238 14.2174V14.3674H17.388V14.2174H17.238ZM16.193 14.2174H16.043V14.3674H16.193V14.2174ZM16.193 8.97861H16.343V8.82861H16.193V8.97861ZM14.0962 8.97861V8.82861H13.9462V8.97861H14.0962ZM14.0962 14.2174V14.3674H14.2462V14.2174H14.0962ZM13.0512 14.2174V14.0674H12.9012V14.2174H13.0512ZM13.0512 15.2624V15.4124H13.2012V15.2624H13.0512ZM11.9993 15.2624H11.8493V15.4124H11.9993V15.2624ZM11.9993 13.1655H12.1493V13.0155H11.9993V13.1655ZM10.9543 13.1655H10.8043V13.3155H10.9543V13.1655ZM13.0512 12.1205V12.2705H13.2012V12.1205H13.0512ZM13.0512 8.97861H13.2012V8.82861H13.0512V8.97861ZM10.9543 8.97861V8.82861H10.8043V8.97861H10.9543ZM8.85742 12.1205H8.70742V12.2705H8.85742V12.1205ZM8.85742 11.0686H9.00742V10.9186H8.85742V11.0686ZM5.71688 11.0686V10.9186H5.56688V11.0686H5.71688ZM5.71688 12.1202V12.2702H5.86688V12.1202H5.71688ZM4.67188 12.1202H4.52188V12.2702H4.67188V12.1202ZM4.67188 11.0684V10.9184H4.52188V11.0684H4.67188ZM5.7168 11.0684V11.2184H5.8668V11.0684H5.7168ZM5.7168 10.0236V9.87361H5.5668V10.0236H5.7168ZM6.7618 10.0236V10.1736H6.9118V10.0236H6.7618ZM6.7618 2.68799V2.53799H6.6118V2.68799H6.7618ZM7.8125 2.68799V2.83799H7.9625V2.68799H7.8125ZM7.81367 10.0236H7.66367V10.1736H7.81367V10.0236ZM7.81367 2.68807V2.53807H7.66367V2.68807H7.81367ZM8.85867 10.0236H9.00867V9.87361H8.85867V10.0236ZM8.85867 11.0686H8.70867V11.2186H8.85867V11.0686ZM9.90242 11.0686V11.2186L10.0524 11.2186V11.0686H9.90242ZM9.90242 2.68807H10.0524V2.53807H9.90242V2.68807ZM19.3352 3.74023H19.4852V3.59023H19.3352V3.74023ZM17.2383 3.74023V3.59023H17.0883V3.74023H17.2383ZM19.3352 4.78523V4.93523H19.4852V4.78523H19.3352ZM17.2383 4.78523H17.0883V4.93523H17.2383V4.78523ZM19.3359 4.78516V4.63516H19.1859V4.78516H19.3359ZM20.3809 4.78516H20.5309V4.63516H20.3809V4.78516ZM19.3359 18.4043V18.5543H19.4859V18.4043H19.3359ZM18.2843 18.4043V18.2543H18.1343V18.4043H18.2843ZM18.2843 20.5012V20.6512H18.4343V20.5012H18.2843ZM7.81367 20.5012H7.66367V20.6512H7.81367V20.5012ZM7.81367 19.4562H7.96367V19.3062H7.81367V19.4562ZM6.7618 18.4043H6.9118V18.2543H6.7618V18.4043ZM5.71688 18.4043H5.56688V18.5543H5.71688V18.4043ZM5.71688 16.3076H5.86688V16.1576H5.71688V16.3076ZM4.67188 16.3076V16.1576H4.52188V16.3076H4.67188ZM4.67188 18.4045H4.52188V18.5545H4.67188V18.4045ZM5.7168 18.4045H5.8668V18.2545H5.7168V18.4045ZM5.7168 19.4562H5.5668V19.6062H5.7168V19.4562ZM6.7618 20.5012V20.6512H6.9118V20.5012H6.7618ZM5.7168 20.5012V20.3512H5.5668V20.5012H5.7168ZM5.7168 23.643H5.5668V23.793H5.7168V23.643ZM20.3812 23.643V23.793H20.5312V23.643H20.3812ZM20.3812 20.5012H20.5312V20.3512H20.3812V20.5012ZM19.3362 20.5012H19.1862V20.6512H19.3362V20.5012ZM19.3362 18.4045V18.2545H19.1862V18.4045H19.3362ZM20.3809 18.4045V18.5545H20.5309V18.4045H20.3809ZM15.1943 23.0502H15.0443V23.2002H15.1943V23.0502ZM18.2843 23.0502V23.2002H18.4343V23.0502H18.2843ZM15.1943 21.3541V21.2041H15.0443V21.3541H15.1943ZM18.2843 21.3541H18.4343V21.2041H18.2843V21.3541ZM14.0977 14.2178V14.0678H13.9477V14.2178H14.0977ZM16.1945 14.2178H16.3445V14.0678H16.1945V14.2178ZM14.0977 15.2628H13.9477V15.4128H14.0977V15.2628ZM16.1945 15.2628V15.4128H16.3445V15.2628H16.1945ZM8.85742 15.2628H9.00742V15.1128H8.85742V15.2628ZM7.8125 15.2628H7.6625V15.4128H7.8125V15.2628ZM8.85742 16.3077H8.70742V16.4577H8.85742V16.3077ZM11.9993 16.3077V16.4577H12.1493V16.3077H11.9993ZM11.9993 15.2627H12.1493V15.1127H11.9993V15.2627ZM8.8575 15.2627H8.7075V15.4127H8.8575V15.2627ZM8.8575 14.2178H9.0075V14.0678H8.8575V14.2178ZM7.8125 14.2178V14.0678H7.6625V14.2178H7.8125ZM4.67102 12.1206H4.82102V11.9706H4.67102V12.1206ZM3.61914 12.1206V11.9706H3.46914V12.1206H3.61914ZM4.67102 16.3075V16.4575H4.82102V16.3075H4.67102ZM3.61914 16.3075H3.46914V16.4575H3.61914V16.3075ZM9.9025 1.49307H7.8125V1.79307H9.9025V1.49307ZM10.0525 2.68799V1.64307H9.7525V2.68799H10.0525ZM10.9543 2.53799H9.9025V2.83799H10.9543V2.53799ZM11.1043 7.92674V2.68799H10.8043V7.92674H11.1043ZM16.193 7.77674H10.9543V8.07674H16.193V7.77674ZM16.043 4.78486V7.92674H16.343V4.78486H16.043ZM17.238 4.63486H16.193V4.93486H17.238V4.63486ZM17.388 14.2174V4.78486H17.088V14.2174H17.388ZM16.193 14.3674H17.238V14.0674H16.193V14.3674ZM16.043 8.97861V14.2174H16.343V8.97861H16.043ZM14.0962 9.12861H16.193V8.82861H14.0962V9.12861ZM14.2462 14.2174V8.97861H13.9462V14.2174H14.2462ZM13.0512 14.3674H14.0962V14.0674H13.0512V14.3674ZM13.2012 15.2624V14.2174H12.9012V15.2624H13.2012ZM11.9993 15.4124H13.0512V15.1124H11.9993V15.4124ZM11.8493 13.1655V15.2624H12.1493V13.1655H11.8493ZM10.9543 13.3155H11.9993V13.0155H10.9543V13.3155ZM10.8043 12.1205V13.1655H11.1043V12.1205H10.8043ZM13.0512 11.9705H10.9543V12.2705H13.0512V11.9705ZM12.9012 8.97861V12.1205H13.2012V8.97861H12.9012ZM10.9543 9.12861H13.0512V8.82861H10.9543V9.12861ZM11.1043 12.1205V8.97861H10.8043V12.1205H11.1043ZM8.85742 12.2705H10.9543V11.9705H8.85742V12.2705ZM8.70742 11.0686V12.1205H9.00742V11.0686H8.70742ZM5.71688 11.2186L8.85742 11.2186V10.9186L5.71688 10.9186V11.2186ZM5.86688 12.1202V11.0686H5.56688V12.1202H5.86688ZM4.67188 12.2702H5.71688V11.9702H4.67188V12.2702ZM4.52188 11.0684V12.1202H4.82187V11.0684H4.52188ZM5.7168 10.9184H4.67188V11.2184H5.7168V10.9184ZM5.5668 10.0236V11.0684H5.8668V10.0236H5.5668ZM6.7618 9.87361H5.7168V10.1736H6.7618V9.87361ZM6.6118 2.68799V10.0236H6.9118V2.68799H6.6118ZM7.8125 2.53799H6.7618V2.83799H7.8125V2.53799ZM7.6625 1.64307V2.68799H7.9625V1.64307H7.6625ZM7.96367 10.0236V2.68807H7.66367V10.0236H7.96367ZM8.85867 9.87361H7.81367V10.1736H8.85867V9.87361ZM9.00867 11.0686V10.0236H8.70867V11.0686H9.00867ZM9.90242 10.9186L8.85867 10.9186V11.2186L9.90242 11.2186V10.9186ZM9.75242 2.68807V11.0686H10.0524V2.68807H9.75242ZM7.81367 2.83807H9.90242V2.53807H7.81367V2.83807ZM19.3352 3.59023H17.2383V3.89023H19.3352V3.59023ZM19.4852 4.78523V3.74023H19.1852V4.78523H19.4852ZM17.2383 4.93523H19.3352V4.63523H17.2383V4.93523ZM17.0883 3.74023V4.78523H17.3883V3.74023H17.0883ZM19.3359 4.93516H20.3809V4.63516H19.3359V4.93516ZM19.4859 18.4043V4.78516H19.1859V18.4043H19.4859ZM18.2843 18.5543H19.3359V18.2543H18.2843V18.5543ZM18.4343 20.5012V18.4043H18.1343V20.5012H18.4343ZM7.81367 20.6512H18.2843V20.3512H7.81367V20.6512ZM7.66367 19.4562V20.5012H7.96367V19.4562H7.66367ZM6.7618 19.6062H7.81367V19.3062H6.7618V19.6062ZM6.6118 18.4043L6.6118 19.4562H6.9118L6.9118 18.4043H6.6118ZM5.71688 18.5543H6.7618V18.2543H5.71688V18.5543ZM5.56688 16.3076V18.4043H5.86688V16.3076H5.56688ZM4.67188 16.4576H5.71688V16.1576H4.67188V16.4576ZM4.82187 18.4045V16.3076H4.52188V18.4045H4.82187ZM5.7168 18.2545H4.67188V18.5545H5.7168V18.2545ZM5.8668 19.4562V18.4045H5.5668V19.4562H5.8668ZM6.7618 19.3062H5.7168V19.6062H6.7618V19.3062ZM6.9118 20.5012V19.4562H6.6118V20.5012H6.9118ZM5.7168 20.6512H6.7618V20.3512H5.7168V20.6512ZM5.8668 23.643V20.5012H5.5668V23.643H5.8668ZM20.3812 23.493H5.7168V23.793H20.3812V23.493ZM20.2312 20.5012V23.643H20.5312V20.5012H20.2312ZM19.3362 20.6512H20.3812V20.3512H19.3362V20.6512ZM19.1862 18.4045V20.5012H19.4862V18.4045H19.1862ZM20.3809 18.2545H19.3362V18.5545H20.3809V18.2545ZM20.2309 4.78516V18.4045H20.5309V4.78516H20.2309ZM15.1943 23.2002H18.2843V22.9002H15.1943V23.2002ZM15.0443 21.3541V23.0502H15.3443V21.3541H15.0443ZM18.2843 21.2041H15.1943V21.5041H18.2843V21.2041ZM18.4343 23.0502V21.3541H18.1343V23.0502H18.4343ZM14.0977 14.3678H16.1945V14.0678H14.0977V14.3678ZM14.2477 15.2628V14.2178H13.9477V15.2628H14.2477ZM16.1945 15.1128H14.0977V15.4128H16.1945V15.1128ZM16.0445 14.2178V15.2628H16.3445V14.2178H16.0445ZM8.85742 15.1128H7.8125V15.4128H8.85742V15.1128ZM9.00742 16.3077V15.2628H8.70742V16.3077H9.00742ZM11.9993 16.1577H8.85742V16.4577H11.9993V16.1577ZM11.8493 15.2627V16.3077H12.1493V15.2627H11.8493ZM8.8575 15.4127H11.9993V15.1127H8.8575V15.4127ZM8.7075 14.2178V15.2627H9.0075V14.2178H8.7075ZM7.8125 14.3678H8.8575V14.0678H7.8125V14.3678ZM7.9625 15.2628V14.2178H7.6625V15.2628H7.9625ZM4.67102 11.9706H3.61914V12.2706H4.67102V11.9706ZM4.82102 16.3075V12.1206H4.52102V16.3075H4.82102ZM3.61914 16.4575H4.67102V16.1575H3.61914V16.4575ZM3.46914 12.1206V16.3075H3.76914V12.1206H3.46914Z" fill="#0D0D0D"/>
</g>
</g>
</g>
</svg>
