<svg width="33" height="32" viewBox="0 0 33 32" fill="none" xmlns="http://www.w3.org/2000/svg">
<path d="M15.4004 17.5684H18.5961V19.0662H20.5226V20.564H22.535V22.0618H24.5082V23.5596H23.9462V25.0574H21.1987V26.5552H20.3867V28.0625H13.6096V26.5552H12.7976V25.0574H9.63464V23.5596H9.50977V22.0618H11.4829V20.564H13.4954V19.0662H15.4004V17.5684Z" fill="#00FC6E"/>
<path d="M16.9983 4.56641H18.0034V17.0487H16.998L16.9983 4.56641Z" fill="#0D0D0D"/>
<path d="M18.0043 6.54098H20.9989V10.5629H22.6794V12.5433H24.0883V14.5612H25.6944V16.5625H28.5021L28.5023 22.0664H24.0221V20.5652H20.9989L20.9991 19.0703H19.5011L19.5013 17.5703H18.0034L18.0043 6.54098Z" fill="#0D0D0D"/>
<path d="M15.998 2.56494H17.9998V4.56494H15.998V2.56494Z" fill="#0D0D0D"/>
<path d="M14.498 6.56494V4.56494H15.998V6.56494H14.498Z" fill="#0D0D0D"/>
<path d="M12.998 8.56494V6.56494H14.498V8.56494H12.998Z" fill="#0D0D0D"/>
<path d="M11.498 10.5649V8.56494H12.998V10.5649H11.498Z" fill="#0D0D0D"/>
<path d="M9.99805 12.5649V10.5649H11.498V12.5649H9.99805Z" fill="#0D0D0D"/>
<path d="M8.49805 14.5649V12.5649H9.99805V14.5649H8.49805Z" fill="#0D0D0D"/>
<path d="M6.99805 16.5649V14.5649H8.49805V16.5649H6.99805Z" fill="#0D0D0D"/>
<path d="M5.49805 18.5649V16.5649H6.99805V18.5649H5.49805Z" fill="#0D0D0D"/>
<path d="M5.49805 20.5649H3.99805V18.5649H5.49805V20.5649Z" fill="#0D0D0D"/>
<path d="M7.49805 22.0649H5.49805V20.5649H7.49805V22.0649Z" fill="#0D0D0D"/>
<path d="M9.49805 23.5649H7.49805V22.0649H9.49805V23.5649Z" fill="#0D0D0D"/>
<path d="M11.498 25.0649H9.49805V23.5649H11.498V25.0649Z" fill="#0D0D0D"/>
<path d="M13.498 26.5649H11.498V25.0649H13.498V26.5649Z" fill="#0D0D0D"/>
<path d="M13.498 26.5649H15.498V28.0649H13.498V26.5649Z" fill="#0D0D0D"/>
<path d="M19.4998 6.56494H17.9998V4.56494H19.4998V6.56494Z" fill="#0D0D0D"/>
<path d="M20.9998 8.56494H19.4998V6.56494H20.9998V8.56494Z" fill="#0D0D0D"/>
<path d="M22.4998 10.5649H20.9998V8.56494H22.4998V10.5649Z" fill="#0D0D0D"/>
<path d="M23.9998 12.5649H22.4998V10.5649H23.9998V12.5649Z" fill="#0D0D0D"/>
<path d="M25.4998 14.5649H23.9998V12.5649H25.4998V14.5649Z" fill="#0D0D0D"/>
<path d="M26.9998 16.5649H25.4998V14.5649H26.9998V16.5649Z" fill="#0D0D0D"/>
<path d="M28.4998 18.5649H26.9998V16.5649H28.4998V18.5649Z" fill="#0D0D0D"/>
<path d="M28.4998 20.5649V18.5649H29.9998V20.5649H28.4998Z" fill="#0D0D0D"/>
<path d="M26.4998 22.0649V20.5649H28.4998V22.0649H26.4998Z" fill="#0D0D0D"/>
<path d="M24.4998 23.5649V22.0649H26.4998V23.5649H24.4998Z" fill="#0D0D0D"/>
<path d="M22.4998 25.0649V23.5649H24.4998V25.0649H22.4998Z" fill="#0D0D0D"/>
<path d="M20.4998 26.5649V25.0649H22.4998V26.5649H20.4998Z" fill="#0D0D0D"/>
<path d="M20.4998 26.5649V28.0649H18.4998V26.5649H20.4998Z" fill="#0D0D0D"/>
<path d="M15.498 28.0649V29.5649H18.4998V28.0649H15.498Z" fill="#0D0D0D"/>
<path d="M11.5016 20.5686L9.49805 20.5649V22.0649L11.5016 22.0686V20.5686Z" fill="#0D0D0D"/>
<path d="M11.5016 20.5686H13.5016V19.0686H11.5016V20.5686Z" fill="#0D0D0D"/>
<path d="M15.5219 17.5686H13.5219V19.0686H15.5219V17.5686Z" fill="#0D0D0D"/>
<path d="M18.4777 17.5686H20.4777V19.0686H18.4777V17.5686Z" fill="#0D0D0D"/>
<path d="M22.4777 20.5649L20.4777 20.5686V19.0686H22.4777V20.5649Z" fill="#0D0D0D"/>
<path d="M22.4777 20.5649H24.4998V22.0649L22.4777 22.0686V20.5649Z" fill="#0D0D0D"/>
<path d="M18.4777 17.5686H15.5219V16.0686H18.4777V17.5686Z" fill="#0D0D0D"/>
</svg>
