<svg width="121" height="120" viewBox="0 0 121 120" fill="none" xmlns="http://www.w3.org/2000/svg">
<path d="M96.2996 12.1016H80.1996V13.8016H78.0996V24.5016H80.1996V27.3016H83.7996V29.4016H85.8996V27.3016H96.2996V24.5016H98.3996V13.8016H96.2996V12.1016Z" fill="white"/>
<path d="M96.3008 25.1977H88.8008V27.5977H86.3008V30.0977H88.8008V27.6977H96.3008V25.5977H98.3008V23.0977H96.3008V25.1977Z" fill="#0D0D0D"/>
<path d="M98.3 14.0992V11.6992H95.9V9.19922H79.9V11.6992H77.4V14.1992H75V23.0992H77.4V25.5992H79.9V28.0992H81.3V32.5992H83.8H86.3V30.0992H83.8V28.0992H82.5V25.5992H79.9V23.0992H77.5V14.1992H79.9V11.6992H95.8V14.1992H98.3V23.0992H100.8V14.0992H98.3Z" fill="#0D0D0D"/>
<path d="M84.4004 17.3984H81.4004V20.3984H84.4004V17.3984Z" fill="#0D0D0D"/>
<path d="M89.4004 17.3984H86.4004V20.3984H89.4004V17.3984Z" fill="#0D0D0D"/>
<path d="M94.4004 17.3984H91.4004V20.3984H94.4004V17.3984Z" fill="#0D0D0D"/>
<path fill-rule="evenodd" clip-rule="evenodd" d="M23.3996 36.6016H30.0996V39.9016H33.3996V46.6016H30.0996V49.9016H23.3996V46.6016H20.0996V39.9016H23.3996V36.6016Z" fill="white"/>
<path d="M56.4004 47.6992H51.4004V52.6992H56.4004V47.6992Z" fill="#0D0D0D"/>
<path d="M51.4988 54.8984H46.2988V57.8984H51.4988V54.8984Z" fill="#0D0D0D"/>
<path d="M23.0996 74H17.0996V77H23.0996V74Z" fill="#0D0D0D"/>
<path d="M29.0996 71H23.0996V74H29.0996V71Z" fill="#0D0D0D"/>
<path d="M103.9 74H97.9004V77H103.9V74Z" fill="#0D0D0D"/>
<path fill-rule="evenodd" clip-rule="evenodd" d="M103.9 77V80V81H98.0996V78H92.0996H91.9996V74H97.8996V71H91.9996V45.9H86.9996V40.9H81.9996V36H77.0996V31H43.9996V36H57.1996V40.9H62.1996V45.9H67.0996V78H33.9996V53.3H40.0996H46.7996V49.9V46.6H43.3996V43.3H40.0996V40.9H43.9996V36H38.9996V39.9H36.7996V36.6H33.3996V33.3H30.0996H26.7996H23.3996V36.6H26.7996H30.0996V39.9H33.3996V43.3V46.6H30.0996V49.9H26.7996H23.3996V53.3H26.7996H29.0996V78H23.0996V81H17.0996V80V77H14.0996V80V83V86H17.0996V89H23.0996V92H74.0996H75.0996H98.0996V89H103.9V86H106.9V83V80V77H103.9Z" fill="#0D0D0D"/>
<path d="M23.3996 46.6016H20.0996V49.9016H23.3996V46.6016Z" fill="#0D0D0D"/>
<path d="M23.3996 36.6016H20.0996V39.9016H23.3996V36.6016Z" fill="#0D0D0D"/>
<path fill-rule="evenodd" clip-rule="evenodd" d="M20.0988 39.8984H16.7988V43.2984V46.5984H20.0988V43.2984V39.8984Z" fill="#0D0D0D"/>
<path fill-rule="evenodd" clip-rule="evenodd" d="M23.4004 42.3008H21.4004V45.3008H23.4004V42.3008H25.4004V40.3008H23.4004V42.3008Z" fill="#0D0D0D"/>
</svg>
