<svg width="24" height="24" viewBox="0 0 24 24" fill="none" xmlns="http://www.w3.org/2000/svg">
<path fill-rule="evenodd" clip-rule="evenodd" d="M20.3175 3.682V2.01855H15.3272V3.682H16.9907H20.3175ZM20.3175 3.68201H21.9817V5.3454H23.6451V18.6537H21.9817V13.6634V5.34545H20.3175V3.68201ZM21.9817 18.6537H20.3175V20.3171H18.6541H16.9907H15.3272V21.9813H20.3175V20.3172H21.9817V18.6537ZM18.9953 16.9996V6.99957H17.9953V7.00885H16.6495V16.9903H17.9953V16.9996H18.9953ZM13.6638 18.6537H15.3272V20.3172H13.6638V18.6537ZM15.3272 3.68201H13.6638V5.3454H12.0003V8.67304H2.01892V10.3365H13.6638V5.34545H15.3272V3.68201ZM13.6637 18.6537V13.6634H12.0003H8.6734V16.9903H10.3368V15.3268H12.0003V18.6537H13.6637ZM7.00922 16.9903H8.67342V18.6537H7.00922V16.9903ZM7.00921 15.3268H5.34576V16.9903H7.00921V15.3268ZM3.68231 16.9903H5.34575V18.6537H3.68231V16.9903ZM3.68236 15.3268V16.9903H2.01892V13.6634H3.68236V15.3268ZM2.01891 13.6634V11.9999V10.3365H0.355469V13.6634H2.01891Z" fill="#0D0D0D"/>
<path d="M20.3175 2.01855H20.5675V1.76855H20.3175V2.01855ZM20.3175 3.682V3.932H20.5675V3.682H20.3175ZM15.3272 2.01855V1.76855H15.0772V2.01855H15.3272ZM15.3272 3.682H15.0772V3.932H15.3272V3.682ZM21.9817 3.68201H22.2317V3.43201H21.9817V3.68201ZM20.3175 3.68201V3.43201H20.0675V3.68201H20.3175ZM21.9817 5.3454H21.7317V5.5954H21.9817V5.3454ZM23.6451 5.3454H23.8951V5.0954H23.6451V5.3454ZM23.6451 18.6537V18.9037H23.8951V18.6537H23.6451ZM21.9817 18.6537H21.7317V18.9037H21.9817V18.6537ZM21.9817 5.34545H22.2317V5.09545H21.9817V5.34545ZM20.3175 5.34545H20.0675V5.59545H20.3175V5.34545ZM20.3175 18.6537V18.4037H20.0675V18.6537H20.3175ZM21.9817 18.6537H22.2317V18.4037H21.9817V18.6537ZM20.3175 20.3171V20.5671H20.5675V20.3171H20.3175ZM15.3272 20.3171V20.0671H15.0772V20.3171H15.3272ZM15.3272 21.9813H15.0772V22.2313H15.3272V21.9813ZM20.3175 21.9813V22.2313H20.5675V21.9813H20.3175ZM20.3175 20.3172V20.0672H20.0675V20.3172H20.3175ZM21.9817 20.3172V20.5672H22.2317V20.3172H21.9817ZM18.9953 6.99957H19.2453V6.74957H18.9953V6.99957ZM18.9953 16.9996V17.2496H19.2453V16.9996H18.9953ZM17.9953 6.99957V6.74957H17.7453V6.99957H17.9953ZM17.9953 7.00885V7.25885H18.2453V7.00885H17.9953ZM16.6495 7.00885V6.75885H16.3995V7.00885H16.6495ZM16.6495 16.9903H16.3995V17.2403H16.6495V16.9903ZM17.9953 16.9903H18.2453V16.7403H17.9953V16.9903ZM17.9953 16.9996H17.7453V17.2496H17.9953V16.9996ZM15.3272 18.6537H15.5772V18.4037H15.3272V18.6537ZM13.6638 18.6537V18.4037H13.4138V18.6537H13.6638ZM15.3272 20.3172V20.5672H15.5772V20.3172H15.3272ZM13.6638 20.3172H13.4138V20.5672H13.6638V20.3172ZM13.6638 3.68201V3.43201H13.4138V3.68201H13.6638ZM15.3272 3.68201H15.5772V3.43201H15.3272V3.68201ZM13.6638 5.3454V5.5954H13.9138V5.3454H13.6638ZM12.0003 5.3454V5.0954H11.7503V5.3454H12.0003ZM12.0003 8.67304V8.92304H12.2503V8.67304H12.0003ZM2.01892 8.67304V8.42304H1.76892V8.67304H2.01892ZM2.01892 10.3365H1.76892V10.5865H2.01892V10.3365ZM13.6638 10.3365V10.5865H13.9138V10.3365H13.6638ZM13.6638 5.34545V5.09545H13.4138V5.34545H13.6638ZM15.3272 5.34545V5.59545H15.5772V5.34545H15.3272ZM13.6637 13.6634H13.9137V13.4134H13.6637V13.6634ZM13.6637 18.6537V18.9037H13.9137V18.6537H13.6637ZM8.6734 13.6634V13.4134H8.4234V13.6634H8.6734ZM8.6734 16.9903H8.4234V17.2403H8.6734V16.9903ZM10.3368 16.9903V17.2403H10.5868V16.9903H10.3368ZM10.3368 15.3268V15.0768H10.0868V15.3268H10.3368ZM12.0003 15.3268H12.2503V15.0768H12.0003V15.3268ZM12.0003 18.6537H11.7503V18.9037H12.0003V18.6537ZM8.67342 16.9903H8.92342V16.7403H8.67342V16.9903ZM7.00922 16.9903V16.7403H6.75922V16.9903H7.00922ZM8.67342 18.6537V18.9037H8.92342V18.6537H8.67342ZM7.00922 18.6537H6.75922V18.9037H7.00922V18.6537ZM5.34576 15.3268V15.0768H5.09576V15.3268H5.34576ZM7.00921 15.3268H7.25921V15.0768H7.00921V15.3268ZM5.34576 16.9903H5.09576V17.2403H5.34576V16.9903ZM7.00921 16.9903V17.2403H7.25921V16.9903H7.00921ZM5.34575 16.9903H5.59575V16.7403H5.34575V16.9903ZM3.68231 16.9903V16.7403H3.43231V16.9903H3.68231ZM5.34575 18.6537V18.9037H5.59575V18.6537H5.34575ZM3.68231 18.6537H3.43231V18.9037H3.68231V18.6537ZM3.68236 16.9903V17.2403H3.93236V16.9903H3.68236ZM2.01892 16.9903H1.76892V17.2403H2.01892V16.9903ZM2.01892 13.6634V13.4134H1.76892V13.6634H2.01892ZM3.68236 13.6634H3.93236V13.4134H3.68236V13.6634ZM2.01891 13.6634V13.9134H2.26891V13.6634H2.01891ZM2.01891 10.3365H2.26891V10.0865H2.01891V10.3365ZM0.355469 10.3365V10.0865H0.105469V10.3365H0.355469ZM0.355469 13.6634H0.105469V13.9134H0.355469V13.6634ZM20.0675 2.01855V3.682H20.5675V2.01855H20.0675ZM15.3272 2.26855H20.3175V1.76855H15.3272V2.26855ZM15.5772 3.682V2.01855H15.0772V3.682H15.5772ZM16.9907 3.432H15.3272V3.932H16.9907V3.432ZM20.3175 3.432H16.9907V3.932H20.3175V3.432ZM21.9817 3.43201H20.3175V3.93201H21.9817V3.43201ZM22.2317 5.3454V3.68201H21.7317V5.3454H22.2317ZM23.6451 5.0954H21.9817V5.5954H23.6451V5.0954ZM23.8951 18.6537V5.3454H23.3951V18.6537H23.8951ZM21.9817 18.9037H23.6451V18.4037H21.9817V18.9037ZM21.7317 13.6634V18.6537H22.2317V13.6634H21.7317ZM21.7317 5.34545V13.6634H22.2317V5.34545H21.7317ZM20.3175 5.59545H21.9817V5.09545H20.3175V5.59545ZM20.0675 3.68201V5.34545H20.5675V3.68201H20.0675ZM20.3175 18.9037H21.9817V18.4037H20.3175V18.9037ZM20.5675 20.3171V18.6537H20.0675V20.3171H20.5675ZM18.6541 20.5671H20.3175V20.0671H18.6541V20.5671ZM16.9907 20.5671H18.6541V20.0671H16.9907V20.5671ZM15.3272 20.5671H16.9907V20.0671H15.3272V20.5671ZM15.5772 21.9813V20.3171H15.0772V21.9813H15.5772ZM20.3175 21.7313H15.3272V22.2313H20.3175V21.7313ZM20.0675 20.3172V21.9813H20.5675V20.3172H20.0675ZM21.9817 20.0672H20.3175V20.5672H21.9817V20.0672ZM21.7317 18.6537V20.3172H22.2317V18.6537H21.7317ZM18.7453 6.99957V16.9996H19.2453V6.99957H18.7453ZM17.9953 7.24957H18.9953V6.74957H17.9953V7.24957ZM18.2453 7.00885V6.99957H17.7453V7.00885H18.2453ZM16.6495 7.25885H17.9953V6.75885H16.6495V7.25885ZM16.8995 16.9903V7.00885H16.3995V16.9903H16.8995ZM17.9953 16.7403H16.6495V17.2403H17.9953V16.7403ZM18.2453 16.9996V16.9903H17.7453V16.9996H18.2453ZM18.9953 16.7496H17.9953V17.2496H18.9953V16.7496ZM15.3272 18.4037H13.6638V18.9037H15.3272V18.4037ZM15.5772 20.3172V18.6537H15.0772V20.3172H15.5772ZM13.6638 20.5672H15.3272V20.0672H13.6638V20.5672ZM13.4138 18.6537V20.3172H13.9138V18.6537H13.4138ZM13.6638 3.93201H15.3272V3.43201H13.6638V3.93201ZM13.9138 5.3454V3.68201H13.4138V5.3454H13.9138ZM12.0003 5.5954H13.6638V5.0954H12.0003V5.5954ZM12.2503 8.67304V5.3454H11.7503V8.67304H12.2503ZM2.01892 8.92304H12.0003V8.42304H2.01892V8.92304ZM2.26892 10.3365V8.67304H1.76892V10.3365H2.26892ZM13.6638 10.0865H2.01892V10.5865H13.6638V10.0865ZM13.4138 5.34545V10.3365H13.9138V5.34545H13.4138ZM15.3272 5.09545H13.6638V5.59545H15.3272V5.09545ZM15.0772 3.68201V5.34545H15.5772V3.68201H15.0772ZM13.4137 13.6634V18.6537H13.9137V13.6634H13.4137ZM12.0003 13.9134H13.6637V13.4134H12.0003V13.9134ZM8.6734 13.9134H12.0003V13.4134H8.6734V13.9134ZM8.9234 16.9903V13.6634H8.4234V16.9903H8.9234ZM10.3368 16.7403H8.6734V17.2403H10.3368V16.7403ZM10.0868 15.3268V16.9903H10.5868V15.3268H10.0868ZM12.0003 15.0768H10.3368V15.5768H12.0003V15.0768ZM12.2503 18.6537V15.3268H11.7503V18.6537H12.2503ZM13.6637 18.4037H12.0003V18.9037H13.6637V18.4037ZM8.67342 16.7403H7.00922V17.2403H8.67342V16.7403ZM8.92342 18.6537V16.9903H8.42342V18.6537H8.92342ZM7.00922 18.9037H8.67342V18.4037H7.00922V18.9037ZM6.75922 16.9903V18.6537H7.25922V16.9903H6.75922ZM5.34576 15.5768H7.00921V15.0768H5.34576V15.5768ZM5.59576 16.9903V15.3268H5.09576V16.9903H5.59576ZM7.00921 16.7403H5.34576V17.2403H7.00921V16.7403ZM6.75921 15.3268V16.9903H7.25921V15.3268H6.75921ZM5.34575 16.7403H3.68231V17.2403H5.34575V16.7403ZM5.59575 18.6537V16.9903H5.09575V18.6537H5.59575ZM3.68231 18.9037H5.34575V18.4037H3.68231V18.9037ZM3.43231 16.9903V18.6537H3.93231V16.9903H3.43231ZM3.93236 16.9903V15.3268H3.43236V16.9903H3.93236ZM2.01892 17.2403H3.68236V16.7403H2.01892V17.2403ZM1.76892 13.6634V16.9903H2.26892V13.6634H1.76892ZM3.68236 13.4134H2.01892V13.9134H3.68236V13.4134ZM3.93236 15.3268V13.6634H3.43236V15.3268H3.93236ZM1.76891 11.9999V13.6634H2.26891V11.9999H1.76891ZM1.76891 10.3365V11.9999H2.26891V10.3365H1.76891ZM0.355469 10.5865H2.01891V10.0865H0.355469V10.5865ZM0.605469 13.6634V10.3365H0.105469V13.6634H0.605469ZM2.01891 13.4134H0.355469V13.9134H2.01891V13.4134Z" fill="#0D0D0D"/>
</svg>
