<svg width="16" height="16" viewBox="0 0 16 16" fill="none" xmlns="http://www.w3.org/2000/svg">
<g id="ic_leave" clip-path="url(#clip0_921_4118)">
<g id="Union">
<path fill-rule="evenodd" clip-rule="evenodd" d="M8.84293 0H7.15872V10.1053H8.84293V0ZM4.21135 1.68457H6.31662V3.20036H4.21135V1.68457ZM1.93766 5.47404V3.20036H4.21135V5.47404H1.93766ZM1.93766 12.2109H0.421875V5.47404H1.93766V12.2109ZM4.21135 14.4846H1.93766V12.2109H4.21135V14.4846ZM11.7903 14.4846V16.0004H4.21135V14.4846H11.7903ZM14.064 12.2109V14.4846H11.7903V12.2109H14.064ZM14.064 5.47404H15.5798V12.2109H14.064V5.47404ZM11.7903 3.20036H14.064V5.47404H11.7903V3.20036ZM11.7903 3.20036H9.68504V1.68457H11.7903V3.20036Z" fill="#E42222"/>
<path d="M7.15872 0V-0.2H6.95872V0H7.15872ZM8.84293 0H9.04293V-0.2H8.84293V0ZM7.15872 10.1053H6.95872V10.3053H7.15872V10.1053ZM8.84293 10.1053V10.3053H9.04293V10.1053H8.84293ZM6.31662 1.68457H6.51662V1.48457H6.31662V1.68457ZM4.21135 1.68457V1.48457H4.01135V1.68457H4.21135ZM6.31662 3.20036V3.40036H6.51662V3.20036H6.31662ZM1.93766 3.20036V3.00036H1.73766V3.20036H1.93766ZM4.21135 5.47404V5.67404H4.41135V5.47404H4.21135ZM0.421875 12.2109H0.221875V12.4109H0.421875V12.2109ZM0.421875 5.47404V5.27404H0.221875V5.47404H0.421875ZM1.93766 14.4846H1.73766V14.6846H1.93766V14.4846ZM4.21135 12.2109H4.41135V12.0109H4.21135V12.2109ZM11.7903 16.0004V16.2004H11.9903V16.0004H11.7903ZM4.21135 16.0004H4.01135V16.2004H4.21135V16.0004ZM14.064 14.4846V14.6846H14.264V14.4846H14.064ZM11.7903 12.2109V12.0109H11.5903V12.2109H11.7903ZM15.5798 5.47404H15.7798V5.27404H15.5798V5.47404ZM15.5798 12.2109V12.4109H15.7798V12.2109H15.5798ZM14.064 3.20036H14.264V3.00036H14.064V3.20036ZM11.7903 5.47404H11.5903V5.67404H11.7903V5.47404ZM9.68504 3.20036H9.48504V3.40036H9.68504V3.20036ZM9.68504 1.68457V1.48457H9.48504V1.68457H9.68504ZM11.7903 1.68457H11.9903V1.48457H11.7903V1.68457ZM7.15872 0.2H8.84293V-0.2H7.15872V0.2ZM7.35872 10.1053V0H6.95872V10.1053H7.35872ZM8.84293 9.90526H7.15872V10.3053H8.84293V9.90526ZM8.64293 0V10.1053H9.04293V0H8.64293ZM6.31662 1.48457H4.21135V1.88457H6.31662V1.48457ZM6.51662 3.20036V1.68457H6.11662V3.20036H6.51662ZM4.21135 3.40036H6.31662V3.00036H4.21135V3.40036ZM4.01135 1.68457V3.20036H4.41135V1.68457H4.01135ZM1.73766 3.20036V5.47404H2.13766V3.20036H1.73766ZM4.21135 3.00036H1.93766V3.40036H4.21135V3.00036ZM4.41135 5.47404V3.20036H4.01135V5.47404H4.41135ZM1.93766 5.67404H4.21135V5.27404H1.93766V5.67404ZM0.421875 12.4109H1.93766V12.0109H0.421875V12.4109ZM0.221875 5.47404V12.2109H0.621875V5.47404H0.221875ZM1.93766 5.27404H0.421875V5.67404H1.93766V5.27404ZM2.13766 12.2109V5.47404H1.73766V12.2109H2.13766ZM1.93766 14.6846H4.21135V14.2846H1.93766V14.6846ZM1.73766 12.2109V14.4846H2.13766V12.2109H1.73766ZM4.21135 12.0109H1.93766V12.4109H4.21135V12.0109ZM4.41135 14.4846V12.2109H4.01135V14.4846H4.41135ZM11.9903 16.0004V14.4846H11.5903V16.0004H11.9903ZM4.21135 16.2004H11.7903V15.8004H4.21135V16.2004ZM4.01135 14.4846V16.0004H4.41135V14.4846H4.01135ZM11.7903 14.2846H4.21135V14.6846H11.7903V14.2846ZM14.264 14.4846V12.2109H13.864V14.4846H14.264ZM11.7903 14.6846H14.064V14.2846H11.7903V14.6846ZM11.5903 12.2109V14.4846H11.9903V12.2109H11.5903ZM14.064 12.0109H11.7903V12.4109H14.064V12.0109ZM15.5798 5.27404H14.064V5.67404H15.5798V5.27404ZM15.7798 12.2109V5.47404H15.3798V12.2109H15.7798ZM14.064 12.4109H15.5798V12.0109H14.064V12.4109ZM13.864 5.47404V12.2109H14.264V5.47404H13.864ZM14.064 3.00036H11.7903V3.40036H14.064V3.00036ZM14.264 5.47404V3.20036H13.864V5.47404H14.264ZM11.7903 5.67404H14.064V5.27404H11.7903V5.67404ZM11.5903 3.20036V5.47404H11.9903V3.20036H11.5903ZM9.68504 3.40036H11.7903V3.00036H9.68504V3.40036ZM9.48504 1.68457V3.20036H9.88504V1.68457H9.48504ZM11.7903 1.48457H9.68504V1.88457H11.7903V1.48457ZM11.9903 3.20036V1.68457H11.5903V3.20036H11.9903Z" fill="#E42222"/>
</g>
</g>
<defs>
<clipPath id="clip0_921_4118">
<rect width="16" height="16" fill="white"/>
</clipPath>
</defs>
</svg>
