<svg width="180" height="64" viewBox="0 0 180 64" fill="none" xmlns="http://www.w3.org/2000/svg">
<path fill-rule="evenodd" clip-rule="evenodd" d="M87.1791 23.4585H79.9477V30.7055H76.332V16.2114H79.9477V19.8349H87.1791V16.2114H90.7948V30.7055H87.1791V23.4585ZM87.1791 12.5879V16.2114H79.9477V12.5879H87.1791ZM105.251 27.082H98.0192V12.5879H94.4035V30.7055H105.251V27.082ZM119.72 19.8349V23.4585H112.489V30.7055H108.873V12.5879H119.72V16.2114H112.489V19.8349H119.72ZM119.72 19.8349H123.336V16.2114H119.72V19.8349ZM141.408 12.5879H137.792V19.8349H130.561V12.5879H126.945V30.7055H130.561V23.4585H137.792V30.7055H141.408V12.5879ZM148.632 23.4585H155.863V30.7055H159.479V16.2114H155.863V12.5879H148.632V16.2114H145.016V30.7055H148.632V23.4585ZM148.632 19.8349V16.2114H155.863V19.8349H148.632ZM130.522 40.5408H137.749V44.1643H130.522V47.7879H137.749V51.4114H126.909V33.2938H137.749V36.9173H130.522V40.5408ZM137.749 47.7879H141.362V44.1643H137.749V47.7879ZM137.749 36.9173H141.362V40.5408H137.749V36.9173ZM119.69 33.2938H123.303V47.7879H119.69V33.2938ZM112.463 47.7879H119.69V51.4114H112.463V47.7879ZM112.463 47.7879H108.85V33.2938H112.463V47.7879ZM105.23 47.7879H98.0039V33.2938H94.3907V51.4114H105.23V47.7879ZM87.1715 36.9173H90.7846V40.5408H87.1715V36.9173ZM79.9452 36.9173V33.2938H87.1715V36.9173H79.9452ZM79.9452 47.7879H76.332V36.9173H79.9452V47.7879ZM87.1715 47.7879V51.4114H79.9452V47.7879H87.1715ZM87.1715 47.7879V44.1644H90.7846V47.7879H87.1715Z" fill="black"/>
<path fill-rule="evenodd" clip-rule="evenodd" d="M30.3892 16.4707H56.2716V20.3531H60.1539V24.2354H64.0363V28.1178H67.9187V54.0001H48.5069V28.1178H44.6245V24.2354H40.7422V20.3531H30.3892V16.4707ZM26.5069 24.2354V20.3531H30.3892V24.2354H26.5069ZM22.6245 28.1178V24.2354H26.5069V28.1178H22.6245ZM22.6245 28.1178V54.0001H18.7422V28.1178H22.6245Z" fill="#0D0D0D"/>
<path fill-rule="evenodd" clip-rule="evenodd" d="M28.4462 32.6475H32.3286V36.5298H28.4462V32.6475ZM36.2109 32.6475H40.0933V36.5298H36.2109V32.6475ZM29.0933 39.1181H25.2109V43.0004H29.0933V46.8828H39.4462V43.0004H43.3286V39.1181H39.4462V43.0004H29.0933V39.1181Z" fill="#0D0D0D"/>
<path fill-rule="evenodd" clip-rule="evenodd" d="M56.435 26.8232H65.1703V29.4115H67.2732V39.7644H65.1703V42.3527H56.435V39.7644H54.332V29.4115H56.435V26.8232Z" fill="#00FC6E"/>
<path fill-rule="evenodd" clip-rule="evenodd" d="M64.6834 24.2354H56.9187V26.8236H54.3304V29.4118H51.7422V39.7648H54.3304V42.353H56.9187V44.9412H64.6834V42.353H67.2716V39.7648H69.8598V29.4118H68.5657V26.8236H64.6834V24.2354ZM67.2716 29.4118H64.6834V26.8236H56.9187V29.4118H54.3304V39.7648H56.9187V42.353H64.6834V39.7648H67.2716V29.4118Z" fill="#0D0D0D"/>
<path d="M63.3897 30.7061V28.4414H61.125V30.7061H63.3897Z" fill="#0D0D0D"/>
<path d="M65.6553 34.5884V30.7061H63.3906V34.5884H65.6553Z" fill="#0D0D0D"/>
<path fill-rule="evenodd" clip-rule="evenodd" d="M17.4515 26.8232H22.628V28.1174H18.7456V39.7644V42.3527H17.4515V39.7644H14.8633V28.1174H17.4515V26.8232Z" fill="#00FC6E"/>
<path fill-rule="evenodd" clip-rule="evenodd" d="M17.4499 24.2354H23.9205V26.8236H17.4499V24.2354ZM14.8617 29.4118H17.4499V26.8236H14.8617V29.4118ZM14.8617 39.7648H12.2734V29.4118H14.8617V39.7648ZM17.4499 42.353H14.8617V39.7648H17.4499V42.353ZM17.4499 42.353H18.744V44.9412H17.4499V42.353Z" fill="#0D0D0D"/>
<path d="M62.0977 17.7646H64.6859V24.2352H62.0977V17.7646Z" fill="#0D0D0D"/>
<path d="M21.332 17.7646H23.9203V24.2352H21.332V17.7646Z" fill="#0D0D0D"/>
<path d="M59.5078 15.1768H62.096V17.765H59.5078V15.1768Z" fill="#0D0D0D"/>
<path d="M23.9219 15.1768H26.5101V17.765H23.9219V15.1768Z" fill="#0D0D0D"/>
<path d="M57.082 12.5879H59.6703V15.1761H57.082V12.5879Z" fill="#0D0D0D"/>
<path d="M26.5078 12.5879H29.096V15.1761H26.5078V12.5879Z" fill="#0D0D0D"/>
<path d="M29.0977 10H57.0829V12.5882H29.0977V10Z" fill="#0D0D0D"/>
</svg>
