<svg width="180" height="64" viewBox="0 0 180 64" fill="none" xmlns="http://www.w3.org/2000/svg">
<path fill-rule="evenodd" clip-rule="evenodd" d="M99.1709 17.3215H94.3004V22.2024H91.8652V12.4405H94.3004V14.881H99.1709V12.4405H101.606V22.2024H99.1709V17.3215ZM99.1709 10V12.4405H94.3004V10H99.1709ZM111.343 19.7619H106.472V10H104.037V22.2024H111.343V19.7619ZM121.089 14.881V17.3215H116.218V22.2024H113.783V10H121.089V12.4405H116.218V14.881H121.089ZM121.089 14.881H123.524V12.4405H121.089V14.881ZM135.696 10H133.26V14.881H128.39V10H125.955V22.2024H128.39V17.3215H133.26V22.2024H135.696V10ZM140.56 17.3215H145.43V22.2024H147.865V12.4405H145.43V10H140.56V12.4405H138.124V22.2024H140.56V17.3215ZM140.56 14.881V12.4405H145.43V14.881H140.56ZM99.1657 26.3893H101.599V28.8298H99.1657V26.3893ZM94.2987 26.3893V23.9488H99.1657V26.3893H94.2987ZM94.2987 33.7108H91.8652V26.3893H94.2987V33.7108ZM99.1657 33.7108V36.1512H94.2987V33.7108H99.1657ZM99.1657 33.7108V31.2703H101.599V33.7108H99.1657ZM111.329 33.7108H106.462V23.9488H104.029V36.1512H111.329V33.7108ZM121.066 23.9488H123.5V33.7108H121.066V23.9488ZM116.199 33.7108H121.066V36.1512H116.199V33.7108ZM116.199 33.7108H113.766V23.9488H116.199V33.7108ZM128.363 28.8298H133.23V31.2703H128.363V33.7108H133.23V36.1512H125.929V23.9488H133.23V26.3893H128.363V28.8298ZM133.23 33.7108H135.663V31.2703H133.23V33.7108ZM133.23 26.3893H135.663V28.8298H133.23V26.3893Z" fill="black"/>
<path fill-rule="evenodd" clip-rule="evenodd" d="M46.2545 16.4688H72.1368V20.3511H76.0192V24.2335H79.9015V28.1158H83.7839V53.9982H64.3721V28.1158H60.4898V24.2335H56.6074V20.3511H46.2545V16.4688ZM42.3721 24.2335V20.3511H46.2545V24.2335H42.3721ZM38.4898 28.1158V24.2335H42.3721V28.1158H38.4898ZM38.4898 28.1158V53.9982H34.6074V28.1158H38.4898Z" fill="#0D0D0D"/>
<path fill-rule="evenodd" clip-rule="evenodd" d="M44.3134 32.6445H48.1958V36.5269H44.3134V32.6445ZM52.0781 32.6445H55.9605V36.5269H52.0781V32.6445ZM44.9605 39.1151H41.0781V42.9975H44.9605V46.8798H55.3134V42.9975H59.1958V39.1151H55.3134V42.9975H44.9605V39.1151Z" fill="#0D0D0D"/>
<path fill-rule="evenodd" clip-rule="evenodd" d="M72.2983 26.8242H81.0336V29.4125H83.1365V39.7654H81.0336V42.3536H72.2983V39.7654H70.1953V29.4125H72.2983V26.8242Z" fill="#00FC6E"/>
<path fill-rule="evenodd" clip-rule="evenodd" d="M80.5486 24.2344H72.7839V26.8226H70.1957V29.4108H67.6074V39.7638H70.1957V42.352H72.7839V44.9403H80.5486V42.352H83.1368V39.7638H85.7251V29.4108H84.431V26.8226H80.5486V24.2344ZM83.1368 29.4108H80.5486V26.8226H72.7839V29.4108H70.1957V39.7638H72.7839V42.352H80.5486V39.7638H83.1368V29.4108Z" fill="#0D0D0D"/>
<path d="M79.2549 30.7061V28.4414H76.9902V30.7061H79.2549Z" fill="#0D0D0D"/>
<path d="M81.5186 34.5855V30.7031H79.2539V34.5855H81.5186Z" fill="#0D0D0D"/>
<path fill-rule="evenodd" clip-rule="evenodd" d="M33.3128 26.8242H38.4893V28.1183H34.607V39.7654V42.3536H33.3128V39.7654H30.7246V28.1183H33.3128V26.8242Z" fill="#00FC6E"/>
<path fill-rule="evenodd" clip-rule="evenodd" d="M33.3132 24.2344H39.7838V26.8226H33.3132V24.2344ZM30.725 29.4108H33.3132V26.8226H30.725V29.4108ZM30.725 39.7638H28.1367V29.4108H30.725V39.7638ZM33.3132 42.352H30.725V39.7638H33.3132V42.352ZM33.3132 42.352H34.6073V44.9403H33.3132V42.352Z" fill="#0D0D0D"/>
<path d="M77.9609 17.7656H80.5492V24.2362H77.9609V17.7656Z" fill="#0D0D0D"/>
<path d="M37.1953 17.7656H39.7835V24.2362H37.1953V17.7656Z" fill="#0D0D0D"/>
<path d="M75.3711 15.1758H77.9593V17.764H75.3711V15.1758Z" fill="#0D0D0D"/>
<path d="M39.7832 15.1758H42.3714V17.764H39.7832V15.1758Z" fill="#0D0D0D"/>
<path d="M72.9453 12.5898H75.5336V15.1781H72.9453V12.5898Z" fill="#0D0D0D"/>
<path d="M42.3711 12.5898H44.9593V15.1781H42.3711V12.5898Z" fill="#0D0D0D"/>
<path d="M44.9609 10H72.9462V12.5882H44.9609V10Z" fill="#0D0D0D"/>
<rect x="92.3652" y="40.5" width="59" height="13" rx="6.5" fill="#00FC6E"/>
<rect x="92.3652" y="40.5" width="59" height="13" rx="6.5" stroke="#0D0D0D"/>
<path d="M102.515 47.42C102.909 47.4933 103.232 47.69 103.485 48.01C103.739 48.33 103.865 48.6967 103.865 49.11C103.865 49.4833 103.772 49.8133 103.585 50.1C103.405 50.38 103.142 50.6 102.795 50.76C102.449 50.92 102.039 51 101.565 51H98.5552V44.02H101.435C101.909 44.02 102.315 44.0967 102.655 44.25C103.002 44.4033 103.262 44.6167 103.435 44.89C103.615 45.1633 103.705 45.4733 103.705 45.82C103.705 46.2267 103.595 46.5667 103.375 46.84C103.162 47.1133 102.875 47.3067 102.515 47.42ZM99.9552 46.9H101.235C101.569 46.9 101.825 46.8267 102.005 46.68C102.185 46.5267 102.275 46.31 102.275 46.03C102.275 45.75 102.185 45.5333 102.005 45.38C101.825 45.2267 101.569 45.15 101.235 45.15H99.9552V46.9ZM101.365 49.86C101.705 49.86 101.969 49.78 102.155 49.62C102.349 49.46 102.445 49.2333 102.445 48.94C102.445 48.64 102.345 48.4067 102.145 48.24C101.945 48.0667 101.675 47.98 101.335 47.98H99.9552V49.86H101.365ZM110.131 48.11C110.131 48.31 110.118 48.49 110.091 48.65H106.041C106.074 49.05 106.214 49.3633 106.461 49.59C106.708 49.8167 107.011 49.93 107.371 49.93C107.891 49.93 108.261 49.7067 108.481 49.26H109.991C109.831 49.7933 109.524 50.2333 109.071 50.58C108.618 50.92 108.061 51.09 107.401 51.09C106.868 51.09 106.388 50.9733 105.961 50.74C105.541 50.5 105.211 50.1633 104.971 49.73C104.738 49.2967 104.621 48.7967 104.621 48.23C104.621 47.6567 104.738 47.1533 104.971 46.72C105.204 46.2867 105.531 45.9533 105.951 45.72C106.371 45.4867 106.854 45.37 107.401 45.37C107.928 45.37 108.398 45.4833 108.811 45.71C109.231 45.9367 109.554 46.26 109.781 46.68C110.014 47.0933 110.131 47.57 110.131 48.11ZM108.681 47.71C108.674 47.35 108.544 47.0633 108.291 46.85C108.038 46.63 107.728 46.52 107.361 46.52C107.014 46.52 106.721 46.6267 106.481 46.84C106.248 47.0467 106.104 47.3367 106.051 47.71H108.681ZM112.783 46.61V49.29C112.783 49.4767 112.826 49.6133 112.913 49.7C113.006 49.78 113.16 49.82 113.373 49.82H114.023V51H113.143C111.963 51 111.373 50.4267 111.373 49.28V46.61H110.713V45.46H111.373V44.09H112.783V45.46H114.023V46.61H112.783ZM114.67 48.21C114.67 47.65 114.78 47.1533 115 46.72C115.227 46.2867 115.53 45.9533 115.91 45.72C116.297 45.4867 116.727 45.37 117.2 45.37C117.613 45.37 117.973 45.4533 118.28 45.62C118.593 45.7867 118.843 45.9967 119.03 46.25V45.46H120.44V51H119.03V50.19C118.85 50.45 118.6 50.6667 118.28 50.84C117.967 51.0067 117.603 51.09 117.19 51.09C116.723 51.09 116.297 50.97 115.91 50.73C115.53 50.49 115.227 50.1533 115 49.72C114.78 49.28 114.67 48.7767 114.67 48.21ZM119.03 48.23C119.03 47.89 118.963 47.6 118.83 47.36C118.697 47.1133 118.517 46.9267 118.29 46.8C118.063 46.6667 117.82 46.6 117.56 46.6C117.3 46.6 117.06 46.6633 116.84 46.79C116.62 46.9167 116.44 47.1033 116.3 47.35C116.167 47.59 116.1 47.8767 116.1 48.21C116.1 48.5433 116.167 48.8367 116.3 49.09C116.44 49.3367 116.62 49.5267 116.84 49.66C117.067 49.7933 117.307 49.86 117.56 49.86C117.82 49.86 118.063 49.7967 118.29 49.67C118.517 49.5367 118.697 49.35 118.83 49.11C118.963 48.8633 119.03 48.57 119.03 48.23ZM130.46 44.02L127.9 51H126.2L123.64 44.02H125.14L127.06 49.57L128.97 44.02H130.46ZM131.139 47.26C131.139 46.1067 131.346 45.2033 131.759 44.55C132.179 43.8967 132.873 43.57 133.839 43.57C134.806 43.57 135.496 43.8967 135.909 44.55C136.329 45.2033 136.539 46.1067 136.539 47.26C136.539 48.42 136.329 49.33 135.909 49.99C135.496 50.65 134.806 50.98 133.839 50.98C132.873 50.98 132.179 50.65 131.759 49.99C131.346 49.33 131.139 48.42 131.139 47.26ZM135.159 47.26C135.159 46.7667 135.126 46.3533 135.059 46.02C134.999 45.68 134.873 45.4033 134.679 45.19C134.493 44.9767 134.213 44.87 133.839 44.87C133.466 44.87 133.183 44.9767 132.989 45.19C132.803 45.4033 132.676 45.68 132.609 46.02C132.549 46.3533 132.519 46.7667 132.519 47.26C132.519 47.7667 132.549 48.1933 132.609 48.54C132.669 48.88 132.796 49.1567 132.989 49.37C133.183 49.5767 133.466 49.68 133.839 49.68C134.213 49.68 134.496 49.5767 134.689 49.37C134.883 49.1567 135.009 48.88 135.069 48.54C135.129 48.1933 135.159 47.7667 135.159 47.26ZM138.384 51.07C138.131 51.07 137.921 50.9933 137.754 50.84C137.594 50.68 137.514 50.4833 137.514 50.25C137.514 50.0167 137.594 49.8233 137.754 49.67C137.921 49.51 138.131 49.43 138.384 49.43C138.631 49.43 138.834 49.51 138.994 49.67C139.154 49.8233 139.234 50.0167 139.234 50.25C139.234 50.4833 139.154 50.68 138.994 50.84C138.834 50.9933 138.631 51.07 138.384 51.07ZM140.642 49.42C141.282 48.8867 141.792 48.4433 142.172 48.09C142.552 47.73 142.869 47.3567 143.122 46.97C143.375 46.5833 143.502 46.2033 143.502 45.83C143.502 45.49 143.422 45.2233 143.262 45.03C143.102 44.8367 142.855 44.74 142.522 44.74C142.189 44.74 141.932 44.8533 141.752 45.08C141.572 45.3 141.479 45.6033 141.472 45.99H140.112C140.139 45.19 140.375 44.5833 140.822 44.17C141.275 43.7567 141.849 43.55 142.542 43.55C143.302 43.55 143.885 43.7533 144.292 44.16C144.699 44.56 144.902 45.09 144.902 45.75C144.902 46.27 144.762 46.7667 144.482 47.24C144.202 47.7133 143.882 48.1267 143.522 48.48C143.162 48.8267 142.692 49.2467 142.112 49.74H145.062V50.9H140.122V49.86L140.642 49.42Z" fill="#0D0D0D"/>
</svg>
