<svg width="12" height="12" viewBox="0 0 12 12" fill="none" xmlns="http://www.w3.org/2000/svg">
<g clip-path="url(#clip0_479_2540)">
<path d="M3.99805 4.00098H8.5693V7.42848H3.99805V4.00098Z" fill="#FCFF5D"/>
<path d="M7.99953 5.71484H7.42578V6.28484H7.99953V5.71484Z" fill="#0D0D0D"/>
<path d="M7.99891 8.57275H6.28516V9.14275H7.99891V8.57275Z" fill="#0D0D0D"/>
<path d="M7.42547 4.57129H6.85547V5.14129H7.42547V4.57129Z" fill="#0D0D0D"/>
<path d="M7.42437 6.28516H5.14062V6.85891H7.42437V6.28516Z" fill="#0D0D0D"/>
<path d="M5.71062 4.57129H5.14062V5.14129H5.71062V4.57129Z" fill="#0D0D0D"/>
<path d="M5.14031 5.71484H4.57031V6.28484H5.14031V5.71484Z" fill="#0D0D0D"/>
<path d="M4.5718 8.57275H3.99805V9.14275H4.5718V8.57275Z" fill="#0D0D0D"/>
<path d="M9.14273 7.99898V3.42773H3.42773V7.99898H9.14273ZM3.99773 4.00148H8.56898V7.42898H3.99773V4.00148Z" fill="#0D0D0D"/>
<path d="M3.42727 8.57275H2.85352V9.14275H3.42727V8.57275Z" fill="#0D0D0D"/>
<path fill-rule="evenodd" clip-rule="evenodd" d="M10.8562 1.71375H11.4262V2.2875H12V12H9H7.99875H7.42499V12H6.85499V12H6.28499V12H5.71124V12H0.57H0L0 11.5L0 9.7125H0.57V9.1425H1.14V9.7125H8.56875V9.1425H9.1425V8.5725H9.7125V2.8575H9.1425V2.2875L2.28375 2.2875V2.8575H1.71375V2.2875H1.14V0L9.7125 0V0.57L10.2825 0.57V1.14375H10.8562V1.71375ZM0.57 11.5H5.71124V10.5914H7.42499V11.5H7.99875V10.2863H0.57V11.5ZM6.85499 11.5V11.1652H6.28499V11.5H6.85499ZM1.71375 1.71375H2.28375V0.57L1.71375 0.57V1.71375ZM2.85375 1.71375H3.4275V0.57H2.85375V1.71375ZM3.9975 1.71375L8.56875 1.71375V0.57L3.9975 0.57V1.71375ZM10.8562 5.715H11.4262V2.8575H10.8562V2.2875H10.2825V1.71375H9.7125V1.14375H9.1425V1.71375H9.7125V2.2875H10.2825V2.8575H10.8562V5.715ZM2.85375 2.85748H2.28375V7.99873H2.85375V2.85748ZM1.71375 7.99878H2.28375L2.28375 8.57253H1.71376V9.14251H1.14001V8.57251H1.71375V7.99878Z" fill="#0D0D0D"/>
<path d="M11.4262 1.71375H11.5262V1.61375H11.4262V1.71375ZM10.8562 1.71375H10.7562V1.81375H10.8562V1.71375ZM11.4262 2.2875H11.3262V2.3875H11.4262V2.2875ZM12 2.2875H12.1V2.1875H12V2.2875ZM12 12V12.1H12.1V12H12ZM7.42499 12V11.9H7.32499V12H7.42499ZM7.42499 12V12.1H7.52499V12H7.42499ZM6.85499 12H6.75499V12.1H6.85499V12ZM6.85499 12H6.95499V11.9H6.85499V12ZM6.28499 12V11.9H6.18499V12H6.28499ZM6.28499 12V12.1H6.38499V12H6.28499ZM5.71124 12H5.61124V12.1H5.71124V12ZM5.71124 12H5.81124V11.9H5.71124V12ZM0 12H-0.1V12.1H0L0 12ZM0 9.7125L0 9.6125H-0.1V9.7125H0ZM0.57 9.7125V9.8125H0.67V9.7125H0.57ZM0.57 9.1425V9.0425H0.47V9.1425H0.57ZM1.14 9.1425H1.24V9.0425H1.14V9.1425ZM1.14 9.7125H1.04V9.8125H1.14V9.7125ZM8.56875 9.7125V9.8125H8.66875V9.7125H8.56875ZM8.56875 9.1425V9.0425H8.46875V9.1425H8.56875ZM9.1425 9.1425V9.2425H9.2425V9.1425H9.1425ZM9.1425 8.5725V8.4725H9.0425V8.5725H9.1425ZM9.7125 8.5725V8.6725H9.8125V8.5725H9.7125ZM9.7125 2.8575H9.8125V2.7575H9.7125V2.8575ZM9.1425 2.8575H9.0425V2.9575H9.1425V2.8575ZM9.1425 2.2875H9.2425V2.1875H9.1425V2.2875ZM2.28375 2.2875V2.1875H2.18375V2.2875H2.28375ZM2.28375 2.8575V2.9575H2.38375V2.8575H2.28375ZM1.71375 2.8575H1.61375V2.9575H1.71375V2.8575ZM1.71375 2.2875H1.81375V2.1875H1.71375V2.2875ZM1.14 2.2875H1.04V2.3875H1.14V2.2875ZM1.14 0V-0.1H1.04V0L1.14 0ZM9.7125 0L9.8125 0V-0.1L9.7125 -0.1V0ZM9.7125 0.57H9.6125V0.67H9.7125V0.57ZM10.2825 0.57H10.3825V0.47H10.2825V0.57ZM10.2825 1.14375H10.1825V1.24375H10.2825V1.14375ZM10.8562 1.14375H10.9563V1.04375H10.8562V1.14375ZM0.57 11.5H0.47V11.6H0.57V11.5ZM5.71124 11.5V11.6H5.81124V11.5H5.71124ZM5.71124 10.5914V10.4914H5.61124V10.5914H5.71124ZM7.42499 10.5914H7.52499V10.4914H7.42499V10.5914ZM7.42499 11.5H7.32499V11.6H7.42499V11.5ZM7.99875 11.5V11.6H8.09875V11.5H7.99875ZM7.99875 10.2863H8.09875V10.1862H7.99875V10.2863ZM0.57 10.2863V10.1862H0.47V10.2863H0.57ZM6.85499 11.1652H6.95499V11.0652H6.85499V11.1652ZM6.85499 11.5V11.6H6.95499V11.5H6.85499ZM6.28499 11.1652V11.0652H6.18499V11.1652H6.28499ZM6.28499 11.5H6.18499V11.6H6.28499V11.5ZM2.28375 1.71375V1.81375H2.38375V1.71375H2.28375ZM1.71375 1.71375H1.61375V1.81375H1.71375V1.71375ZM2.28375 0.57H2.38375V0.47H2.28375V0.57ZM1.71375 0.57V0.47H1.61375V0.57H1.71375ZM3.4275 1.71375V1.81375H3.5275V1.71375H3.4275ZM2.85375 1.71375H2.75375V1.81375H2.85375V1.71375ZM3.4275 0.57H3.5275V0.47H3.4275V0.57ZM2.85375 0.57V0.47H2.75375V0.57H2.85375ZM8.56875 1.71375V1.81375H8.66875V1.71375H8.56875ZM3.9975 1.71375H3.8975V1.81375H3.9975V1.71375ZM8.56875 0.57H8.66875V0.47H8.56875V0.57ZM3.9975 0.57V0.47H3.8975V0.57H3.9975ZM11.4262 5.715V5.815H11.5262V5.715H11.4262ZM10.8562 5.715H10.7562V5.815H10.8562V5.715ZM11.4262 2.8575H11.5262V2.7575H11.4262V2.8575ZM10.8562 2.2875H10.9563V2.1875H10.8562V2.2875ZM10.2825 1.71375H10.3825V1.61375H10.2825V1.71375ZM9.7125 1.14375H9.8125V1.04375H9.7125V1.14375ZM9.1425 1.14375V1.04375H9.0425V1.14375H9.1425ZM9.1425 1.71375H9.0425V1.81375H9.1425V1.71375ZM9.7125 2.2875H9.6125V2.3875H9.7125V2.2875ZM10.2825 2.8575H10.1825V2.9575H10.2825V2.8575ZM2.28375 2.85748V2.75748H2.18375V2.85748H2.28375ZM2.85375 2.85748H2.95375V2.75748H2.85375V2.85748ZM2.28375 7.99873H2.18375L2.18375 8.09873H2.28375L2.28375 7.99873ZM2.85375 7.99873L2.85375 8.09873H2.95375L2.95375 7.99873H2.85375ZM2.28375 7.99878H2.38374V7.89878H2.28375V7.99878ZM1.71375 7.99878V7.89878H1.61375V7.99878H1.71375ZM2.28375 8.57253V8.67253H2.38374V8.57253H2.28375ZM1.71376 8.57253V8.47253H1.61376V8.57253H1.71376ZM1.71376 9.14251V9.24251H1.81376V9.14251H1.71376ZM1.14001 9.14251H1.04001V9.24251H1.14001V9.14251ZM1.14001 8.57251V8.47251H1.04001V8.57251H1.14001ZM1.71375 8.57251V8.67251H1.81375V8.57251H1.71375ZM11.4262 1.61375H10.8562V1.81375H11.4262V1.61375ZM11.5262 2.2875V1.71375H11.3262V2.2875H11.5262ZM12 2.1875H11.4262V2.3875H12V2.1875ZM12.1 12V2.2875H11.9V12H12.1ZM9 12.1H12V11.9H9V12.1ZM9 11.9H7.99875V12.1H9V11.9ZM7.99875 11.9H7.42499V12.1H7.99875V11.9ZM7.52499 12V12H7.32499V12H7.52499ZM6.85499 12.1H7.42499V11.9H6.85499V12.1ZM6.75499 12V12H6.95499V12H6.75499ZM6.85499 11.9H6.28499V12.1H6.85499V11.9ZM6.38499 12V12H6.18499V12H6.38499ZM5.71124 12.1H6.28499V11.9H5.71124V12.1ZM5.61124 12V12H5.81124V12H5.61124ZM5.71124 11.9H0.57V12.1H5.71124V11.9ZM0.57 11.9H0L0 12.1H0.57V11.9ZM0.1 12L0.1 11.5H-0.1L-0.1 12H0.1ZM-0.1 9.7125L-0.1 11.5H0.1L0.1 9.7125H-0.1ZM0.57 9.6125H0L0 9.8125H0.57V9.6125ZM0.47 9.1425V9.7125H0.67V9.1425H0.47ZM1.14 9.0425H0.57V9.2425H1.14V9.0425ZM1.24 9.7125V9.1425H1.04V9.7125H1.24ZM8.56875 9.6125H1.14V9.8125H8.56875V9.6125ZM8.46875 9.1425V9.7125H8.66875V9.1425H8.46875ZM9.1425 9.0425H8.56875V9.2425H9.1425V9.0425ZM9.0425 8.5725V9.1425H9.2425V8.5725H9.0425ZM9.7125 8.4725H9.1425V8.6725H9.7125V8.4725ZM9.6125 2.8575V8.5725H9.8125V2.8575H9.6125ZM9.1425 2.9575H9.7125V2.7575H9.1425V2.9575ZM9.0425 2.2875V2.8575H9.2425V2.2875H9.0425ZM2.28375 2.3875L9.1425 2.3875V2.1875L2.28375 2.1875V2.3875ZM2.38375 2.8575V2.2875H2.18375V2.8575H2.38375ZM1.71375 2.9575H2.28375V2.7575H1.71375V2.9575ZM1.61375 2.2875V2.8575H1.81375V2.2875H1.61375ZM1.14 2.3875H1.71375V2.1875H1.14V2.3875ZM1.04 0V2.2875H1.24V0L1.04 0ZM9.7125 -0.1L1.14 -0.1V0.1L9.7125 0.1V-0.1ZM9.8125 0.57V0L9.6125 0V0.57H9.8125ZM10.2825 0.47H9.7125V0.67L10.2825 0.67V0.47ZM10.3825 1.14375V0.57H10.1825V1.14375H10.3825ZM10.8562 1.04375H10.2825V1.24375H10.8562V1.04375ZM10.9563 1.71375V1.14375H10.7562V1.71375H10.9563ZM0.57 11.6H5.71124V11.4H0.57V11.6ZM5.61124 10.5914V11.5H5.81124V10.5914H5.61124ZM7.42499 10.4914H5.71124V10.6914H7.42499V10.4914ZM7.52499 11.5V10.5914H7.32499V11.5H7.52499ZM7.42499 11.6H7.99875V11.4H7.42499V11.6ZM7.89875 10.2863V11.5H8.09875V10.2863H7.89875ZM0.57 10.3863H7.99875V10.1862H0.57V10.3863ZM0.67 11.5V10.2863H0.47L0.47 11.5H0.67ZM6.75499 11.1652V11.5H6.95499V11.1652H6.75499ZM6.28499 11.2652H6.85499V11.0652H6.28499V11.2652ZM6.38499 11.5V11.1652H6.18499V11.5H6.38499ZM6.28499 11.6H6.85499V11.4H6.28499V11.6ZM2.28375 1.61375H1.71375V1.81375H2.28375V1.61375ZM2.18375 0.57V1.71375H2.38375V0.57H2.18375ZM1.71375 0.67L2.28375 0.67V0.47H1.71375V0.67ZM1.81375 1.71375V0.57H1.61375V1.71375H1.81375ZM3.4275 1.61375H2.85375V1.81375H3.4275V1.61375ZM3.3275 0.57V1.71375H3.5275V0.57H3.3275ZM2.85375 0.67H3.4275V0.47L2.85375 0.47V0.67ZM2.95375 1.71375V0.57H2.75375V1.71375H2.95375ZM8.56875 1.61375L3.9975 1.61375V1.81375L8.56875 1.81375V1.61375ZM8.46875 0.57V1.71375H8.66875V0.57H8.46875ZM3.9975 0.67L8.56875 0.67V0.47L3.9975 0.47V0.67ZM4.0975 1.71375V0.57H3.8975V1.71375L4.0975 1.71375ZM11.4262 5.615H10.8562V5.815H11.4262V5.615ZM11.3262 2.8575V5.715H11.5262V2.8575H11.3262ZM10.8562 2.9575H11.4262V2.7575H10.8562V2.9575ZM10.7562 2.2875V2.8575H10.9563V2.2875H10.7562ZM10.2825 2.3875H10.8562V2.1875H10.2825V2.3875ZM10.1825 1.71375V2.2875H10.3825V1.71375H10.1825ZM9.7125 1.81375H10.2825V1.61375H9.7125V1.81375ZM9.6125 1.14375V1.71375H9.8125V1.14375H9.6125ZM9.1425 1.24375H9.7125V1.04375H9.1425V1.24375ZM9.2425 1.71375V1.14375H9.0425V1.71375H9.2425ZM9.7125 1.61375H9.1425V1.81375H9.7125V1.61375ZM9.8125 2.2875V1.71375H9.6125V2.2875H9.8125ZM10.2825 2.1875H9.7125V2.3875H10.2825V2.1875ZM10.3825 2.8575V2.2875H10.1825V2.8575H10.3825ZM10.8562 2.7575H10.2825V2.9575H10.8562V2.7575ZM10.9563 5.715V2.8575H10.7562V5.715H10.9563ZM2.28375 2.95748H2.85375V2.75748H2.28375V2.95748ZM2.38375 7.99873V2.85748H2.18375V7.99873H2.38375ZM2.85375 7.89873H2.28375L2.28375 8.09873H2.85375L2.85375 7.89873ZM2.75375 2.85748V7.99873H2.95375V2.85748H2.75375ZM2.28375 7.89878H1.71375V8.09878H2.28375L2.28375 7.89878ZM2.38374 8.57253L2.38374 7.99878H2.18375L2.18375 8.57253H2.38374ZM1.71376 8.67253H2.28375V8.47253H1.71376V8.67253ZM1.81376 9.14251V8.57253H1.61376V9.14251H1.81376ZM1.14001 9.24251H1.71376V9.04251H1.14001V9.24251ZM1.04001 8.57251V9.14251H1.24001V8.57251H1.04001ZM1.71375 8.47251H1.14001V8.67251H1.71375V8.47251ZM1.61375 7.99878V8.57251H1.81375V7.99878H1.61375Z" fill="#0D0D0D"/>
</g>
<defs>
<clipPath id="clip0_479_2540">
<rect width="12" height="12" fill="white"/>
</clipPath>
</defs>
</svg>
