<svg width="24" height="24" viewBox="0 0 24 24" fill="none" xmlns="http://www.w3.org/2000/svg">
<g id="Microphone">
<g id="Vector">
<path d="M4.14062 11.6368H6.38624V13.8824H4.14062V11.6368Z" fill="#0D0D0D"/>
<path d="M4.14062 13.8824H6.38624V16.128H4.14062V13.8824Z" fill="#0D0D0D"/>
<path d="M4.14062 16.128H6.38624V18.3736H4.14062V16.128Z" fill="#0D0D0D"/>
<path d="M6.38624 16.128H8.63185V18.3736H6.38624V16.128Z" fill="#0D0D0D"/>
<path d="M8.63185 16.128H10.8775V18.3736H8.63185V16.128Z" fill="#0D0D0D"/>
<path d="M10.8775 16.128H13.1231V18.3736H10.8775V16.128Z" fill="#0D0D0D"/>
<path d="M10.8775 18.3736H13.1231V20.6193H10.8775V18.3736Z" fill="#0D0D0D"/>
<path d="M10.8775 20.6193H13.1231V22.8649H10.8775V20.6193Z" fill="#0D0D0D"/>
<path d="M13.1231 16.128H15.3687V18.3736H13.1231V16.128Z" fill="#0D0D0D"/>
<path d="M15.3687 16.128H17.6143V18.3736H15.3687V16.128Z" fill="#0D0D0D"/>
<path d="M17.6143 16.128H19.8599V18.3736H17.6143V16.128Z" fill="#0D0D0D"/>
<path d="M17.6143 13.8824H19.8599V16.128H17.6143V13.8824Z" fill="#0D0D0D"/>
<path d="M17.6143 11.6368H19.8599V13.8824H17.6143V11.6368Z" fill="#0D0D0D"/>
<path d="M12.0003 12.3633H14.2459V14.6089H12.0003V12.3633Z" fill="#0D0D0D"/>
<path d="M9.75465 12.3633H12.0003V14.6089H9.75465V12.3633Z" fill="#0D0D0D"/>
<path d="M7.50904 10.1177H9.75465V12.3633H7.50904V10.1177Z" fill="#0D0D0D"/>
<path d="M7.50904 7.8721H9.75465V10.1177H7.50904V7.8721Z" fill="#0D0D0D"/>
<path d="M7.50904 5.62648H9.75465V7.8721H7.50904V5.62648Z" fill="#0D0D0D"/>
<path d="M7.50904 3.38087H9.75465V5.62648H7.50904V3.38087Z" fill="#0D0D0D"/>
<path d="M9.75465 1.13525H12.0003V3.38087H9.75465V1.13525Z" fill="#0D0D0D"/>
<path d="M12.0003 1.13525H14.2459V3.38087H12.0003V1.13525Z" fill="#0D0D0D"/>
<path d="M14.2459 3.38087H16.4915V5.62648H14.2459V3.38087Z" fill="#0D0D0D"/>
<path d="M14.2459 5.62648H16.4915V7.8721H14.2459V5.62648Z" fill="#0D0D0D"/>
<path d="M14.2459 7.8721H16.4915V10.1177H14.2459V7.8721Z" fill="#0D0D0D"/>
<path d="M14.2459 10.1177H16.4915V12.3633H14.2459V10.1177Z" fill="#0D0D0D"/>
</g>
</g>
</svg>
