<svg width="14" height="11" viewBox="0 0 14 11" fill="none" xmlns="http://www.w3.org/2000/svg">
<path id="Union" fill-rule="evenodd" clip-rule="evenodd" d="M6 1.25C6 0.835786 6.33579 0.5 6.75 0.5C7.16421 0.5 7.5 0.835786 7.5 1.25V9.75C7.5 10.1642 7.16421 10.5 6.75 10.5C6.33579 10.5 6 10.1642 6 9.75V1.25ZM3 3.25C3 2.83579 3.33579 2.5 3.75 2.5C4.16421 2.5 4.5 2.83579 4.5 3.25V7.75C4.5 8.16421 4.16421 8.5 3.75 8.5C3.33579 8.5 3 8.16421 3 7.75V3.25ZM0.75 3.5C0.335786 3.5 0 3.83579 0 4.25V6.75C0 7.16421 0.335786 7.5 0.75 7.5C1.16421 7.5 1.5 7.16421 1.5 6.75V4.25C1.5 3.83579 1.16421 3.5 0.75 3.5ZM9 3.25C9 2.83579 9.33579 2.5 9.75 2.5C10.1642 2.5 10.5 2.83579 10.5 3.25V7.75C10.5 8.16421 10.1642 8.5 9.75 8.5C9.33579 8.5 9 8.16421 9 7.75V3.25ZM12.75 3.5C12.3358 3.5 12 3.83579 12 4.25V6.75C12 7.16421 12.3358 7.5 12.75 7.5C13.1642 7.5 13.5 7.16421 13.5 6.75V4.25C13.5 3.83579 13.1642 3.5 12.75 3.5Z" fill="#0D0D0D"/>
</svg>
