<svg width="121" height="120" viewBox="0 0 121 120" fill="none" xmlns="http://www.w3.org/2000/svg">
<path fill-rule="evenodd" clip-rule="evenodd" d="M44.8573 19H77.9608V23.9655H44.8573V19ZM39.892 23.9655H44.8575V28.931H39.892V23.9655ZM82.9265 28.931V23.9655H58.0989V28.931H63.0644V33.8965H87.892V28.931H82.9265ZM34.9265 28.931H39.892V33.8965H34.9265V28.931ZM29.9609 33.8965H34.9265V61.9999H29.9609V33.8965ZM92.8575 54.9999V33.8965H68.0299V54.9999H92.8575Z" fill="#0D0D0D"/>
<path fill-rule="evenodd" clip-rule="evenodd" d="M42.375 35.6895H47.3405V38.655H42.375V35.6895ZM52.3059 35.6895H57.2714V38.655H52.3059V35.6895ZM52.444 39.9309H47.2026V48.8964H52.444V39.9309Z" fill="#0D0D0D"/>
<path d="M103.037 57.1406H99.8984V98.0482H103.037V57.1406Z" fill="#0D0D0D"/>
<path d="M90.4657 98.045V94.9062H87.3062V98.045H52.6969V94.9062H49.5581V98.045H40.1211V101.184H99.9027V98.045H90.4657Z" fill="#0D0D0D"/>
<path d="M96.7649 91.75H93.6055V94.9094H96.7649V91.75Z" fill="#0D0D0D"/>
<path d="M96.7649 60.2812H93.6055V63.4407H96.7649V60.2812Z" fill="#0D0D0D"/>
<path d="M93.6031 72.8746H90.4643V69.7461H49.5568V72.8849H46.418V79.1831H49.5568V82.3219H90.4643V79.1831H93.6031V72.8746ZM58.9938 79.1728H52.6956V72.8746H58.9938V79.1728ZM74.729 76.0134H65.292V72.8746H74.729V76.0134ZM87.3049 79.1728H81.0273V72.8746H87.3049V79.1728Z" fill="#0D0D0D"/>
<path d="M87.3068 91.75H84.168V94.9094H87.3068V91.75Z" fill="#0D0D0D"/>
<path d="M84.1665 88.6094H55.8555V91.7482H84.1665V88.6094Z" fill="#0D0D0D"/>
<path d="M84.1665 60.2812H55.8555V63.4407H84.1665V60.2812Z" fill="#0D0D0D"/>
<path d="M55.8587 91.75H52.6992V94.9094H55.8587V91.75Z" fill="#0D0D0D"/>
<path d="M46.4212 91.75H43.2617V94.9094H46.4212V91.75Z" fill="#0D0D0D"/>
<path d="M46.4212 60.2812H43.2617V63.4407H46.4212V60.2812Z" fill="#0D0D0D"/>
<path d="M99.9027 54H40.1211V57.1388H99.9027V54Z" fill="#0D0D0D"/>
<path d="M40.1204 57.1406H36.9609V98.0482H40.1204V57.1406Z" fill="#0D0D0D"/>
<path fill-rule="evenodd" clip-rule="evenodd" d="M40.4612 42H23.9612V49.5002H20.9609V52.5002H20.9612V57H23.9612V61.5H40.4612V57H43.4612V52.5H43.4609V49.5002H40.4612V42Z" fill="#D4D4D4"/>
<path fill-rule="evenodd" clip-rule="evenodd" d="M28.461 39H35.961V42H28.461V39ZM20.9609 57.0002V54.7503H43.4609V51.7503H20.9609V49.5003H17.9609V57.0003H20.9609V61.5002H23.9608V64.5002H23.9609V70.5001H26.9609V84L29.9607 84L29.9607 87H34.4607V84L29.9609 84V70.5H26.9609V64.5002H35.9608V61.5002H23.9609V57.0002H20.9609ZM28.4608 42.0001H23.9608V45.0001H20.9608V49.5001H23.9608V45.0001H28.4608V42.0001ZM35.9609 42H40.4609V45L43.4609 45V49.5H40.4609V45L35.9609 45V42ZM40.461 61.5001H35.961V64.5001H40.461V61.5002H43.461V57.0002H40.461V61.5001ZM46.461 49.5002H43.461V57.0002H46.461V49.5002ZM37.4608 64.5001H40.4608V70.5001H37.461V83.9999H34.461V70.4999H37.4608V64.5001Z" fill="#0D0D0D"/>
<path fill-rule="evenodd" clip-rule="evenodd" d="M37.4609 64.5H26.9609V70.5H29.9606L29.9606 84.0001H34.4606V70.5H37.4609V64.5Z" fill="white"/>
</svg>
