<svg width="65" height="64" viewBox="0 0 65 64" fill="none" xmlns="http://www.w3.org/2000/svg">
<g id="nothing_placeholder_64">
<g id="Group 1707479980">
<g id="house">
<g id="Group 1707479825">
<path id="Union" fill-rule="evenodd" clip-rule="evenodd" d="M22.3027 11.1934H41.8196V14.1209H22.3027V11.1934ZM19.375 14.1211H22.3025V17.0486H19.375V14.1211ZM44.7476 14.1211H30.1099V17.0486H44.7476V14.1211ZM16.4472 17.0488H19.3748V19.9763H16.4472V17.0488ZM47.6753 17.0488H33.0376V19.9763H47.6753V17.0488ZM13.5195 19.9765H16.4471V36.5456H13.5195V19.9765ZM50.603 19.9765H35.9654V36.5456H50.603V19.9765Z" fill="#0D0D0D"/>
<path id="Union_2" fill-rule="evenodd" clip-rule="evenodd" d="M20.8438 21.0352H23.7713V23.9627H20.8438V21.0352ZM26.6992 21.0352H29.6267V23.9627H26.6992V21.0352ZM29.1381 25.8917H21.3314V28.8192H29.1381V25.8917Z" fill="#0D0D0D"/>
</g>
</g>
<g id="ufo">
<rect id="Rectangle 176725" x="10.5742" y="36.543" width="43.0389" height="1.76872" fill="#0D0D0D"/>
<rect id="Rectangle 176727" x="9.39453" y="38.3105" width="2.35829" height="1.76872" fill="#0D0D0D"/>
<path id="Union_3" fill-rule="evenodd" clip-rule="evenodd" d="M10.5757 41.8496H8.80702V43.6183H10.5757V41.8496ZM8.8053 43.6179H7.03658V45.3862H5.27045V47.1549H7.03917V45.3866H8.8053V43.6179ZM5.26872 47.1566H3.5V48.9254H5.26872V47.1566Z" fill="#0D0D0D"/>
<path id="Union_4" fill-rule="evenodd" clip-rule="evenodd" d="M53.6118 41.8496H55.3805V43.6183H53.6118V41.8496ZM55.3822 43.6179H57.1509V45.3862H58.9171V47.1549H57.1483V45.3866H55.3822V43.6179ZM58.9188 47.1566H60.6875V48.9254H58.9188V47.1566Z" fill="#0D0D0D"/>
<rect id="Rectangle 176733" x="5.26953" y="48.9238" width="53.6512" height="1.76872" fill="#0D0D0D"/>
<rect id="Rectangle 176728" x="52.4336" y="38.3105" width="2.35829" height="1.76872" fill="#0D0D0D"/>
<rect id="Rectangle 176726" x="10.5742" y="40.0801" width="43.0389" height="1.76872" fill="#0D0D0D"/>
<path id="Union_5" fill-rule="evenodd" clip-rule="evenodd" d="M8.21484 50.6953H9.98356V52.464H8.21484V50.6953ZM19.4162 50.6953H21.1849V52.464H19.4188V54.2323H17.65V52.4636H19.4162V50.6953ZM11.754 52.4636H9.98529V54.2323H11.7514V56.0006H17.6472V54.2319H11.754V52.4636ZM24.7237 50.6953H26.4924V52.464H24.7237V50.6953ZM35.925 50.6953H37.6938V52.464H35.9276V54.2323H34.1589V52.4636H35.925V50.6953ZM28.2629 52.4636H26.4942V54.2323H28.2603V56.0006H34.156V54.2319H28.2629V52.4636ZM44.1793 50.6953H42.4106V52.464H44.1793V50.6953ZM55.3807 50.6953H53.6119V52.4636H51.8458V54.2323H53.6145V52.464H55.3807V50.6953ZM44.1811 52.4636H45.9498V54.2319H51.8429V56.0006H45.9472V54.2323H44.1811V52.4636Z" fill="#0D0D0D"/>
<path id="Union_6" fill-rule="evenodd" clip-rule="evenodd" d="M15.2892 42.7344H13.5204V44.5031H15.2866V46.271H13.5204V48.0397H15.2892V46.2714H17.0553V44.5027H15.2892V42.7344ZM13.5187 44.5027H11.75V46.2714H13.5187V44.5027Z" fill="#0D0D0D"/>
<path id="Union_7" fill-rule="evenodd" clip-rule="evenodd" d="M27.0821 42.7344H25.3134V44.5031H27.0795V46.271H25.3134V48.0397H27.0821V46.2714H28.8483V44.5027H27.0821V42.7344ZM25.3117 44.5027H23.543V46.2714H25.3117V44.5027Z" fill="#0D0D0D"/>
<path id="Union_8" fill-rule="evenodd" clip-rule="evenodd" d="M38.879 42.7344H37.1103V44.5031H38.8764V46.271H37.1103V48.0397H38.879V46.2714H40.6451V44.5027H38.879V42.7344ZM37.1086 44.5027H35.3398V46.2714H37.1086V44.5027Z" fill="#0D0D0D"/>
<path id="Union_9" fill-rule="evenodd" clip-rule="evenodd" d="M50.6681 42.7344H48.8994V44.5031H50.6655V46.271H48.8994V48.0397H50.6681V46.2714H52.4342V44.5027H50.6681V42.7344ZM48.8976 44.5027H47.1289V46.2714H48.8976V44.5027Z" fill="#0D0D0D"/>
</g>
<path id="Union_10" fill-rule="evenodd" clip-rule="evenodd" d="M19.4215 50.6934H9.98828V52.4621H15.8826V54.2304H17.6513V52.4621H19.4215V50.6934Z" fill="#D4D4D4"/>
<path id="Union_11" fill-rule="evenodd" clip-rule="evenodd" d="M35.9254 50.6934H26.4922V52.4621H32.3865V54.2304H34.1552V52.4621H35.9254V50.6934Z" fill="#D4D4D4"/>
<path id="Union_12" fill-rule="evenodd" clip-rule="evenodd" d="M53.6168 50.6934H44.1836V52.4621H50.0779V54.2304H51.8466V52.4621H53.6168V50.6934Z" fill="#D4D4D4"/>
<rect id="Rectangle 176742" x="5.26953" y="47.7461" width="53.6512" height="1.17915" fill="#D4D4D4"/>
<g id="question">
<path id="&#231;&#159;&#169;&#229;&#189;&#162; 1" fill-rule="evenodd" clip-rule="evenodd" d="M40.6445 30.1764H45.847V25.4941H40.6445V30.1764Z" fill="white"/>
<path id="&#229;&#185;&#182;&#233;&#155;&#134;" fill-rule="evenodd" clip-rule="evenodd" d="M37.7578 8.7793V14.2835H43.2621V17.0357H40.5099V19.7878V22.5451H46.0142V19.7878H48.7663V17.0357H51.5184V11.5314H48.7663V8.7793H46.0142H37.7578Z" fill="white"/>
<path id="&#229;&#185;&#182;&#233;&#155;&#134;_2" d="M38.5373 8.78038V14.2846H37.7569V13.5042H44.0416V17.8171H40.5091V17.0367H41.2894V19.7889V22.5462H40.5091V21.7658H46.0133V22.5462H45.2329V19.0085H48.7654V19.7889H47.9851V16.2564H51.5176V17.0367H50.7372V11.5325H51.5176V12.3129H47.9851V8.78038H48.7654V9.56075H46.0133H37.7569V8.78038H38.5373ZM36.9766 8H46.0133H49.5458V11.5325H48.7654V10.7521H52.2979V17.8171H48.7654V17.0367H49.5458V20.5692H46.0133V19.7889H46.7937V23.3266H39.7287V19.7889V16.2564H43.2612V17.0367H42.4808V14.2846H43.2612V15.065H36.9766V8.78038V8ZM39.7287 28.0504V24.5179H46.7937V28.0504H45.2329V25.2983H46.0133V26.0787H40.5091V25.2983H41.2894V28.0504H39.7287ZM46.7937 28.0504V31.5829H39.7287V28.0504H41.2894V30.8026H40.5091V30.0222H46.0133V30.8026H45.2329V28.0504H46.7937Z" fill="#0D0D0D"/>
</g>
</g>
</g>
</svg>
