<svg width="13" height="12" viewBox="0 0 13 12" fill="none" xmlns="http://www.w3.org/2000/svg">
<rect x="3.45508" y="2.02002" width="3.79528" height="3.51793" fill="#00FC6E"/>
<path fill-rule="evenodd" clip-rule="evenodd" d="M3.75081 5.95001H3.20081V5.40001H2.65081V2.1H3.20081V1.55H3.75081V1H7.05081V1.55H7.60082V2.1H8.15082V5.40001H7.60082V5.95001H7.05081V6.50001H3.75081V5.95001ZM4.30081 3.2H3.75081V4.30001H4.30081V4.85001H4.85081V5.40001H5.95081V4.85001H6.50081V4.30001H7.05081V3.2H6.50081V2.65H5.95081V2.1H4.85081V2.65H4.30081V3.2ZM8.15001 7.59973H8.70002V8.14973H9.25002V10.8997H8.15001V9.24973H7.60001V8.69973H7.05001V8.14973H3.2V8.69973H2.65V9.24973H2.1V10.8997H1V8.14973H1.55V7.59973H2.1V7.04973H8.15001V7.59973ZM9.80054 5.95001H10.3505V5.40001H10.9005V2.1H10.3505V1.55H9.80054V1H9.25054H8.70054V2.65H9.25054V3.2H9.80054V3.75001V4.30001H9.25054V4.85001H8.70054V6.50001H9.80054V5.95001ZM11.4503 7.59973V8.14973H12.0003V10.8997H10.9003V9.24973H10.3503V8.69973H9.80027V7.04973H10.9003V7.59973H11.4503Z" fill="#0D0D0D"/>
</svg>
