<svg width="16" height="16" viewBox="0 0 16 16" fill="none" xmlns="http://www.w3.org/2000/svg">
<g id="add_Person">
<g id="Group">
<path id="Union" fill-rule="evenodd" clip-rule="evenodd" d="M3.88888 8H3.11111V7.22222H2.33333V2.55556H3.11111V1.77778H3.88888V1H8.55555V1.77778H9.33333V2.55556H10.1111V7.22222H9.33333V8H8.55555V8.77778H3.88888V8ZM4.66666 4.11111H3.88888V5.66667H4.66666V6.44444H5.44444V7.22222H7V6.44444H7.77777V5.66667H8.55555V4.11111H7.77777V3.33333H7V2.55556H5.44444V3.33333H4.66666V4.11111ZM10.8889 10.3325H11.6667V11.1102H12.4444V14.9991H10.8889V12.6658H10.1111V11.888H9.33333V11.1102H3.11111V11.888H2.33333V12.6658H1.55556V14.9991H0V11.1102H0.777778V10.3325H1.55556V9.55469H10.8889V10.3325ZM12.4444 4.11133H10.8889V5.66688H12.4444V7.22233H14V5.66688H15.5556V4.11133H14V2.55566L12.4444 2.55566V4.11133Z" fill="#0D0D0D"/>
</g>
</g>
</svg>
