<svg width="33" height="32" viewBox="0 0 33 32" fill="none" xmlns="http://www.w3.org/2000/svg">
<path d="M10.4863 12.8861L10.4863 7.25635H21.471L21.471 14.2498H11.7636V12.8861H10.4863Z" fill="#00FC6E"/>
<path d="M25.1653 8.66016H23.7852L23.7852 14.1901H29.1692V12.6521H27.8501V11.3268H26.5059V10.0071H25.1653L25.1653 8.66016Z" fill="#00FC6E"/>
<path d="M21.1726 17.9972V15.3101H15.7168V26.0091H17.3454V23.3716H18.6076V20.7933H19.9104V17.9972H21.1726Z" fill="#00FC6E"/>
<path d="M29.1612 14.0053H23.8325V8.66777H25.1625V7.33777H23.8325V5.99902H9.1675V7.33777H7.82875V8.66777H6.49875V9.99777H5.16875V11.3365H3.83V12.6665H2.5V16.6653H3.83V15.3353H10.4975V18.004H11.8275V20.664H13.1662V23.3328H14.4963V26.0015H15.835V15.3353H21.1637V18.004H19.8337V20.664H18.495V23.3328H17.165V26.0015H15.835V27.3315H14.4963V28.6703H15.835V30.0003H17.165V28.6703H18.495V27.3315H19.8337V26.0015H21.1637V24.6715H22.5025V23.3328H23.8325V22.0028H25.1625V20.664H26.5013V19.334H27.8313V18.004H29.1612V16.6653H30.5V12.6665H29.1612V14.0053ZM21.1637 14.0053H11.8275V12.6665H10.4975V7.33777H15.835V8.66777H17.165V9.99777H18.495V11.3365H19.8337V12.6665H21.1637V14.0053Z" fill="#0D0D0D"/>
<path d="M29.162 11.3364H27.832V12.6664H29.162V11.3364Z" fill="#0D0D0D"/>
<path d="M27.832 9.99756H26.502V11.3363H27.832V9.99756Z" fill="#0D0D0D"/>
<path d="M26.5009 8.66797H25.1621V9.99797H26.5009V8.66797Z" fill="#0D0D0D"/>
<path d="M15.8348 8.66797H14.4961V9.99797H15.8348V8.66797Z" fill="#0D0D0D"/>
<path d="M14.496 26.0015H13.166V27.3315H14.496V26.0015Z" fill="#0D0D0D"/>
<path d="M14.496 9.99756H13.166V11.3363H14.496V9.99756Z" fill="#0D0D0D"/>
<path d="M13.1669 24.6714H11.8281V26.0014H13.1669V24.6714Z" fill="#0D0D0D"/>
<path d="M13.1669 11.3364H11.8281V12.6664H13.1669V11.3364Z" fill="#0D0D0D"/>
<path d="M11.828 23.333H10.498V24.6718H11.828V23.333Z" fill="#0D0D0D"/>
<path d="M10.498 22.0029H9.16797V23.3329H10.498V22.0029Z" fill="#0D0D0D"/>
<path d="M9.16687 20.6641H7.82812V22.0028H9.16687V20.6641Z" fill="#0D0D0D"/>
<path d="M7.82805 19.334H6.49805V20.664H7.82805V19.334Z" fill="#0D0D0D"/>
<path d="M6.49797 18.0039H5.16797V19.3339H6.49797V18.0039Z" fill="#0D0D0D"/>
<path d="M5.16883 16.665H3.83008V18.0038H5.16883V16.665Z" fill="#0D0D0D"/>
</svg>
