<svg width="13" height="12" viewBox="0 0 13 12" fill="none" xmlns="http://www.w3.org/2000/svg">
<rect x="3.38477" y="5.07178" width="6.3877" height="1.47064" fill="#00FC6E"/>
<rect x="3.38477" y="8.68604" width="6.2334" height="1.15063" fill="#00FC6E"/>
<path fill-rule="evenodd" clip-rule="evenodd" d="M11.9305 1.71631H1.07422V2.28631H11.9305V1.71631ZM12.4997 2.28662H11.9297V9.71471H10.2167V9.14471H9.64297V9.71471H3.35797V9.14471H2.78797V9.71471H1.07422V10.2847H11.9305V9.71537H12.4997V2.28662ZM10.7865 8.57178H11.3602V9.14553H10.7865V8.57178ZM11.3602 2.85693H10.7865V3.43068H11.3602V2.85693ZM10.2163 5.14381H10.7863V6.28943H10.2163V6.85943H2.78753V6.28943H2.21753V5.14568H2.78753V4.57568H10.2163V5.14381ZM3.35753 6.28756H4.50128V5.14381H3.35753V6.28756ZM5.64503 5.71381H7.35878V5.14381H5.64503V5.71381ZM8.50253 6.28756H9.64253V5.14381H8.50253V6.28756ZM9.64288 8.57178H9.07288V9.14553H9.64288V8.57178ZM3.93103 8.00146H9.07228V8.57147H3.93103V8.00146ZM9.07228 2.85693H3.93103V3.43068H9.07228V2.85693ZM3.35803 8.57178H3.93178V9.14553H3.35803V8.57178ZM2.21828 8.57178H1.64453V9.14553H2.21828V8.57178ZM1.64453 2.85693H2.21828V3.43068H1.64453V2.85693ZM0.5 2.28662H1.07375V9.71537H0.5V2.28662Z" fill="#0D0D0D"/>
<path d="M1.07422 1.71631V1.56631H0.924219V1.71631H1.07422ZM11.9305 1.71631H12.0805V1.56631H11.9305V1.71631ZM1.07422 2.28631H0.924219V2.43631H1.07422V2.28631ZM11.9305 2.28631V2.43631H12.0805V2.28631H11.9305ZM11.9297 2.28662V2.13662H11.7797V2.28662H11.9297ZM12.4997 2.28662H12.6497V2.13662H12.4997V2.28662ZM11.9297 9.71471V9.86471H12.0797V9.71471H11.9297ZM10.2167 9.71471H10.0667V9.86471H10.2167V9.71471ZM10.2167 9.14471H10.3667V8.99471H10.2167V9.14471ZM9.64297 9.14471V8.99471H9.49297V9.14471H9.64297ZM9.64297 9.71471V9.86471H9.79297V9.71471H9.64297ZM3.35797 9.71471H3.20797V9.86471H3.35797V9.71471ZM3.35797 9.14471H3.50797V8.99471H3.35797V9.14471ZM2.78797 9.14471V8.99471H2.63797V9.14471H2.78797ZM2.78797 9.71471V9.86471H2.93797V9.71471H2.78797ZM1.07422 9.71471V9.56471H0.924219V9.71471H1.07422ZM1.07422 10.2847H0.924219V10.4347H1.07422V10.2847ZM11.9305 10.2847V10.4347H12.0805V10.2847H11.9305ZM11.9305 9.71537V9.56537H11.7805V9.71537H11.9305ZM12.4997 9.71537V9.86537H12.6497V9.71537H12.4997ZM11.3602 8.57178H11.5102V8.42178H11.3602V8.57178ZM10.7865 8.57178V8.42178H10.6365V8.57178H10.7865ZM11.3602 9.14553V9.29553H11.5102V9.14553H11.3602ZM10.7865 9.14553H10.6365V9.29553H10.7865V9.14553ZM10.7865 2.85693V2.70693H10.6365V2.85693H10.7865ZM11.3602 2.85693H11.5102V2.70693H11.3602V2.85693ZM10.7865 3.43068H10.6365V3.58068H10.7865V3.43068ZM11.3602 3.43068V3.58068H11.5102V3.43068H11.3602ZM10.7863 5.14381H10.9363V4.99381H10.7863V5.14381ZM10.2163 5.14381H10.0663V5.29381H10.2163V5.14381ZM10.7863 6.28943V6.43943H10.9363V6.28943H10.7863ZM10.2163 6.28943V6.13943H10.0663V6.28943H10.2163ZM10.2163 6.85943V7.00943H10.3663V6.85943H10.2163ZM2.78753 6.85943H2.63753V7.00943H2.78753V6.85943ZM2.78753 6.28943H2.93753V6.13943H2.78753V6.28943ZM2.21753 6.28943H2.06753V6.43943H2.21753V6.28943ZM2.21753 5.14568V4.99568H2.06753V5.14568H2.21753ZM2.78753 5.14568V5.29568H2.93753V5.14568H2.78753ZM2.78753 4.57568V4.42568H2.63753V4.57568H2.78753ZM10.2163 4.57568H10.3663V4.42568H10.2163V4.57568ZM4.50128 6.28756V6.43756H4.65128V6.28756H4.50128ZM3.35753 6.28756H3.20753V6.43756H3.35753V6.28756ZM4.50128 5.14381H4.65128V4.99381H4.50128V5.14381ZM3.35753 5.14381V4.99381H3.20753V5.14381H3.35753ZM7.35878 5.71381V5.86381H7.50878V5.71381H7.35878ZM5.64503 5.71381H5.49503V5.86381H5.64503V5.71381ZM7.35878 5.14381H7.50878V4.99381H7.35878V5.14381ZM5.64503 5.14381V4.99381H5.49503V5.14381H5.64503ZM9.64253 6.28756V6.43756H9.79253V6.28756H9.64253ZM8.50253 6.28756H8.35253V6.43756H8.50253V6.28756ZM9.64253 5.14381H9.79253V4.99381H9.64253V5.14381ZM8.50253 5.14381V4.99381H8.35253V5.14381H8.50253ZM9.07288 8.57178V8.42178H8.92288V8.57178H9.07288ZM9.64288 8.57178H9.79288V8.42178H9.64288V8.57178ZM9.07288 9.14553H8.92288V9.29553H9.07288V9.14553ZM9.64288 9.14553V9.29553H9.79288V9.14553H9.64288ZM9.07228 8.00146H9.22228V7.85146H9.07228V8.00146ZM3.93103 8.00146V7.85146H3.78103V8.00146H3.93103ZM9.07228 8.57147V8.72147H9.22228V8.57147H9.07228ZM3.93103 8.57147H3.78103V8.72147H3.93103V8.57147ZM3.93103 2.85693V2.70693H3.78103V2.85693H3.93103ZM9.07228 2.85693H9.22228V2.70693H9.07228V2.85693ZM3.93103 3.43068H3.78103V3.58068H3.93103V3.43068ZM9.07228 3.43068V3.58068H9.22228V3.43068H9.07228ZM3.93178 8.57178H4.08178V8.42178H3.93178V8.57178ZM3.35803 8.57178V8.42178H3.20803V8.57178H3.35803ZM3.93178 9.14553V9.29553H4.08178V9.14553H3.93178ZM3.35803 9.14553H3.20803V9.29553H3.35803V9.14553ZM1.64453 8.57178V8.42178H1.49453V8.57178H1.64453ZM2.21828 8.57178H2.36828V8.42178H2.21828V8.57178ZM1.64453 9.14553H1.49453V9.29553H1.64453V9.14553ZM2.21828 9.14553V9.29553H2.36828V9.14553H2.21828ZM2.21828 2.85693H2.36828V2.70693H2.21828V2.85693ZM1.64453 2.85693V2.70693H1.49453V2.85693H1.64453ZM2.21828 3.43068V3.58068H2.36828V3.43068H2.21828ZM1.64453 3.43068H1.49453V3.58068H1.64453V3.43068ZM1.07375 2.28662H1.22375V2.13662H1.07375V2.28662ZM0.5 2.28662V2.13662H0.35V2.28662H0.5ZM1.07375 9.71537V9.86537H1.22375V9.71537H1.07375ZM0.5 9.71537H0.35V9.86537H0.5V9.71537ZM1.07422 1.86631H11.9305V1.56631H1.07422V1.86631ZM1.22422 2.28631V1.71631H0.924219V2.28631H1.22422ZM11.9305 2.13631H1.07422V2.43631H11.9305V2.13631ZM11.7805 1.71631V2.28631H12.0805V1.71631H11.7805ZM11.9297 2.43662H12.4997V2.13662H11.9297V2.43662ZM12.0797 9.71471V2.28662H11.7797V9.71471H12.0797ZM10.2167 9.86471H11.9297V9.56471H10.2167V9.86471ZM10.0667 9.14471V9.71471H10.3667V9.14471H10.0667ZM9.64297 9.29471H10.2167V8.99471H9.64297V9.29471ZM9.79297 9.71471V9.14471H9.49297V9.71471H9.79297ZM3.35797 9.86471H9.64297V9.56471H3.35797V9.86471ZM3.20797 9.14471V9.71471H3.50797V9.14471H3.20797ZM2.78797 9.29471H3.35797V8.99471H2.78797V9.29471ZM2.93797 9.71471V9.14471H2.63797V9.71471H2.93797ZM1.07422 9.86471H2.78797V9.56471H1.07422V9.86471ZM1.22422 10.2847V9.71471H0.924219V10.2847H1.22422ZM11.9305 10.1347H1.07422V10.4347H11.9305V10.1347ZM11.7805 9.71537V10.2847H12.0805V9.71537H11.7805ZM12.4997 9.56537H11.9305V9.86537H12.4997V9.56537ZM12.3497 2.28662V9.71537H12.6497V2.28662H12.3497ZM11.3602 8.42178H10.7865V8.72178H11.3602V8.42178ZM11.5102 9.14553V8.57178H11.2102V9.14553H11.5102ZM10.7865 9.29553H11.3602V8.99553H10.7865V9.29553ZM10.6365 8.57178V9.14553H10.9365V8.57178H10.6365ZM10.7865 3.00693H11.3602V2.70693H10.7865V3.00693ZM10.9365 3.43068V2.85693H10.6365V3.43068H10.9365ZM11.3602 3.28068H10.7865V3.58068H11.3602V3.28068ZM11.2102 2.85693V3.43068H11.5102V2.85693H11.2102ZM10.7863 4.99381H10.2163V5.29381H10.7863V4.99381ZM10.9363 6.28943V5.14381H10.6363V6.28943H10.9363ZM10.2163 6.43943H10.7863V6.13943H10.2163V6.43943ZM10.3663 6.85943V6.28943H10.0663V6.85943H10.3663ZM2.78753 7.00943H10.2163V6.70943H2.78753V7.00943ZM2.63753 6.28943V6.85943H2.93753V6.28943H2.63753ZM2.21753 6.43943H2.78753V6.13943H2.21753V6.43943ZM2.06753 5.14568V6.28943H2.36753V5.14568H2.06753ZM2.78753 4.99568H2.21753V5.29568H2.78753V4.99568ZM2.63753 4.57568V5.14568H2.93753V4.57568H2.63753ZM10.2163 4.42568H2.78753V4.72568H10.2163V4.42568ZM10.3663 5.14381V4.57568H10.0663V5.14381H10.3663ZM4.50128 6.13756H3.35753V6.43756H4.50128V6.13756ZM4.35128 5.14381V6.28756H4.65128V5.14381H4.35128ZM3.35753 5.29381H4.50128V4.99381H3.35753V5.29381ZM3.50753 6.28756V5.14381H3.20753V6.28756H3.50753ZM7.35878 5.56381H5.64503V5.86381H7.35878V5.56381ZM7.20878 5.14381V5.71381H7.50878V5.14381H7.20878ZM5.64503 5.29381H7.35878V4.99381H5.64503V5.29381ZM5.79503 5.71381V5.14381H5.49503V5.71381H5.79503ZM9.64253 6.13756H8.50253V6.43756H9.64253V6.13756ZM9.49253 5.14381V6.28756H9.79253V5.14381H9.49253ZM8.50253 5.29381H9.64253V4.99381H8.50253V5.29381ZM8.65253 6.28756V5.14381H8.35253V6.28756H8.65253ZM9.07288 8.72178H9.64288V8.42178H9.07288V8.72178ZM9.22288 9.14553V8.57178H8.92288V9.14553H9.22288ZM9.64288 8.99553H9.07288V9.29553H9.64288V8.99553ZM9.49288 8.57178V9.14553H9.79288V8.57178H9.49288ZM9.07228 7.85146H3.93103V8.15146H9.07228V7.85146ZM9.22228 8.57147V8.00146H8.92228V8.57147H9.22228ZM3.93103 8.72147H9.07228V8.42146H3.93103V8.72147ZM3.78103 8.00146V8.57147H4.08103V8.00146H3.78103ZM3.93103 3.00693H9.07228V2.70693H3.93103V3.00693ZM4.08103 3.43068V2.85693H3.78103V3.43068H4.08103ZM9.07228 3.28068H3.93103V3.58068H9.07228V3.28068ZM8.92228 2.85693V3.43068H9.22228V2.85693H8.92228ZM3.93178 8.42178H3.35803V8.72178H3.93178V8.42178ZM4.08178 9.14553V8.57178H3.78178V9.14553H4.08178ZM3.35803 9.29553H3.93178V8.99553H3.35803V9.29553ZM3.20803 8.57178V9.14553H3.50803V8.57178H3.20803ZM1.64453 8.72178H2.21828V8.42178H1.64453V8.72178ZM1.79453 9.14553V8.57178H1.49453V9.14553H1.79453ZM2.21828 8.99553H1.64453V9.29553H2.21828V8.99553ZM2.06828 8.57178V9.14553H2.36828V8.57178H2.06828ZM2.21828 2.70693H1.64453V3.00693H2.21828V2.70693ZM2.36828 3.43068V2.85693H2.06828V3.43068H2.36828ZM1.64453 3.58068H2.21828V3.28068H1.64453V3.58068ZM1.49453 2.85693V3.43068H1.79453V2.85693H1.49453ZM1.07375 2.13662H0.5V2.43662H1.07375V2.13662ZM1.22375 9.71537V2.28662H0.92375V9.71537H1.22375ZM0.5 9.86537H1.07375V9.56537H0.5V9.86537ZM0.35 2.28662V9.71537H0.65V2.28662H0.35Z" fill="#0D0D0D"/>
</svg>
