<svg width="16" height="16" viewBox="0 0 16 16" fill="none" xmlns="http://www.w3.org/2000/svg">
<g id="ic_arrow" clip-path="url(#clip0_605_77)">
<g id="Union">
<path fill-rule="evenodd" clip-rule="evenodd" d="M5.76562 2.39967H3.52563V0.159668H5.76562V2.39967ZM8.00391 4.6399H5.76391V2.3999H8.00391V4.6399ZM8.00414 6.87965H10.2441V4.63965H8.00414V6.87965ZM10.2441 9.11979H12.4766V6.87979H10.2366V9.11963H8.00414V11.3596H10.2441V9.11979ZM8.00391 13.5999H5.76391V11.3599H8.00391V13.5999ZM3.52563 15.8401H5.76562V13.6001H3.52563V15.8401Z" fill="#0D0D0D"/>
<path d="M3.52563 2.39967V2.64967H3.27563V2.39967H3.52563ZM5.76562 2.39967H6.01562V2.64967H5.76562V2.39967ZM3.52563 0.159668H3.27563V-0.090332H3.52563V0.159668ZM5.76562 0.159668V-0.090332H6.01562V0.159668H5.76562ZM5.76391 4.6399V4.8899H5.51391V4.6399H5.76391ZM8.00391 4.6399H8.25391V4.8899H8.00391V4.6399ZM5.76391 2.3999H5.51391V2.1499H5.76391V2.3999ZM8.00391 2.3999V2.1499H8.25391V2.3999H8.00391ZM10.2441 6.87965H10.4941V7.12965H10.2441V6.87965ZM8.00414 6.87965V7.12965H7.75414V6.87965H8.00414ZM10.2441 4.63965V4.38965H10.4941V4.63965H10.2441ZM8.00414 4.63965H7.75414V4.38965H8.00414V4.63965ZM12.4766 9.11979H12.7266V9.36979H12.4766V9.11979ZM10.2441 9.11979H9.99414V8.86979H10.2441V9.11979ZM12.4766 6.87979V6.62979H12.7266V6.87979H12.4766ZM10.2366 6.87979H9.98656V6.62979H10.2366V6.87979ZM10.2366 9.11963H10.4866V9.36963H10.2366V9.11963ZM8.00414 9.11963H7.75414V8.86963H8.00414V9.11963ZM8.00414 11.3596V11.6096H7.75414V11.3596H8.00414ZM10.2441 11.3596H10.4941V11.6096H10.2441V11.3596ZM5.76391 13.5999V13.8499H5.51391V13.5999H5.76391ZM8.00391 13.5999H8.25391V13.8499H8.00391V13.5999ZM5.76391 11.3599H5.51391V11.1099H5.76391V11.3599ZM8.00391 11.3599V11.1099H8.25391V11.3599H8.00391ZM5.76562 15.8401H6.01562V16.0901H5.76562V15.8401ZM3.52563 15.8401V16.0901H3.27563V15.8401H3.52563ZM5.76562 13.6001V13.3501H6.01562V13.6001H5.76562ZM3.52563 13.6001H3.27563V13.3501H3.52563V13.6001ZM3.52563 2.14967H5.76562V2.64967H3.52563V2.14967ZM3.77563 0.159668V2.39967H3.27563V0.159668H3.77563ZM5.76562 0.409668H3.52563V-0.090332H5.76562V0.409668ZM5.51562 2.39967V0.159668H6.01562V2.39967H5.51562ZM5.76391 4.3899H8.00391V4.8899H5.76391V4.3899ZM6.01391 2.3999V4.6399H5.51391V2.3999H6.01391ZM8.00391 2.6499H5.76391V2.1499H8.00391V2.6499ZM7.75391 4.6399V2.3999H8.25391V4.6399H7.75391ZM10.2441 7.12965H8.00414V6.62965H10.2441V7.12965ZM10.4941 4.63965V6.87965H9.99414V4.63965H10.4941ZM8.00414 4.38965H10.2441V4.88965H8.00414V4.38965ZM7.75414 6.87965V4.63965H8.25414V6.87965H7.75414ZM12.4766 9.36979H10.2441V8.86979H12.4766V9.36979ZM12.7266 6.87979V9.11979H12.2266V6.87979H12.7266ZM10.2366 6.62979H12.4766V7.12979H10.2366V6.62979ZM9.98656 9.11963V6.87979H10.4866V9.11963H9.98656ZM8.00414 8.86963H10.2366V9.36963H8.00414V8.86963ZM7.75414 11.3596V9.11963H8.25414V11.3596H7.75414ZM10.2441 11.6096H8.00414V11.1096H10.2441V11.6096ZM10.4941 9.11979V11.3596H9.99414V9.11979H10.4941ZM5.76391 13.3499H8.00391V13.8499H5.76391V13.3499ZM6.01391 11.3599V13.5999H5.51391V11.3599H6.01391ZM8.00391 11.6099H5.76391V11.1099H8.00391V11.6099ZM7.75391 13.5999V11.3599H8.25391V13.5999H7.75391ZM5.76562 16.0901H3.52563V15.5901H5.76562V16.0901ZM6.01562 13.6001V15.8401H5.51562V13.6001H6.01562ZM3.52563 13.3501H5.76562V13.8501H3.52563V13.3501ZM3.27563 15.8401V13.6001H3.77563V15.8401H3.27563Z" fill="#0D0D0D"/>
</g>
</g>
<defs>
<clipPath id="clip0_605_77">
<rect width="16" height="16" fill="white"/>
</clipPath>
</defs>
</svg>
