<svg width="148" height="201" viewBox="0 0 148 201" fill="none" xmlns="http://www.w3.org/2000/svg">
<path d="M1 57C1 50.9249 5.92487 46 12 46H136C142.075 46 147 50.9249 147 57V189C147 195.075 142.075 200 136 200H12C5.92487 200 1 195.075 1 189V57Z" fill="#00FC6E" stroke="#0D0D0D" stroke-width="2"/>
<rect x="12" y="160" width="124" height="29" rx="14.5" fill="#0D0D0D"/>
<path d="M36.8127 170.81V173.26H40.1027V174.814H36.8127V177.404H40.5227V179H34.8527V169.214H40.5227V170.81H36.8127ZM41.7999 175.094C41.7999 174.31 41.9539 173.615 42.2619 173.008C42.5792 172.401 43.0039 171.935 43.5359 171.608C44.0772 171.281 44.6792 171.118 45.3419 171.118C45.9206 171.118 46.4246 171.235 46.8539 171.468C47.2926 171.701 47.6426 171.995 47.9039 172.35V171.244H49.8779V179H47.9039V177.866C47.6519 178.23 47.3019 178.533 46.8539 178.776C46.4152 179.009 45.9066 179.126 45.3279 179.126C44.6746 179.126 44.0772 178.958 43.5359 178.622C43.0039 178.286 42.5792 177.815 42.2619 177.208C41.9539 176.592 41.7999 175.887 41.7999 175.094ZM47.9039 175.122C47.9039 174.646 47.8106 174.24 47.6239 173.904C47.4372 173.559 47.1852 173.297 46.8679 173.12C46.5506 172.933 46.2099 172.84 45.8459 172.84C45.4819 172.84 45.1459 172.929 44.8379 173.106C44.5299 173.283 44.2779 173.545 44.0819 173.89C43.8952 174.226 43.8019 174.627 43.8019 175.094C43.8019 175.561 43.8952 175.971 44.0819 176.326C44.2779 176.671 44.5299 176.937 44.8379 177.124C45.1552 177.311 45.4912 177.404 45.8459 177.404C46.2099 177.404 46.5506 177.315 46.8679 177.138C47.1852 176.951 47.4372 176.69 47.6239 176.354C47.8106 176.009 47.9039 175.598 47.9039 175.122ZM53.7522 172.448C54.0042 172.037 54.3308 171.715 54.7322 171.482C55.1428 171.249 55.6095 171.132 56.1322 171.132V173.19H55.6142C54.9982 173.19 54.5315 173.335 54.2142 173.624C53.9062 173.913 53.7522 174.417 53.7522 175.136V179H51.7922V171.244H53.7522V172.448ZM61.7503 171.132C62.6743 171.132 63.421 171.426 63.9903 172.014C64.5597 172.593 64.8443 173.405 64.8443 174.45V179H62.8843V174.716C62.8843 174.1 62.7303 173.629 62.4223 173.302C62.1143 172.966 61.6943 172.798 61.1623 172.798C60.621 172.798 60.1917 172.966 59.8743 173.302C59.5663 173.629 59.4123 174.1 59.4123 174.716V179H57.4523V171.244H59.4123V172.21C59.6737 171.874 60.005 171.613 60.4063 171.426C60.817 171.23 61.265 171.132 61.7503 171.132ZM78.4021 179H76.4421L72.0041 172.294V179H70.0441V169.214H72.0041L76.4421 175.934V169.214H78.4021V179ZM83.783 179.126C83.0364 179.126 82.3644 178.963 81.767 178.636C81.1697 178.3 80.6984 177.829 80.353 177.222C80.017 176.615 79.849 175.915 79.849 175.122C79.849 174.329 80.0217 173.629 80.367 173.022C80.7217 172.415 81.2024 171.949 81.809 171.622C82.4157 171.286 83.0924 171.118 83.839 171.118C84.5857 171.118 85.2624 171.286 85.869 171.622C86.4757 171.949 86.9517 172.415 87.297 173.022C87.6517 173.629 87.829 174.329 87.829 175.122C87.829 175.915 87.647 176.615 87.283 177.222C86.9284 177.829 86.443 178.3 85.827 178.636C85.2204 178.963 84.539 179.126 83.783 179.126ZM83.783 177.418C84.1377 177.418 84.469 177.334 84.777 177.166C85.0944 176.989 85.3464 176.727 85.533 176.382C85.7197 176.037 85.813 175.617 85.813 175.122C85.813 174.385 85.617 173.82 85.225 173.428C84.8424 173.027 84.371 172.826 83.811 172.826C83.251 172.826 82.7797 173.027 82.397 173.428C82.0237 173.82 81.837 174.385 81.837 175.122C81.837 175.859 82.019 176.429 82.383 176.83C82.7564 177.222 83.223 177.418 83.783 177.418ZM100.019 171.244L97.7508 179H95.6368L94.2228 173.582L92.8088 179H90.6808L88.3988 171.244H90.3868L91.7588 177.152L93.2428 171.244H95.3148L96.7708 177.138L98.1428 171.244H100.019Z" fill="white"/>
<g clip-path="url(#clip0_2234_7528)">
<path fill-rule="evenodd" clip-rule="evenodd" d="M105.148 170.301H106.824V171.981H108.504V173.66H110.179V175.34H108.504V177.02H110.184V175.34H111.859V173.66H110.184V171.98H108.504V170.301H106.828V168.621H105.148V170.301ZM106.828 178.703H108.504V177.023H106.824V178.703H105.148V180.383H106.828V178.703Z" fill="white"/>
<path d="M106.824 170.301V170.051H107.074V170.301H106.824ZM105.148 170.301V170.551H104.898V170.301H105.148ZM106.824 171.981V172.231H106.574V171.981H106.824ZM108.504 171.981V171.731H108.754V171.981H108.504ZM108.504 173.66V173.91H108.254V173.66H108.504ZM110.179 173.66V173.41H110.429V173.66H110.179ZM110.179 175.34H110.429V175.59H110.179V175.34ZM108.504 175.34H108.254V175.09H108.504V175.34ZM108.504 177.02V177.27H108.254V177.02H108.504ZM110.184 177.02H110.434V177.27H110.184V177.02ZM110.184 175.34H109.934V175.09H110.184V175.34ZM111.859 175.34H112.109V175.59H111.859V175.34ZM111.859 173.66V173.41H112.109V173.66H111.859ZM110.184 173.66V173.91H109.934V173.66H110.184ZM110.184 171.98V171.73H110.434V171.98H110.184ZM108.504 171.98V172.23H108.254V171.98H108.504ZM108.504 170.301V170.051H108.754V170.301H108.504ZM106.828 170.301V170.551H106.578V170.301H106.828ZM106.828 168.621V168.371H107.078V168.621H106.828ZM105.148 168.621H104.898V168.371H105.148V168.621ZM106.828 178.703H106.578V178.453H106.828V178.703ZM108.504 178.703H108.754V178.953H108.504V178.703ZM108.504 177.023V176.773H108.754V177.023H108.504ZM106.824 177.023H106.574V176.773H106.824V177.023ZM106.824 178.703H107.074V178.953H106.824V178.703ZM105.148 178.703H104.898V178.453H105.148V178.703ZM105.148 180.383V180.633H104.898V180.383H105.148ZM106.828 180.383H107.078V180.633H106.828V180.383ZM106.824 170.551H105.148V170.051H106.824V170.551ZM106.574 171.981V170.301H107.074V171.981H106.574ZM108.504 172.231H106.824V171.731H108.504V172.231ZM108.254 173.66V171.981H108.754V173.66H108.254ZM110.179 173.91H108.504V173.41H110.179V173.91ZM109.929 175.34V173.66H110.429V175.34H109.929ZM108.504 175.09H110.179V175.59H108.504V175.09ZM108.254 177.02V175.34H108.754V177.02H108.254ZM110.184 177.27H108.504V176.77H110.184V177.27ZM110.434 175.34V177.02H109.934V175.34H110.434ZM111.859 175.59H110.184V175.09H111.859V175.59ZM112.109 173.66V175.34H111.609V173.66H112.109ZM110.184 173.41H111.859V173.91H110.184V173.41ZM110.434 171.98V173.66H109.934V171.98H110.434ZM108.504 171.73H110.184V172.23H108.504V171.73ZM108.754 170.301V171.98H108.254V170.301H108.754ZM106.828 170.051H108.504V170.551H106.828V170.051ZM107.078 168.621V170.301H106.578V168.621H107.078ZM105.148 168.371H106.828V168.871H105.148V168.371ZM104.898 170.301V168.621H105.398V170.301H104.898ZM106.828 178.453H108.504V178.953H106.828V178.453ZM108.254 178.703V177.023H108.754V178.703H108.254ZM108.504 177.273H106.824V176.773H108.504V177.273ZM107.074 177.023V178.703H106.574V177.023H107.074ZM105.148 178.453H106.824V178.953H105.148V178.453ZM104.898 180.383V178.703H105.398V180.383H104.898ZM106.828 180.633H105.148V180.133H106.828V180.633ZM107.078 178.703V180.383H106.578V178.703H107.078Z" fill="white"/>
</g>
<path d="M16.464 98.832L15.248 105.728C15.2053 106.027 15.184 106.235 15.184 106.352C15.184 106.907 15.3493 107.333 15.68 107.632C16.0107 107.92 16.48 108.064 17.088 108.064C17.8133 108.064 18.4053 107.867 18.864 107.472C19.3333 107.067 19.6373 106.485 19.776 105.728L20.992 98.832H23.248L22.032 105.728C21.8613 106.688 21.5147 107.499 20.992 108.16C20.4693 108.811 19.8347 109.301 19.088 109.632C18.352 109.952 17.5573 110.112 16.704 110.112C15.5733 110.112 14.656 109.819 13.952 109.232C13.2587 108.645 12.912 107.803 12.912 106.704C12.912 106.405 12.944 106.08 13.008 105.728L14.224 98.832H16.464ZM29.9243 101.008C30.8416 101.008 31.5616 101.259 32.0843 101.76C32.6176 102.251 32.8843 102.955 32.8843 103.872C32.8843 104.213 32.8576 104.523 32.8043 104.8L31.8763 110H29.6523L30.5163 105.104C30.5483 104.912 30.5643 104.725 30.5643 104.544C30.5643 104.011 30.4203 103.605 30.1323 103.328C29.8549 103.051 29.4549 102.912 28.9323 102.912C28.3349 102.912 27.8229 103.093 27.3963 103.456C26.9803 103.808 26.7029 104.32 26.5643 104.992L25.6843 110H23.4283L24.9963 101.136H27.2523L27.0603 102.224C27.4229 101.851 27.8549 101.557 28.3563 101.344C28.8576 101.12 29.3803 101.008 29.9243 101.008ZM38.3584 98.16L36.2624 110H34.0064L36.1024 98.16H38.3584ZM42.4275 110.144C41.6702 110.144 40.9982 109.989 40.4115 109.68C39.8355 109.371 39.3875 108.933 39.0675 108.368C38.7475 107.803 38.5875 107.152 38.5875 106.416C38.5875 105.413 38.8222 104.501 39.2915 103.68C39.7715 102.848 40.4222 102.192 41.2435 101.712C42.0755 101.232 42.9982 100.992 44.0115 100.992C44.7688 100.992 45.4408 101.152 46.0275 101.472C46.6248 101.781 47.0835 102.219 47.4035 102.784C47.7342 103.349 47.8995 104 47.8995 104.736C47.8995 105.749 47.6595 106.667 47.1795 107.488C46.6995 108.309 46.0382 108.96 45.1955 109.44C44.3635 109.909 43.4408 110.144 42.4275 110.144ZM42.7315 108.224C43.2648 108.224 43.7502 108.069 44.1875 107.76C44.6248 107.451 44.9662 107.04 45.2115 106.528C45.4568 106.016 45.5795 105.477 45.5795 104.912C45.5795 104.272 45.3982 103.781 45.0355 103.44C44.6835 103.088 44.2355 102.912 43.6915 102.912C43.1475 102.912 42.6622 103.067 42.2355 103.376C41.8195 103.685 41.4942 104.101 41.2595 104.624C41.0248 105.136 40.9075 105.68 40.9075 106.256C40.9075 106.885 41.0728 107.371 41.4035 107.712C41.7448 108.053 42.1875 108.224 42.7315 108.224ZM48.8866 105.568C49.0466 104.651 49.372 103.851 49.8626 103.168C50.3533 102.475 50.9613 101.941 51.6866 101.568C52.4226 101.184 53.2173 100.992 54.0706 100.992C55.1693 100.992 56.028 101.264 56.6466 101.808C57.276 102.352 57.628 103.125 57.7026 104.128H55.2866C55.2226 103.744 55.0573 103.445 54.7906 103.232C54.524 103.008 54.1666 102.896 53.7186 102.896C53.0786 102.896 52.5293 103.131 52.0706 103.6C51.6226 104.059 51.324 104.715 51.1746 105.568C51.1213 105.867 51.0946 106.123 51.0946 106.336C51.0946 106.944 51.244 107.413 51.5426 107.744C51.8413 108.064 52.2573 108.224 52.7906 108.224C53.6866 108.224 54.348 107.819 54.7746 107.008H57.1906C56.7746 107.968 56.1506 108.731 55.3186 109.296C54.4973 109.861 53.548 110.144 52.4706 110.144C51.3506 110.144 50.4546 109.829 49.7826 109.2C49.1213 108.56 48.7906 107.696 48.7906 106.608C48.7906 106.277 48.8226 105.931 48.8866 105.568ZM63.3116 105.568L66.4476 110H63.5516L61.2156 106.24L60.5436 110H58.2876L60.3836 98.16H62.6396L61.4556 104.88L65.0716 101.136H67.9996L63.3116 105.568ZM18.448 118.832C19.5893 118.832 20.4533 119.093 21.04 119.616C21.6267 120.128 21.92 120.8 21.92 121.632C21.92 121.835 21.904 122.043 21.872 122.256C21.744 122.981 21.4133 123.643 20.88 124.24C20.3573 124.827 19.6533 125.237 18.768 125.472L20.64 130H18.032L16.368 125.648H15.296L14.528 130H12.272L14.256 118.832H18.448ZM19.568 122.304C19.5893 122.112 19.6 121.984 19.6 121.92C19.6 121.515 19.472 121.2 19.216 120.976C18.96 120.752 18.5707 120.64 18.048 120.64H16.176L15.584 123.984H17.456C18.0533 123.984 18.528 123.835 18.88 123.536C19.2427 123.237 19.472 122.827 19.568 122.304ZM27.994 120.992C29.1247 120.992 30.0207 121.307 30.682 121.936C31.3433 122.555 31.674 123.392 31.674 124.448C31.674 124.789 31.6473 125.093 31.594 125.36C31.53 125.68 31.4607 125.957 31.386 126.192H24.906C24.8953 126.267 24.89 126.373 24.89 126.512C24.89 127.067 25.05 127.504 25.37 127.824C25.7007 128.133 26.1327 128.288 26.666 128.288C27.114 128.288 27.498 128.192 27.818 128C28.1487 127.797 28.4153 127.536 28.618 127.216H31.034C30.6393 128.069 30.026 128.773 29.194 129.328C28.3727 129.872 27.4393 130.144 26.394 130.144C25.2633 130.144 24.3567 129.824 23.674 129.184C22.9913 128.544 22.65 127.675 22.65 126.576C22.65 126.256 22.682 125.92 22.746 125.568C22.906 124.651 23.2313 123.845 23.722 123.152C24.2233 122.459 24.842 121.925 25.578 121.552C26.314 121.179 27.1193 120.992 27.994 120.992ZM29.37 124.832C29.3913 124.661 29.402 124.539 29.402 124.464C29.402 123.952 29.2367 123.552 28.906 123.264C28.5753 122.976 28.1433 122.832 27.61 122.832C27.0447 122.832 26.538 123.013 26.09 123.376C25.642 123.728 25.3273 124.213 25.146 124.832H29.37ZM46.269 121.136L42.109 130H39.677L39.165 123.84L36.445 130H34.013L32.989 121.136H35.245L35.629 127.888L38.525 121.136H40.893L41.373 127.872L44.109 121.136H46.269ZM46.121 125.536C46.281 124.64 46.5957 123.845 47.065 123.152C47.545 122.459 48.1263 121.925 48.809 121.552C49.4917 121.179 50.2117 120.992 50.969 120.992C51.6303 120.992 52.185 121.125 52.633 121.392C53.0917 121.659 53.4277 121.995 53.641 122.4L53.865 121.136H56.121L54.553 130H52.297L52.537 128.704C52.185 129.12 51.7263 129.467 51.161 129.744C50.6063 130.011 49.9983 130.144 49.337 130.144C48.6863 130.144 48.1103 130 47.609 129.712C47.1077 129.413 46.7183 128.997 46.441 128.464C46.1637 127.92 46.025 127.291 46.025 126.576C46.025 126.245 46.057 125.899 46.121 125.536ZM53.081 125.568C53.1237 125.291 53.145 125.088 53.145 124.96C53.145 124.331 52.9583 123.84 52.585 123.488C52.2223 123.136 51.7637 122.96 51.209 122.96C50.793 122.96 50.3877 123.061 49.993 123.264C49.609 123.467 49.273 123.765 48.985 124.16C48.697 124.544 48.505 125.003 48.409 125.536C48.377 125.739 48.361 125.931 48.361 126.112C48.361 126.752 48.5423 127.259 48.905 127.632C49.2677 127.995 49.7263 128.176 50.281 128.176C50.697 128.176 51.1023 128.075 51.497 127.872C51.8917 127.659 52.2277 127.355 52.505 126.96C52.793 126.565 52.985 126.101 53.081 125.568ZM60.2928 122.704C60.6768 122.171 61.1248 121.755 61.6368 121.456C62.1488 121.157 62.7034 121.008 63.3008 121.008L62.8848 123.36H62.2928C61.6314 123.36 61.0981 123.504 60.6927 123.792C60.2981 124.08 60.0101 124.571 59.8288 125.264L58.9968 130H56.7408L58.3088 121.136H60.5648L60.2928 122.704ZM63.4335 125.536C63.5935 124.64 63.9082 123.845 64.3775 123.152C64.8575 122.459 65.4388 121.925 66.1215 121.552C66.8148 121.179 67.5402 120.992 68.2975 120.992C68.8735 120.992 69.4015 121.12 69.8815 121.376C70.3615 121.621 70.7188 121.952 70.9535 122.368L71.7055 118.16H73.9615L71.8655 130H69.6095L69.8495 128.688C69.4975 129.125 69.0442 129.477 68.4895 129.744C67.9455 130.011 67.3428 130.144 66.6815 130.144C66.0308 130.144 65.4495 130 64.9375 129.712C64.4362 129.413 64.0415 128.997 63.7535 128.464C63.4762 127.92 63.3375 127.291 63.3375 126.576C63.3375 126.245 63.3695 125.899 63.4335 125.536ZM70.3935 125.568C70.4362 125.291 70.4575 125.088 70.4575 124.96C70.4575 124.331 70.2708 123.84 69.8975 123.488C69.5348 123.136 69.0762 122.96 68.5215 122.96C68.1055 122.96 67.7002 123.061 67.3055 123.264C66.9215 123.467 66.5855 123.765 66.2975 124.16C66.0095 124.544 65.8175 125.003 65.7215 125.536C65.6895 125.739 65.6735 125.931 65.6735 126.112C65.6735 126.752 65.8548 127.259 66.2175 127.632C66.5802 127.995 67.0388 128.176 67.5935 128.176C68.0095 128.176 68.4148 128.075 68.8095 127.872C69.2042 127.659 69.5402 127.355 69.8175 126.96C70.1055 126.565 70.2975 126.101 70.3935 125.568ZM77.5253 130.144C76.8746 130.144 76.2826 130.037 75.7493 129.824C75.2266 129.6 74.8106 129.296 74.5013 128.912C74.2026 128.517 74.0533 128.069 74.0533 127.568C74.0533 127.493 74.0639 127.371 74.0853 127.2H76.2613C76.2293 127.573 76.3413 127.877 76.5973 128.112C76.8533 128.336 77.2159 128.448 77.6853 128.448C78.1119 128.448 78.4639 128.373 78.7413 128.224C79.0293 128.064 79.1733 127.835 79.1733 127.536C79.1733 127.269 79.0399 127.056 78.7733 126.896C78.5173 126.736 78.1066 126.555 77.5413 126.352C76.9759 126.149 76.5066 125.952 76.1332 125.76C75.7599 125.568 75.4399 125.301 75.1733 124.96C74.9066 124.619 74.7733 124.187 74.7733 123.664C74.7733 123.141 74.9226 122.677 75.2213 122.272C75.5306 121.867 75.9573 121.552 76.5013 121.328C77.0453 121.104 77.6693 120.992 78.3733 120.992C79.0453 120.992 79.6373 121.104 80.1493 121.328C80.6613 121.552 81.0559 121.867 81.3333 122.272C81.6213 122.667 81.7653 123.12 81.7653 123.632C81.7653 123.76 81.7599 123.856 81.7493 123.92H79.6693C79.7013 123.547 79.5946 123.248 79.3493 123.024C79.1039 122.8 78.7466 122.688 78.2773 122.688C77.8933 122.688 77.5786 122.773 77.3333 122.944C77.0879 123.104 76.9653 123.323 76.9653 123.6C76.9653 123.877 77.1039 124.107 77.3813 124.288C77.6586 124.459 78.0853 124.651 78.6613 124.864C79.2373 125.088 79.6959 125.296 80.0373 125.488C80.3893 125.669 80.6933 125.925 80.9493 126.256C81.2053 126.576 81.3333 126.981 81.3333 127.472C81.3333 128.016 81.1679 128.491 80.8373 128.896C80.5066 129.301 80.0533 129.611 79.4773 129.824C78.9013 130.037 78.2506 130.144 77.5253 130.144ZM96.6213 130H94.3653L90.6693 122.336L89.3093 130H87.0533L89.0373 118.816H91.2773L94.9893 126.496L96.3493 118.816H98.5893L96.6213 130ZM102.787 130.144C102.03 130.144 101.358 129.989 100.771 129.68C100.195 129.371 99.7469 128.933 99.4269 128.368C99.1069 127.803 98.9469 127.152 98.9469 126.416C98.9469 125.413 99.1815 124.501 99.6509 123.68C100.131 122.848 100.782 122.192 101.603 121.712C102.435 121.232 103.358 120.992 104.371 120.992C105.128 120.992 105.8 121.152 106.387 121.472C106.984 121.781 107.443 122.219 107.763 122.784C108.094 123.349 108.259 124 108.259 124.736C108.259 125.749 108.019 126.667 107.539 127.488C107.059 128.309 106.398 128.96 105.555 129.44C104.723 129.909 103.8 130.144 102.787 130.144ZM103.091 128.224C103.624 128.224 104.11 128.069 104.547 127.76C104.984 127.451 105.326 127.04 105.571 126.528C105.816 126.016 105.939 125.477 105.939 124.912C105.939 124.272 105.758 123.781 105.395 123.44C105.043 123.088 104.595 122.912 104.051 122.912C103.507 122.912 103.022 123.067 102.595 123.376C102.179 123.685 101.854 124.101 101.619 124.624C101.384 125.136 101.267 125.68 101.267 126.256C101.267 126.885 101.432 127.371 101.763 127.712C102.104 128.053 102.547 128.224 103.091 128.224ZM122.894 121.136L118.734 130H116.302L115.79 123.84L113.07 130H110.638L109.614 121.136H111.87L112.254 127.888L115.15 121.136H117.518L117.998 127.872L120.734 121.136H122.894ZM127.434 118.64L125.818 126.368H123.914L125.018 118.64H127.434ZM124.25 130.112C123.898 130.112 123.615 130.011 123.402 129.808C123.189 129.605 123.082 129.349 123.082 129.04C123.082 128.613 123.242 128.251 123.562 127.952C123.893 127.643 124.277 127.488 124.714 127.488C125.066 127.488 125.343 127.589 125.546 127.792C125.759 127.984 125.866 128.24 125.866 128.56C125.866 128.987 125.706 129.355 125.386 129.664C125.066 129.963 124.687 130.112 124.25 130.112ZM18.16 138.832C19.1947 138.832 20.0853 139.013 20.832 139.376C21.5893 139.728 22.1653 140.235 22.56 140.896C22.9653 141.557 23.168 142.341 23.168 143.248C23.168 143.653 23.1307 144.048 23.056 144.432C22.864 145.552 22.448 146.533 21.808 147.376C21.1787 148.208 20.3787 148.853 19.408 149.312C18.4373 149.771 17.36 150 16.176 150H12.272L14.256 138.832H18.16ZM16.432 148.176C17.6053 148.176 18.5653 147.845 19.312 147.184C20.0693 146.523 20.5547 145.605 20.768 144.432C20.8213 144.08 20.848 143.776 20.848 143.52C20.848 142.624 20.5813 141.931 20.048 141.44C19.5253 140.949 18.7573 140.704 17.744 140.704H16.176L14.864 148.176H16.432ZM27.7088 150.144C26.9514 150.144 26.2794 149.989 25.6928 149.68C25.1168 149.371 24.6688 148.933 24.3488 148.368C24.0288 147.803 23.8688 147.152 23.8688 146.416C23.8688 145.413 24.1034 144.501 24.5728 143.68C25.0528 142.848 25.7034 142.192 26.5248 141.712C27.3568 141.232 28.2794 140.992 29.2928 140.992C30.0501 140.992 30.7221 141.152 31.3088 141.472C31.9061 141.781 32.3648 142.219 32.6848 142.784C33.0154 143.349 33.1808 144 33.1808 144.736C33.1808 145.749 32.9408 146.667 32.4608 147.488C31.9808 148.309 31.3194 148.96 30.4768 149.44C29.6448 149.909 28.7221 150.144 27.7088 150.144ZM28.0128 148.224C28.5461 148.224 29.0314 148.069 29.4688 147.76C29.9061 147.451 30.2474 147.04 30.4928 146.528C30.7381 146.016 30.8608 145.477 30.8608 144.912C30.8608 144.272 30.6794 143.781 30.3168 143.44C29.9648 143.088 29.5168 142.912 28.9728 142.912C28.4288 142.912 27.9434 143.067 27.5168 143.376C27.1008 143.685 26.7754 144.101 26.5408 144.624C26.3061 145.136 26.1888 145.68 26.1888 146.256C26.1888 146.885 26.3541 147.371 26.6848 147.712C27.0261 148.053 27.4688 148.224 28.0128 148.224ZM40.4399 141.008C41.3572 141.008 42.0772 141.259 42.5999 141.76C43.1332 142.251 43.3999 142.955 43.3999 143.872C43.3999 144.213 43.3732 144.523 43.3199 144.8L42.3919 150H40.1679L41.0319 145.104C41.0639 144.912 41.0799 144.725 41.0799 144.544C41.0799 144.011 40.9359 143.605 40.6479 143.328C40.3705 143.051 39.9705 142.912 39.4479 142.912C38.8505 142.912 38.3385 143.093 37.9119 143.456C37.4959 143.808 37.2185 144.32 37.0799 144.992L36.1999 150H33.9439L35.5119 141.136H37.7679L37.5759 142.224C37.9385 141.851 38.3705 141.557 38.8719 141.344C39.3732 141.12 39.8959 141.008 40.4399 141.008ZM48.202 137.232L47.402 140.624H45.882L46.266 137.232H48.202ZM50.751 147.264C50.7403 147.328 50.735 147.413 50.735 147.52C50.735 147.733 50.7937 147.888 50.911 147.984C51.039 148.069 51.247 148.112 51.535 148.112H52.591L52.255 150H50.831C49.231 150 48.431 149.333 48.431 148C48.431 147.744 48.4523 147.493 48.495 147.248L49.247 142.976H48.191L48.511 141.136H49.583L49.967 138.944H52.223L51.839 141.136H53.807L53.487 142.976H51.503L50.751 147.264ZM72.2914 138.832L70.3234 150H68.0674L69.3474 142.768L65.0914 150H63.3794L61.6674 142.752L60.3874 150H58.1314L60.1154 138.832H62.6594L64.7554 147.12L69.7474 138.832H72.2914ZM75.418 140.08C75.066 140.08 74.7833 139.979 74.57 139.776C74.3567 139.573 74.25 139.317 74.25 139.008C74.25 138.581 74.41 138.219 74.73 137.92C75.0607 137.611 75.4447 137.456 75.882 137.456C76.2233 137.456 76.5007 137.557 76.714 137.76C76.9273 137.963 77.034 138.219 77.034 138.528C77.034 138.955 76.874 139.323 76.554 139.632C76.234 139.931 75.8553 140.08 75.418 140.08ZM76.346 141.136L74.778 150H72.522L74.09 141.136H76.346ZM80.4471 150.144C79.7965 150.144 79.2045 150.037 78.6711 149.824C78.1485 149.6 77.7325 149.296 77.4231 148.912C77.1245 148.517 76.9751 148.069 76.9751 147.568C76.9751 147.493 76.9858 147.371 77.0071 147.2H79.1831C79.1511 147.573 79.2631 147.877 79.5191 148.112C79.7751 148.336 80.1378 148.448 80.6071 148.448C81.0338 148.448 81.3858 148.373 81.6631 148.224C81.9511 148.064 82.0951 147.835 82.0951 147.536C82.0951 147.269 81.9618 147.056 81.6951 146.896C81.4391 146.736 81.0285 146.555 80.4631 146.352C79.8978 146.149 79.4285 145.952 79.0551 145.76C78.6818 145.568 78.3618 145.301 78.0951 144.96C77.8285 144.619 77.6951 144.187 77.6951 143.664C77.6951 143.141 77.8445 142.677 78.1431 142.272C78.4525 141.867 78.8791 141.552 79.4231 141.328C79.9671 141.104 80.5911 140.992 81.2951 140.992C81.9671 140.992 82.5591 141.104 83.0711 141.328C83.5831 141.552 83.9778 141.867 84.2551 142.272C84.5431 142.667 84.6871 143.12 84.6871 143.632C84.6871 143.76 84.6818 143.856 84.6711 143.92H82.5911C82.6231 143.547 82.5165 143.248 82.2711 143.024C82.0258 142.8 81.6685 142.688 81.1991 142.688C80.8151 142.688 80.5005 142.773 80.2551 142.944C80.0098 143.104 79.8871 143.323 79.8871 143.6C79.8871 143.877 80.0258 144.107 80.3031 144.288C80.5805 144.459 81.0071 144.651 81.5831 144.864C82.1591 145.088 82.6178 145.296 82.9591 145.488C83.3111 145.669 83.6151 145.925 83.8711 146.256C84.1271 146.576 84.2551 146.981 84.2551 147.472C84.2551 148.016 84.0898 148.491 83.7591 148.896C83.4285 149.301 82.9751 149.611 82.3991 149.824C81.8231 150.037 81.1725 150.144 80.4471 150.144ZM89.1659 150.144C88.5152 150.144 87.9232 150.037 87.3899 149.824C86.8672 149.6 86.4512 149.296 86.1419 148.912C85.8432 148.517 85.6939 148.069 85.6939 147.568C85.6939 147.493 85.7045 147.371 85.7259 147.2H87.9019C87.8699 147.573 87.9819 147.877 88.2379 148.112C88.4939 148.336 88.8565 148.448 89.3259 148.448C89.7525 148.448 90.1045 148.373 90.3819 148.224C90.6699 148.064 90.8139 147.835 90.8139 147.536C90.8139 147.269 90.6805 147.056 90.4139 146.896C90.1579 146.736 89.7472 146.555 89.1819 146.352C88.6165 146.149 88.1472 145.952 87.7739 145.76C87.4005 145.568 87.0805 145.301 86.8139 144.96C86.5472 144.619 86.4139 144.187 86.4139 143.664C86.4139 143.141 86.5632 142.677 86.8619 142.272C87.1712 141.867 87.5979 141.552 88.1419 141.328C88.6859 141.104 89.3099 140.992 90.0139 140.992C90.6859 140.992 91.2779 141.104 91.7899 141.328C92.3019 141.552 92.6965 141.867 92.9739 142.272C93.2619 142.667 93.4059 143.12 93.4059 143.632C93.4059 143.76 93.4005 143.856 93.3899 143.92H91.3099C91.3419 143.547 91.2352 143.248 90.9899 143.024C90.7445 142.8 90.3872 142.688 89.9179 142.688C89.5339 142.688 89.2192 142.773 88.9739 142.944C88.7285 143.104 88.6059 143.323 88.6059 143.6C88.6059 143.877 88.7445 144.107 89.0219 144.288C89.2992 144.459 89.7259 144.651 90.3019 144.864C90.8779 145.088 91.3365 145.296 91.6779 145.488C92.0299 145.669 92.3339 145.925 92.5899 146.256C92.8459 146.576 92.9739 146.981 92.9739 147.472C92.9739 148.016 92.8085 148.491 92.4779 148.896C92.1472 149.301 91.6939 149.611 91.1179 149.824C90.5419 150.037 89.8912 150.144 89.1659 150.144ZM103.926 150.112C102.987 150.112 102.155 149.915 101.43 149.52C100.715 149.115 100.161 148.56 99.7659 147.856C99.3712 147.141 99.1739 146.325 99.1739 145.408C99.1739 144.128 99.4565 142.976 100.022 141.952C100.598 140.928 101.387 140.128 102.39 139.552C103.403 138.965 104.539 138.672 105.798 138.672C106.747 138.672 107.579 138.869 108.294 139.264C109.019 139.659 109.579 140.213 109.974 140.928C110.369 141.632 110.566 142.437 110.566 143.344C110.566 144.645 110.283 145.808 109.718 146.832C109.153 147.856 108.363 148.661 107.35 149.248C106.337 149.824 105.195 150.112 103.926 150.112ZM104.246 148.048C105.046 148.048 105.75 147.845 106.358 147.44C106.977 147.035 107.451 146.491 107.782 145.808C108.123 145.115 108.294 144.363 108.294 143.552C108.294 142.677 108.049 141.989 107.558 141.488C107.067 140.987 106.379 140.736 105.494 140.736C104.705 140.736 104.001 140.939 103.382 141.344C102.774 141.749 102.299 142.293 101.958 142.976C101.627 143.659 101.462 144.405 101.462 145.216C101.462 146.091 101.702 146.784 102.182 147.296C102.673 147.797 103.361 148.048 104.246 148.048ZM121.192 141.136L119.624 150H117.384L117.576 148.88C117.235 149.264 116.814 149.568 116.312 149.792C115.811 150.005 115.283 150.112 114.728 150.112C113.811 150.112 113.086 149.867 112.552 149.376C112.019 148.875 111.752 148.165 111.752 147.248C111.752 146.907 111.779 146.603 111.832 146.336L112.744 141.136H114.984L114.12 146.016C114.088 146.208 114.072 146.395 114.072 146.576C114.072 147.099 114.216 147.504 114.504 147.792C114.792 148.069 115.198 148.208 115.72 148.208C116.328 148.208 116.846 148.021 117.272 147.648C117.699 147.264 117.971 146.72 118.088 146.016L118.952 141.136H121.192ZM124.939 147.264C124.928 147.328 124.923 147.413 124.923 147.52C124.923 147.733 124.981 147.888 125.099 147.984C125.227 148.069 125.435 148.112 125.723 148.112H126.779L126.443 150H125.019C123.419 150 122.618 149.333 122.618 148C122.618 147.744 122.64 147.493 122.683 147.248L123.435 142.976H122.379L122.699 141.136H123.771L124.155 138.944H126.411L126.027 141.136H127.995L127.675 142.976H125.691L124.939 147.264ZM132.95 138.64L131.334 146.368H129.43L130.534 138.64H132.95ZM129.766 150.112C129.414 150.112 129.131 150.011 128.918 149.808C128.704 149.605 128.598 149.349 128.598 149.04C128.598 148.613 128.758 148.251 129.078 147.952C129.408 147.643 129.792 147.488 130.23 147.488C130.582 147.488 130.859 147.589 131.062 147.792C131.275 147.984 131.382 148.24 131.382 148.56C131.382 148.987 131.222 149.355 130.902 149.664C130.582 149.963 130.203 150.112 129.766 150.112Z" fill="black"/>
<path d="M59.5288 20.8906H29.2656L34.5288 41.9433H113.476L118.739 20.8906H88.4762V25.4959H85.8446V28.1275H83.213V30.759H80.5814V33.3906H67.4235V30.759H64.7919V28.1275H62.1604V25.4959H59.5288V20.8906Z" fill="#FF7F0D"/>
<path d="M59.5288 20.8906H29.2656L30.417 25.4959H59.5288V20.8906Z" fill="#F96714"/>
<path d="M88.4766 20.8906H118.74L117.588 25.4959H88.4766V20.8906Z" fill="#F96714"/>
<path d="M26.6328 78.7847V44.5742H121.37V78.7847H26.6328Z" fill="#FFF510"/>
<rect x="26.6328" y="47.207" width="2.63158" height="28.9474" fill="#FFC700"/>
<path d="M118.738 47.207H121.37V76.1544H118.738V47.207Z" fill="#FFC700"/>
<path d="M29.2656 76.1562H118.739V78.7878H29.2656V76.1562Z" fill="#FFC700"/>
<path d="M29.2656 44.5742H118.739V47.2058H29.2656V44.5742Z" fill="#FFC700"/>
<path d="M29.2656 73.5234H31.8972V76.155H29.2656V73.5234Z" fill="#FFC700"/>
<path d="M29.2656 47.207H31.8972V49.8386H29.2656V47.207Z" fill="#FFC700"/>
<path d="M116.105 47.207H118.737V49.8386H116.105V47.207Z" fill="#FFC700"/>
<path d="M116.105 73.5234H118.737V76.155H116.105V73.5234Z" fill="#FFC700"/>
<rect x="43.7383" y="43.9141" width="3.94737" height="34.8684" fill="#FFA800"/>
<path d="M100.316 43.9141H104.264V78.7825H100.316V43.9141Z" fill="#FFA800"/>
<path d="M26.6328 49.8359H29.2644V57.7307H26.6328V49.8359Z" fill="#FBFFC7"/>
<path d="M118.738 49.8359H121.37V57.7307H118.738V49.8359Z" fill="#FBFFC7"/>
<rect x="37.1602" y="81.4141" width="5.26316" height="3.94737" fill="#FFC700"/>
<path d="M105.578 81.4141H110.841V85.3614H105.578V81.4141Z" fill="#FFC700"/>
<path fill-rule="evenodd" clip-rule="evenodd" d="M118.737 44.5748H106.895V78.7854H118.737V81.4169H113.474V85.3643H110.842V81.4169H105.579V85.3643H102.947V81.4169H45.0526V85.3643H42.4211V81.4169H37.1579V85.3643H34.5263V81.4169H29.2632V78.7854H41.1053V44.5748H29.2632V41.9433H31.8947L26.6316 20.8906H29.2632L34.5263 41.9433H113.474L118.737 20.8906H121.368L116.105 41.9433H118.737V44.5748ZM43.7368 78.7854H47.6842V44.5748H43.7368V78.7854ZM50.3158 78.7854H97.6842V44.5748H50.3158V78.7854ZM100.316 78.7854H104.263V44.5748H100.316V78.7854Z" fill="#0D0D0D"/>
<path d="M121.368 47.2064H118.737V44.5748H121.368V47.2064Z" fill="#0D0D0D"/>
<path d="M121.368 76.1538V47.2064H124V76.1538H121.368Z" fill="#0D0D0D"/>
<path d="M121.368 76.1538H118.737V78.7854H121.368V76.1538Z" fill="#0D0D0D"/>
<path d="M26.6316 47.2064V44.5748H29.2632V47.2064H26.6316Z" fill="#0D0D0D"/>
<path d="M26.6316 76.1538H29.2632V78.7854H26.6316V76.1538Z" fill="#0D0D0D"/>
<path d="M26.6316 76.1538V47.2064H24V76.1538H26.6316Z" fill="#0D0D0D"/>
<path d="M37.1579 85.3643V87.9959H42.4211V85.3643H37.1579Z" fill="#0D0D0D"/>
<path d="M105.579 85.3643V87.9959H110.842V85.3643H105.579Z" fill="#0D0D0D"/>
<path fill-rule="evenodd" clip-rule="evenodd" d="M36.5004 24.1836H35.1846V26.1573L33.2109 26.1573V27.4731H35.1846V29.4468H36.5004V27.4731H38.4741V26.1573H36.5004V24.1836ZM36.5004 26.1573V27.4731H35.1846V26.1573H36.5004Z" fill="white"/>
<path fill-rule="evenodd" clip-rule="evenodd" d="M108.705 25.5H107.719V26.9803H106.238V27.9671L107.719 27.9671V29.4474H108.705V27.9671L110.186 27.9671V26.9803H108.705V25.5ZM108.705 26.9803V27.9671H107.719V26.9803H108.705Z" fill="white"/>
<path fill-rule="evenodd" clip-rule="evenodd" d="M112.488 29.4453H111.831V30.4322L110.844 30.4322V31.09H111.831V32.0769H112.488V31.09H113.475V30.4322H112.488V29.4453ZM112.488 30.4322V31.09H111.831V30.4322H112.488Z" fill="white"/>
<path d="M37.1591 18.2656H26.6328V28.7919H29.2644V26.1604H31.896V23.5288H34.5275V20.8972H37.1591V18.2656Z" fill="#FFCE00"/>
<path d="M110.844 18.2656H121.37V28.7919H118.738V26.1604H116.107V23.5288H113.475V20.8972H110.844V18.2656Z" fill="#FFCE00"/>
<path d="M50.317 18.2644V15.6328H97.6854V18.2644H108.212V20.896H110.843V23.5275H113.475V26.1591H116.107V28.7907H118.738V31.4223H121.37V41.9486H88.4749V38.6591H85.8433V36.0275H83.2118V33.396H80.5802V30.7644H67.4223V33.396H64.7907V36.0275H62.1591V38.6591H59.5276V41.9486H26.6328V31.4223H29.2644V28.7907H31.896V26.1591H34.5275V23.5275H37.1591V20.896H39.7907V18.2644H50.317Z" fill="#FFF510"/>
<path d="M26.6328 36.6875H121.37V41.9507H26.6328V36.6875Z" fill="#FFC700"/>
<path d="M50.317 18.2644V15.6328H97.6854V18.2644H108.212V20.896H39.7907V18.2644H50.317Z" fill="#FBFFC7"/>
<path d="M37.1591 23.5275V20.896H39.7907V23.5275H37.1591Z" fill="#FBFFC7"/>
<path d="M34.5275 26.1591V23.5275H37.1591V26.1591H34.5275Z" fill="#FBFFC7"/>
<path d="M31.896 28.7907V26.1591H34.5275V28.7907H31.896Z" fill="#FBFFC7"/>
<path d="M29.2644 31.4223V28.7907H31.896V31.4223H29.2644Z" fill="#FBFFC7"/>
<path d="M29.2644 31.4223V36.6854H26.6328V31.4223H29.2644Z" fill="#FBFFC7"/>
<path d="M110.843 23.5275H108.212V20.896H110.843V23.5275Z" fill="#FBFFC7"/>
<path d="M113.475 26.1591H110.843V23.5275H113.475V26.1591Z" fill="#FBFFC7"/>
<path d="M116.107 28.7907H113.475V26.1591H116.107V28.7907Z" fill="#FBFFC7"/>
<path d="M118.738 31.4223V28.7907H116.107V31.4223H118.738Z" fill="#FBFFC7"/>
<path d="M118.738 31.4223V36.6854H121.37V31.4223H118.738Z" fill="#FBFFC7"/>
<path d="M67.4233 36.03V33.3984H80.5812V36.03H83.2128V38.6616H85.8444V49.1879H83.2128V51.8195H80.5812V54.4511H67.4233V51.8195H64.7917V49.1879H62.1602V38.6616H64.7917V36.03H67.4233Z" fill="#FFA800"/>
<path d="M72.6869 42.6049V41.2891H75.3185V42.6049H76.6343V45.2364H75.3185V46.5522H72.6869V45.2364H71.3711V42.6049H72.6869Z" fill="#FF7F0D"/>
<path d="M67.4219 33.3984H80.5798V36.03H67.4219V33.3984Z" fill="#FFCF25"/>
<path d="M71.3711 33.3984H76.6343V36.03H71.3711V33.3984Z" fill="#FFF4CD"/>
<path d="M64.7891 36.0273H67.4206V38.6589H64.7891V36.0273Z" fill="#FFCF25"/>
<path d="M62.1602 38.6562H64.7917V49.1826H62.1602V38.6562Z" fill="#FFCF25"/>
<path d="M83.2109 38.6562H85.8425V49.1826H83.2109V38.6562Z" fill="#FFCF25"/>
<path d="M80.582 36.0273H83.2136V38.6589H80.582V36.0273Z" fill="#FFCF25"/>
<path d="M43.7383 18.2656H47.6856V41.9498H43.7383V18.2656Z" fill="#FFA800"/>
<path d="M100.316 18.2656H104.264V41.9498H100.316V18.2656Z" fill="#FFA800"/>
<path fill-rule="evenodd" clip-rule="evenodd" d="M77.2895 40.6316H75.3158V37.3421H72.6842V40.6316H70.7105V42.6053H67.4211V45.2368H70.7105V47.2105H72.6842V50.5H75.3158V47.2105H77.2895V45.2368H80.5789V42.6053H77.2895V40.6316ZM76.6316 45.2368H75.3158V46.5526H72.6842V45.2368H71.3684V42.6053H72.6842V41.2895H75.3158V42.6053H76.6316V45.2368Z" fill="#0D0D0D"/>
<path fill-rule="evenodd" clip-rule="evenodd" d="M97.6842 13H50.3158V15.6316H29.2632V18.2632H26.6316V20.8947H24V41.9474H26.6316V44.5789H59.5263V49.1842H62.1579V51.8158H64.7895V54.4474H67.4211V57.0789H80.5789V54.4474H83.2105V51.8158H85.8421V49.1842H88.4737V44.5789H121.368V41.9474H124V20.8947H121.368V18.2632H118.737V15.6316H97.6842V13ZM85.8421 38.6579V49.1842H83.2105V51.8158H80.5789V54.4474H67.4211V51.8158H64.7895V49.1842H62.1579V38.6579H64.7895V36.0263H67.4211V33.3947H80.5789V36.0263H83.2105V38.6579H85.8421ZM85.8421 38.6579H88.4737V41.9474H97.6842V15.6316H50.3158V41.9474H59.5263V38.6579H62.1579V36.0263H64.7895V33.3947H67.4211V30.7632H80.5789V33.3947H83.2105V36.0263H85.8421V38.6579ZM110.842 20.8947V18.2632H118.737V20.8947H121.368V28.7895H118.737V26.1579H116.105V23.5263H113.474V20.8947H110.842ZM110.842 20.8947H108.211V18.2632H106.895V41.9474H121.368V31.4211H118.737V28.7895H116.105V26.1579H113.474V23.5263H110.842V20.8947ZM29.2632 28.7895H26.6316V20.8947H29.2632V18.2632H37.1579V20.8947H34.5263V23.5263H31.8947V26.1579H29.2632V28.7895ZM29.2632 28.7895V31.4211H26.6316V41.9474H41.1053V18.2632H39.7895V20.8947H37.1579V23.5263H34.5263V26.1579H31.8947V28.7895H29.2632ZM100.316 41.9474H104.263V18.2632H100.316V41.9474ZM43.7368 41.9474H47.6842V18.2632H43.7368V41.9474Z" fill="#0D0D0D"/>
<path d="M124 6V5H125V6H126V7H127V8H126V9H125V10H124V9H123V8H122V7H123V6H124Z" fill="#FFFF4A"/>
<path fill-rule="evenodd" clip-rule="evenodd" d="M125 2H124V5H123V6H122V7H119V8H122V9H123V10H124V13H125V10H126V9H127V8H130V7H127V6H126V5H125V2ZM125 5V6H126V7H127V8H126V9H125V10H124V9H123V8H122V7H123V6H124V5H125Z" fill="#0D0D0D"/>
<path d="M134 73V72H135V73H136V74H137V75H136V76H135V77H134V76H133V75H132V74H133V73H134Z" fill="#FFFF4A"/>
<path fill-rule="evenodd" clip-rule="evenodd" d="M135 69H134V72H133V73H132V74H129V75H132V76H133V77H134V80H135V77H136V76H137V75H140V74H137V73H136V72H135V69ZM135 72V73H136V74H137V75H136V76H135V77H134V76H133V75H132V74H133V73H134V72H135Z" fill="#0D0D0D"/>
<path d="M135.638 28.9109V28.1836H136.365V28.9109H137.093V29.6381H137.82V30.3654H137.093V31.0927H136.365V31.82H135.638V31.0927H134.911V30.3654H134.184V29.6381H134.911V28.9109H135.638Z" fill="#FFBBFC"/>
<path fill-rule="evenodd" clip-rule="evenodd" d="M136.364 26H135.637V28.1818H136.364V26ZM135.637 31.8171H134.91V31.0898H135.637V31.8164H136.363V31.0898H137.09V30.3633H137.817V31.0906H137.091V31.8171H136.364V33.9982H135.637V31.8171ZM134.91 28.1836H135.637V28.9109H134.911V29.6374H134.184V28.9102H134.91V28.1836ZM136.363 28.1836H137.091V28.9102H137.817V29.6374H137.09V28.9109H136.363V28.1836ZM134.907 30.3633H134.182V29.6367H132V30.364H134.18V31.0906H134.907V30.3633ZM140.002 29.6367H137.82V30.364H140.002V29.6367Z" fill="#0D0D0D"/>
<path d="M13.6381 56.9109V56.1836H14.3654V56.9109H15.0927V57.6381H15.82V58.3654H15.0927V59.0927H14.3654V59.82H13.6381V59.0927H12.9109V58.3654H12.1836V57.6381H12.9109V56.9109H13.6381Z" fill="white"/>
<path fill-rule="evenodd" clip-rule="evenodd" d="M14.364 54H13.6367V56.1818H14.364V54ZM13.6367 59.8171H12.9102V59.0898H13.6374V59.8164H14.3633V59.0898H15.0898V58.3633H15.8171V59.0906H15.0906V59.8171H14.364V61.9982H13.6367V59.8171ZM12.9102 56.1836H13.6374V56.9109H12.9109V57.6374H12.1836V56.9102H12.9102V56.1836ZM14.3633 56.1836H15.0906V56.9102H15.8171V57.6374H15.0898V56.9109H14.3633V56.1836ZM12.907 58.3633H12.1818V57.6367H10V58.364H12.1797V59.0906H12.907V58.3633ZM18.0021 57.6367H15.8203V58.364H18.0021V57.6367Z" fill="#0D0D0D"/>
<rect x="61" y="34" width="2" height="2" fill="#0D0D0D"/>
<rect x="81" y="34" width="2" height="2" fill="#0D0D0D"/>
<path d="M10.2724 13.8185V11.6367H11.7269V13.8185H13.1815V15.2731H14.636V16.7276H13.1815V18.1822H11.7269V20.364H10.2724V18.1822H8.81783V16.7276H7.36328V15.2731H8.81783V13.8185H10.2724Z" fill="#00FC6E"/>
<path fill-rule="evenodd" clip-rule="evenodd" d="M11.728 8H10.2734V12.3633H8.82031V13.8178H10.2749V12.3636H11.7266V13.8178H13.1811V12.3633H11.728V8ZM11.7266 19.6367H10.2734V24.0004H11.728V19.6381H13.1811V18.1836H11.7266V19.6367ZM8.81641 18.1836H10.271V19.6381H8.81641V18.1836ZM7.36328 13.8164H8.81783V15.271H7.36328V13.8164ZM3 16.728H7.36328V18.1811H8.81783V16.7266H7.36364V15.2734H3V16.728ZM14.6381 13.8164H13.1836V15.271H14.6381V13.8164ZM14.6342 16.7266H13.1797V18.1811H14.6342V16.7266ZM19.0004 15.2734H14.6367V16.728H19.0004V15.2734Z" fill="#0D0D0D"/>
<rect x="17" y="24" width="2" height="2" fill="#FFC700"/>
<rect x="6" y="29" width="2" height="2" fill="#FFBBFC"/>
<rect x="131" y="19" width="2" height="2" fill="#00E162"/>
<defs>
<clipPath id="clip0_2234_7528">
<rect width="12" height="12" fill="white" transform="translate(102.504 168.5)"/>
</clipPath>
</defs>
</svg>
