<svg width="30" height="26" viewBox="0 0 30 26" fill="none" xmlns="http://www.w3.org/2000/svg">
<path d="M12.5 11V8H14.5V11H16.5V13H18.5V15H16.5V17H14.5V20H12.5V17H10.5V15H8.5V13H10.5V11H12.5Z" fill="#00FC6E"/>
<path fill-rule="evenodd" clip-rule="evenodd" d="M14.5 2H12.5V8H10.5V11H8.5V13H2.5V15H8.5V17H10.5V20H12.5V26H14.5V20H16.5V17H18.5V15H24.5V13H18.5V11H16.5V8H14.5V2ZM14.5 8V11H16.5V13H18.5V15H16.5V17H14.5V20H12.5V17H10.5V15H8.5V13H10.5V11H12.5V8H14.5Z" fill="#0D0D0D"/>
<rect x="2.5" y="2" width="2" height="2" fill="#FFDCFB"/>
<path fill-rule="evenodd" clip-rule="evenodd" d="M4.5 0H2.5V2H0.5V4H2.5V6H4.5V4H6.5V2H4.5V0ZM4.5 2V4H2.5V2H4.5Z" fill="#0D0D0D"/>
<path d="M23.5 4V3H24.5V4H25.5V5H26.5V6H25.5V7H24.5V8H23.5V7H22.5V6H21.5V5H22.5V4H23.5Z" fill="#FFFF4A"/>
<path fill-rule="evenodd" clip-rule="evenodd" d="M24.5 0H23.5V3H22.5V4H21.5V5H18.5V6H21.5V7H22.5V8H23.5V11H24.5V8H25.5V7H26.5V6H29.5V5H26.5V4H25.5V3H24.5V0ZM24.5 3V4H25.5V5H26.5V6H25.5V7H24.5V8H23.5V7H22.5V6H21.5V5H22.5V4H23.5V3H24.5Z" fill="#0D0D0D"/>
<rect x="2.5" y="23" width="2" height="2" fill="#0D0D0D"/>
<rect x="22.5" y="23" width="2" height="2" fill="#0D0D0D"/>
</svg>
