<svg width="33" height="32" viewBox="0 0 33 32" fill="none" xmlns="http://www.w3.org/2000/svg">
<g clip-path="url(#clip0_479_2358)">
<path d="M11.1721 9.15189V7.60693H18.8019V9.13572H20.321V10.6806H21.8583V12.2072H23.3564V19.8177H21.8347V21.3323H20.3201V22.8755H18.8056V24.386H11.1809V22.8616H9.65518V21.3369H8.14161V19.8201H6.60938V12.1987H8.12523V10.6537H9.64862V9.15189H11.1721Z" fill="#00FC6E"/>
<path d="M18.786 6.09492H21.836V7.61492H23.356V9.14492H24.886V12.1949H26.406V19.8049H24.886V22.8549H23.356V24.3849H21.836V25.9049H18.786V27.4249H11.166V28.9549H21.836V27.4249H24.886V25.9049H26.406V24.3849H27.936V22.8549H29.456V19.8049H30.976V12.1949H29.456V9.14492H27.936V7.61492H26.406V6.09492H24.886V4.57492H21.836V3.04492H11.166V4.57492H18.786V6.09492Z" fill="#0D0D0D"/>
<path d="M18.7856 16.7637H17.2656V19.8037H18.7856V16.7637Z" fill="#0D0D0D"/>
<path d="M18.7856 12.1958H17.2656V13.7158H18.7856V12.1958Z" fill="#0D0D0D"/>
<path d="M14.2153 21.334V22.854H15.7353V21.334H17.2653V19.804H15.7353V16.764H17.2653V15.234H15.7353V12.194H17.2653V10.664H15.7353V9.14404H14.2153V10.664H12.6953V12.194H14.2153V15.234H12.6953V16.764H14.2153V19.804H12.6953V21.334H14.2153Z" fill="#0D0D0D"/>
<path d="M12.696 18.2847H11.166V19.8047H12.696V18.2847Z" fill="#0D0D0D"/>
<path d="M12.696 12.1958H11.166V15.2358H12.696V12.1958Z" fill="#0D0D0D"/>
<path d="M11.165 25.9043H8.125V27.4243H11.165V25.9043Z" fill="#0D0D0D"/>
<path d="M11.165 4.57617H8.125V6.09617H11.165V4.57617Z" fill="#0D0D0D"/>
<path d="M8.1257 24.3862H6.5957V25.9062H8.1257V24.3862Z" fill="#0D0D0D"/>
<path d="M8.1257 6.09424H6.5957V7.61424H8.1257V6.09424Z" fill="#0D0D0D"/>
<path d="M6.59812 22.855H5.07812V24.385H6.59812V22.855Z" fill="#0D0D0D"/>
<path d="M18.7866 6.09424H11.1666V7.61424L9.646 7.61487V9.14487H11.166L11.1666 7.61424H18.7866L18.7865 9.14511H20.3151V10.6637H21.8351V9.14374H20.3165V7.61511L18.7866 7.61424V6.09424Z" fill="#0D0D0D"/>
<path d="M23.3568 12.1958H24.8868V19.8058H23.3568V12.1958Z" fill="#0D0D0D"/>
<path d="M23.3559 19.8052H21.8359V21.3352H23.3559V19.8052Z" fill="#0D0D0D"/>
<path d="M21.8351 21.3339H20.3151V22.8539H21.8351V21.3339Z" fill="#0D0D0D"/>
<path d="M18.7865 22.8547H20.3165V24.3847H18.7866V25.9033H11.1666V24.3833H18.7865V22.8547Z" fill="#0D0D0D"/>
<path d="M11.166 22.8549H9.646V24.3849H11.166V22.8549Z" fill="#0D0D0D"/>
<path d="M9.645 21.3339H8.12631V19.8052H6.59812V12.1958H5.07812V19.8058H6.59631V21.3352H8.125V22.8539H9.645V21.3339Z" fill="#0D0D0D"/>
<path d="M9.645 9.14374H8.125V10.6637H9.645V9.14374Z" fill="#0D0D0D"/>
<path d="M6.59607 10.6648H8.12607V12.1948H6.59607V10.6648Z" fill="#0D0D0D"/>
<path d="M21.8359 10.6646H23.3559V12.1946H21.8359V10.6646Z" fill="#0D0D0D"/>
<path d="M6.59812 7.61523H5.07812V9.14524H6.59812V7.61523Z" fill="#0D0D0D"/>
<path d="M5.07687 19.8052H3.54688V22.8552H5.07687V19.8052Z" fill="#0D0D0D"/>
<path d="M5.07687 9.14404H3.54688V12.194H5.07687V9.14404Z" fill="#0D0D0D"/>
<path d="M3.54539 12.1958H2.02539V19.8058H3.54539V12.1958Z" fill="#0D0D0D"/>
</g>
<defs>
<clipPath id="clip0_479_2358">
<rect width="32" height="32" fill="white" transform="translate(0.5)"/>
</clipPath>
</defs>
</svg>
