<svg width="17" height="16" viewBox="0 0 17 16" fill="none" xmlns="http://www.w3.org/2000/svg">
<g clip-path="url(#clip0_479_2526)">
<path d="M2.5 3.125H1.5V5.875H2.5V6.875H4.5V7.875H2.5V8.875H3.5V9.875H4.5V10.875H3.5V11.875H1.5V12.875H2.5V13.875H8.5V12.875H10.5V11.875H12.5V10.875H13.5V9.875H14.5V4.125H12.25V3.125H9.5V4.125H8.5V5.125H4.5V4.125H2.5C2.4 4.125 2.45833 3.45833 2.5 3.125Z" fill="#62F6FF"/>
<path d="M14.5 4.125H13.75V5.125H13.25V6.875H12.25V8.875H11.25V9.875H10.25V10.875H8.25V11.875H6.25V12.875H2.5V13.875H8.5V12.875H10.5V11.875H12.5V10.875H13.5V9.875H14.5V4.125Z" fill="#18B0F1"/>
<path d="M1.5 3.125H2.5V4.125H4.75V5.125H8.5V6.125H4.5V5.125H2.25V4.125H1.5V3.125Z" fill="#CFFCFF"/>
<path d="M9.5 4.125H8.5V5.125H9.5V4.125Z" fill="#CFFCFF"/>
<path d="M9.5 4.125V3.125H10.5V4.125H9.5Z" fill="#CFFCFF"/>
<path d="M14.5 1.125H15.5V2.125H14.5V1.125Z" fill="#0D0D0D"/>
<path fill-rule="evenodd" clip-rule="evenodd" d="M14.5 4.125V2.125H13.25V3.125H12.25V2.125H9.5V3.125H8.5V4.125H4.5V3.125H2.5V2.125H1.5V3.125H0.5V5.875H1.5V6.875H2.5V7.875H1.5V8.875H2.5V9.875H3.5V10.875H0.5V12.875H1.5V13.875H2.5V14.875H8.5V13.875H10.5V12.875H12.5V11.875H13.5V10.875H14.5V9.875H15.5V4.125H16.5V3.125H15.5V4.125H14.5ZM14.5 4.125V9.875H13.5V10.875H12.5V11.875H10.5V12.875H8.5V13.875H2.5V12.875H1.5V11.875H3.5V10.875H4.5V9.875H3.5V8.875H2.5V7.875H4.5V6.875H2.5V5.875H1.5V3.125H2.5V4.125H4.5V5.125H8.5V4.125H9.5V3.125H12.25V4.125H14.5Z" fill="#0D0D0D"/>
<path d="M14.5 2.125H15.5V1.125H14.5V2.125ZM14.5 2.125H13.25V3.125H12.25M14.5 2.125V4.125M14.5 4.125H15.5M14.5 4.125V9.875M14.5 4.125H12.25V3.125M12.25 3.125V2.125H9.5V3.125M12.25 3.125H9.5M9.5 3.125H8.5V4.125M9.5 3.125V4.125H8.5M8.5 4.125H4.5M8.5 4.125V5.125H4.5V4.125M4.5 4.125V3.125H2.5M4.5 4.125H2.5V3.125M2.5 3.125V2.125H1.5V3.125M2.5 3.125H1.5M1.5 3.125H0.5V5.875H1.5M1.5 3.125V5.875M1.5 5.875V6.875H2.5M1.5 5.875H2.5V6.875M2.5 6.875V7.875M2.5 6.875H4.5V7.875H2.5M2.5 7.875H1.5V8.875H2.5M2.5 7.875V8.875M2.5 8.875V9.875H3.5M2.5 8.875H3.5V9.875M3.5 9.875V10.875M3.5 9.875H4.5V10.875H3.5M3.5 10.875H0.5V12.875H1.5M3.5 10.875V11.875H1.5V12.875M1.5 12.875V13.875H2.5M1.5 12.875H2.5V13.875M2.5 13.875V14.875H8.5V13.875M2.5 13.875H8.5M8.5 13.875H10.5V12.875M8.5 13.875V12.875H10.5M10.5 12.875H12.5V11.875M10.5 12.875V11.875H12.5M12.5 11.875H13.5V10.875M12.5 11.875V10.875H13.5M13.5 10.875H14.5V9.875M13.5 10.875V9.875H14.5M14.5 9.875H15.5V4.125M15.5 4.125H16.5V3.125H15.5V4.125Z" stroke="#0D0D0D" stroke-width="0.2"/>
<path d="M10.25 4.125H11.5833V5.45833H10.25V4.125Z" fill="#0D0D0D"/>
</g>
<defs>
<clipPath id="clip0_479_2526">
<rect width="16" height="16" fill="white" transform="translate(0.5)"/>
</clipPath>
</defs>
</svg>
