<svg width="25" height="25" viewBox="0 0 25 25" fill="none" xmlns="http://www.w3.org/2000/svg">
<g id="ic_mute" clip-path="url(#clip0_1068_3180)">
<path id="Subtract" fill-rule="evenodd" clip-rule="evenodd" d="M9.38415 0.910156H11.9105H14.4368V3.43647H11.9105H9.38415V0.910156ZM9.38415 7.55542V5.96279V3.43647H6.85783V5.0291L9.38415 7.55542ZM14.4368 12.6081V11.0154V8.4891V5.96279V3.43647H16.9631V5.96279V8.4891V11.0154V13.5417H15.3705L14.4368 12.6081ZM9.38415 13.2123L6.85783 10.686V11.0154V13.5417H9.38415V16.0681H11.9105H12.2399L9.71361 13.5417H9.38415V13.2123ZM13.5031 17.3312H13.1736H10.6473H8.12099H5.59468V14.8049V12.2786V9.75226H3.06836V12.2786V14.8049V17.3312H5.59468V19.8575H8.12099H10.6473V22.3838V24.9102H13.1736V22.3838V19.8575H15.6999H16.0294L13.5031 17.3312ZM19.1599 17.3312H20.7526V14.8049V12.2786V9.75226H18.2263V12.2786V14.8049V16.3975L19.1599 17.3312Z" fill="#E42222"/>
<rect id="Rectangle 176823" x="2" y="4.41406" width="2" height="26" transform="rotate(-45 2 4.41406)" fill="#E42222"/>
</g>
<defs>
<clipPath id="clip0_1068_3180">
<rect width="24" height="24" fill="white" transform="translate(0.0683594 0.910156)"/>
</clipPath>
</defs>
</svg>
