<svg width="24" height="24" viewBox="0 0 24 24" fill="none" xmlns="http://www.w3.org/2000/svg">
<g id="ic_voice">
<rect id="Rectangle 176821" x="9.31836" y="7.65039" width="5.07031" height="4.96484" fill="#00FC6E"/>
<g id="Vector">
<path d="M3 8.8421H5.52632V11.3684H3V8.8421Z" fill="#0D0D0D"/>
<path d="M3 11.3684H5.52632V13.8947H3V11.3684Z" fill="#0D0D0D"/>
<path d="M3 13.8947H5.52632V16.4211H3V13.8947Z" fill="#0D0D0D"/>
<path d="M5.52632 16.4211H8.05263V18.9474H5.52632V16.4211Z" fill="#0D0D0D"/>
<path d="M8.05263 16.4211H10.5789V18.9474H8.05263V16.4211Z" fill="#0D0D0D"/>
<path d="M10.5789 16.4211H13.1053V18.9474H10.5789V16.4211Z" fill="#0D0D0D"/>
<path d="M10.5789 18.9474H13.1053V21.4737H10.5789V18.9474Z" fill="#0D0D0D"/>
<path d="M10.5789 21.4737H13.1053V24H10.5789V21.4737Z" fill="#0D0D0D"/>
<path d="M13.1053 16.4211H15.6316V18.9474H13.1053V16.4211Z" fill="#0D0D0D"/>
<path d="M15.6316 16.4211H18.1579V18.9474H15.6316V16.4211Z" fill="#0D0D0D"/>
<path d="M18.1579 13.8947H20.6842V16.4211H18.1579V13.8947Z" fill="#0D0D0D"/>
<path d="M18.1579 11.3684H20.6842V13.8947H18.1579V11.3684Z" fill="#0D0D0D"/>
<path d="M18.1579 8.8421H20.6842V11.3684H18.1579V8.8421Z" fill="#0D0D0D"/>
<path d="M11.8421 12.6316H14.3684V15.1579H11.8421V12.6316Z" fill="#0D0D0D"/>
<path d="M9.31579 12.6316H11.8421V15.1579H9.31579V12.6316Z" fill="#0D0D0D"/>
<path d="M6.78947 10.1053H9.31579V12.6316H6.78947V10.1053Z" fill="#0D0D0D"/>
<path d="M6.78947 7.57895H9.31579V10.1053H6.78947V7.57895Z" fill="#0D0D0D"/>
<path d="M6.78947 5.05263H9.31579V7.57895H6.78947V5.05263Z" fill="#0D0D0D"/>
<path d="M6.78947 2.52632H9.31579V5.05263H6.78947V2.52632Z" fill="#0D0D0D"/>
<path d="M9.31579 0H11.8421V2.52632H9.31579V0Z" fill="#0D0D0D"/>
<path d="M11.8421 0H14.3684V2.52632H11.8421V0Z" fill="#0D0D0D"/>
<path d="M14.3684 2.52632H16.8947V5.05263H14.3684V2.52632Z" fill="#0D0D0D"/>
<path d="M14.3684 5.05263H16.8947V7.57895H14.3684V5.05263Z" fill="#0D0D0D"/>
<path d="M14.3684 7.57895H16.8947V10.1053H14.3684V7.57895Z" fill="#0D0D0D"/>
<path d="M14.3684 10.1053H16.8947V12.6316H14.3684V10.1053Z" fill="#0D0D0D"/>
</g>
</g>
</svg>
