<svg width="327" height="58" viewBox="0 0 327 58" fill="none" xmlns="http://www.w3.org/2000/svg">
<path fill-rule="evenodd" clip-rule="evenodd" d="M-24.0829 -57.9219L-11.6658 -45.5048L-24.0828 -33.0877L-11.6658 -20.6707L-24.0828 -8.25374L-11.6658 4.16327L-24.0828 16.5803L-11.6658 28.9973L-24.0828 41.4143L-11.6658 53.8313L-24.0829 66.2484L-36.5 53.8313L-24.083 41.4143L-36.5 28.9973L-24.083 16.5803L-36.5 4.16327L-24.083 -8.25374L-36.5 -20.6707L-24.083 -33.0877L-36.5 -45.5048L-24.0829 -57.9219ZM-24.0829 91.0822L-36.5 78.6653L-24.0829 66.2484L-11.6658 78.6653L-24.0829 91.0822ZM-24.0829 91.0822L-11.6658 103.499L-24.0829 115.916L-36.5 103.499L-24.0829 91.0822ZM0.940655 -57.9219L13.3578 -45.5048L0.940773 -33.0877L13.3578 -20.6707L0.940773 -8.25374L13.3578 4.16327L0.940773 16.5803L13.3578 28.9973L0.940773 41.4143L13.3578 53.8313L0.940655 66.2484L-11.4765 53.8313L0.940536 41.4143L-11.4765 28.9973L0.940536 16.5803L-11.4765 4.16327L0.940536 -8.25374L-11.4765 -20.6707L0.940536 -33.0877L-11.4765 -45.5048L0.940655 -57.9219ZM0.940655 91.0822L-11.4765 78.6653L0.940655 66.2484L13.3578 78.6653L0.940655 91.0822ZM0.940655 91.0822L13.3578 103.499L0.940655 115.916L-11.4765 103.499L0.940655 91.0822ZM38.3815 -45.5048L25.9644 -57.9219L13.5472 -45.5048L25.9642 -33.0877L13.5472 -20.6707L25.9642 -8.25374L13.5472 4.16327L25.9642 16.5803L13.5472 28.9973L25.9642 41.4143L13.5472 53.8313L25.9644 66.2484L13.5472 78.6653L25.9644 91.0822L13.5472 103.499L25.9644 115.916L38.3815 103.499L25.9644 91.0822L38.3815 78.6653L25.9644 66.2484L38.3815 53.8313L25.9645 41.4143L38.3815 28.9973L25.9645 16.5803L38.3815 4.16327L25.9645 -8.25374L38.3815 -20.6707L25.9645 -33.0877L38.3815 -45.5048ZM50.9881 -57.9219L63.4052 -45.5048L50.9882 -33.0877L63.4052 -20.6707L50.9882 -8.25374L63.4052 4.16327L50.9882 16.5803L63.4052 28.9973L50.9882 41.4143L63.4052 53.8313L50.9881 66.2484L38.5709 53.8313L50.9879 41.4143L38.5709 28.9973L50.9879 16.5803L38.5709 4.16327L50.9879 -8.25374L38.5709 -20.6707L50.9879 -33.0877L38.5709 -45.5048L50.9881 -57.9219ZM50.9881 91.0822L38.5709 78.6653L50.9881 66.2484L63.4052 78.6653L50.9881 91.0822ZM50.9881 91.0822L63.4052 103.499L50.9881 115.916L38.5709 103.499L50.9881 91.0822ZM88.4287 -45.5048L76.0116 -57.9219L63.5945 -45.5048L76.0115 -33.0877L63.5945 -20.6707L76.0115 -8.25374L63.5945 4.16327L76.0115 16.5803L63.5945 28.9973L76.0115 41.4143L63.5945 53.8313L76.0116 66.2484L63.5945 78.6653L76.0116 91.0822L63.5945 103.499L76.0116 115.916L88.4287 103.499L76.0116 91.0822L88.4287 78.6653L76.0116 66.2484L88.4287 53.8313L76.0117 41.4143L88.4287 28.9973L76.0117 16.5803L88.4287 4.16327L76.0117 -8.25374L88.4287 -20.6707L76.0117 -33.0877L88.4287 -45.5048ZM101.035 -57.9219L113.452 -45.5048L101.035 -33.0879L88.6182 -45.5048L101.035 -57.9219ZM101.035 -8.25386L88.6182 -20.6707L101.035 -33.0879L113.452 -20.6707L101.035 -8.25386ZM101.035 16.5802L88.6182 4.16327L101.035 -8.25386L113.452 4.16327L101.035 16.5802ZM101.035 41.4142L88.6182 28.9973L101.035 16.5802L113.452 28.9973L101.035 41.4142ZM101.035 66.2482L88.6182 53.8313L101.035 41.4142L113.452 53.8313L101.035 66.2482ZM101.035 91.0822L88.6182 78.6653L101.035 66.2482L113.452 78.6653L101.035 91.0822ZM101.035 91.0822L113.452 103.499L101.035 115.916L88.6182 103.499L101.035 91.0822ZM138.476 -45.5048L126.059 -57.9219L113.642 -45.5048L126.059 -33.0879L113.642 -20.6707L126.059 -8.25386L113.642 4.16327L126.059 16.5802L113.642 28.9973L126.059 41.4142L113.642 53.8313L126.059 66.2482L113.642 78.6653L126.059 91.0822L113.642 103.499L126.059 115.916L138.476 103.499L126.059 91.0822L138.476 78.6653L126.059 66.2482L138.476 53.8313L126.059 41.4142L138.476 28.9973L126.059 16.5802L138.476 4.16327L126.059 -8.25386L138.476 -20.6707L126.059 -33.0879L138.476 -45.5048ZM151.083 -57.9219L163.5 -45.5048L151.083 -33.0879L138.666 -45.5048L151.083 -57.9219ZM151.083 -8.25386L138.666 -20.6707L151.083 -33.0879L163.5 -20.6707L151.083 -8.25386ZM151.083 16.5802L138.666 4.16327L151.083 -8.25386L163.5 4.16327L151.083 16.5802ZM151.083 41.4142L138.666 28.9973L151.083 16.5802L163.5 28.9973L151.083 41.4142ZM151.083 66.2482L138.666 53.8313L151.083 41.4142L163.5 53.8313L151.083 66.2482ZM151.083 91.0822L138.666 78.6653L151.083 66.2482L163.5 78.6653L151.083 91.0822ZM151.083 91.0822L163.5 103.499L151.083 115.916L138.666 103.499L151.083 91.0822ZM175.917 -57.9219L188.334 -45.5048L175.917 -33.0877L188.334 -20.6707L175.917 -8.25374L188.334 4.16327L175.917 16.5803L188.334 28.9973L175.917 41.4143L188.334 53.8313L175.917 66.2484L163.5 53.8313L175.917 41.4143L163.5 28.9973L175.917 16.5803L163.5 4.16327L175.917 -8.25374L163.5 -20.6707L175.917 -33.0877L163.5 -45.5048L175.917 -57.9219ZM175.917 91.0822L163.5 78.6653L175.917 66.2484L188.334 78.6653L175.917 91.0822ZM175.917 91.0822L188.334 103.499L175.917 115.916L163.5 103.499L175.917 91.0822ZM200.941 -57.9219L213.358 -45.5048L200.941 -33.0877L213.358 -20.6707L200.941 -8.25374L213.358 4.16327L200.941 16.5803L213.358 28.9973L200.941 41.4143L213.358 53.8313L200.941 66.2484L188.524 53.8313L200.941 41.4143L188.524 28.9973L200.941 16.5803L188.524 4.16327L200.941 -8.25374L188.524 -20.6707L200.941 -33.0877L188.524 -45.5048L200.941 -57.9219ZM200.941 91.0822L188.524 78.6653L200.941 66.2484L213.358 78.6653L200.941 91.0822ZM200.941 91.0822L213.358 103.499L200.941 115.916L188.524 103.499L200.941 91.0822ZM238.382 -45.5048L225.964 -57.9219L213.547 -45.5048L225.964 -33.0877L213.547 -20.6707L225.964 -8.25374L213.547 4.16327L225.964 16.5803L213.547 28.9973L225.964 41.4143L213.547 53.8313L225.964 66.2484L213.547 78.6653L225.964 91.0822L213.547 103.499L225.964 115.916L238.382 103.499L225.964 91.0822L238.382 78.6653L225.964 66.2484L238.382 53.8313L225.965 41.4143L238.382 28.9973L225.965 16.5803L238.382 4.16327L225.965 -8.25374L238.382 -20.6707L225.965 -33.0877L238.382 -45.5048ZM250.988 -57.9219L263.405 -45.5048L250.988 -33.0877L263.405 -20.6707L250.988 -8.25374L263.405 4.16327L250.988 16.5803L263.405 28.9973L250.988 41.4143L263.405 53.8313L250.988 66.2484L238.571 53.8313L250.988 41.4143L238.571 28.9973L250.988 16.5803L238.571 4.16327L250.988 -8.25374L238.571 -20.6707L250.988 -33.0877L238.571 -45.5048L250.988 -57.9219ZM250.988 91.0822L238.571 78.6653L250.988 66.2484L263.405 78.6653L250.988 91.0822ZM250.988 91.0822L263.405 103.499L250.988 115.916L238.571 103.499L250.988 91.0822ZM288.429 -45.5048L276.012 -57.9219L263.595 -45.5048L276.012 -33.0877L263.595 -20.6707L276.012 -8.25374L263.595 4.16327L276.012 16.5803L263.595 28.9973L276.012 41.4143L263.595 53.8313L276.012 66.2484L263.595 78.6653L276.012 91.0822L263.595 103.499L276.012 115.916L288.429 103.499L276.012 91.0822L288.429 78.6653L276.012 66.2484L288.429 53.8313L276.012 41.4143L288.429 28.9973L276.012 16.5803L288.429 4.16327L276.012 -8.25374L288.429 -20.6707L276.012 -33.0877L288.429 -45.5048ZM301.035 -57.9219L313.453 -45.5048L301.035 -33.0879L288.618 -45.5048L301.035 -57.9219ZM301.035 -8.25386L288.618 -20.6707L301.035 -33.0879L313.453 -20.6707L301.035 -8.25386ZM301.035 16.5802L288.618 4.16327L301.035 -8.25386L313.453 4.16327L301.035 16.5802ZM301.035 41.4142L288.618 28.9973L301.035 16.5802L313.453 28.9973L301.035 41.4142ZM301.035 66.2482L288.618 53.8313L301.035 41.4142L313.453 53.8313L301.035 66.2482ZM301.035 91.0822L288.618 78.6653L301.035 66.2482L313.453 78.6653L301.035 91.0822ZM301.035 91.0822L313.453 103.499L301.035 115.916L288.618 103.499L301.035 91.0822ZM338.476 -45.5048L326.059 -57.9219L313.642 -45.5048L326.059 -33.0879L313.642 -20.6707L326.059 -8.25386L313.642 4.16327L326.059 16.5802L313.642 28.9973L326.059 41.4142L313.642 53.8313L326.059 66.2482L313.642 78.6653L326.059 91.0822L313.642 103.499L326.059 115.916L338.476 103.499L326.059 91.0822L338.476 78.6653L326.059 66.2482L338.476 53.8313L326.059 41.4142L338.476 28.9973L326.059 16.5802L338.476 4.16327L326.059 -8.25386L338.476 -20.6707L326.059 -33.0879L338.476 -45.5048ZM351.083 -57.9219L363.5 -45.5048L351.083 -33.0879L338.666 -45.5048L351.083 -57.9219ZM351.083 -8.25386L338.666 -20.6707L351.083 -33.0879L363.5 -20.6707L351.083 -8.25386ZM351.083 16.5802L338.666 4.16327L351.083 -8.25386L363.5 4.16327L351.083 16.5802ZM351.083 41.4142L338.666 28.9973L351.083 16.5802L363.5 28.9973L351.083 41.4142ZM351.083 66.2482L338.666 53.8313L351.083 41.4142L363.5 53.8313L351.083 66.2482ZM351.083 91.0822L338.666 78.6653L351.083 66.2482L363.5 78.6653L351.083 91.0822ZM351.083 91.0822L363.5 103.499L351.083 115.916L338.666 103.499L351.083 91.0822Z" fill="#00EB5E"/>
</svg>
