<svg width="16" height="16" viewBox="0 0 16 16" fill="none" xmlns="http://www.w3.org/2000/svg">
<g id="Person_Added">
<path id="Union" fill-rule="evenodd" clip-rule="evenodd" d="M3.04762 7.99972H3.80953V8.76162H8.38096V7.99972H9.14286V7.23782H9.90477V2.66639H9.14286V1.90448H8.38096V1.14258H3.80953V1.90448H3.04762V2.66639H2.28572V7.23782H3.04762V7.99972ZM3.80953 4.1902H4.57143V3.42829H5.33334V2.66639H6.85715V3.42829H7.61905V4.1902H8.38096V5.71401H7.61905V6.47591H6.85715V7.23782H5.33334V6.47591H4.57143V5.71401H3.80953V4.1902ZM11.4286 10.2857H10.6667V9.52383H1.52381V10.2857H0.761905V11.0476H0V14.8572H1.52381V12.5714H2.28571V11.8095H3.04762V11.0476H9.14286V11.8095H9.90476V12.5714H10.6667V14.8572H12.1905V11.0476H11.4286V10.2857ZM14.4762 6.47636V5.71445H16V7.23826H15.2381V8.00017H14.4762V8.76207H13.7143V9.52398H11.4286V8.76207H10.6667V7.23826H12.1905V8.00017H12.9524V7.23826H13.7143V6.47636H14.4762Z" fill="#949694"/>
</g>
</svg>
