<svg width="173" height="229" viewBox="0 0 173 229" fill="none" xmlns="http://www.w3.org/2000/svg">
<path d="M17.3674 3.30543C19.2957 1.811 21.6661 1 24.1057 1H148.894C151.334 1 153.704 1.811 155.633 3.30544L167.738 12.6873C170.427 14.7708 172 17.9807 172 21.3819V228H1V21.3819C1 17.9807 2.57336 14.7708 5.26171 12.6873L17.3674 3.30543Z" fill="url(#paint0_linear_941_2265)" stroke="#0D0D0D" stroke-width="2"/>
<path d="M1 22C1 15.9249 5.92487 11 12 11H161C167.075 11 172 15.9249 172 22V228H1V22Z" fill="white" stroke="#0D0D0D" stroke-width="2"/>
<path d="M1 22C1 15.9249 5.92487 11 12 11H161C167.075 11 172 15.9249 172 22V75H1V22Z" fill="url(#paint1_linear_941_2265)" stroke="#0D0D0D" stroke-width="2"/>
<g filter="url(#filter0_d_941_2265)">
<path d="M114.88 34.8L116.464 26.016H131.248L125.248 60H115.408L119.824 34.8H114.88ZM135.083 60.18C134.323 60.18 133.629 60.0533 133.003 59.8C132.376 59.5333 131.883 59.1667 131.523 58.7C131.163 58.22 130.983 57.6733 130.983 57.06C130.983 56.9533 130.996 56.8067 131.023 56.62H133.243C133.189 57.1267 133.343 57.5467 133.703 57.88C134.063 58.2133 134.569 58.38 135.223 58.38C135.863 58.38 136.389 58.2667 136.803 58.04C137.216 57.8133 137.423 57.48 137.423 57.04C137.423 56.6667 137.249 56.3667 136.903 56.14C136.569 55.9133 136.029 55.66 135.283 55.38C134.576 55.1 134.003 54.84 133.563 54.6C133.123 54.36 132.743 54.0333 132.423 53.62C132.103 53.1933 131.943 52.6667 131.943 52.04C131.943 51.4 132.123 50.84 132.483 50.36C132.856 49.8667 133.369 49.4867 134.023 49.22C134.689 48.94 135.449 48.8 136.303 48.8C137.076 48.8 137.763 48.9333 138.363 49.2C138.976 49.4533 139.449 49.82 139.783 50.3C140.129 50.7667 140.303 51.3067 140.303 51.92C140.303 52.1067 140.296 52.2467 140.283 52.34H138.123C138.176 51.82 138.023 51.4 137.663 51.08C137.316 50.76 136.816 50.6 136.163 50.6C135.589 50.6 135.123 50.72 134.763 50.96C134.416 51.2 134.243 51.5267 134.243 51.94C134.243 52.3533 134.423 52.6867 134.783 52.94C135.143 53.18 135.696 53.4467 136.442 53.74C137.123 54.0067 137.676 54.26 138.103 54.5C138.529 54.74 138.896 55.06 139.203 55.46C139.509 55.86 139.663 56.36 139.663 56.96C139.663 57.6133 139.463 58.1867 139.063 58.68C138.676 59.16 138.136 59.5333 137.443 59.8C136.749 60.0533 135.963 60.18 135.083 60.18ZM144.906 56.94C144.879 57.1267 144.866 57.2467 144.866 57.3C144.866 57.58 144.953 57.7867 145.126 57.92C145.299 58.04 145.586 58.1 145.986 58.1H147.386L147.046 60H145.246C144.366 60 143.693 59.8267 143.226 59.48C142.759 59.12 142.526 58.5533 142.526 57.78C142.526 57.4867 142.553 57.2067 142.606 56.94L143.686 50.84H142.386L142.706 48.98H144.026L144.506 46.24H146.806L146.326 48.98H148.986L148.666 50.84H145.986L144.906 56.94Z" fill="url(#paint2_linear_941_2265)" fill-opacity="0.6" shape-rendering="crispEdges"/>
</g>
<g clip-path="url(#clip0_941_2265)">
<mask id="path-5-outside-1_941_2265" maskUnits="userSpaceOnUse" x="6.57459" y="39.0912" width="22.5885" height="21.1244" fill="black">
<rect fill="white" x="6.57459" y="39.0912" width="22.5885" height="21.1244"/>
<path fill-rule="evenodd" clip-rule="evenodd" d="M10.5505 48.2723C9.70976 48.2285 9.29935 49.2821 9.94823 49.8185L16.9985 55.6474C17.2635 55.8665 17.6305 55.9087 17.9365 55.7603C20.5413 53.4829 23.5798 51.6891 26.9118 50.5192C27.3409 50.0058 27.0336 49.131 26.2776 49.0917L10.5505 48.2723Z"/>
</mask>
<path fill-rule="evenodd" clip-rule="evenodd" d="M10.5505 48.2723C9.70976 48.2285 9.29935 49.2821 9.94823 49.8185L16.9985 55.6474C17.2635 55.8665 17.6305 55.9087 17.9365 55.7603C20.5413 53.4829 23.5798 51.6891 26.9118 50.5192C27.3409 50.0058 27.0336 49.131 26.2776 49.0917L10.5505 48.2723Z" fill="#FFD601"/>
<path d="M9.94823 49.8185L9.31104 50.5892L9.94823 49.8185ZM10.5505 48.2723L10.6026 47.2736L10.5505 48.2723ZM16.9985 55.6474L16.3613 56.4181L16.3613 56.4181L16.9985 55.6474ZM17.9365 55.7603L18.3729 56.6601L18.4936 56.6015L18.5947 56.5132L17.9365 55.7603ZM26.9118 50.5192L27.2431 51.4627L27.5027 51.3716L27.6792 51.1604L26.9118 50.5192ZM26.2776 49.0917L26.2255 50.0903L26.2776 49.0917ZM10.5854 49.0478C10.5941 49.055 10.6161 49.0817 10.6253 49.1218C10.6327 49.1545 10.6276 49.1777 10.6226 49.1908C10.6175 49.2038 10.6056 49.2243 10.5779 49.2434C10.544 49.2667 10.5097 49.2715 10.4985 49.2709L10.6026 47.2736C8.79969 47.1797 7.91967 49.4389 9.31104 50.5892L10.5854 49.0478ZM17.6357 54.8767L10.5854 49.0478L9.31104 50.5892L16.3613 56.4181L17.6357 54.8767ZM17.5001 54.8606C17.5445 54.839 17.5974 54.845 17.6357 54.8767L16.3613 56.4181C16.9297 56.888 17.7165 56.9784 18.3729 56.6601L17.5001 54.8606ZM18.5947 56.5132C21.1054 54.318 24.0333 52.5897 27.2431 51.4627L26.5805 49.5757C23.1262 50.7885 19.9772 52.6478 17.2783 55.0075L18.5947 56.5132ZM26.2255 50.0903C26.2256 50.0903 26.2232 50.0902 26.2187 50.0893C26.2143 50.0884 26.2084 50.0869 26.2016 50.0844C26.1874 50.0793 26.1726 50.0715 26.1589 50.0614C26.1318 50.0412 26.119 50.0195 26.1135 50.0062C26.1074 49.9913 26.0947 49.9375 26.1445 49.8779L27.6792 51.1604C28.5923 50.0678 27.9772 48.1789 26.3296 48.093L26.2255 50.0903ZM10.4985 49.2709L26.2255 50.0903L26.3296 48.093L10.6026 47.2736L10.4985 49.2709Z" fill="#0D0D0D" mask="url(#path-5-outside-1_941_2265)"/>
<mask id="path-7-outside-2_941_2265" maskUnits="userSpaceOnUse" x="10.4281" y="36.35" width="23.4545" height="21.6244" fill="black">
<rect fill="white" x="10.4281" y="36.35" width="23.4545" height="21.6244"/>
<path fill-rule="evenodd" clip-rule="evenodd" d="M25.1871 39.8023C25.5736 39.0551 26.6891 39.2319 26.8257 40.0619L28.3155 49.1173C28.3745 49.4762 28.2051 49.8341 27.8901 50.016L27.1827 50.4244C24.0149 51.4994 21.1065 53.1364 18.5762 55.2166C18.0087 55.167 17.5641 54.5401 17.8746 53.9397L25.1871 39.8023Z"/>
</mask>
<path fill-rule="evenodd" clip-rule="evenodd" d="M25.1871 39.8023C25.5736 39.0551 26.6891 39.2319 26.8257 40.0619L28.3155 49.1173C28.3745 49.4762 28.2051 49.8341 27.8901 50.016L27.1827 50.4244C24.0149 51.4994 21.1065 53.1364 18.5762 55.2166C18.0087 55.167 17.5641 54.5401 17.8746 53.9397L25.1871 39.8023Z" fill="#FFD601"/>
<path d="M26.8257 40.0619L27.8124 39.8996L27.8124 39.8996L26.8257 40.0619ZM25.1871 39.8023L26.0753 40.2617L26.0753 40.2617L25.1871 39.8023ZM28.3155 49.1173L29.3022 48.955L29.3022 48.955L28.3155 49.1173ZM27.1827 50.4244L27.5041 51.3714L27.5974 51.3397L27.6827 51.2904L27.1827 50.4244ZM18.5762 55.2166L18.4892 56.2128L18.8959 56.2483L19.2113 55.989L18.5762 55.2166ZM17.8746 53.9397L18.7628 54.3991L18.7628 54.3991L17.8746 53.9397ZM27.8124 39.8996C27.5196 38.1197 25.1276 37.7407 24.2989 39.3429L26.0753 40.2617C26.0701 40.2717 26.0488 40.2988 26.0116 40.3163C25.9812 40.3305 25.9574 40.3305 25.9436 40.3283C25.9298 40.3261 25.9072 40.3188 25.8827 40.2959C25.8527 40.2678 25.8407 40.2354 25.8389 40.2242L27.8124 39.8996ZM29.3022 48.955L27.8124 39.8996L25.8389 40.2242L27.3287 49.2796L29.3022 48.955ZM28.3901 50.882C29.0655 50.4921 29.4288 49.7245 29.3022 48.955L27.3287 49.2796C27.3202 49.2279 27.3447 49.1762 27.3901 49.15L28.3901 50.882ZM27.6827 51.2904L28.3901 50.882L27.3901 49.15L26.6827 49.5584L27.6827 51.2904ZM19.2113 55.989C21.65 53.9841 24.4525 52.4069 27.5041 51.3714L26.8614 49.4775C23.5772 50.5919 20.5629 52.2887 17.9412 54.4441L19.2113 55.989ZM16.9864 53.4803C16.3067 54.7943 17.3066 56.1095 18.4892 56.2128L18.6632 54.2204C18.6928 54.223 18.7133 54.2324 18.725 54.2399C18.7359 54.2469 18.745 54.2559 18.7528 54.2689C18.7613 54.2829 18.7708 54.3064 18.7723 54.3378C18.773 54.3533 18.7716 54.3678 18.7689 54.38C18.7676 54.386 18.7661 54.3907 18.7649 54.3941C18.7637 54.3975 18.7628 54.3992 18.7628 54.3991L16.9864 53.4803ZM24.2989 39.3429L16.9864 53.4803L18.7628 54.3991L26.0753 40.2617L24.2989 39.3429Z" fill="#0D0D0D" mask="url(#path-7-outside-2_941_2265)"/>
<path fill-rule="evenodd" clip-rule="evenodd" d="M17.4982 41.8236C16.8949 41.4179 16.089 41.8833 16.1387 42.6085L16.9872 54.9923C17.0209 55.4844 17.4392 55.8196 17.8843 55.8072C20.7078 53.3257 24.0444 51.4139 27.7144 50.2517L27.7479 50.2324C28.3077 49.9092 28.335 49.1111 27.7986 48.7504L17.4982 41.8236Z" fill="url(#paint3_linear_941_2265)"/>
<path d="M16.1387 42.6085L16.6375 42.5744L16.6375 42.5744L16.1387 42.6085ZM17.4982 41.8236L17.7772 41.4087L17.7772 41.4087L17.4982 41.8236ZM16.9872 54.9923L17.486 54.9581L17.486 54.9581L16.9872 54.9923ZM17.8843 55.8072L17.8981 56.307L18.0787 56.302L18.2143 56.1828L17.8843 55.8072ZM27.7144 50.2517L27.8653 50.7284L27.9172 50.7119L27.9644 50.6847L27.7144 50.2517ZM27.7986 48.7504L27.5196 49.1653L27.7986 48.7504ZM16.6375 42.5744C16.6162 42.2641 16.9611 42.065 17.2192 42.2385L17.7772 41.4087C16.8288 40.7709 15.5617 41.5025 15.6398 42.6427L16.6375 42.5744ZM17.486 54.9581L16.6375 42.5744L15.6398 42.6427L16.4883 55.0265L17.486 54.9581ZM17.8704 55.3074C17.6758 55.3128 17.5002 55.1654 17.486 54.9581L16.4883 55.0265C16.5416 55.8034 17.2026 56.3263 17.8981 56.307L17.8704 55.3074ZM18.2143 56.1828C20.9869 53.7461 24.2628 51.8693 27.8653 50.7284L27.5634 49.775C23.8261 50.9586 20.4287 52.9053 17.5542 55.4316L18.2143 56.1828ZM27.4979 49.7994L27.4644 49.8187L27.9644 50.6847L27.9979 50.6654L27.4979 49.7994ZM27.5196 49.1653C27.7491 49.3196 27.7374 49.6611 27.4979 49.7994L27.9979 50.6654C28.878 50.1572 28.9209 48.9026 28.0776 48.3354L27.5196 49.1653ZM17.2192 42.2385L27.5196 49.1653L28.0776 48.3354L17.7772 41.4087L17.2192 42.2385Z" fill="#0D0D0D"/>
<path d="M15.9185 40.6566C16.7584 40.1717 17.0541 39.0988 16.5683 38.2573C16.0825 37.4158 15.0054 37.1355 14.1655 37.6204C13.3257 38.1053 13.0299 39.1782 13.5157 40.0197C14.0016 40.8612 15.0786 41.1415 15.9185 40.6566Z" fill="#FFE81D" stroke="#0D0D0D"/>
<path d="M7.69701 48.4041C8.42711 47.9826 8.68485 47.0494 8.26193 46.3169C7.839 45.5843 6.90194 45.3409 6.17184 45.7625C5.44174 46.184 5.18399 47.1172 5.60692 47.8497C6.02984 48.5823 6.96691 48.8257 7.69701 48.4041Z" fill="#FFE81D" stroke="#0D0D0D"/>
<path d="M26.6931 37.4364C27.4232 37.0148 27.6809 36.0816 27.258 35.3491C26.8351 34.6166 25.898 34.3732 25.1679 34.7947C24.4378 35.2162 24.1801 36.1494 24.603 36.882C25.0259 37.6145 25.963 37.8579 26.6931 37.4364Z" fill="#FFE81D" stroke="#0D0D0D"/>
</g>
<defs>
<filter id="filter0_d_941_2265" x="114.881" y="26.0156" width="34.1055" height="35.1641" filterUnits="userSpaceOnUse" color-interpolation-filters="sRGB">
<feFlood flood-opacity="0" result="BackgroundImageFix"/>
<feColorMatrix in="SourceAlpha" type="matrix" values="0 0 0 0 0 0 0 0 0 0 0 0 0 0 0 0 0 0 127 0" result="hardAlpha"/>
<feOffset dy="1"/>
<feComposite in2="hardAlpha" operator="out"/>
<feColorMatrix type="matrix" values="0 0 0 0 1 0 0 0 0 1 0 0 0 0 1 0 0 0 1 0"/>
<feBlend mode="normal" in2="BackgroundImageFix" result="effect1_dropShadow_941_2265"/>
<feBlend mode="normal" in="SourceGraphic" in2="effect1_dropShadow_941_2265" result="shape"/>
</filter>
<linearGradient id="paint0_linear_941_2265" x1="86.5" y1="0" x2="86.5" y2="14" gradientUnits="userSpaceOnUse">
<stop stop-color="#FFF3B2"/>
<stop offset="1" stop-color="#FFE353"/>
</linearGradient>
<linearGradient id="paint1_linear_941_2265" x1="11.0085" y1="8.08859" x2="160.97" y2="97.7075" gradientUnits="userSpaceOnUse">
<stop stop-color="#EBFFF0"/>
<stop offset="0.510417" stop-color="#FFFF82"/>
<stop offset="1" stop-color="#C2FFDE"/>
</linearGradient>
<linearGradient id="paint2_linear_941_2265" x1="119.5" y1="26" x2="130.5" y2="60" gradientUnits="userSpaceOnUse">
<stop stop-color="#F6CE00"/>
<stop offset="0.531866" stop-color="#AAE000"/>
<stop offset="1" stop-color="#51E435"/>
</linearGradient>
<linearGradient id="paint3_linear_941_2265" x1="16.5845" y1="48.8275" x2="22.7478" y2="45.2691" gradientUnits="userSpaceOnUse">
<stop offset="0.49738" stop-color="#FFF27C"/>
<stop offset="0.49748" stop-color="#FFD600"/>
</linearGradient>
<clipPath id="clip0_941_2265">
<rect width="26" height="26" fill="white" transform="translate(4 34)"/>
</clipPath>
</defs>
</svg>
