<svg width="12" height="12" viewBox="0 0 12 12" fill="none" xmlns="http://www.w3.org/2000/svg">
<g id="ic_clock" clip-path="url(#clip0_941_3104)">
<path id="Union" fill-rule="evenodd" clip-rule="evenodd" d="M10.125 8.75V10.125H8.75V8.75H10.125ZM10.125 3.25H11.5V8.75H10.125V3.25ZM8.75 1.875V3.25H10.125V1.875H8.75ZM3.25 1.875V0.5H8.75V1.875H3.25ZM1.875 3.25V1.875H3.25V3.25H1.875ZM1.875 8.75H0.5V3.25H1.875V8.75ZM1.875 8.75V10.125H3.25V11.5H8.75V10.125H3.25V8.75H1.875ZM5.35529 4.17383H6.45529V5.82422H7.41779V6.92422H5.35529V6.92383H5.35529V4.17383Z" fill="#0D0D0D"/>
</g>
<defs>
<clipPath id="clip0_941_3104">
<rect width="12" height="12" fill="white"/>
</clipPath>
</defs>
</svg>
