<svg width="25" height="24" viewBox="0 0 25 24" fill="none" xmlns="http://www.w3.org/2000/svg">
<g id="ic_cards">
<path id="Union" fill-rule="evenodd" clip-rule="evenodd" d="M1.25 5.25V18.75H3.5V21H21.5V18.75H23.75V5.25L21.5 5.25V3H3.5L3.5 5.25H1.25ZM3.5 5.25L21.5 5.25V18.75H3.5L3.5 5.25ZM8 7.5H11.375V10.875H8V7.5ZM15.391 7.5V8.14105H14.75V9.42737H15.391V10.0726H16.0363V10.7137H16.6774V11.3547H17.3226V10.7137H17.9637V10.0726H18.6047V9.42737H19.25V8.14105H18.6047V7.5H17.3226V8.14105H16.6774V7.5H15.391ZM13.625 12H5.75V16.5H13.625V12ZM19.25 12.5625H14.75V14.25H19.25V12.5625ZM19.25 14.8125H14.75V16.5H19.25V14.8125Z" fill="#0D0D0D"/>
</g>
</svg>
