<svg width="21" height="20" viewBox="0 0 21 20" fill="none" xmlns="http://www.w3.org/2000/svg">
<g id="hand-cross-finger-heart-26" clip-path="url(#clip0_941_2462)">
<g id="Union">
<path fill-rule="evenodd" clip-rule="evenodd" d="M6.68711 0V0.95H5.73711V2.85625H6.68711V3.8125H7.64336V4.7625H8.59336V5.7125H9.54961V4.7625H10.4996V3.8125H11.4496V2.85625H12.4059V0.95H11.4496V0H9.54961V0.95H8.59336V0H6.68711ZM12.4059 5.71289H14.3059V6.66914H12.4059V7.61895H11.4496V6.66895H12.4059V5.71289ZM15.2621 6.66895H14.3059V9.5252H15.2621V6.66895ZM13.3559 14.2871H15.2621V15.2371H13.3559V14.2873H11.4496V13.3311H13.3559V14.2871ZM15.2621 15.2373H16.2121V16.1936H15.2621V15.2373ZM16.2121 16.1934H17.1684V17.1434H16.2121V16.1934ZM17.1684 17.1436H18.1184V19.9998H17.1684V17.1436ZM16.2121 17.1436H15.2621V18.0936H16.2121V17.1436ZM15.2621 18.0937H14.3059V19.0499H13.3559V19.9999H14.3059V19.0499H15.2621V18.0937ZM14.3059 9.52539H13.3559V10.4754H14.3059V9.52539ZM13.3559 15.2373H12.4059L12.4059 16.1934H11.4496V17.1434H12.4059L12.4059 16.1936H13.3559V15.2373ZM13.3559 10.4746H12.4059V11.4307H11.4496V12.3807H12.4059V11.4309H13.3559V10.4746ZM11.4496 17.1436H10.4996V18.0936H11.4496V17.1436ZM10.4996 12.3809H11.4496V13.3309H10.4996V12.3809ZM11.4496 7.61914H10.4996V8.56914H11.4496V7.61914ZM9.54962 13.3311H10.4996V14.2873H9.54962V13.3311ZM10.4996 8.56934H9.54962V9.52559H10.4996V8.56934ZM8.59335 14.2871H9.5496V15.2371H8.59335V14.2871ZM9.5496 9.52539H8.59335V10.4754H9.5496V9.52539ZM7.64334 10.4746H8.59334V11.4309H7.64335V12.3807H6.6871V11.4307H7.64334V10.4746ZM8.59334 7.61914H7.64334V9.52539H8.59334V7.61914ZM4.78711 6.66895H7.64336V7.61895H4.78711V6.66895ZM5.73711 10.4746H4.78712V7.61914H3.83087V10.4754H4.78711V14.2871H3.83087V15.2371H4.78712V14.2871H5.73711V13.3309H6.68711V12.3809H5.73711V10.4746ZM2.88086 15.2373H3.83086V19.9998H2.88086V15.2373Z" fill="#0D0D0D"/>
<path d="M6.68711 0.95V1.2H6.93711V0.95H6.68711ZM6.68711 0V-0.25H6.43711V0H6.68711ZM5.73711 0.95V0.7H5.48711V0.95H5.73711ZM5.73711 2.85625H5.48711V3.10625H5.73711V2.85625ZM6.68711 2.85625H6.93711V2.60625H6.68711V2.85625ZM6.68711 3.8125H6.43711V4.0625H6.68711V3.8125ZM7.64336 3.8125H7.89336V3.5625H7.64336V3.8125ZM7.64336 4.7625H7.39336V5.0125H7.64336V4.7625ZM8.59336 4.7625H8.84336V4.5125H8.59336V4.7625ZM8.59336 5.7125H8.34336V5.9625H8.59336V5.7125ZM9.54961 5.7125V5.9625H9.79961V5.7125H9.54961ZM9.54961 4.7625V4.5125H9.29961V4.7625H9.54961ZM10.4996 4.7625V5.0125H10.7496V4.7625H10.4996ZM10.4996 3.8125V3.5625H10.2496V3.8125H10.4996ZM11.4496 3.8125V4.0625H11.6996V3.8125H11.4496ZM11.4496 2.85625V2.60625H11.1996V2.85625H11.4496ZM12.4059 2.85625V3.10625H12.6559V2.85625H12.4059ZM12.4059 0.95H12.6559V0.7H12.4059V0.95ZM11.4496 0.95H11.1996V1.2H11.4496V0.95ZM11.4496 0H11.6996V-0.25H11.4496V0ZM9.54961 0V-0.25H9.29961V0H9.54961ZM9.54961 0.95V1.2H9.79961V0.95H9.54961ZM8.59336 0.95H8.34336V1.2H8.59336V0.95ZM8.59336 0H8.84336V-0.25H8.59336V0ZM14.3059 5.71289H14.5559V5.46289H14.3059V5.71289ZM12.4059 5.71289V5.46289H12.1559V5.71289H12.4059ZM14.3059 6.66914V6.91914H14.5559V6.66914H14.3059ZM12.4059 6.66914V6.41914H12.1559V6.66914H12.4059ZM12.4059 7.61895V7.86895H12.6559V7.61895H12.4059ZM11.4496 7.61895H11.1996V7.86895H11.4496V7.61895ZM11.4496 6.66895V6.41895H11.1996V6.66895H11.4496ZM12.4059 6.66895V6.91895H12.6559V6.66895H12.4059ZM14.3059 6.66895V6.41895H14.0559V6.66895H14.3059ZM15.2621 6.66895H15.5121V6.41895H15.2621V6.66895ZM14.3059 9.5252H14.0559V9.7752H14.3059V9.5252ZM15.2621 9.5252V9.7752H15.5121V9.5252H15.2621ZM15.2621 14.2871H15.5121V14.0371H15.2621V14.2871ZM13.3559 14.2871H13.1059V14.5371H13.3559V14.2871ZM15.2621 15.2371V15.4871H15.5121V15.2371H15.2621ZM13.3559 15.2371H13.1059V15.4871H13.3559V15.2371ZM13.3559 14.2873H13.6059V14.0373H13.3559V14.2873ZM11.4496 14.2873H11.1996V14.5373H11.4496V14.2873ZM11.4496 13.3311V13.0811H11.1996V13.3311H11.4496ZM13.3559 13.3311H13.6059V13.0811H13.3559V13.3311ZM16.2121 15.2373H16.4621V14.9873H16.2121V15.2373ZM15.2621 15.2373V14.9873H15.0121V15.2373H15.2621ZM16.2121 16.1936V16.4436H16.4621V16.1936H16.2121ZM15.2621 16.1936H15.0121V16.4436H15.2621V16.1936ZM17.1684 16.1934H17.4184V15.9434H17.1684V16.1934ZM16.2121 16.1934V15.9434H15.9621V16.1934H16.2121ZM17.1684 17.1434V17.3934H17.4184V17.1434H17.1684ZM16.2121 17.1434H15.9621V17.3934H16.2121V17.1434ZM18.1184 17.1436H18.3684V16.8936H18.1184V17.1436ZM17.1684 17.1436V16.8936H16.9184V17.1436H17.1684ZM18.1184 19.9998V20.2498H18.3684V19.9998H18.1184ZM17.1684 19.9998H16.9184V20.2498H17.1684V19.9998ZM15.2621 17.1436V16.8936H15.0121V17.1436H15.2621ZM16.2121 17.1436H16.4621V16.8936H16.2121V17.1436ZM15.2621 18.0936H15.0121V18.3436H15.2621V18.0936ZM16.2121 18.0936V18.3436H16.4621V18.0936H16.2121ZM14.3059 18.0937V17.8437H14.0559V18.0937H14.3059ZM15.2621 18.0937H15.5121V17.8437H15.2621V18.0937ZM14.3059 19.0499V19.2999H14.5559V19.0499H14.3059ZM13.3559 19.0499V18.7999H13.1059V19.0499H13.3559ZM13.3559 19.9999H13.1059V20.2499H13.3559V19.9999ZM14.3059 19.9999V20.2499H14.5559V19.9999H14.3059ZM14.3059 19.0499V18.7999H14.0559V19.0499H14.3059ZM15.2621 19.0499V19.2999H15.5121V19.0499H15.2621ZM13.3559 9.52539V9.27539H13.1059V9.52539H13.3559ZM14.3059 9.52539H14.5559V9.27539H14.3059V9.52539ZM13.3559 10.4754H13.1059V10.7254H13.3559V10.4754ZM14.3059 10.4754V10.7254H14.5559V10.4754H14.3059ZM12.4059 15.2373V14.9873H12.1559L12.1559 15.2373L12.4059 15.2373ZM13.3559 15.2373H13.6059V14.9873H13.3559V15.2373ZM12.4059 16.1934V16.4434H12.6559L12.6559 16.1934L12.4059 16.1934ZM11.4496 16.1934V15.9434H11.1996V16.1934H11.4496ZM11.4496 17.1434H11.1996V17.3934H11.4496V17.1434ZM12.4059 17.1434V17.3934H12.6559L12.6559 17.1434L12.4059 17.1434ZM12.4059 16.1936V15.9436H12.1559L12.1559 16.1936L12.4059 16.1936ZM13.3559 16.1936V16.4436H13.6059V16.1936H13.3559ZM12.4059 10.4746V10.2246H12.1559V10.4746H12.4059ZM13.3559 10.4746H13.6059V10.2246H13.3559V10.4746ZM12.4059 11.4307V11.6807H12.6559V11.4307H12.4059ZM11.4496 11.4307V11.1807H11.1996V11.4307H11.4496ZM11.4496 12.3807H11.1996V12.6307H11.4496V12.3807ZM12.4059 12.3807V12.6307H12.6559V12.3807H12.4059ZM12.4059 11.4309V11.1809H12.1559V11.4309H12.4059ZM13.3559 11.4309V11.6809H13.6059V11.4309H13.3559ZM10.4996 17.1436V16.8936H10.2496V17.1436H10.4996ZM11.4496 17.1436H11.6996V16.8936H11.4496V17.1436ZM10.4996 18.0936H10.2496V18.3436H10.4996V18.0936ZM11.4496 18.0936V18.3436H11.6996V18.0936H11.4496ZM11.4496 12.3809H11.6996V12.1309H11.4496V12.3809ZM10.4996 12.3809V12.1309H10.2496V12.3809H10.4996ZM11.4496 13.3309V13.5809H11.6996V13.3309H11.4496ZM10.4996 13.3309H10.2496V13.5809H10.4996V13.3309ZM10.4996 7.61914V7.36914H10.2496V7.61914H10.4996ZM11.4496 7.61914H11.6996V7.36914H11.4496V7.61914ZM10.4996 8.56914H10.2496V8.81914H10.4996V8.56914ZM11.4496 8.56914V8.81914H11.6996V8.56914H11.4496ZM10.4996 13.3311H10.7496V13.0811H10.4996V13.3311ZM9.54962 13.3311V13.0811H9.29962V13.3311H9.54962ZM10.4996 14.2873V14.5373H10.7496V14.2873H10.4996ZM9.54962 14.2873H9.29962V14.5373H9.54962V14.2873ZM9.54962 8.56934V8.31934H9.29962V8.56934H9.54962ZM10.4996 8.56934H10.7496V8.31934H10.4996V8.56934ZM9.54962 9.52559H9.29962V9.77559H9.54962V9.52559ZM10.4996 9.52559V9.77559H10.7496V9.52559H10.4996ZM9.5496 14.2871H9.7996V14.0371H9.5496V14.2871ZM8.59335 14.2871V14.0371H8.34335V14.2871H8.59335ZM9.5496 15.2371V15.4871H9.7996V15.2371H9.5496ZM8.59335 15.2371H8.34335V15.4871H8.59335V15.2371ZM8.59335 9.52539V9.27539H8.34335V9.52539H8.59335ZM9.5496 9.52539H9.7996V9.27539H9.5496V9.52539ZM8.59335 10.4754H8.34335V10.7254H8.59335V10.4754ZM9.5496 10.4754V10.7254H9.7996V10.4754H9.5496ZM8.59334 10.4746H8.84334V10.2246H8.59334V10.4746ZM7.64334 10.4746V10.2246H7.39334V10.4746H7.64334ZM8.59334 11.4309V11.6809H8.84334V11.4309H8.59334ZM7.64335 11.4309V11.1809H7.39335V11.4309H7.64335ZM7.64335 12.3807V12.6307H7.89335V12.3807H7.64335ZM6.6871 12.3807H6.4371V12.6307H6.6871V12.3807ZM6.6871 11.4307V11.1807H6.4371V11.4307H6.6871ZM7.64334 11.4307V11.6807H7.89334V11.4307H7.64334ZM7.64334 7.61914V7.36914H7.39334V7.61914H7.64334ZM8.59334 7.61914H8.84334V7.36914H8.59334V7.61914ZM7.64334 9.52539H7.39334V9.77539H7.64334V9.52539ZM8.59334 9.52539V9.77539H8.84334V9.52539H8.59334ZM7.64336 6.66895H7.89336V6.41895H7.64336V6.66895ZM4.78711 6.66895V6.41895H4.53711V6.66895H4.78711ZM7.64336 7.61895V7.86895H7.89336V7.61895H7.64336ZM4.78711 7.61895H4.53711V7.86895H4.78711V7.61895ZM4.78712 10.4746H4.53712V10.7246H4.78712V10.4746ZM5.73711 10.4746H5.98711V10.2246H5.73711V10.4746ZM4.78712 7.61914H5.03712V7.36914H4.78712V7.61914ZM3.83087 7.61914V7.36914H3.58087V7.61914H3.83087ZM3.83087 10.4754H3.58087V10.7254H3.83087V10.4754ZM4.78711 10.4754H5.03711V10.2254H4.78711V10.4754ZM4.78711 14.2871V14.5371H5.03711V14.2871H4.78711ZM3.83087 14.2871V14.0371H3.58087V14.2871H3.83087ZM3.83087 15.2371H3.58087V15.4871H3.83087V15.2371ZM4.78712 15.2371V15.4871H5.03712V15.2371H4.78712ZM4.78712 14.2871V14.0371H4.53712V14.2871H4.78712ZM5.73711 14.2871V14.5371H5.98711V14.2871H5.73711ZM5.73711 13.3309V13.0809H5.48711V13.3309H5.73711ZM6.68711 13.3309V13.5809H6.93711V13.3309H6.68711ZM6.68711 12.3809H6.93711V12.1309H6.68711V12.3809ZM5.73711 12.3809H5.48711V12.6309H5.73711V12.3809ZM3.83086 15.2373H4.08086V14.9873H3.83086V15.2373ZM2.88086 15.2373V14.9873H2.63086V15.2373H2.88086ZM3.83086 19.9998V20.2498H4.08086V19.9998H3.83086ZM2.88086 19.9998H2.63086V20.2498H2.88086V19.9998ZM6.93711 0.95V0H6.43711V0.95H6.93711ZM5.73711 1.2H6.68711V0.7H5.73711V1.2ZM5.98711 2.85625V0.95H5.48711V2.85625H5.98711ZM6.68711 2.60625H5.73711V3.10625H6.68711V2.60625ZM6.93711 3.8125V2.85625H6.43711V3.8125H6.93711ZM7.64336 3.5625H6.68711V4.0625H7.64336V3.5625ZM7.89336 4.7625V3.8125H7.39336V4.7625H7.89336ZM8.59336 4.5125H7.64336V5.0125H8.59336V4.5125ZM8.84336 5.7125V4.7625H8.34336V5.7125H8.84336ZM9.54961 5.4625H8.59336V5.9625H9.54961V5.4625ZM9.29961 4.7625V5.7125H9.79961V4.7625H9.29961ZM10.4996 4.5125H9.54961V5.0125H10.4996V4.5125ZM10.2496 3.8125V4.7625H10.7496V3.8125H10.2496ZM11.4496 3.5625H10.4996V4.0625H11.4496V3.5625ZM11.1996 2.85625V3.8125H11.6996V2.85625H11.1996ZM12.4059 2.60625H11.4496V3.10625H12.4059V2.60625ZM12.1559 0.95V2.85625H12.6559V0.95H12.1559ZM11.4496 1.2H12.4059V0.7H11.4496V1.2ZM11.1996 0V0.95H11.6996V0H11.1996ZM9.54961 0.25H11.4496V-0.25H9.54961V0.25ZM9.79961 0.95V0H9.29961V0.95H9.79961ZM8.59336 1.2H9.54961V0.7H8.59336V1.2ZM8.34336 0V0.95H8.84336V0H8.34336ZM6.68711 0.25H8.59336V-0.25H6.68711V0.25ZM14.3059 5.46289H12.4059V5.96289H14.3059V5.46289ZM14.5559 6.66914V5.71289H14.0559V6.66914H14.5559ZM12.4059 6.91914H14.3059V6.41914H12.4059V6.91914ZM12.6559 7.61895V6.66914H12.1559V7.61895H12.6559ZM11.4496 7.86895H12.4059V7.36895H11.4496V7.86895ZM11.1996 6.66895V7.61895H11.6996V6.66895H11.1996ZM12.4059 6.41895H11.4496V6.91895H12.4059V6.41895ZM12.1559 5.71289V6.66895H12.6559V5.71289H12.1559ZM14.3059 6.91895H15.2621V6.41895H14.3059V6.91895ZM14.5559 9.5252V6.66895H14.0559V9.5252H14.5559ZM15.2621 9.2752H14.3059V9.7752H15.2621V9.2752ZM15.0121 6.66895V9.5252H15.5121V6.66895H15.0121ZM15.2621 14.0371H13.3559V14.5371H15.2621V14.0371ZM15.5121 15.2371V14.2871H15.0121V15.2371H15.5121ZM13.3559 15.4871H15.2621V14.9871H13.3559V15.4871ZM13.1059 14.2873V15.2371H13.6059V14.2873H13.1059ZM11.4496 14.5373H13.3559V14.0373H11.4496V14.5373ZM11.1996 13.3311V14.2873H11.6996V13.3311H11.1996ZM13.3559 13.0811H11.4496V13.5811H13.3559V13.0811ZM13.6059 14.2871V13.3311H13.1059V14.2871H13.6059ZM16.2121 14.9873H15.2621V15.4873H16.2121V14.9873ZM16.4621 16.1936V15.2373H15.9621V16.1936H16.4621ZM15.2621 16.4436H16.2121V15.9436H15.2621V16.4436ZM15.0121 15.2373V16.1936H15.5121V15.2373H15.0121ZM17.1684 15.9434H16.2121V16.4434H17.1684V15.9434ZM17.4184 17.1434V16.1934H16.9184V17.1434H17.4184ZM16.2121 17.3934H17.1684V16.8934H16.2121V17.3934ZM15.9621 16.1934V17.1434H16.4621V16.1934H15.9621ZM18.1184 16.8936H17.1684V17.3936H18.1184V16.8936ZM18.3684 19.9998V17.1436H17.8684V19.9998H18.3684ZM17.1684 20.2498H18.1184V19.7498H17.1684V20.2498ZM16.9184 17.1436V19.9998H17.4184V17.1436H16.9184ZM15.2621 17.3936H16.2121V16.8936H15.2621V17.3936ZM15.5121 18.0936V17.1436H15.0121V18.0936H15.5121ZM16.2121 17.8436H15.2621V18.3436H16.2121V17.8436ZM15.9621 17.1436V18.0936H16.4621V17.1436H15.9621ZM14.3059 18.3437H15.2621V17.8437H14.3059V18.3437ZM14.5559 19.0499V18.0937H14.0559V19.0499H14.5559ZM13.3559 19.2999H14.3059V18.7999H13.3559V19.2999ZM13.6059 19.9999V19.0499H13.1059V19.9999H13.6059ZM14.3059 19.7499H13.3559V20.2499H14.3059V19.7499ZM14.0559 19.0499V19.9999H14.5559V19.0499H14.0559ZM15.2621 18.7999H14.3059V19.2999H15.2621V18.7999ZM15.0121 18.0937V19.0499H15.5121V18.0937H15.0121ZM13.3559 9.77539H14.3059V9.27539H13.3559V9.77539ZM13.6059 10.4754V9.52539H13.1059V10.4754H13.6059ZM14.3059 10.2254H13.3559V10.7254H14.3059V10.2254ZM14.0559 9.52539V10.4754H14.5559V9.52539H14.0559ZM12.4059 15.4873H13.3559V14.9873H12.4059V15.4873ZM12.6559 16.1934L12.6559 15.2373L12.1559 15.2373L12.1559 16.1934L12.6559 16.1934ZM11.4496 16.4434H12.4059V15.9434H11.4496V16.4434ZM11.6996 17.1434V16.1934H11.1996V17.1434H11.6996ZM12.4059 16.8934H11.4496V17.3934H12.4059V16.8934ZM12.1559 16.1936L12.1559 17.1434L12.6559 17.1434L12.6559 16.1936L12.1559 16.1936ZM13.3559 15.9436H12.4059V16.4436H13.3559V15.9436ZM13.1059 15.2373V16.1936H13.6059V15.2373H13.1059ZM12.4059 10.7246H13.3559V10.2246H12.4059V10.7246ZM12.6559 11.4307V10.4746H12.1559V11.4307H12.6559ZM11.4496 11.6807H12.4059V11.1807H11.4496V11.6807ZM11.6996 12.3807V11.4307H11.1996V12.3807H11.6996ZM12.4059 12.1307H11.4496V12.6307H12.4059V12.1307ZM12.1559 11.4309V12.3807H12.6559V11.4309H12.1559ZM13.3559 11.1809H12.4059V11.6809H13.3559V11.1809ZM13.1059 10.4746V11.4309H13.6059V10.4746H13.1059ZM10.4996 17.3936H11.4496V16.8936H10.4996V17.3936ZM10.7496 18.0936V17.1436H10.2496V18.0936H10.7496ZM11.4496 17.8436H10.4996V18.3436H11.4496V17.8436ZM11.1996 17.1436V18.0936H11.6996V17.1436H11.1996ZM11.4496 12.1309H10.4996V12.6309H11.4496V12.1309ZM11.6996 13.3309V12.3809H11.1996V13.3309H11.6996ZM10.4996 13.5809H11.4496V13.0809H10.4996V13.5809ZM10.2496 12.3809V13.3309H10.7496V12.3809H10.2496ZM10.4996 7.86914H11.4496V7.36914H10.4996V7.86914ZM10.7496 8.56914V7.61914H10.2496V8.56914H10.7496ZM11.4496 8.31914H10.4996V8.81914H11.4496V8.31914ZM11.1996 7.61914V8.56914H11.6996V7.61914H11.1996ZM10.4996 13.0811H9.54962V13.5811H10.4996V13.0811ZM10.7496 14.2873V13.3311H10.2496V14.2873H10.7496ZM9.54962 14.5373H10.4996V14.0373H9.54962V14.5373ZM9.29962 13.3311V14.2873H9.79962V13.3311H9.29962ZM9.54962 8.81934H10.4996V8.31934H9.54962V8.81934ZM9.79962 9.52559V8.56934H9.29962V9.52559H9.79962ZM10.4996 9.27559H9.54962V9.77559H10.4996V9.27559ZM10.2496 8.56934V9.52559H10.7496V8.56934H10.2496ZM9.5496 14.0371H8.59335V14.5371H9.5496V14.0371ZM9.7996 15.2371V14.2871H9.2996V15.2371H9.7996ZM8.59335 15.4871H9.5496V14.9871H8.59335V15.4871ZM8.34335 14.2871V15.2371H8.84335V14.2871H8.34335ZM8.59335 9.77539H9.5496V9.27539H8.59335V9.77539ZM8.84335 10.4754V9.52539H8.34335V10.4754H8.84335ZM9.5496 10.2254H8.59335V10.7254H9.5496V10.2254ZM9.2996 9.52539V10.4754H9.7996V9.52539H9.2996ZM8.59334 10.2246H7.64334V10.7246H8.59334V10.2246ZM8.84334 11.4309V10.4746H8.34334V11.4309H8.84334ZM7.64335 11.6809H8.59334V11.1809H7.64335V11.6809ZM7.89335 12.3807V11.4309H7.39335V12.3807H7.89335ZM6.6871 12.6307H7.64335V12.1307H6.6871V12.6307ZM6.4371 11.4307V12.3807H6.9371V11.4307H6.4371ZM7.64334 11.1807H6.6871V11.6807H7.64334V11.1807ZM7.39334 10.4746V11.4307H7.89334V10.4746H7.39334ZM7.64334 7.86914H8.59334V7.36914H7.64334V7.86914ZM7.89334 9.52539V7.61914H7.39334V9.52539H7.89334ZM8.59334 9.27539H7.64334V9.77539H8.59334V9.27539ZM8.34334 7.61914V9.52539H8.84334V7.61914H8.34334ZM7.64336 6.41895H4.78711V6.91895H7.64336V6.41895ZM7.89336 7.61895V6.66895H7.39336V7.61895H7.89336ZM4.78711 7.86895H7.64336V7.36895H4.78711V7.86895ZM4.53711 6.66895V7.61895H5.03711V6.66895H4.53711ZM4.78712 10.7246H5.73711V10.2246H4.78712V10.7246ZM4.53712 7.61914V10.4746H5.03712V7.61914H4.53712ZM3.83087 7.86914H4.78712V7.36914H3.83087V7.86914ZM4.08087 10.4754V7.61914H3.58087V10.4754H4.08087ZM4.78711 10.2254H3.83087V10.7254H4.78711V10.2254ZM5.03711 14.2871V10.4754H4.53711V14.2871H5.03711ZM3.83087 14.5371H4.78711V14.0371H3.83087V14.5371ZM4.08087 15.2371V14.2871H3.58087V15.2371H4.08087ZM4.78712 14.9871H3.83087V15.4871H4.78712V14.9871ZM4.53712 14.2871V15.2371H5.03712V14.2871H4.53712ZM5.73711 14.0371H4.78712V14.5371H5.73711V14.0371ZM5.48711 13.3309V14.2871H5.98711V13.3309H5.48711ZM6.68711 13.0809H5.73711V13.5809H6.68711V13.0809ZM6.43711 12.3809V13.3309H6.93711V12.3809H6.43711ZM5.73711 12.6309H6.68711V12.1309H5.73711V12.6309ZM5.48711 10.4746V12.3809H5.98711V10.4746H5.48711ZM3.83086 14.9873H2.88086V15.4873H3.83086V14.9873ZM4.08086 19.9998V15.2373H3.58086V19.9998H4.08086ZM2.88086 20.2498H3.83086V19.7498H2.88086V20.2498ZM2.63086 15.2373V19.9998H3.13086V15.2373H2.63086Z" fill="#0D0D0D"/>
</g>
</g>
<defs>
<clipPath id="clip0_941_2462">
<rect width="20" height="20" fill="white" transform="translate(0.5)"/>
</clipPath>
</defs>
</svg>
