<svg width="20" height="20" viewBox="0 0 20 20" fill="none" xmlns="http://www.w3.org/2000/svg">
<g id="Person_Added">
<path id="Union" fill-rule="evenodd" clip-rule="evenodd" d="M3.80953 10.0001H4.76191V10.9525H10.4762V10.0001H11.4286V9.04776H12.381V3.33347H11.4286V2.38109H10.4762V1.42871H4.76191V2.38109H3.80953V3.33347H2.85715V9.04776H3.80953V10.0001ZM4.76191 5.23823H5.71429V4.28585H6.66667V3.33347H8.57143V4.28585H9.52381V5.23823H10.4762V7.143H9.52381V8.09538H8.57143V9.04776H6.66667V8.09538H5.71429V7.143H4.76191V5.23823ZM14.2857 12.8577H13.3333V11.9053H1.90476V12.8577H0.952381V13.81H0V18.5719H1.90476V15.7148H2.85714V14.7624H3.80952V13.81H11.4286V14.7624H12.381V15.7148H13.3333V18.5719H15.2381V13.81H14.2857V12.8577ZM18.0952 8.09594V7.14355H20V9.04832H19.0476V10.0007H18.0952V10.9531H17.1428V11.9055H14.2857V10.9531H13.3333V9.04832H15.2381V10.0007H16.1905V9.04832H17.1428V8.09594H18.0952Z" fill="#949694"/>
</g>
</svg>
