<svg width="13" height="12" viewBox="0 0 13 12" fill="none" xmlns="http://www.w3.org/2000/svg">
<g id="Frame">
<g id="Group 1707479749">
<rect id="Rectangle 176481" x="3.45508" y="2.01953" width="3.79528" height="3.51793" fill="#00FC6E"/>
<path id="Union" fill-rule="evenodd" clip-rule="evenodd" d="M3.75039 5.95001H3.20039V5.40001H2.65039V2.1H3.20039V1.55H3.75039V1H7.0504V1.55H7.6004V2.1H8.1504V5.40001H7.6004V5.95001H7.0504V6.50001H3.75039V5.95001ZM4.30039 3.2H3.75039V4.30001H4.30039V4.85001H4.8504V5.40001H5.9504V4.85001H6.5004V4.30001H7.0504V3.2H6.5004V2.65H5.9504V2.1H4.8504V2.65H4.30039V3.2ZM8.15001 7.59973H8.70002V8.14973H9.25002V10.8997H8.15001V9.24973H7.60001V8.69973H7.05001V8.14973H3.2V8.69973H2.65V9.24973H2.1V10.8997H1V8.14973H1.55V7.59973H2.1V7.04973H8.15001V7.59973ZM9.80117 5.95001H10.3512V5.40001H10.9012V2.1H10.3512V1.55H9.80117V1H9.25117H8.70117V2.65H9.25117V3.2H9.80117V3.75001V4.30001H9.25117V4.85001H8.70117V6.50001H9.80117V5.95001ZM11.4508 7.59981V8.14981H12.0008V10.8998H10.9008V9.24981H10.3508V8.69981H9.80078V7.0498H10.9008V7.59981H11.4508Z" fill="#0D0D0D"/>
</g>
</g>
</svg>
