<svg width="14" height="14" viewBox="0 0 14 14" fill="none" xmlns="http://www.w3.org/2000/svg">
<g id="Vector">
<path fill-rule="evenodd" clip-rule="evenodd" d="M3.0026 0.335938V1.66927H1.66927V3.0026H0.335938V8.33594H1.66927V9.66927H3.0026V11.0026H8.33594V9.66927H9.66927V11.0026H11.0026V12.3359H12.3359V13.6693H13.6693V12.3359H12.3359V11.0026H11.0026V9.66927H9.66927V8.33594H11.0026V3.0026H9.66927V1.66927H8.33594V0.335938H3.0026ZM8.33594 1.66927V3.0026H9.66927V8.33594H8.33594V9.66927H3.0026V8.33594H1.66927V3.0026H3.0026V1.66927H8.33594Z" fill="black"/>
<path d="M3.0026 1.66927V0.335938H8.33594V1.66927M3.0026 1.66927H1.66927V3.0026M3.0026 1.66927V3.0026H1.66927M3.0026 1.66927H8.33594M1.66927 3.0026H0.335938V8.33594H1.66927M1.66927 3.0026V8.33594M1.66927 8.33594V9.66927H3.0026M1.66927 8.33594H3.0026V9.66927M3.0026 9.66927V11.0026H8.33594V9.66927M3.0026 9.66927H8.33594M8.33594 9.66927H9.66927M8.33594 9.66927V8.33594H9.66927M9.66927 9.66927V11.0026H11.0026M9.66927 9.66927H11.0026V11.0026M9.66927 9.66927V8.33594M11.0026 11.0026V12.3359H12.3359M11.0026 11.0026H12.3359V12.3359M12.3359 12.3359V13.6693H13.6693V12.3359H12.3359ZM9.66927 8.33594H11.0026V3.0026H9.66927M9.66927 8.33594V3.0026M9.66927 3.0026V1.66927H8.33594M9.66927 3.0026H8.33594V1.66927" stroke="black" stroke-width="0.2"/>
</g>
</svg>
