<svg width="173" height="200" viewBox="0 0 173 200" fill="none" xmlns="http://www.w3.org/2000/svg">
<path d="M17.3674 3.30543C19.2957 1.811 21.6661 1 24.1057 1H148.894C151.334 1 153.704 1.811 155.633 3.30544L167.738 12.6873C170.427 14.7708 172 17.9807 172 21.3819V199H1V21.3819C1 17.9807 2.57336 14.7708 5.26171 12.6873L17.3674 3.30543Z" fill="url(#paint0_linear_941_2099)" stroke="#0D0D0D" stroke-width="2"/>
<path d="M1 22C1 15.9249 5.92487 11 12 11H161C167.075 11 172 15.9249 172 22V199H1V22Z" fill="white" stroke="#0D0D0D" stroke-width="2"/>
<path d="M1 22C1 15.9249 5.92487 11 12 11H161C167.075 11 172 15.9249 172 22V56H1V22Z" fill="white"/>
<path d="M1 22C1 15.9249 5.92487 11 12 11H161C167.075 11 172 15.9249 172 22V56H1V22Z" fill="url(#paint1_linear_941_2099)"/>
<path d="M1 22C1 15.9249 5.92487 11 12 11H161C167.075 11 172 15.9249 172 22V56H1V22Z" fill="url(#paint2_linear_941_2099)"/>
<path d="M1 22C1 15.9249 5.92487 11 12 11H161C167.075 11 172 15.9249 172 22V56H1V22Z" stroke="#0D0D0D" stroke-width="2"/>
<g filter="url(#filter0_d_941_2099)">
<path d="M120.352 39.976C122.72 38.3333 124.64 36.9573 126.112 35.848C127.605 34.7173 128.896 33.5653 129.984 32.392C131.072 31.2187 131.701 30.1307 131.872 29.128C131.915 28.7867 131.936 28.552 131.936 28.424C131.936 27.464 131.456 26.984 130.496 26.984C129.877 26.984 129.376 27.2187 128.992 27.688C128.608 28.1573 128.309 28.9467 128.096 30.056H122.016C122.613 27.24 123.819 25.1493 125.632 23.784C127.445 22.3973 129.525 21.704 131.872 21.704C134.155 21.704 135.829 22.2053 136.896 23.208C137.963 24.2107 138.496 25.5227 138.496 27.144C138.496 27.656 138.453 28.1253 138.368 28.552C137.984 30.6427 136.896 32.6267 135.104 34.504C133.333 36.36 131.211 38.056 128.736 39.592H136.736L135.84 44.68H119.52L120.352 39.976ZM143.819 37.16C144.631 37.16 145.275 37.3793 145.751 37.818C146.236 38.2473 146.479 38.868 146.479 39.68C146.479 39.8853 146.455 40.142 146.409 40.45L145.597 45H144.015L144.785 40.688C144.822 40.4267 144.841 40.24 144.841 40.128C144.841 39.6147 144.696 39.2227 144.407 38.952C144.127 38.6813 143.735 38.546 143.231 38.546C142.624 38.546 142.111 38.7327 141.691 39.106C141.28 39.47 141.019 39.9973 140.907 40.688V40.646L140.137 45H138.541L139.899 37.286H141.495L141.341 38.182C141.658 37.8647 142.031 37.6173 142.461 37.44C142.899 37.2533 143.352 37.16 143.819 37.16ZM147.787 41.108C147.927 40.3333 148.207 39.6473 148.627 39.05C149.056 38.4527 149.579 37.9907 150.195 37.664C150.811 37.328 151.459 37.16 152.141 37.16C152.645 37.16 153.121 37.272 153.569 37.496C154.017 37.7107 154.357 38 154.591 38.364L155.249 34.64H156.859L155.025 45H153.415L153.625 43.838C153.289 44.2207 152.869 44.5333 152.365 44.776C151.87 45.0093 151.324 45.126 150.727 45.126C150.139 45.126 149.616 44.9953 149.159 44.734C148.701 44.4727 148.342 44.104 148.081 43.628C147.829 43.1427 147.703 42.5873 147.703 41.962C147.703 41.682 147.731 41.3973 147.787 41.108ZM154.101 41.136C154.138 40.9587 154.157 40.7673 154.157 40.562C154.157 39.9367 153.97 39.4467 153.597 39.092C153.233 38.728 152.775 38.546 152.225 38.546C151.814 38.546 151.413 38.6487 151.021 38.854C150.629 39.05 150.288 39.344 149.999 39.736C149.709 40.1187 149.518 40.576 149.425 41.108C149.387 41.2853 149.369 41.4767 149.369 41.682C149.369 42.3167 149.551 42.8207 149.915 43.194C150.288 43.558 150.75 43.74 151.301 43.74C151.711 43.74 152.113 43.6373 152.505 43.432C152.897 43.2267 153.237 42.928 153.527 42.536C153.816 42.1347 154.007 41.668 154.101 41.136Z" fill="url(#paint3_linear_941_2099)" fill-opacity="0.6" shape-rendering="crispEdges"/>
</g>
<g clip-path="url(#clip0_941_2099)">
<mask id="path-5-outside-1_941_2099" maskUnits="userSpaceOnUse" x="6.16639" y="22.4515" width="21.2224" height="19.7583" fill="black">
<rect fill="white" x="6.16639" y="22.4515" width="21.2224" height="19.7583"/>
<path fill-rule="evenodd" clip-rule="evenodd" d="M10.0467 31.175C9.27055 31.1346 8.89171 32.1071 9.49067 32.6023L15.9986 37.9828C16.2433 38.1851 16.582 38.224 16.8644 38.0871C19.2689 35.9848 22.0736 34.329 25.1494 33.2491C25.5454 32.7752 25.2618 31.9677 24.5639 31.9314L10.0467 31.175Z"/>
</mask>
<path fill-rule="evenodd" clip-rule="evenodd" d="M10.0467 31.175C9.27055 31.1346 8.89171 32.1071 9.49067 32.6023L15.9986 37.9828C16.2433 38.1851 16.582 38.224 16.8644 38.0871C19.2689 35.9848 22.0736 34.329 25.1494 33.2491C25.5454 32.7752 25.2618 31.9677 24.5639 31.9314L10.0467 31.175Z" fill="#B2EEE1"/>
<path d="M9.49067 32.6023L8.85348 33.373L9.49067 32.6023ZM10.0467 31.175L10.0987 30.1764L10.0467 31.175ZM15.9986 37.9828L16.6358 37.2121L15.9986 37.9828ZM16.8644 38.0871L17.3008 38.9868L17.4216 38.9283L17.5227 38.8399L16.8644 38.0871ZM25.1494 33.2491L25.4807 34.1926L25.7403 34.1015L25.9167 33.8903L25.1494 33.2491ZM24.5639 31.9314L24.6159 30.9327L24.6159 30.9327L24.5639 31.9314ZM10.1279 31.8316C10.149 31.8491 10.1784 31.8886 10.1906 31.942C10.2011 31.9881 10.1948 32.0252 10.1848 32.0508C10.1749 32.0763 10.1545 32.1079 10.1155 32.1348C10.0704 32.1659 10.022 32.1751 9.99462 32.1737L10.0987 30.1764C8.36047 30.0858 7.51203 32.264 8.85348 33.373L10.1279 31.8316ZM16.6358 37.2121L10.1279 31.8316L8.85348 33.373L15.3614 38.7536L16.6358 37.2121ZM16.428 37.1873C16.496 37.1544 16.5771 37.1636 16.6358 37.2121L15.3614 38.7536C15.9094 39.2066 16.668 39.2937 17.3008 38.9868L16.428 37.1873ZM17.5227 38.8399C19.833 36.8199 22.5272 35.2296 25.4807 34.1926L24.8181 32.3056C21.6201 33.4284 18.7048 35.1497 16.2062 37.3342L17.5227 38.8399ZM24.5119 32.93C24.491 32.9289 24.4496 32.9188 24.4085 32.8882C24.3715 32.8606 24.3512 32.8291 24.3413 32.8047C24.3261 32.7676 24.3158 32.6871 24.3821 32.6078L25.9167 33.8903C26.7969 32.8371 26.2054 31.0155 24.6159 30.9327L24.5119 32.93ZM9.99462 32.1737L24.5119 32.93L24.6159 30.9327L10.0987 30.1764L9.99462 32.1737Z" fill="#0D0D0D" mask="url(#path-5-outside-1_941_2099)"/>
<mask id="path-7-outside-2_941_2099" maskUnits="userSpaceOnUse" x="9.72303" y="20.3822" width="21.2224" height="19.7583" fill="black">
<rect fill="white" x="9.72303" y="20.3822" width="21.2224" height="19.7583"/>
<path fill-rule="evenodd" clip-rule="evenodd" d="M23.5569 23.356C23.9136 22.6663 24.9433 22.8295 25.0694 23.5957L26.4446 31.9545C26.4991 32.2858 26.3427 32.6162 26.052 32.7841L25.399 33.1611C22.4748 34.1534 19.7901 35.6644 17.4545 37.5846C16.9307 37.5389 16.5202 36.9602 16.8069 36.406L23.5569 23.356Z"/>
</mask>
<path fill-rule="evenodd" clip-rule="evenodd" d="M23.5569 23.356C23.9136 22.6663 24.9433 22.8295 25.0694 23.5957L26.4446 31.9545C26.4991 32.2858 26.3427 32.6162 26.052 32.7841L25.399 33.1611C22.4748 34.1534 19.7901 35.6644 17.4545 37.5846C16.9307 37.5389 16.5202 36.9602 16.8069 36.406L23.5569 23.356Z" fill="#B2EEE1"/>
<path d="M25.0694 23.5957L26.0561 23.4333L26.0561 23.4333L25.0694 23.5957ZM23.5569 23.356L22.6687 22.8966L22.6687 22.8966L23.5569 23.356ZM26.4446 31.9545L27.4313 31.7922L27.4313 31.7922L26.4446 31.9545ZM26.052 32.7841L25.552 31.918L26.052 32.7841ZM25.399 33.1611L25.7203 34.108L25.8137 34.0764L25.899 34.0271L25.399 33.1611ZM17.4545 37.5846L17.3675 38.5808L17.7742 38.6163L18.0896 38.3571L17.4545 37.5846ZM16.8069 36.406L17.6951 36.8654L16.8069 36.406ZM26.0561 23.4333C25.7738 21.7173 23.4676 21.3519 22.6687 22.8966L24.4451 23.8154C24.4325 23.8398 24.4002 23.8769 24.3506 23.9001C24.3078 23.9202 24.2702 23.9219 24.2431 23.9176C24.2161 23.9133 24.1808 23.9001 24.1464 23.8678C24.1064 23.8303 24.0871 23.7851 24.0826 23.758L26.0561 23.4333ZM27.4313 31.7922L26.0561 23.4333L24.0826 23.758L25.4579 32.1168L27.4313 31.7922ZM26.552 33.6501C27.2032 33.2741 27.5534 32.5341 27.4313 31.7922L25.4579 32.1168C25.4448 32.0375 25.4823 31.9583 25.552 31.918L26.552 33.6501ZM25.899 34.0271L26.552 33.6501L25.552 31.918L24.899 32.295L25.899 34.0271ZM18.0896 38.3571C20.3337 36.5121 22.9124 35.0609 25.7203 34.108L25.0776 32.2141C22.0372 33.2459 19.2466 34.8167 16.8195 36.8122L18.0896 38.3571ZM15.9187 35.9465C15.2629 37.2143 16.2286 38.4813 17.3675 38.5808L17.5415 36.5884C17.6191 36.5952 17.6619 36.6343 17.6835 36.6701C17.6974 36.6933 17.7103 36.7273 17.7123 36.7698C17.7145 36.8155 17.703 36.8501 17.6951 36.8654L15.9187 35.9465ZM22.6687 22.8966L15.9187 35.9465L17.6951 36.8654L24.4451 23.8154L22.6687 22.8966Z" fill="#0D0D0D" mask="url(#path-7-outside-2_941_2099)"/>
<path fill-rule="evenodd" clip-rule="evenodd" d="M16.4584 25.222C15.9015 24.8475 15.1575 25.277 15.2034 25.9465L15.9867 37.3777C16.0178 37.8319 16.4039 38.1413 16.8147 38.1299C19.4211 35.8392 22.501 34.0745 25.8887 33.0017L25.9196 32.9839C26.4364 32.6855 26.4616 31.9488 25.9664 31.6159L16.4584 25.222Z" fill="url(#paint4_linear_941_2099)"/>
<path d="M15.2034 25.9465L14.7046 25.9807L14.7046 25.9807L15.2034 25.9465ZM16.4584 25.222L16.1793 25.6369L16.1793 25.6369L16.4584 25.222ZM15.9867 37.3777L15.4878 37.4119L15.4878 37.4119L15.9867 37.3777ZM16.8147 38.1299L16.8286 38.6297L17.0092 38.6247L17.1448 38.5054L16.8147 38.1299ZM25.8887 33.0017L26.0397 33.4784L26.0916 33.462L26.1387 33.4347L25.8887 33.0017ZM25.9664 31.6159L26.2454 31.2009L26.2454 31.2009L25.9664 31.6159ZM15.7022 25.9123C15.6848 25.6578 15.9676 25.4945 16.1793 25.6369L16.7374 24.807C15.8354 24.2005 14.6303 24.8962 14.7046 25.9807L15.7022 25.9123ZM16.4855 37.3435L15.7022 25.9123L14.7046 25.9807L15.4878 37.4119L16.4855 37.3435ZM16.8009 37.6301C16.6406 37.6345 16.4971 37.5129 16.4855 37.3435L15.4878 37.4119C15.5385 38.1509 16.1673 38.648 16.8286 38.6297L16.8009 37.6301ZM17.1448 38.5054C19.7002 36.2596 22.7194 34.5299 26.0397 33.4784L25.7377 32.5251C22.2827 33.6192 19.142 35.4188 16.4847 37.7543L17.1448 38.5054ZM25.6696 32.5509L25.6387 32.5687L26.1387 33.4347L26.1696 33.4169L25.6696 32.5509ZM25.6874 32.0308C25.8757 32.1574 25.8661 32.4374 25.6696 32.5509L26.1696 33.4169C27.0067 32.9336 27.0475 31.7403 26.2454 31.2009L25.6874 32.0308ZM16.1793 25.6369L25.6874 32.0308L26.2454 31.2009L16.7374 24.807L16.1793 25.6369Z" fill="#0D0D0D"/>
<path d="M15.0212 24.1779C15.8147 23.7198 16.0943 22.706 15.6351 21.9106C15.1759 21.1152 14.1581 20.8505 13.3646 21.3086C12.5712 21.7667 12.2915 22.7805 12.7508 23.5759C13.21 24.3713 14.2278 24.636 15.0212 24.1779Z" fill="#E1F6F1" stroke="#0D0D0D"/>
<path d="M7.43215 31.3288C8.12425 30.9292 8.36884 30.0443 7.96769 29.3495C7.56655 28.6547 6.67794 28.4241 5.98584 28.8237C5.29374 29.2233 5.04915 30.1081 5.4503 30.8029C5.85145 31.4977 6.74005 31.7283 7.43215 31.3288Z" fill="#E1F6F1" stroke="#0D0D0D"/>
<path d="M24.9654 21.2057C25.6575 20.8061 25.902 19.9213 25.5009 19.2265C25.0997 18.5317 24.2111 18.301 23.519 18.7006C22.8269 19.1002 22.5824 19.9851 22.9835 20.6799C23.3847 21.3747 24.2733 21.6053 24.9654 21.2057Z" fill="#E1F6F1" stroke="#0D0D0D"/>
</g>
<defs>
<filter id="filter0_d_941_2099" x="119.52" y="21.7041" width="37.3398" height="24.4219" filterUnits="userSpaceOnUse" color-interpolation-filters="sRGB">
<feFlood flood-opacity="0" result="BackgroundImageFix"/>
<feColorMatrix in="SourceAlpha" type="matrix" values="0 0 0 0 0 0 0 0 0 0 0 0 0 0 0 0 0 0 127 0" result="hardAlpha"/>
<feOffset dy="1"/>
<feComposite in2="hardAlpha" operator="out"/>
<feColorMatrix type="matrix" values="0 0 0 0 1 0 0 0 0 1 0 0 0 0 1 0 0 0 1 0"/>
<feBlend mode="normal" in2="BackgroundImageFix" result="effect1_dropShadow_941_2099"/>
<feBlend mode="normal" in="SourceGraphic" in2="effect1_dropShadow_941_2099" result="shape"/>
</filter>
<linearGradient id="paint0_linear_941_2099" x1="86.5" y1="0" x2="86.5" y2="20" gradientUnits="userSpaceOnUse">
<stop stop-color="#D9FFF8"/>
<stop offset="1" stop-color="#76FDE3"/>
</linearGradient>
<linearGradient id="paint1_linear_941_2099" x1="11.249" y1="-9.31379" x2="161.21" y2="80.3052" gradientUnits="userSpaceOnUse">
<stop stop-color="#8DECEE"/>
<stop offset="0.510417" stop-color="#E1DFF8"/>
<stop offset="1" stop-color="#FFD1C2"/>
</linearGradient>
<linearGradient id="paint2_linear_941_2099" x1="11.0085" y1="8.63885" x2="130.426" y2="108.854" gradientUnits="userSpaceOnUse">
<stop stop-color="#FFD4ED"/>
<stop offset="0.510417" stop-color="#BFFFF1"/>
<stop offset="1" stop-color="#FFFFC2"/>
</linearGradient>
<linearGradient id="paint3_linear_941_2099" x1="127.5" y1="22" x2="132.806" y2="46.2461" gradientUnits="userSpaceOnUse">
<stop stop-color="#32D5A3"/>
<stop offset="0.531866" stop-color="#71EE74"/>
<stop offset="1" stop-color="#B1E34B"/>
</linearGradient>
<linearGradient id="paint4_linear_941_2099" x1="15.615" y1="31.6871" x2="21.3042" y2="28.4024" gradientUnits="userSpaceOnUse">
<stop offset="0.485772" stop-color="#B2EEE1"/>
<stop offset="0.486255" stop-color="#E1F6F1"/>
</linearGradient>
<clipPath id="clip0_941_2099">
<rect width="24" height="24" fill="white" transform="translate(4 18)"/>
</clipPath>
</defs>
</svg>
