<svg width="173" height="200" viewBox="0 0 173 200" fill="none" xmlns="http://www.w3.org/2000/svg">
<path d="M17.3674 3.30543C19.2957 1.811 21.6661 1 24.1057 1H148.894C151.334 1 153.704 1.811 155.633 3.30544L167.738 12.6873C170.427 14.7708 172 17.9807 172 21.3819V199H1V21.3819C1 17.9807 2.57336 14.7708 5.26171 12.6873L17.3674 3.30543Z" fill="url(#paint0_linear_941_2182)" stroke="#0D0D0D" stroke-width="2"/>
<path d="M1 22C1 15.9249 5.92487 11 12 11H161C167.075 11 172 15.9249 172 22V199H1V22Z" fill="white" stroke="#0D0D0D" stroke-width="2"/>
<path d="M1 22C1 15.9249 5.92487 11 12 11H161C167.075 11 172 15.9249 172 22V56H1V22Z" fill="url(#paint1_linear_941_2182)" stroke="#0D0D0D" stroke-width="2"/>
<g filter="url(#filter0_d_941_2182)">
<path d="M124.976 28.232C125.467 25.9493 126.523 24.1893 128.144 22.952C129.765 21.7147 131.781 21.096 134.192 21.096C136.304 21.096 137.925 21.576 139.056 22.536C140.187 23.496 140.752 24.744 140.752 26.28C140.752 26.664 140.72 27.048 140.656 27.432C140.4 28.84 139.845 29.992 138.992 30.888C138.139 31.7627 137.211 32.36 136.208 32.68V32.808C137.168 33.1493 137.915 33.6827 138.448 34.408C138.981 35.112 139.248 36.008 139.248 37.096C139.248 37.5653 139.205 38.0133 139.12 38.44C138.757 40.4453 137.787 42.0773 136.208 43.336C134.629 44.5733 132.645 45.192 130.256 45.192C127.973 45.192 126.171 44.6907 124.848 43.688C123.547 42.6853 122.896 41.16 122.896 39.112C122.896 38.8347 122.939 38.3333 123.024 37.608H128.336C128.293 37.9493 128.272 38.184 128.272 38.312C128.272 39.0587 128.485 39.6347 128.912 40.04C129.339 40.4453 129.979 40.648 130.832 40.648C131.792 40.648 132.56 40.3387 133.136 39.72C133.712 39.1013 134 38.312 134 37.352C134 36.5627 133.701 35.9973 133.104 35.656C132.528 35.2933 131.611 35.112 130.352 35.112H129.328L130.128 30.664H131.152C133.563 30.664 134.928 29.8107 135.248 28.104C135.291 27.848 135.312 27.656 135.312 27.528C135.312 26.9307 135.131 26.472 134.768 26.152C134.427 25.832 133.925 25.672 133.264 25.672C132.453 25.672 131.803 25.9173 131.312 26.408C130.821 26.8987 130.48 27.5067 130.288 28.232H124.976ZM144.413 38.644C144.73 38.1773 145.104 37.8133 145.533 37.552C145.972 37.2907 146.457 37.16 146.989 37.16L146.695 38.812H146.289C145.673 38.812 145.178 38.966 144.805 39.274C144.432 39.582 144.17 40.114 144.021 40.87L143.293 45H141.697L143.055 37.286H144.651L144.413 38.644ZM147.224 41.108C147.364 40.3333 147.644 39.6473 148.064 39.05C148.493 38.4527 149.016 37.9907 149.632 37.664C150.248 37.328 150.897 37.16 151.578 37.16C152.082 37.16 152.558 37.272 153.006 37.496C153.454 37.7107 153.795 38 154.028 38.364L154.686 34.64H156.296L154.462 45H152.852L153.062 43.838C152.726 44.2207 152.306 44.5333 151.802 44.776C151.307 45.0093 150.761 45.126 150.164 45.126C149.576 45.126 149.053 44.9953 148.596 44.734C148.139 44.4727 147.779 44.104 147.518 43.628C147.266 43.1427 147.14 42.5873 147.14 41.962C147.14 41.682 147.168 41.3973 147.224 41.108ZM153.538 41.136C153.575 40.9587 153.594 40.7673 153.594 40.562C153.594 39.9367 153.407 39.4467 153.034 39.092C152.67 38.728 152.213 38.546 151.662 38.546C151.251 38.546 150.85 38.6487 150.458 38.854C150.066 39.05 149.725 39.344 149.436 39.736C149.147 40.1187 148.955 40.576 148.862 41.108C148.825 41.2853 148.806 41.4767 148.806 41.682C148.806 42.3167 148.988 42.8207 149.352 43.194C149.725 43.558 150.187 43.74 150.738 43.74C151.149 43.74 151.55 43.6373 151.942 43.432C152.334 43.2267 152.675 42.928 152.964 42.536C153.253 42.1347 153.445 41.668 153.538 41.136Z" fill="url(#paint2_linear_941_2182)" fill-opacity="0.6" shape-rendering="crispEdges"/>
</g>
<g clip-path="url(#clip0_941_2182)">
<mask id="path-5-outside-1_941_2182" maskUnits="userSpaceOnUse" x="6.16639" y="22.4515" width="21.2224" height="19.7583" fill="black">
<rect fill="white" x="6.16639" y="22.4515" width="21.2224" height="19.7583"/>
<path fill-rule="evenodd" clip-rule="evenodd" d="M10.0467 31.175C9.27055 31.1346 8.89171 32.1071 9.49067 32.6023L15.9986 37.9828C16.2433 38.1851 16.582 38.224 16.8644 38.0871C19.2689 35.9848 22.0736 34.329 25.1494 33.2491C25.5454 32.7752 25.2618 31.9677 24.5639 31.9314L10.0467 31.175Z"/>
</mask>
<path fill-rule="evenodd" clip-rule="evenodd" d="M10.0467 31.175C9.27055 31.1346 8.89171 32.1071 9.49067 32.6023L15.9986 37.9828C16.2433 38.1851 16.582 38.224 16.8644 38.0871C19.2689 35.9848 22.0736 34.329 25.1494 33.2491C25.5454 32.7752 25.2618 31.9677 24.5639 31.9314L10.0467 31.175Z" fill="#FEC691"/>
<path d="M9.49067 32.6023L8.85348 33.373L9.49067 32.6023ZM10.0467 31.175L10.0987 30.1764L10.0467 31.175ZM15.9986 37.9828L16.6358 37.2121L15.9986 37.9828ZM16.8644 38.0871L17.3008 38.9868L17.4216 38.9283L17.5227 38.8399L16.8644 38.0871ZM25.1494 33.2491L25.4807 34.1926L25.7403 34.1015L25.9167 33.8903L25.1494 33.2491ZM24.5639 31.9314L24.6159 30.9327L24.6159 30.9327L24.5639 31.9314ZM10.1279 31.8316C10.149 31.8491 10.1784 31.8886 10.1906 31.942C10.2011 31.9881 10.1948 32.0252 10.1848 32.0508C10.1749 32.0763 10.1545 32.1079 10.1155 32.1348C10.0704 32.1659 10.022 32.1751 9.99462 32.1737L10.0987 30.1764C8.36047 30.0858 7.51203 32.264 8.85348 33.373L10.1279 31.8316ZM16.6358 37.2121L10.1279 31.8316L8.85348 33.373L15.3614 38.7536L16.6358 37.2121ZM16.428 37.1873C16.496 37.1544 16.5771 37.1636 16.6358 37.2121L15.3614 38.7536C15.9094 39.2066 16.668 39.2937 17.3008 38.9868L16.428 37.1873ZM17.5227 38.8399C19.833 36.8199 22.5272 35.2296 25.4807 34.1926L24.8181 32.3056C21.6201 33.4284 18.7048 35.1497 16.2062 37.3342L17.5227 38.8399ZM24.5119 32.93C24.491 32.9289 24.4496 32.9188 24.4085 32.8882C24.3715 32.8606 24.3512 32.8291 24.3413 32.8047C24.3261 32.7676 24.3158 32.6871 24.3821 32.6078L25.9167 33.8903C26.7969 32.8371 26.2054 31.0155 24.6159 30.9327L24.5119 32.93ZM9.99462 32.1737L24.5119 32.93L24.6159 30.9327L10.0987 30.1764L9.99462 32.1737Z" fill="#0D0D0D" mask="url(#path-5-outside-1_941_2182)"/>
<mask id="path-7-outside-2_941_2182" maskUnits="userSpaceOnUse" x="9.72303" y="20.3822" width="21.2224" height="19.7583" fill="black">
<rect fill="white" x="9.72303" y="20.3822" width="21.2224" height="19.7583"/>
<path fill-rule="evenodd" clip-rule="evenodd" d="M23.5569 23.356C23.9136 22.6663 24.9433 22.8295 25.0694 23.5957L26.4446 31.9545C26.4991 32.2858 26.3427 32.6162 26.052 32.7841L25.399 33.1611C22.4748 34.1534 19.7901 35.6644 17.4545 37.5846C16.9307 37.5389 16.5202 36.9602 16.8069 36.406L23.5569 23.356Z"/>
</mask>
<path fill-rule="evenodd" clip-rule="evenodd" d="M23.5569 23.356C23.9136 22.6663 24.9433 22.8295 25.0694 23.5957L26.4446 31.9545C26.4991 32.2858 26.3427 32.6162 26.052 32.7841L25.399 33.1611C22.4748 34.1534 19.7901 35.6644 17.4545 37.5846C16.9307 37.5389 16.5202 36.9602 16.8069 36.406L23.5569 23.356Z" fill="#FEC691"/>
<path d="M25.0694 23.5957L26.0561 23.4333L26.0561 23.4333L25.0694 23.5957ZM23.5569 23.356L22.6687 22.8966L22.6687 22.8966L23.5569 23.356ZM26.4446 31.9545L27.4313 31.7922L27.4313 31.7922L26.4446 31.9545ZM25.399 33.1611L25.7203 34.108L25.8137 34.0764L25.899 34.0271L25.399 33.1611ZM17.4545 37.5846L17.3675 38.5808L17.7742 38.6163L18.0896 38.3571L17.4545 37.5846ZM16.8069 36.406L17.6951 36.8654L16.8069 36.406ZM26.0561 23.4333C25.7738 21.7173 23.4676 21.3519 22.6687 22.8966L24.4451 23.8154C24.4325 23.8398 24.4002 23.8769 24.3506 23.9001C24.3078 23.9202 24.2702 23.9219 24.2431 23.9176C24.2161 23.9133 24.1808 23.9001 24.1464 23.8678C24.1064 23.8303 24.0871 23.7851 24.0826 23.758L26.0561 23.4333ZM27.4313 31.7922L26.0561 23.4333L24.0826 23.758L25.4579 32.1168L27.4313 31.7922ZM26.552 33.6501C27.2032 33.2741 27.5534 32.5341 27.4313 31.7922L25.4579 32.1168C25.4448 32.0375 25.4823 31.9583 25.552 31.918L26.552 33.6501ZM25.899 34.0271L26.552 33.6501L25.552 31.918L24.899 32.295L25.899 34.0271ZM18.0896 38.3571C20.3337 36.5121 22.9124 35.0609 25.7203 34.108L25.0776 32.2141C22.0372 33.2459 19.2466 34.8167 16.8195 36.8122L18.0896 38.3571ZM15.9187 35.9465C15.2629 37.2143 16.2286 38.4813 17.3675 38.5808L17.5415 36.5884C17.6191 36.5952 17.6619 36.6343 17.6835 36.6701C17.6974 36.6933 17.7103 36.7273 17.7123 36.7698C17.7145 36.8155 17.703 36.8501 17.6951 36.8654L15.9187 35.9465ZM22.6687 22.8966L15.9187 35.9465L17.6951 36.8654L24.4451 23.8154L22.6687 22.8966Z" fill="#0D0D0D" mask="url(#path-7-outside-2_941_2182)"/>
<path fill-rule="evenodd" clip-rule="evenodd" d="M16.4584 25.222C15.9015 24.8475 15.1575 25.277 15.2034 25.9465L15.9867 37.3777C16.0178 37.8319 16.4039 38.1413 16.8147 38.1299C19.4211 35.8392 22.501 34.0745 25.8887 33.0017L25.9196 32.9839C26.4364 32.6855 26.4616 31.9488 25.9664 31.6159L16.4584 25.222Z" fill="url(#paint3_linear_941_2182)"/>
<path d="M15.2034 25.9465L14.7046 25.9807L14.7046 25.9807L15.2034 25.9465ZM16.4584 25.222L16.1793 25.6369L16.1793 25.6369L16.4584 25.222ZM15.9867 37.3777L15.4878 37.4119L15.4878 37.4119L15.9867 37.3777ZM16.8147 38.1299L16.8286 38.6297L17.0092 38.6247L17.1448 38.5054L16.8147 38.1299ZM25.8887 33.0017L26.0397 33.4784L26.0916 33.462L26.1387 33.4347L25.8887 33.0017ZM25.9664 31.6159L26.2454 31.2009L26.2454 31.2009L25.9664 31.6159ZM15.7022 25.9123C15.6848 25.6578 15.9676 25.4945 16.1793 25.6369L16.7374 24.807C15.8354 24.2005 14.6303 24.8962 14.7046 25.9807L15.7022 25.9123ZM16.4855 37.3435L15.7022 25.9123L14.7046 25.9807L15.4878 37.4119L16.4855 37.3435ZM16.8009 37.6301C16.6406 37.6345 16.4971 37.5129 16.4855 37.3435L15.4878 37.4119C15.5385 38.1509 16.1673 38.648 16.8286 38.6297L16.8009 37.6301ZM17.1448 38.5054C19.7002 36.2596 22.7194 34.5299 26.0397 33.4784L25.7377 32.5251C22.2827 33.6192 19.142 35.4188 16.4847 37.7543L17.1448 38.5054ZM25.6696 32.5509L25.6387 32.5687L26.1387 33.4347L26.1696 33.4169L25.6696 32.5509ZM25.6874 32.0308C25.8757 32.1574 25.8661 32.4374 25.6696 32.5509L26.1696 33.4169C27.0067 32.9336 27.0475 31.7403 26.2454 31.2009L25.6874 32.0308ZM16.1793 25.6369L25.6874 32.0308L26.2454 31.2009L16.7374 24.807L16.1793 25.6369Z" fill="#0D0D0D"/>
<path d="M15.0212 24.1779C15.8147 23.7198 16.0943 22.706 15.6351 21.9106C15.1759 21.1152 14.1581 20.8505 13.3646 21.3086C12.5712 21.7667 12.2915 22.7805 12.7508 23.5759C13.21 24.3713 14.2278 24.636 15.0212 24.1779Z" fill="#FFEDCB" stroke="#0D0D0D"/>
<path d="M7.43215 31.3288C8.12425 30.9292 8.36884 30.0443 7.96769 29.3495C7.56655 28.6547 6.67794 28.4241 5.98584 28.8237C5.29374 29.2233 5.04915 30.1081 5.4503 30.8029C5.85145 31.4977 6.74005 31.7283 7.43215 31.3288Z" fill="#FFEDCB" stroke="#0D0D0D"/>
<path d="M24.9654 21.2057C25.6575 20.8061 25.902 19.9213 25.5009 19.2265C25.0997 18.5317 24.2111 18.301 23.519 18.7006C22.8269 19.1002 22.5824 19.9851 22.9835 20.6799C23.3847 21.3747 24.2733 21.6053 24.9654 21.2057Z" fill="#FFEDCB" stroke="#0D0D0D"/>
</g>
<defs>
<filter id="filter0_d_941_2182" x="122.896" y="21.0957" width="33.4004" height="25.0967" filterUnits="userSpaceOnUse" color-interpolation-filters="sRGB">
<feFlood flood-opacity="0" result="BackgroundImageFix"/>
<feColorMatrix in="SourceAlpha" type="matrix" values="0 0 0 0 0 0 0 0 0 0 0 0 0 0 0 0 0 0 127 0" result="hardAlpha"/>
<feOffset dy="1"/>
<feComposite in2="hardAlpha" operator="out"/>
<feColorMatrix type="matrix" values="0 0 0 0 0.984919 0 0 0 0 1 0 0 0 0 0.924593 0 0 0 1 0"/>
<feBlend mode="normal" in2="BackgroundImageFix" result="effect1_dropShadow_941_2182"/>
<feBlend mode="normal" in="SourceGraphic" in2="effect1_dropShadow_941_2182" result="shape"/>
</filter>
<linearGradient id="paint0_linear_941_2182" x1="86.5" y1="0" x2="86.5" y2="21" gradientUnits="userSpaceOnUse">
<stop stop-color="#FFE0C3"/>
<stop offset="1" stop-color="#FCAE65"/>
</linearGradient>
<linearGradient id="paint1_linear_941_2182" x1="11.0085" y1="8.63885" x2="130.426" y2="108.854" gradientUnits="userSpaceOnUse">
<stop stop-color="#F5FFB8"/>
<stop offset="0.510417" stop-color="#FFD5B2"/>
<stop offset="1" stop-color="#F4FFC7"/>
</linearGradient>
<linearGradient id="paint2_linear_941_2182" x1="129.095" y1="22" x2="134.674" y2="46.1165" gradientUnits="userSpaceOnUse">
<stop stop-color="#E2A256"/>
<stop offset="0.531866" stop-color="#F5D174"/>
<stop offset="1" stop-color="#DBAC51"/>
</linearGradient>
<linearGradient id="paint3_linear_941_2182" x1="15.615" y1="31.6871" x2="21.3042" y2="28.4024" gradientUnits="userSpaceOnUse">
<stop offset="0.49738" stop-color="#FFEECC"/>
<stop offset="0.49748" stop-color="#FFC691"/>
</linearGradient>
<clipPath id="clip0_941_2182">
<rect width="24" height="24" fill="white" transform="translate(4 18)"/>
</clipPath>
</defs>
</svg>
