<svg width="2007" height="150" viewBox="0 0 2007 150" fill="none" xmlns="http://www.w3.org/2000/svg">
<mask id="path-1-outside-1_1124_1779" maskUnits="userSpaceOnUse" x="-1.5" y="27" width="576" height="86" fill="black">
<rect fill="white" x="-1.5" y="27" width="576" height="86"/>
<path d="M50.7 98.5H25.7L21.9 110H1.3L27 39.5H49.6L75.2 110H54.5L50.7 98.5ZM45.8 83.5L38.2 60.7L30.7 83.5H45.8ZM138.988 53.9V110H119.288V102C117.622 104.533 115.322 106.6 112.388 108.2C109.455 109.733 106.088 110.5 102.288 110.5C95.7549 110.5 90.5883 108.367 86.7883 104.1C83.0549 99.7667 81.1883 93.9 81.1883 86.5V53.9H100.688V84C100.688 87.2 101.522 89.7333 103.188 91.6C104.922 93.4 107.188 94.3 109.988 94.3C112.855 94.3 115.122 93.4 116.788 91.6C118.455 89.7333 119.288 87.2 119.288 84V53.9H138.988ZM146.943 81.9C146.943 76.1 147.976 71.0333 150.043 66.7C152.176 62.3667 155.076 59.0333 158.743 56.7C162.41 54.3667 166.476 53.2 170.943 53.2C174.543 53.2 177.743 53.9667 180.543 55.5C183.41 56.9667 185.643 59 187.243 61.6V36H206.943V110H187.243V102.2C185.71 104.8 183.543 106.867 180.743 108.4C177.943 109.933 174.643 110.7 170.843 110.7C166.376 110.7 162.31 109.533 158.643 107.2C155.043 104.867 152.176 101.533 150.043 97.2C147.976 92.8 146.943 87.7 146.943 81.9ZM187.343 81.9C187.343 78.3 186.343 75.4667 184.343 73.4C182.41 71.3333 180.01 70.3 177.143 70.3C174.21 70.3 171.776 71.3333 169.843 73.4C167.91 75.4 166.943 78.2333 166.943 81.9C166.943 85.5 167.91 88.3667 169.843 90.5C171.776 92.5667 174.21 93.6 177.143 93.6C180.01 93.6 182.41 92.5667 184.343 90.5C186.343 88.4333 187.343 85.5667 187.343 81.9ZM228.012 48.7C224.545 48.7 221.745 47.7667 219.612 45.9C217.545 43.9667 216.512 41.5667 216.512 38.7C216.512 35.7667 217.545 33.3333 219.612 31.4C221.745 29.4667 224.545 28.5 228.012 28.5C231.412 28.5 234.145 29.4667 236.212 31.4C238.345 33.3333 239.412 35.7667 239.412 38.7C239.412 41.5667 238.345 43.9667 236.212 45.9C234.145 47.7667 231.412 48.7 228.012 48.7ZM237.712 53.9V110H218.112V53.9H237.712ZM274.973 110.7C269.373 110.7 264.34 109.533 259.873 107.2C255.473 104.867 252.007 101.533 249.473 97.2C246.94 92.8667 245.673 87.7667 245.673 81.9C245.673 76.1 246.94 71.0333 249.473 66.7C252.073 62.3667 255.573 59.0333 259.973 56.7C264.44 54.3667 269.473 53.2 275.073 53.2C280.673 53.2 285.673 54.3667 290.073 56.7C294.54 59.0333 298.04 62.3667 300.573 66.7C303.173 71.0333 304.473 76.1 304.473 81.9C304.473 87.7 303.173 92.8 300.573 97.2C298.04 101.533 294.54 104.867 290.073 107.2C285.607 109.533 280.573 110.7 274.973 110.7ZM274.973 93.7C277.707 93.7 279.973 92.7 281.773 90.7C283.64 88.6333 284.573 85.7 284.573 81.9C284.573 78.1 283.64 75.2 281.773 73.2C279.973 71.2 277.74 70.2 275.073 70.2C272.407 70.2 270.173 71.2 268.373 73.2C266.573 75.2 265.673 78.1 265.673 81.9C265.673 85.7667 266.54 88.7 268.273 90.7C270.007 92.7 272.24 93.7 274.973 93.7ZM355.748 67.2V83.5H310.448V67.2H355.748ZM400.56 70.2H391.76V110H372.06V70.2H365.96V53.9H372.06V53.4C372.06 46.2 374.16 40.7 378.36 36.9C382.627 33.0333 388.727 31.1 396.66 31.1C398.26 31.1 399.493 31.1333 400.36 31.2V47.9C399.827 47.8333 399.093 47.8 398.16 47.8C396.027 47.8 394.46 48.3 393.46 49.3C392.46 50.2333 391.893 51.7667 391.76 53.9H400.56V70.2ZM417.465 48.7C413.998 48.7 411.198 47.7667 409.065 45.9C406.998 43.9667 405.965 41.5667 405.965 38.7C405.965 35.7667 406.998 33.3333 409.065 31.4C411.198 29.4667 413.998 28.5 417.465 28.5C420.865 28.5 423.598 29.4667 425.665 31.4C427.798 33.3333 428.865 35.7667 428.865 38.7C428.865 41.5667 427.798 43.9667 425.665 45.9C423.598 47.7667 420.865 48.7 417.465 48.7ZM427.165 53.9V110H407.565V53.9H427.165ZM457.927 63.8C460.127 60.6 462.793 58.0667 465.927 56.2C469.06 54.3333 472.427 53.4 476.027 53.4V74.3H470.527C466.26 74.3 463.093 75.1333 461.027 76.8C458.96 78.4667 457.927 81.3667 457.927 85.5V110H438.327V53.9H457.927V63.8ZM506.953 110.7C501.886 110.7 497.353 109.867 493.353 108.2C489.42 106.467 486.286 104.133 483.953 101.2C481.686 98.2 480.42 94.8333 480.153 91.1H499.153C499.42 92.9 500.253 94.3 501.653 95.3C503.053 96.3 504.786 96.8 506.853 96.8C508.453 96.8 509.72 96.4667 510.653 95.8C511.586 95.1333 512.053 94.2667 512.053 93.2C512.053 91.8 511.286 90.7667 509.753 90.1C508.22 89.4333 505.686 88.7 502.153 87.9C498.153 87.1 494.82 86.2 492.153 85.2C489.486 84.2 487.153 82.5667 485.153 80.3C483.22 78.0333 482.253 74.9667 482.253 71.1C482.253 67.7667 483.153 64.7667 484.953 62.1C486.753 59.3667 489.386 57.2 492.853 55.6C496.386 54 500.62 53.2 505.553 53.2C512.886 53.2 518.653 55 522.853 58.6C527.053 62.2 529.486 66.9333 530.153 72.8H512.453C512.12 71 511.32 69.6333 510.053 68.7C508.853 67.7 507.22 67.2 505.153 67.2C503.553 67.2 502.32 67.5 501.453 68.1C500.653 68.7 500.253 69.5333 500.253 70.6C500.253 71.9333 501.02 72.9667 502.553 73.7C504.086 74.3667 506.553 75.0667 509.953 75.8C514.02 76.6667 517.386 77.6333 520.053 78.7C522.786 79.7667 525.153 81.5 527.153 83.9C529.22 86.2333 530.253 89.4333 530.253 93.5C530.253 96.7667 529.286 99.7 527.353 102.3C525.486 104.9 522.786 106.967 519.253 108.5C515.786 109.967 511.686 110.7 506.953 110.7ZM572.989 93.3V110H564.489C550.156 110 542.989 102.9 542.989 88.7V70.2H536.089V53.9H542.989V40.3H562.689V53.9H572.889V70.2H562.689V89C562.689 90.5333 563.022 91.6333 563.689 92.3C564.422 92.9667 565.622 93.3 567.289 93.3H572.989Z"/>
</mask>
<path d="M50.7 98.5L52.1243 98.0294L51.7841 97H50.7V98.5ZM25.7 98.5V97H24.6159L24.2757 98.0294L25.7 98.5ZM21.9 110V111.5H22.9841L23.3243 110.471L21.9 110ZM1.3 110L-0.109281 109.486L-0.843367 111.5H1.3V110ZM27 39.5V38H25.9503L25.5907 38.9863L27 39.5ZM49.6 39.5L51.0099 38.988L50.6512 38H49.6V39.5ZM75.2 110V111.5H77.3405L76.6099 109.488L75.2 110ZM54.5 110L53.0757 110.471L53.4159 111.5H54.5V110ZM45.8 83.5V85H47.8811L47.223 83.0257L45.8 83.5ZM38.2 60.7L39.623 60.2257L38.1906 55.9283L36.7751 60.2313L38.2 60.7ZM30.7 83.5L29.2751 83.0313L28.6275 85H30.7V83.5ZM50.7 97H25.7V100H50.7V97ZM24.2757 98.0294L20.4757 109.529L23.3243 110.471L27.1243 98.9706L24.2757 98.0294ZM21.9 108.5H1.3V111.5H21.9V108.5ZM2.70928 110.514L28.4093 40.0137L25.5907 38.9863L-0.109281 109.486L2.70928 110.514ZM27 41H49.6V38H27V41ZM48.1901 40.012L73.7901 110.512L76.6099 109.488L51.0099 38.988L48.1901 40.012ZM75.2 108.5H54.5V111.5H75.2V108.5ZM55.9243 109.529L52.1243 98.0294L49.2757 98.9706L53.0757 110.471L55.9243 109.529ZM47.223 83.0257L39.623 60.2257L36.777 61.1743L44.377 83.9743L47.223 83.0257ZM36.7751 60.2313L29.2751 83.0313L32.1249 83.9687L39.6249 61.1687L36.7751 60.2313ZM30.7 85H45.8V82H30.7V85ZM138.988 53.9H140.488V52.4H138.988V53.9ZM138.988 110V111.5H140.488V110H138.988ZM119.288 110H117.788V111.5H119.288V110ZM119.288 102H120.788V96.9908L118.035 101.176L119.288 102ZM112.388 108.2L113.083 109.529L113.095 109.523L113.107 109.517L112.388 108.2ZM86.7883 104.1L85.6519 105.079L85.6599 105.088L85.6681 105.098L86.7883 104.1ZM81.1883 53.9V52.4H79.6883V53.9H81.1883ZM100.688 53.9H102.188V52.4H100.688V53.9ZM103.188 91.6L102.069 92.599L102.088 92.6201L102.108 92.6405L103.188 91.6ZM116.788 91.6L117.889 92.6191L117.898 92.6091L117.907 92.599L116.788 91.6ZM119.288 53.9V52.4H117.788V53.9H119.288ZM137.488 53.9V110H140.488V53.9H137.488ZM138.988 108.5H119.288V111.5H138.988V108.5ZM120.788 110V102H117.788V110H120.788ZM118.035 101.176C116.517 103.483 114.41 105.389 111.67 106.883L113.107 109.517C116.233 107.811 118.726 105.584 120.541 102.824L118.035 101.176ZM111.693 106.871C109.004 108.276 105.882 109 102.288 109V112C106.294 112 109.906 111.19 113.083 109.529L111.693 106.871ZM102.288 109C96.1149 109 91.3815 107.002 87.9084 103.102L85.6681 105.098C89.795 109.731 95.395 112 102.288 112V109ZM87.9247 103.121C84.4878 99.1317 82.6883 93.6485 82.6883 86.5H79.6883C79.6883 94.1515 81.622 100.402 85.6519 105.079L87.9247 103.121ZM82.6883 86.5V53.9H79.6883V86.5H82.6883ZM81.1883 55.4H100.688V52.4H81.1883V55.4ZM99.1883 53.9V84H102.188V53.9H99.1883ZM99.1883 84C99.1883 87.4626 100.095 90.3876 102.069 92.599L104.307 90.601C102.948 89.0791 102.188 86.9374 102.188 84H99.1883ZM102.108 92.6405C104.159 94.7708 106.835 95.8 109.988 95.8V92.8C107.542 92.8 105.684 92.0292 104.269 90.5595L102.108 92.6405ZM109.988 95.8C113.196 95.8 115.89 94.778 117.889 92.6191L115.688 90.5809C114.353 92.022 112.514 92.8 109.988 92.8V95.8ZM117.907 92.599C119.882 90.3876 120.788 87.4626 120.788 84H117.788C117.788 86.9374 117.028 89.0791 115.669 90.601L117.907 92.599ZM120.788 84V53.9H117.788V84H120.788ZM119.288 55.4H138.988V52.4H119.288V55.4ZM150.043 66.7L148.697 66.0375L148.693 66.0459L148.689 66.0543L150.043 66.7ZM158.743 56.7L157.938 55.4345L158.743 56.7ZM180.543 55.5L179.822 56.8156L179.841 56.8258L179.86 56.8354L180.543 55.5ZM187.243 61.6L185.965 62.3861L188.743 66.8996V61.6H187.243ZM187.243 36V34.5H185.743V36H187.243ZM206.943 36H208.443V34.5H206.943V36ZM206.943 110V111.5H208.443V110H206.943ZM187.243 110H185.743V111.5H187.243V110ZM187.243 102.2H188.743V96.7037L185.951 101.438L187.243 102.2ZM180.743 108.4L180.022 107.084L180.743 108.4ZM158.643 107.2L157.827 108.459L157.838 108.465L158.643 107.2ZM150.043 97.2L148.685 97.8377L148.691 97.8502L148.697 97.8625L150.043 97.2ZM184.343 73.4L183.248 74.4247L183.256 74.434L183.265 74.4431L184.343 73.4ZM169.843 73.4L170.921 74.4425L170.93 74.4337L170.938 74.4247L169.843 73.4ZM169.843 90.5L168.731 91.5073L168.739 91.5161L168.748 91.5247L169.843 90.5ZM184.343 90.5L183.265 89.4569L183.256 89.466L183.248 89.4753L184.343 90.5ZM148.443 81.9C148.443 76.2777 149.444 71.4398 151.397 67.3457L148.689 66.0543C146.508 70.6269 145.443 75.9223 145.443 81.9H148.443ZM151.389 67.3625C153.415 63.2477 156.139 60.1351 159.548 57.9655L157.938 55.4345C154.014 57.9315 150.938 61.4857 148.697 66.0375L151.389 67.3625ZM159.548 57.9655C162.967 55.7897 166.753 54.7 170.943 54.7V51.7C166.199 51.7 161.852 52.9436 157.938 55.4345L159.548 57.9655ZM170.943 54.7C174.324 54.7 177.27 55.418 179.822 56.8156L181.263 54.1844C178.216 52.5153 174.762 51.7 170.943 51.7V54.7ZM179.86 56.8354C182.496 58.184 184.518 60.0332 185.965 62.3861L188.52 60.8139C186.768 57.9668 184.324 55.7493 181.226 54.1646L179.86 56.8354ZM188.743 61.6V36H185.743V61.6H188.743ZM187.243 37.5H206.943V34.5H187.243V37.5ZM205.443 36V110H208.443V36H205.443ZM206.943 108.5H187.243V111.5H206.943V108.5ZM188.743 110V102.2H185.743V110H188.743ZM185.951 101.438C184.563 103.792 182.6 105.673 180.022 107.084L181.463 109.716C184.486 108.06 186.856 105.808 188.535 102.962L185.951 101.438ZM180.022 107.084C177.482 108.476 174.439 109.2 170.843 109.2V112.2C174.847 112.2 178.404 111.391 181.463 109.716L180.022 107.084ZM170.843 109.2C166.653 109.2 162.867 108.11 159.448 105.935L157.838 108.465C161.752 110.956 166.099 112.2 170.843 112.2V109.2ZM159.459 105.941C156.114 103.773 153.418 100.659 151.389 96.5375L148.697 97.8625C150.935 102.407 153.972 105.96 157.827 108.459L159.459 105.941ZM151.401 96.5623C149.444 92.3967 148.443 87.5216 148.443 81.9H145.443C145.443 87.8784 146.509 93.2033 148.685 97.8377L151.401 96.5623ZM188.843 81.9C188.843 78.0136 187.756 74.7694 185.421 72.3569L183.265 74.4431C184.93 76.1639 185.843 78.5863 185.843 81.9H188.843ZM185.438 72.3753C183.217 70.001 180.419 68.8 177.143 68.8V71.8C179.601 71.8 181.602 72.6657 183.248 74.4247L185.438 72.3753ZM177.143 68.8C173.812 68.8 170.976 69.9931 168.748 72.3753L170.938 74.4247C172.577 72.6735 174.608 71.8 177.143 71.8V68.8ZM168.764 72.3575C166.483 74.7172 165.443 77.972 165.443 81.9H168.443C168.443 78.4946 169.336 76.0828 170.921 74.4425L168.764 72.3575ZM165.443 81.9C165.443 85.7753 166.49 89.0337 168.731 91.5073L170.954 89.4927C169.329 87.6996 168.443 85.2247 168.443 81.9H165.443ZM168.748 91.5247C170.976 93.9069 173.812 95.1 177.143 95.1V92.1C174.608 92.1 172.577 91.2265 170.938 89.4753L168.748 91.5247ZM177.143 95.1C180.419 95.1 183.217 93.899 185.438 91.5247L183.248 89.4753C181.602 91.2343 179.601 92.1 177.143 92.1V95.1ZM185.421 91.5431C187.76 89.1255 188.843 85.8442 188.843 81.9H185.843C185.843 85.2891 184.925 87.7411 183.265 89.4569L185.421 91.5431ZM219.612 45.9L218.587 46.9954L218.605 47.0124L218.624 47.0289L219.612 45.9ZM219.612 31.4L218.604 30.2885L218.596 30.2965L218.587 30.3046L219.612 31.4ZM236.212 31.4L235.187 32.4954L235.196 32.5035L235.204 32.5115L236.212 31.4ZM236.212 45.9L237.217 47.0132L237.219 47.0115L236.212 45.9ZM237.712 53.9H239.212V52.4H237.712V53.9ZM237.712 110V111.5H239.212V110H237.712ZM218.112 110H216.612V111.5H218.112V110ZM218.112 53.9V52.4H216.612V53.9H218.112ZM228.012 47.2C224.824 47.2 222.402 46.3482 220.599 44.7711L218.624 47.0289C221.088 49.1851 224.266 50.2 228.012 50.2V47.2ZM220.636 44.8046C218.877 43.159 218.012 41.1576 218.012 38.7H215.012C215.012 41.9757 216.213 44.7743 218.587 46.9954L220.636 44.8046ZM218.012 38.7C218.012 36.1647 218.885 34.1336 220.636 32.4954L218.587 30.3046C216.205 32.533 215.012 35.3686 215.012 38.7H218.012ZM220.619 32.5115C222.422 30.8772 224.837 30 228.012 30V27C224.253 27 221.068 28.0561 218.604 30.2885L220.619 32.5115ZM228.012 30C231.112 30 233.452 30.8726 235.187 32.4954L237.236 30.3046C234.838 28.0607 231.711 27 228.012 27V30ZM235.204 32.5115C237.017 34.1544 237.912 36.181 237.912 38.7H240.912C240.912 35.3523 239.673 32.5122 237.219 30.2885L235.204 32.5115ZM237.912 38.7C237.912 41.1411 237.026 43.1381 235.204 44.7885L237.219 47.0115C239.665 44.7952 240.912 41.9922 240.912 38.7H237.912ZM235.206 44.7868C233.473 46.3523 231.126 47.2 228.012 47.2V50.2C231.697 50.2 234.817 49.181 237.217 47.0131L235.206 44.7868ZM236.212 53.9V110H239.212V53.9H236.212ZM237.712 108.5H218.112V111.5H237.712V108.5ZM219.612 110V53.9H216.612V110H219.612ZM218.112 55.4H237.712V52.4H218.112V55.4ZM259.873 107.2L259.171 108.525L259.179 108.53L259.873 107.2ZM249.473 97.2L250.768 96.443L249.473 97.2ZM249.473 66.7L248.187 65.9283L248.183 65.9356L248.178 65.943L249.473 66.7ZM259.973 56.7L259.279 55.3704L259.271 55.3748L259.973 56.7ZM290.073 56.7L289.371 58.0252L289.379 58.0295L290.073 56.7ZM300.573 66.7L299.279 67.457L299.283 67.4644L299.287 67.4717L300.573 66.7ZM300.573 97.2L299.282 96.4369L299.279 96.443L300.573 97.2ZM290.073 107.2L289.379 105.87L290.073 107.2ZM281.773 90.7L280.66 89.6946L280.659 89.6966L281.773 90.7ZM281.773 73.2L280.659 74.2034L280.668 74.2135L280.677 74.2235L281.773 73.2ZM268.273 90.7L267.14 91.6824L268.273 90.7ZM274.973 109.2C269.588 109.2 264.797 108.08 260.568 105.87L259.179 108.53C263.883 110.987 269.159 112.2 274.973 112.2V109.2ZM260.576 105.875C256.425 103.673 253.162 100.538 250.768 96.443L248.178 97.957C250.851 102.529 254.522 106.06 259.171 108.525L260.576 105.875ZM250.768 96.443C248.391 92.3755 247.173 87.546 247.173 81.9H244.173C244.173 87.9874 245.49 93.3578 248.178 97.957L250.768 96.443ZM247.173 81.9C247.173 76.3241 248.389 71.527 250.768 67.457L248.178 65.943C245.491 70.5397 244.173 75.8759 244.173 81.9H247.173ZM250.76 67.4717C253.221 63.3689 256.521 60.2286 260.676 58.0252L259.271 55.3748C254.626 57.838 250.926 61.3644 248.187 65.9283L250.76 67.4717ZM260.668 58.0295C264.897 55.8202 269.688 54.7 275.073 54.7V51.7C269.259 51.7 263.983 52.9131 259.279 55.3705L260.668 58.0295ZM275.073 54.7C280.459 54.7 285.213 55.8203 289.371 58.0252L290.776 55.3748C286.134 52.913 280.888 51.7 275.073 51.7V54.7ZM289.379 58.0295C293.597 60.2328 296.888 63.3682 299.279 67.457L301.868 65.943C299.192 61.3651 295.484 57.8338 290.768 55.3705L289.379 58.0295ZM299.287 67.4717C301.728 71.5392 302.973 76.331 302.973 81.9H305.973C305.973 75.869 304.619 70.5274 301.86 65.9283L299.287 67.4717ZM302.973 81.9C302.973 87.4685 301.728 92.2979 299.282 96.4369L301.865 97.9631C304.619 93.3021 305.973 87.9315 305.973 81.9H302.973ZM299.279 96.443C296.888 100.532 293.597 103.667 289.379 105.87L290.768 108.53C295.484 106.066 299.192 102.535 301.868 97.957L299.279 96.443ZM289.379 105.87C285.15 108.08 280.359 109.2 274.973 109.2V112.2C280.788 112.2 286.064 110.987 290.768 108.53L289.379 105.87ZM274.973 95.2C278.124 95.2 280.799 94.0252 282.888 91.7034L280.659 89.6966C279.148 91.3748 277.289 92.2 274.973 92.2V95.2ZM282.887 91.7054C285.081 89.2762 286.073 85.9348 286.073 81.9H283.073C283.073 85.4652 282.199 87.9905 280.66 89.6946L282.887 91.7054ZM286.073 81.9C286.073 77.8689 285.082 74.5468 282.87 72.1765L280.677 74.2235C282.198 75.8532 283.073 78.331 283.073 81.9H286.073ZM282.888 72.1965C280.807 69.8837 278.17 68.7 275.073 68.7V71.7C277.311 71.7 279.14 72.5163 280.659 74.2034L282.888 72.1965ZM275.073 68.7C271.977 68.7 269.34 69.8837 267.258 72.1965L269.488 74.2034C271.007 72.5163 272.836 71.7 275.073 71.7V68.7ZM267.258 72.1965C265.125 74.5673 264.173 77.8816 264.173 81.9H267.173C267.173 78.3184 268.022 75.8327 269.488 74.2034L267.258 72.1965ZM264.173 81.9C264.173 85.9648 265.082 89.3077 267.14 91.6824L269.407 89.7176C267.998 88.0922 267.173 85.5685 267.173 81.9H264.173ZM267.14 91.6824C269.169 94.0233 271.821 95.2 274.973 95.2V92.2C272.659 92.2 270.845 91.3767 269.407 89.7176L267.14 91.6824ZM355.748 67.2H357.248V65.7H355.748V67.2ZM355.748 83.5V85H357.248V83.5H355.748ZM310.448 83.5H308.948V85H310.448V83.5ZM310.448 67.2V65.7H308.948V67.2H310.448ZM354.248 67.2V83.5H357.248V67.2H354.248ZM355.748 82H310.448V85H355.748V82ZM311.948 83.5V67.2H308.948V83.5H311.948ZM310.448 68.7H355.748V65.7H310.448V68.7ZM400.56 70.2V71.7H402.06V70.2H400.56ZM391.76 70.2V68.7H390.26V70.2H391.76ZM391.76 110V111.5H393.26V110H391.76ZM372.06 110H370.56V111.5H372.06V110ZM372.06 70.2H373.56V68.7H372.06V70.2ZM365.96 70.2H364.46V71.7H365.96V70.2ZM365.96 53.9V52.4H364.46V53.9H365.96ZM372.06 53.9V55.4H373.56V53.9H372.06ZM378.36 36.9L379.367 38.0123L379.367 38.0115L378.36 36.9ZM400.36 31.2H401.86V29.8109L400.475 29.7044L400.36 31.2ZM400.36 47.9L400.174 49.3884L401.86 49.5992V47.9H400.36ZM393.46 49.3L394.484 50.3966L394.503 50.3789L394.521 50.3607L393.46 49.3ZM391.76 53.9L390.263 53.8064L390.163 55.4H391.76V53.9ZM400.56 53.9H402.06V52.4H400.56V53.9ZM400.56 68.7H391.76V71.7H400.56V68.7ZM390.26 70.2V110H393.26V70.2H390.26ZM391.76 108.5H372.06V111.5H391.76V108.5ZM373.56 110V70.2H370.56V110H373.56ZM372.06 68.7H365.96V71.7H372.06V68.7ZM367.46 70.2V53.9H364.46V70.2H367.46ZM365.96 55.4H372.06V52.4H365.96V55.4ZM373.56 53.9V53.4H370.56V53.9H373.56ZM373.56 53.4C373.56 46.5012 375.562 41.4549 379.367 38.0123L377.354 35.7877C372.759 39.9451 370.56 45.8988 370.56 53.4H373.56ZM379.367 38.0115C383.269 34.4759 388.958 32.6 396.66 32.6V29.6C388.496 29.6 381.985 31.5908 377.353 35.7885L379.367 38.0115ZM396.66 32.6C398.248 32.6 399.436 32.6333 400.245 32.6956L400.475 29.7044C399.551 29.6333 398.272 29.6 396.66 29.6V32.6ZM398.86 31.2V47.9H401.86V31.2H398.86ZM400.546 46.4116C399.922 46.3336 399.118 46.3 398.16 46.3V49.3C399.069 49.3 399.731 49.3331 400.174 49.3884L400.546 46.4116ZM398.16 46.3C395.828 46.3 393.796 46.8429 392.4 48.2393L394.521 50.3607C395.124 49.7571 396.225 49.3 398.16 49.3V46.3ZM392.437 48.2034C391.034 49.5121 390.407 51.498 390.263 53.8064L393.257 53.9936C393.38 52.0353 393.886 50.9545 394.484 50.3966L392.437 48.2034ZM391.76 55.4H400.56V52.4H391.76V55.4ZM399.06 53.9V70.2H402.06V53.9H399.06ZM409.065 45.9L408.04 46.9954L408.058 47.0124L408.077 47.0289L409.065 45.9ZM409.065 31.4L408.058 30.2885L408.049 30.2965L408.04 30.3046L409.065 31.4ZM425.665 31.4L424.64 32.4954L424.649 32.5035L424.658 32.5115L425.665 31.4ZM425.665 45.9L426.67 47.0132L426.672 47.0115L425.665 45.9ZM427.165 53.9H428.665V52.4H427.165V53.9ZM427.165 110V111.5H428.665V110H427.165ZM407.565 110H406.065V111.5H407.565V110ZM407.565 53.9V52.4H406.065V53.9H407.565ZM417.465 47.2C414.277 47.2 411.855 46.3482 410.053 44.7711L408.077 47.0289C410.541 49.1851 413.719 50.2 417.465 50.2V47.2ZM410.09 44.8046C408.331 43.159 407.465 41.1576 407.465 38.7H404.465C404.465 41.9757 405.666 44.7743 408.04 46.9954L410.09 44.8046ZM407.465 38.7C407.465 36.1647 408.338 34.1336 410.09 32.4954L408.04 30.3046C405.658 32.533 404.465 35.3686 404.465 38.7H407.465ZM410.072 32.5115C411.875 30.8772 414.29 30 417.465 30V27C413.706 27 410.521 28.0561 408.058 30.2885L410.072 32.5115ZM417.465 30C420.565 30 422.905 30.8726 424.64 32.4954L426.69 30.3046C424.291 28.0607 421.164 27 417.465 27V30ZM424.658 32.5115C426.47 34.1544 427.365 36.181 427.365 38.7H430.365C430.365 35.3523 429.126 32.5122 426.672 30.2885L424.658 32.5115ZM427.365 38.7C427.365 41.1411 426.479 43.1381 424.658 44.7885L426.672 47.0115C429.118 44.7952 430.365 41.9922 430.365 38.7H427.365ZM424.659 44.7868C422.926 46.3523 420.579 47.2 417.465 47.2V50.2C421.15 50.2 424.27 49.181 426.67 47.0131L424.659 44.7868ZM425.665 53.9V110H428.665V53.9H425.665ZM427.165 108.5H407.565V111.5H427.165V108.5ZM409.065 110V53.9H406.065V110H409.065ZM407.565 55.4H427.165V52.4H407.565V55.4ZM457.927 63.8H456.427V68.6295L459.163 64.6498L457.927 63.8ZM476.027 53.4H477.527V51.9H476.027V53.4ZM476.027 74.3V75.8H477.527V74.3H476.027ZM461.027 76.8L461.968 77.9676L461.027 76.8ZM457.927 110V111.5H459.427V110H457.927ZM438.327 110H436.827V111.5H438.327V110ZM438.327 53.9V52.4H436.827V53.9H438.327ZM457.927 53.9H459.427V52.4H457.927V53.9ZM459.163 64.6498C461.248 61.6164 463.759 59.2374 466.694 57.4886L465.159 54.9113C461.828 56.8959 459.005 59.5836 456.69 62.9502L459.163 64.6498ZM466.694 57.4886C469.599 55.7584 472.701 54.9 476.027 54.9V51.9C472.153 51.9 468.521 52.9083 465.159 54.9113L466.694 57.4886ZM474.527 53.4V74.3H477.527V53.4H474.527ZM476.027 72.8H470.527V75.8H476.027V72.8ZM470.527 72.8C466.111 72.8 462.538 73.6542 460.085 75.6324L461.968 77.9676C463.649 76.6124 466.409 75.8 470.527 75.8V72.8ZM460.085 75.6324C457.506 77.7123 456.427 81.1676 456.427 85.5H459.427C459.427 81.5657 460.414 79.221 461.968 77.9676L460.085 75.6324ZM456.427 85.5V110H459.427V85.5H456.427ZM457.927 108.5H438.327V111.5H457.927V108.5ZM439.827 110V53.9H436.827V110H439.827ZM438.327 55.4H457.927V52.4H438.327V55.4ZM456.427 53.9V63.8H459.427V53.9H456.427ZM493.353 108.2L492.748 109.573L492.762 109.579L492.776 109.585L493.353 108.2ZM483.953 101.2L482.756 102.104L482.768 102.119L482.779 102.134L483.953 101.2ZM480.153 91.1V89.6H478.542L478.657 91.2069L480.153 91.1ZM499.153 91.1L500.637 90.8802L500.447 89.6H499.153V91.1ZM509.753 90.1L510.351 88.7244L509.753 90.1ZM502.153 87.9L502.484 86.437L502.466 86.4328L502.447 86.4291L502.153 87.9ZM492.153 85.2L491.626 86.6045L492.153 85.2ZM485.153 80.3L484.012 81.2734L484.02 81.283L484.028 81.2924L485.153 80.3ZM484.953 62.1L486.196 62.9392L486.201 62.9321L486.206 62.925L484.953 62.1ZM492.853 55.6L492.234 54.2335L492.225 54.2381L492.853 55.6ZM522.853 58.6L521.877 59.7389L522.853 58.6ZM530.153 72.8V74.3H531.833L531.644 72.6306L530.153 72.8ZM512.453 72.8L510.978 73.0731L511.205 74.3H512.453V72.8ZM510.053 68.7L509.093 69.8523L509.127 69.881L509.163 69.9076L510.053 68.7ZM501.453 68.1L500.599 66.8667L500.576 66.8829L500.553 66.9L501.453 68.1ZM502.553 73.7L501.906 75.0532L501.93 75.0648L501.955 75.0756L502.553 73.7ZM509.953 75.8L509.637 77.2663L509.64 77.2671L509.953 75.8ZM520.053 78.7L519.496 80.0928L519.508 80.0974L520.053 78.7ZM527.153 83.9L526.001 84.8603L526.015 84.8776L526.03 84.8946L527.153 83.9ZM527.353 102.3L526.149 101.405L526.142 101.415L526.135 101.425L527.353 102.3ZM519.253 108.5L519.838 109.882L519.85 109.876L519.253 108.5ZM506.953 109.2C502.051 109.2 497.719 108.394 493.93 106.815L492.776 109.585C496.987 111.339 501.721 112.2 506.953 112.2V109.2ZM493.958 106.827C490.214 105.178 487.288 102.983 485.127 100.266L482.779 102.134C485.285 105.284 488.625 107.756 492.748 109.573L493.958 106.827ZM485.15 100.296C483.057 97.5259 481.895 94.4359 481.649 90.9931L478.657 91.2069C478.944 95.2308 480.316 98.8741 482.756 102.104L485.15 100.296ZM480.153 92.6H499.153V89.6H480.153V92.6ZM497.669 91.3198C497.992 93.4967 499.029 95.2691 500.781 96.5206L502.525 94.0794C501.477 93.3309 500.848 92.3033 500.637 90.8802L497.669 91.3198ZM500.781 96.5206C502.483 97.7364 504.538 98.3 506.853 98.3V95.3C505.035 95.3 503.623 94.8636 502.525 94.0794L500.781 96.5206ZM506.853 98.3C508.646 98.3 510.254 97.9281 511.525 97.0206L509.781 94.5794C509.185 95.0052 508.26 95.3 506.853 95.3V98.3ZM511.525 97.0206C512.818 96.0972 513.553 94.7923 513.553 93.2H510.553C510.553 93.741 510.355 94.1694 509.781 94.5794L511.525 97.0206ZM513.553 93.2C513.553 92.2081 513.275 91.2795 512.683 90.4812C512.103 89.6995 511.288 89.1319 510.351 88.7244L509.155 91.4756C509.751 91.7348 510.087 92.0171 510.273 92.2688C510.448 92.5038 510.553 92.7919 510.553 93.2H513.553ZM510.351 88.7244C508.68 87.9977 506.029 87.2396 502.484 86.437L501.822 89.363C505.344 90.1604 507.76 90.869 509.155 91.4756L510.351 88.7244ZM502.447 86.4291C498.496 85.6388 495.246 84.7579 492.68 83.7955L491.626 86.6045C494.393 87.6421 497.811 88.5612 501.859 89.3709L502.447 86.4291ZM492.68 83.7955C490.257 82.8871 488.126 81.4016 486.278 79.3076L484.028 81.2924C486.181 83.7317 488.716 85.5129 491.626 86.6045L492.68 83.7955ZM486.294 79.3266C484.654 77.4038 483.753 74.7182 483.753 71.1H480.753C480.753 75.2152 481.785 78.6629 484.012 81.2734L486.294 79.3266ZM483.753 71.1C483.753 68.0543 484.57 65.3487 486.196 62.9392L483.71 61.2608C481.736 64.1847 480.753 67.479 480.753 71.1H483.753ZM486.206 62.925C487.828 60.462 490.226 58.4645 493.482 56.9619L492.225 54.2381C488.547 55.9355 485.678 58.2713 483.7 61.275L486.206 62.925ZM493.472 56.9664C496.766 55.475 500.777 54.7 505.553 54.7V51.7C500.462 51.7 496.007 52.525 492.234 54.2336L493.472 56.9664ZM505.553 54.7C512.646 54.7 518.027 56.4387 521.877 59.7389L523.829 57.4611C519.28 53.5613 513.126 51.7 505.553 51.7V54.7ZM521.877 59.7389C525.769 63.0746 528.036 67.4514 528.663 72.9694L531.644 72.6306C530.937 66.4152 528.338 61.3254 523.829 57.4611L521.877 59.7389ZM530.153 71.3H512.453V74.3H530.153V71.3ZM513.928 72.5269C513.537 70.4179 512.566 68.6883 510.943 67.4924L509.163 69.9076C510.074 70.5784 510.702 71.5821 510.978 73.0731L513.928 72.5269ZM511.013 67.5477C509.467 66.2593 507.456 65.7 505.153 65.7V68.7C506.983 68.7 508.239 69.1407 509.093 69.8523L511.013 67.5477ZM505.153 65.7C503.396 65.7 501.816 66.0244 500.599 66.8667L502.307 69.3333C502.824 68.9756 503.71 68.7 505.153 68.7V65.7ZM500.553 66.9C499.347 67.8046 498.753 69.0978 498.753 70.6H501.753C501.753 69.9688 501.959 69.5954 502.353 69.3L500.553 66.9ZM498.753 70.6C498.753 72.6796 500.023 74.1527 501.906 75.0532L503.2 72.3468C502.016 71.7806 501.753 71.1871 501.753 70.6H498.753ZM501.955 75.0756C503.632 75.8047 506.22 76.5294 509.637 77.2663L510.269 74.3337C506.886 73.6039 504.541 72.9286 503.151 72.3244L501.955 75.0756ZM509.64 77.2671C513.657 78.1231 516.935 79.0683 519.496 80.0927L520.61 77.3073C517.838 76.1983 514.382 75.2103 510.266 74.3329L509.64 77.2671ZM519.508 80.0974C521.99 81.066 524.152 82.6419 526.001 84.8603L528.305 82.9397C526.154 80.3581 523.583 78.4674 520.598 77.3026L519.508 80.0974ZM526.03 84.8946C527.788 86.8787 528.753 89.6856 528.753 93.5H531.753C531.753 89.181 530.652 85.588 528.276 82.9054L526.03 84.8946ZM528.753 93.5C528.753 96.4471 527.889 99.066 526.149 101.405L528.557 103.195C530.684 100.334 531.753 97.0863 531.753 93.5H528.753ZM526.135 101.425C524.455 103.764 521.991 105.677 518.656 107.124L519.85 109.876C523.581 108.257 526.518 106.036 528.572 103.175L526.135 101.425ZM518.669 107.119C515.428 108.49 511.536 109.2 506.953 109.2V112.2C511.837 112.2 516.145 111.444 519.838 109.881L518.669 107.119ZM572.989 93.3H574.489V91.8H572.989V93.3ZM572.989 110V111.5H574.489V110H572.989ZM542.989 70.2H544.489V68.7H542.989V70.2ZM536.089 70.2H534.589V71.7H536.089V70.2ZM536.089 53.9V52.4H534.589V53.9H536.089ZM542.989 53.9V55.4H544.489V53.9H542.989ZM542.989 40.3V38.8H541.489V40.3H542.989ZM562.689 40.3H564.189V38.8H562.689V40.3ZM562.689 53.9H561.189V55.4H562.689V53.9ZM572.889 53.9H574.389V52.4H572.889V53.9ZM572.889 70.2V71.7H574.389V70.2H572.889ZM562.689 70.2V68.7H561.189V70.2H562.689ZM563.689 92.3L562.628 93.3607L562.654 93.3859L562.68 93.4099L563.689 92.3ZM571.489 93.3V110H574.489V93.3H571.489ZM572.989 108.5H564.489V111.5H572.989V108.5ZM564.489 108.5C557.55 108.5 552.622 106.782 549.42 103.609C546.22 100.439 544.489 95.5652 544.489 88.7H541.489C541.489 96.0348 543.341 101.811 547.308 105.741C551.273 109.668 557.095 111.5 564.489 111.5V108.5ZM544.489 88.7V70.2H541.489V88.7H544.489ZM542.989 68.7H536.089V71.7H542.989V68.7ZM537.589 70.2V53.9H534.589V70.2H537.589ZM536.089 55.4H542.989V52.4H536.089V55.4ZM544.489 53.9V40.3H541.489V53.9H544.489ZM542.989 41.8H562.689V38.8H542.989V41.8ZM561.189 40.3V53.9H564.189V40.3H561.189ZM562.689 55.4H572.889V52.4H562.689V55.4ZM571.389 53.9V70.2H574.389V53.9H571.389ZM572.889 68.7H562.689V71.7H572.889V68.7ZM561.189 70.2V89H564.189V70.2H561.189ZM561.189 89C561.189 90.693 561.548 92.2801 562.628 93.3607L564.75 91.2393C564.497 90.9866 564.189 90.3736 564.189 89H561.189ZM562.68 93.4099C563.825 94.4508 565.486 94.8 567.289 94.8V91.8C565.759 91.8 565.02 91.4826 564.698 91.1901L562.68 93.4099ZM567.289 94.8H572.989V91.8H567.289V94.8Z" fill="#0D0D0D" mask="url(#path-1-outside-1_1124_1779)"/>
<path d="M597.5 75C597.5 50.6995 617.199 31 641.5 31H812.5C836.801 31 856.5 50.6995 856.5 75C856.5 99.3005 836.801 119 812.5 119H641.5C617.199 119 597.5 99.3005 597.5 75Z" fill="white" stroke="#0D0D0D" stroke-width="2"/>
<circle cx="641.5" cy="75" r="23" fill="#0D0D0D" stroke="#0D0D0D" stroke-width="2"/>
<path d="M647.5 74V73H646.5V72H644.5V70H642.5V68H640.5V66H637.5V84H640.5V83V82H642.5V80H644.5V78H646.5V77H647.5V76H648.5V74H647.5Z" fill="white"/>
<rect x="689.5" y="63" width="3" height="25" rx="1.5" fill="black"/>
<rect x="695.5" y="54" width="3" height="43" rx="1.5" fill="black"/>
<rect x="701.5" y="63" width="3" height="25" rx="1.5" fill="black"/>
<rect x="707.5" y="66" width="3" height="19" rx="1.5" fill="black"/>
<rect x="683.5" y="66" width="3" height="19" rx="1.5" fill="black"/>
<rect x="677.5" y="66" width="3" height="19" rx="1.5" fill="black"/>
<rect x="725.5" y="52" width="3" height="47" rx="1.5" fill="black"/>
<rect x="731.5" y="59" width="3" height="33" rx="1.5" fill="black"/>
<rect x="737.5" y="63" width="3" height="25" rx="1.5" fill="black"/>
<rect x="743.5" y="60" width="3" height="31" rx="1.5" fill="black"/>
<rect x="749.5" y="66" width="3" height="19" rx="1.5" fill="black"/>
<rect x="755.5" y="63" width="3" height="25" rx="1.5" fill="black"/>
<rect x="761.5" y="69" width="3" height="13" rx="1.5" fill="black"/>
<rect x="767.5" y="66" width="3" height="19" rx="1.5" fill="black"/>
<rect x="773.5" y="63" width="3" height="25" rx="1.5" fill="black"/>
<rect x="779.5" y="68" width="3" height="15" rx="1.5" fill="black"/>
<rect x="785.5" y="65" width="3" height="21" rx="1.5" fill="black"/>
<rect x="791.5" y="69" width="3" height="13" rx="1.5" fill="black"/>
<rect x="797.5" y="71" width="3" height="9" rx="1.5" fill="black"/>
<rect x="803.5" y="66" width="3" height="19" rx="1.5" fill="black"/>
<rect x="809.5" y="70" width="3" height="11" rx="1.5" fill="black"/>
<rect x="815.5" y="60" width="3" height="31" rx="1.5" fill="black"/>
<rect x="821.5" y="66" width="3" height="19" rx="1.5" fill="black"/>
<rect x="827.5" y="68" width="3" height="15" rx="1.5" fill="black"/>
<rect x="833.5" y="72" width="3" height="7" rx="1.5" fill="black"/>
<rect x="713.5" y="63" width="3" height="25" rx="1.5" fill="black"/>
<rect x="719.5" y="57" width="3" height="37" rx="1.5" fill="black"/>
<path d="M928.1 73.8C932.233 74.7333 935.5 76.8 937.9 80C940.367 83.1333 941.6 86.7333 941.6 90.8C941.6 96.8 939.533 101.5 935.4 104.9C931.267 108.3 925.467 110 918 110H883.1V39.5H916.9C924.1 39.5 929.733 41.1 933.8 44.3C937.933 47.5 940 52 940 57.8C940 61.9333 938.9 65.4 936.7 68.2C934.567 70.9333 931.7 72.8 928.1 73.8ZM902.7 67.5H912.6C917.533 67.5 920 65.4667 920 61.4C920 57.2 917.533 55.1 912.6 55.1H902.7V67.5ZM914.1 94.2C919.033 94.2 921.5 92.1333 921.5 88C921.5 85.8667 920.833 84.2333 919.5 83.1C918.233 81.9667 916.4 81.4 914 81.4H902.7V94.2H914.1ZM960.09 48.7C956.623 48.7 953.823 47.7667 951.69 45.9C949.623 43.9667 948.59 41.5667 948.59 38.7C948.59 35.7667 949.623 33.3333 951.69 31.4C953.823 29.4667 956.623 28.5 960.09 28.5C963.49 28.5 966.223 29.4667 968.29 31.4C970.423 33.3333 971.49 35.7667 971.49 38.7C971.49 41.5667 970.423 43.9667 968.29 45.9C966.223 47.7667 963.49 48.7 960.09 48.7ZM969.79 53.9V110H950.19V53.9H969.79ZM1014.05 93.3V110H1005.55C991.218 110 984.052 102.9 984.052 88.7V70.2H977.152V53.9H984.052V40.3H1003.75V53.9H1013.95V70.2H1003.75V89C1003.75 90.5333 1004.08 91.6333 1004.75 92.3C1005.48 92.9667 1006.68 93.3 1008.35 93.3H1014.05ZM1019.84 81.9C1019.84 76.1 1021.04 71.0333 1023.44 66.7C1025.84 62.3667 1029.17 59.0333 1033.44 56.7C1037.77 54.3667 1042.71 53.2 1048.24 53.2C1055.37 53.2 1061.37 55.1667 1066.24 59.1C1071.11 62.9667 1074.24 68.4 1075.64 75.4H1054.84C1053.64 71.7333 1051.31 69.9 1047.84 69.9C1045.37 69.9 1043.41 70.9333 1041.94 73C1040.54 75 1039.84 77.9667 1039.84 81.9C1039.84 85.8333 1040.54 88.8333 1041.94 90.9C1043.41 92.9667 1045.37 94 1047.84 94C1051.37 94 1053.71 92.1667 1054.84 88.5H1075.64C1074.24 95.4333 1071.11 100.867 1066.24 104.8C1061.37 108.733 1055.37 110.7 1048.24 110.7C1042.71 110.7 1037.77 109.533 1033.44 107.2C1029.17 104.867 1025.84 101.533 1023.44 97.2C1021.04 92.8667 1019.84 87.7667 1019.84 81.9ZM1109.88 110.7C1104.28 110.7 1099.25 109.533 1094.78 107.2C1090.38 104.867 1086.92 101.533 1084.38 97.2C1081.85 92.8667 1080.58 87.7667 1080.58 81.9C1080.58 76.1 1081.85 71.0333 1084.38 66.7C1086.98 62.3667 1090.48 59.0333 1094.88 56.7C1099.35 54.3667 1104.38 53.2 1109.98 53.2C1115.58 53.2 1120.58 54.3667 1124.98 56.7C1129.45 59.0333 1132.95 62.3667 1135.48 66.7C1138.08 71.0333 1139.38 76.1 1139.38 81.9C1139.38 87.7 1138.08 92.8 1135.48 97.2C1132.95 101.533 1129.45 104.867 1124.98 107.2C1120.52 109.533 1115.48 110.7 1109.88 110.7ZM1109.88 93.7C1112.62 93.7 1114.88 92.7 1116.68 90.7C1118.55 88.6333 1119.48 85.7 1119.48 81.9C1119.48 78.1 1118.55 75.2 1116.68 73.2C1114.88 71.2 1112.65 70.2 1109.98 70.2C1107.32 70.2 1105.08 71.2 1103.28 73.2C1101.48 75.2 1100.58 78.1 1100.58 81.9C1100.58 85.7667 1101.45 88.7 1103.18 90.7C1104.92 92.7 1107.15 93.7 1109.88 93.7ZM1157.26 48.7C1153.79 48.7 1150.99 47.7667 1148.86 45.9C1146.79 43.9667 1145.76 41.5667 1145.76 38.7C1145.76 35.7667 1146.79 33.3333 1148.86 31.4C1150.99 29.4667 1153.79 28.5 1157.26 28.5C1160.66 28.5 1163.39 29.4667 1165.46 31.4C1167.59 33.3333 1168.66 35.7667 1168.66 38.7C1168.66 41.5667 1167.59 43.9667 1165.46 45.9C1163.39 47.7667 1160.66 48.7 1157.26 48.7ZM1166.96 53.9V110H1147.36V53.9H1166.96ZM1214.82 53.4C1221.29 53.4 1226.42 55.5667 1230.22 59.9C1234.02 64.1667 1235.92 69.9667 1235.92 77.3V110H1216.32V79.9C1216.32 76.7 1215.49 74.2 1213.82 72.4C1212.15 70.5333 1209.92 69.6 1207.12 69.6C1204.19 69.6 1201.89 70.5333 1200.22 72.4C1198.55 74.2 1197.72 76.7 1197.72 79.9V110H1178.12V53.9H1197.72V61.9C1199.45 59.3667 1201.79 57.3333 1204.72 55.8C1207.65 54.2 1211.02 53.4 1214.82 53.4Z" fill="#0D0D0D"/>
<rect x="1262.5" y="31" width="88" height="88" rx="44" fill="#FFE832" stroke="#0D0D0D" stroke-width="2"/>
<path fill-rule="evenodd" clip-rule="evenodd" d="M1297.5 48V54H1284.5V62H1291.5V88H1284.5V96H1297.5V102H1303.5V96H1309.5V102H1315.5V96H1327.5V78H1321.5V72H1327.5V54L1315.5 54V48H1309.5V54L1303.5 54V48H1297.5ZM1315.5 78H1303.5V88H1315.5V78ZM1315.5 62V72H1303.5V62H1315.5Z" fill="#0D0D0D"/>
<mask id="path-36-outside-2_1124_1779" maskUnits="userSpaceOnUse" x="1375.5" y="34" width="407" height="79" fill="black">
<rect fill="white" x="1375.5" y="34" width="407" height="79"/>
<path d="M1396.7 36V110H1377.1V36H1396.7ZM1461.46 81.3C1461.46 82.8333 1461.36 84.3667 1461.16 85.9H1424.06C1424.26 88.9667 1425.1 91.2667 1426.56 92.8C1428.1 94.2667 1430.03 95 1432.36 95C1435.63 95 1437.96 93.5333 1439.36 90.6H1460.26C1459.4 94.4667 1457.7 97.9333 1455.16 101C1452.7 104 1449.56 106.367 1445.76 108.1C1441.96 109.833 1437.76 110.7 1433.16 110.7C1427.63 110.7 1422.7 109.533 1418.36 107.2C1414.1 104.867 1410.73 101.533 1408.26 97.2C1405.86 92.8667 1404.66 87.7667 1404.66 81.9C1404.66 76.0333 1405.86 70.9667 1408.26 66.7C1410.66 62.3667 1414 59.0333 1418.26 56.7C1422.6 54.3667 1427.56 53.2 1433.16 53.2C1438.7 53.2 1443.6 54.3333 1447.86 56.6C1452.13 58.8667 1455.46 62.1333 1457.86 66.4C1460.26 70.6 1461.46 75.5667 1461.46 81.3ZM1441.46 76.4C1441.46 74 1440.66 72.1333 1439.06 70.8C1437.46 69.4 1435.46 68.7 1433.06 68.7C1430.66 68.7 1428.7 69.3667 1427.16 70.7C1425.63 71.9667 1424.63 73.8667 1424.16 76.4H1441.46ZM1502.58 93.3V110H1494.08C1479.75 110 1472.58 102.9 1472.58 88.7V70.2H1465.68V53.9H1472.58V40.3H1492.28V53.9H1502.48V70.2H1492.28V89C1492.28 90.5333 1492.62 91.6333 1493.28 92.3C1494.02 92.9667 1495.22 93.3 1496.88 93.3H1502.58ZM1516.37 39.5H1536.17L1524.67 67.7H1511.57L1516.37 39.5ZM1570.04 110.7C1564.98 110.7 1560.44 109.867 1556.44 108.2C1552.51 106.467 1549.38 104.133 1547.04 101.2C1544.78 98.2 1543.51 94.8333 1543.24 91.1H1562.24C1562.51 92.9 1563.34 94.3 1564.74 95.3C1566.14 96.3 1567.88 96.8 1569.94 96.8C1571.54 96.8 1572.81 96.4667 1573.74 95.8C1574.68 95.1333 1575.14 94.2667 1575.14 93.2C1575.14 91.8 1574.38 90.7667 1572.84 90.1C1571.31 89.4333 1568.78 88.7 1565.24 87.9C1561.24 87.1 1557.91 86.2 1555.24 85.2C1552.58 84.2 1550.24 82.5667 1548.24 80.3C1546.31 78.0333 1545.34 74.9667 1545.34 71.1C1545.34 67.7667 1546.24 64.7667 1548.04 62.1C1549.84 59.3667 1552.48 57.2 1555.94 55.6C1559.48 54 1563.71 53.2 1568.64 53.2C1575.98 53.2 1581.74 55 1585.94 58.6C1590.14 62.2 1592.58 66.9333 1593.24 72.8H1575.54C1575.21 71 1574.41 69.6333 1573.14 68.7C1571.94 67.7 1570.31 67.2 1568.24 67.2C1566.64 67.2 1565.41 67.5 1564.54 68.1C1563.74 68.7 1563.34 69.5333 1563.34 70.6C1563.34 71.9333 1564.11 72.9667 1565.64 73.7C1567.18 74.3667 1569.64 75.0667 1573.04 75.8C1577.11 76.6667 1580.48 77.6333 1583.14 78.7C1585.88 79.7667 1588.24 81.5 1590.24 83.9C1592.31 86.2333 1593.34 89.4333 1593.34 93.5C1593.34 96.7667 1592.38 99.7 1590.44 102.3C1588.58 104.9 1585.88 106.967 1582.34 108.5C1578.88 109.967 1574.78 110.7 1570.04 110.7ZM1641.72 63.8C1643.92 60.6 1646.59 58.0667 1649.72 56.2C1652.85 54.3333 1656.22 53.4 1659.82 53.4V74.3H1654.32C1650.05 74.3 1646.89 75.1333 1644.82 76.8C1642.75 78.4667 1641.72 81.3667 1641.72 85.5V110H1622.12V53.9H1641.72V63.8ZM1692.95 110.7C1687.35 110.7 1682.31 109.533 1677.85 107.2C1673.45 104.867 1669.98 101.533 1667.45 97.2C1664.91 92.8667 1663.65 87.7667 1663.65 81.9C1663.65 76.1 1664.91 71.0333 1667.45 66.7C1670.05 62.3667 1673.55 59.0333 1677.95 56.7C1682.41 54.3667 1687.45 53.2 1693.05 53.2C1698.65 53.2 1703.65 54.3667 1708.05 56.7C1712.51 59.0333 1716.01 62.3667 1718.55 66.7C1721.15 71.0333 1722.45 76.1 1722.45 81.9C1722.45 87.7 1721.15 92.8 1718.55 97.2C1716.01 101.533 1712.51 104.867 1708.05 107.2C1703.58 109.533 1698.55 110.7 1692.95 110.7ZM1692.95 93.7C1695.68 93.7 1697.95 92.7 1699.75 90.7C1701.61 88.6333 1702.55 85.7 1702.55 81.9C1702.55 78.1 1701.61 75.2 1699.75 73.2C1697.95 71.2 1695.71 70.2 1693.05 70.2C1690.38 70.2 1688.15 71.2 1686.35 73.2C1684.55 75.2 1683.65 78.1 1683.65 81.9C1683.65 85.7667 1684.51 88.7 1686.25 90.7C1687.98 92.7 1690.21 93.7 1692.95 93.7ZM1750.02 36V110H1730.42V36H1750.02ZM1780.78 36V110H1761.18V36H1780.78Z"/>
</mask>
<path d="M1396.7 36H1398.2V34.5H1396.7V36ZM1396.7 110V111.5H1398.2V110H1396.7ZM1377.1 110H1375.6V111.5H1377.1V110ZM1377.1 36V34.5H1375.6V36H1377.1ZM1395.2 36V110H1398.2V36H1395.2ZM1396.7 108.5H1377.1V111.5H1396.7V108.5ZM1378.6 110V36H1375.6V110H1378.6ZM1377.1 37.5H1396.7V34.5H1377.1V37.5ZM1461.16 85.9V87.4H1462.48L1462.65 86.094L1461.16 85.9ZM1424.06 85.9V84.4H1422.46L1422.56 85.9976L1424.06 85.9ZM1426.56 92.8L1425.48 93.8368L1425.5 93.8609L1425.52 93.884L1426.56 92.8ZM1439.36 90.6V89.1H1438.42L1438.01 89.9539L1439.36 90.6ZM1460.26 90.6L1461.73 90.9281L1462.14 89.1H1460.26V90.6ZM1455.16 101L1454.01 100.045L1454 100.047L1455.16 101ZM1445.76 108.1L1446.38 109.465L1445.76 108.1ZM1418.36 107.2L1417.64 108.516L1417.65 108.521L1418.36 107.2ZM1408.26 97.2L1406.95 97.9268L1406.95 97.9344L1406.96 97.942L1408.26 97.2ZM1408.26 66.7L1409.57 67.4354L1409.57 67.4268L1408.26 66.7ZM1418.26 56.7L1417.55 55.3793L1417.54 55.3839L1418.26 56.7ZM1447.86 56.6L1448.57 55.2753L1447.86 56.6ZM1457.86 66.4L1456.55 67.1354L1456.56 67.1442L1457.86 66.4ZM1441.46 76.4V77.9H1442.96V76.4H1441.46ZM1439.06 70.8L1438.07 71.9289L1438.09 71.9408L1438.1 71.9523L1439.06 70.8ZM1427.16 70.7L1428.12 71.8564L1428.13 71.8444L1428.15 71.8319L1427.16 70.7ZM1424.16 76.4L1422.69 76.1283L1422.36 77.9H1424.16V76.4ZM1459.96 81.3C1459.96 82.7679 1459.87 84.2364 1459.67 85.706L1462.65 86.094C1462.86 84.4969 1462.96 82.8988 1462.96 81.3H1459.96ZM1461.16 84.4H1424.06V87.4H1461.16V84.4ZM1422.56 85.9976C1422.78 89.262 1423.68 91.9558 1425.48 93.8368L1427.65 91.7632C1426.51 90.5776 1425.75 88.6713 1425.56 85.8024L1422.56 85.9976ZM1425.52 93.884C1427.37 95.6453 1429.68 96.5 1432.36 96.5V93.5C1430.37 93.5 1428.82 92.888 1427.6 91.716L1425.52 93.884ZM1432.36 96.5C1434.22 96.5 1435.91 96.0795 1437.36 95.17C1438.81 94.2601 1439.92 92.9224 1440.72 91.2461L1438.01 89.9539C1437.41 91.2109 1436.65 92.0732 1435.76 92.63C1434.88 93.1872 1433.77 93.5 1432.36 93.5V96.5ZM1439.36 92.1H1460.26V89.1H1439.36V92.1ZM1458.8 90.2719C1457.98 93.9073 1456.39 97.1593 1454.01 100.045L1456.32 101.955C1459 98.7074 1460.81 95.026 1461.73 90.9281L1458.8 90.2719ZM1454 100.047C1451.69 102.858 1448.75 105.089 1445.14 106.735L1446.38 109.465C1450.38 107.644 1453.7 105.142 1456.32 101.953L1454 100.047ZM1445.14 106.735C1441.55 108.371 1437.57 109.2 1433.16 109.2V112.2C1437.95 112.2 1442.37 111.296 1446.38 109.465L1445.14 106.735ZM1433.16 109.2C1427.85 109.2 1423.16 108.081 1419.07 105.879L1417.65 108.521C1422.23 110.986 1427.41 112.2 1433.16 112.2V109.2ZM1419.08 105.884C1415.07 103.688 1411.9 100.556 1409.57 96.458L1406.96 97.942C1409.56 102.511 1413.12 106.046 1417.64 108.516L1419.08 105.884ZM1409.57 96.4733C1407.32 92.4001 1406.16 87.5594 1406.16 81.9H1403.16C1403.16 87.974 1404.41 93.3333 1406.95 97.9268L1409.57 96.4733ZM1406.16 81.9C1406.16 76.2399 1407.32 71.4369 1409.57 67.4354L1406.95 65.9646C1404.41 70.4965 1403.16 75.8268 1403.16 81.9H1406.16ZM1409.57 67.4268C1411.84 63.3371 1414.97 60.2104 1418.98 58.0161L1417.54 55.3839C1413.02 57.8563 1409.48 61.3962 1406.95 65.9732L1409.57 67.4268ZM1418.97 58.0207C1423.06 55.8204 1427.78 54.7 1433.16 54.7V51.7C1427.35 51.7 1422.13 52.9129 1417.55 55.3793L1418.97 58.0207ZM1433.16 54.7C1438.49 54.7 1443.14 55.7889 1447.16 57.9247L1448.57 55.2753C1444.05 52.8778 1438.9 51.7 1433.16 51.7V54.7ZM1447.16 57.9247C1451.17 60.0548 1454.29 63.1153 1456.55 67.1354L1459.17 65.6646C1456.63 61.1513 1453.09 57.6785 1448.57 55.2753L1447.16 57.9247ZM1456.56 67.1442C1458.81 71.0788 1459.96 75.7792 1459.96 81.3H1462.96C1462.96 75.3542 1461.72 70.1212 1459.16 65.6558L1456.56 67.1442ZM1442.96 76.4C1442.96 73.6306 1442.02 71.3112 1440.02 69.6477L1438.1 71.9523C1439.31 72.9555 1439.96 74.3694 1439.96 76.4H1442.96ZM1440.05 69.6711C1438.14 68.0009 1435.78 67.2 1433.06 67.2V70.2C1435.15 70.2 1436.78 70.7991 1438.07 71.9289L1440.05 69.6711ZM1433.06 67.2C1430.37 67.2 1428.03 67.9557 1426.18 69.5681L1428.15 71.8319C1429.36 70.7776 1430.95 70.2 1433.06 70.2V67.2ZM1426.21 69.5436C1424.33 71.0942 1423.2 73.3523 1422.69 76.1283L1425.64 76.6717C1426.06 74.3811 1426.93 72.8392 1428.12 71.8564L1426.21 69.5436ZM1424.16 77.9H1441.46V74.9H1424.16V77.9ZM1502.58 93.3H1504.08V91.8H1502.58V93.3ZM1502.58 110V111.5H1504.08V110H1502.58ZM1472.58 70.2H1474.08V68.7H1472.58V70.2ZM1465.68 70.2H1464.18V71.7H1465.68V70.2ZM1465.68 53.9V52.4H1464.18V53.9H1465.68ZM1472.58 53.9V55.4H1474.08V53.9H1472.58ZM1472.58 40.3V38.8H1471.08V40.3H1472.58ZM1492.28 40.3H1493.78V38.8H1492.28V40.3ZM1492.28 53.9H1490.78V55.4H1492.28V53.9ZM1502.48 53.9H1503.98V52.4H1502.48V53.9ZM1502.48 70.2V71.7H1503.98V70.2H1502.48ZM1492.28 70.2V68.7H1490.78V70.2H1492.28ZM1493.28 92.3L1492.22 93.3607L1492.25 93.3859L1492.27 93.4099L1493.28 92.3ZM1501.08 93.3V110H1504.08V93.3H1501.08ZM1502.58 108.5H1494.08V111.5H1502.58V108.5ZM1494.08 108.5C1487.14 108.5 1482.22 106.782 1479.01 103.609C1475.81 100.439 1474.08 95.5652 1474.08 88.7H1471.08C1471.08 96.0348 1472.94 101.811 1476.9 105.741C1480.87 109.668 1486.69 111.5 1494.08 111.5V108.5ZM1474.08 88.7V70.2H1471.08V88.7H1474.08ZM1472.58 68.7H1465.68V71.7H1472.58V68.7ZM1467.18 70.2V53.9H1464.18V70.2H1467.18ZM1465.68 55.4H1472.58V52.4H1465.68V55.4ZM1474.08 53.9V40.3H1471.08V53.9H1474.08ZM1472.58 41.8H1492.28V38.8H1472.58V41.8ZM1490.78 40.3V53.9H1493.78V40.3H1490.78ZM1492.28 55.4H1502.48V52.4H1492.28V55.4ZM1500.98 53.9V70.2H1503.98V53.9H1500.98ZM1502.48 68.7H1492.28V71.7H1502.48V68.7ZM1490.78 70.2V89H1493.78V70.2H1490.78ZM1490.78 89C1490.78 90.693 1491.14 92.2801 1492.22 93.3607L1494.34 91.2393C1494.09 90.9866 1493.78 90.3736 1493.78 89H1490.78ZM1492.27 93.4099C1493.42 94.4508 1495.08 94.8 1496.88 94.8V91.8C1495.35 91.8 1494.61 91.4826 1494.29 91.1901L1492.27 93.4099ZM1496.88 94.8H1502.58V91.8H1496.88V94.8ZM1516.37 39.5V38H1515.11L1514.89 39.2483L1516.37 39.5ZM1536.17 39.5L1537.56 40.0664L1538.4 38H1536.17V39.5ZM1524.67 67.7V69.2H1525.68L1526.06 68.2664L1524.67 67.7ZM1511.57 67.7L1510.09 67.4483L1509.8 69.2H1511.57V67.7ZM1516.37 41H1536.17V38H1516.37V41ZM1534.78 38.9336L1523.28 67.1336L1526.06 68.2664L1537.56 40.0664L1534.78 38.9336ZM1524.67 66.2H1511.57V69.2H1524.67V66.2ZM1513.05 67.9517L1517.85 39.7517L1514.89 39.2483L1510.09 67.4483L1513.05 67.9517ZM1556.44 108.2L1555.84 109.573L1555.85 109.579L1555.87 109.585L1556.44 108.2ZM1547.04 101.2L1545.85 102.104L1545.86 102.119L1545.87 102.134L1547.04 101.2ZM1543.24 91.1V89.6H1541.63L1541.75 91.2069L1543.24 91.1ZM1562.24 91.1L1563.73 90.8802L1563.54 89.6H1562.24V91.1ZM1572.84 90.1L1573.44 88.7244L1572.84 90.1ZM1565.24 87.9L1565.57 86.437L1565.56 86.4328L1565.54 86.4291L1565.24 87.9ZM1555.24 85.2L1554.72 86.6045L1555.24 85.2ZM1548.24 80.3L1547.1 81.2734L1547.11 81.283L1547.12 81.2924L1548.24 80.3ZM1548.04 62.1L1549.29 62.9392L1549.29 62.9321L1549.3 62.925L1548.04 62.1ZM1555.94 55.6L1555.32 54.2335L1555.31 54.2381L1555.94 55.6ZM1585.94 58.6L1584.97 59.7389L1585.94 58.6ZM1593.24 72.8V74.3H1594.92L1594.73 72.6306L1593.24 72.8ZM1575.54 72.8L1574.07 73.0731L1574.3 74.3H1575.54V72.8ZM1573.14 68.7L1572.18 69.8523L1572.22 69.881L1572.25 69.9076L1573.14 68.7ZM1564.54 68.1L1563.69 66.8667L1563.67 66.8829L1563.64 66.9L1564.54 68.1ZM1565.64 73.7L1565 75.0532L1565.02 75.0648L1565.04 75.0756L1565.64 73.7ZM1573.04 75.8L1572.73 77.2663L1572.73 77.2671L1573.04 75.8ZM1583.14 78.7L1582.59 80.0928L1582.6 80.0974L1583.14 78.7ZM1590.24 83.9L1589.09 84.8603L1589.11 84.8776L1589.12 84.8946L1590.24 83.9ZM1590.44 102.3L1589.24 101.405L1589.23 101.415L1589.22 101.425L1590.44 102.3ZM1582.34 108.5L1582.93 109.882L1582.94 109.876L1582.34 108.5ZM1570.04 109.2C1565.14 109.2 1560.81 108.394 1557.02 106.815L1555.87 109.585C1560.08 111.339 1564.81 112.2 1570.04 112.2V109.2ZM1557.05 106.827C1553.3 105.178 1550.38 102.983 1548.22 100.266L1545.87 102.134C1548.37 105.284 1551.72 107.756 1555.84 109.573L1557.05 106.827ZM1548.24 100.296C1546.15 97.5259 1544.99 94.4359 1544.74 90.9931L1541.75 91.2069C1542.03 95.2308 1543.41 98.8741 1545.85 102.104L1548.24 100.296ZM1543.24 92.6H1562.24V89.6H1543.24V92.6ZM1560.76 91.3198C1561.08 93.4967 1562.12 95.2691 1563.87 96.5206L1565.61 94.0794C1564.57 93.3309 1563.94 92.3033 1563.73 90.8802L1560.76 91.3198ZM1563.87 96.5206C1565.57 97.7364 1567.63 98.3 1569.94 98.3V95.3C1568.12 95.3 1566.71 94.8636 1565.61 94.0794L1563.87 96.5206ZM1569.94 98.3C1571.74 98.3 1573.34 97.9281 1574.61 97.0206L1572.87 94.5794C1572.27 95.0052 1571.35 95.3 1569.94 95.3V98.3ZM1574.61 97.0206C1575.91 96.0972 1576.64 94.7923 1576.64 93.2H1573.64C1573.64 93.741 1573.45 94.1694 1572.87 94.5794L1574.61 97.0206ZM1576.64 93.2C1576.64 92.2081 1576.36 91.2795 1575.77 90.4812C1575.19 89.6995 1574.38 89.1319 1573.44 88.7244L1572.24 91.4756C1572.84 91.7348 1573.18 92.0171 1573.36 92.2688C1573.54 92.5038 1573.64 92.7919 1573.64 93.2H1576.64ZM1573.44 88.7244C1571.77 87.9977 1569.12 87.2396 1565.57 86.437L1564.91 89.363C1568.43 90.1604 1570.85 90.869 1572.24 91.4756L1573.44 88.7244ZM1565.54 86.4291C1561.59 85.6388 1558.34 84.7579 1555.77 83.7955L1554.72 86.6045C1557.48 87.6421 1560.9 88.5612 1564.95 89.3709L1565.54 86.4291ZM1555.77 83.7955C1553.35 82.8871 1551.22 81.4016 1549.37 79.3076L1547.12 81.2924C1549.27 83.7317 1551.81 85.5129 1554.72 86.6045L1555.77 83.7955ZM1549.38 79.3266C1547.74 77.4038 1546.84 74.7182 1546.84 71.1H1543.84C1543.84 75.2152 1544.88 78.6629 1547.1 81.2734L1549.38 79.3266ZM1546.84 71.1C1546.84 68.0543 1547.66 65.3487 1549.29 62.9392L1546.8 61.2608C1544.83 64.1847 1543.84 67.479 1543.84 71.1H1546.84ZM1549.3 62.925C1550.92 60.462 1553.32 58.4645 1556.57 56.9619L1555.31 54.2381C1551.64 55.9355 1548.77 58.2713 1546.79 61.275L1549.3 62.925ZM1556.56 56.9664C1559.86 55.475 1563.87 54.7 1568.64 54.7V51.7C1563.55 51.7 1559.1 52.525 1555.32 54.2336L1556.56 56.9664ZM1568.64 54.7C1575.74 54.7 1581.12 56.4387 1584.97 59.7389L1586.92 57.4611C1582.37 53.5613 1576.22 51.7 1568.64 51.7V54.7ZM1584.97 59.7389C1588.86 63.0746 1591.13 67.4514 1591.75 72.9694L1594.73 72.6306C1594.03 66.4152 1591.43 61.3254 1586.92 57.4611L1584.97 59.7389ZM1593.24 71.3H1575.54V74.3H1593.24V71.3ZM1577.02 72.5269C1576.63 70.4179 1575.66 68.6883 1574.03 67.4924L1572.25 69.9076C1573.16 70.5784 1573.79 71.5821 1574.07 73.0731L1577.02 72.5269ZM1574.1 67.5477C1572.56 66.2593 1570.55 65.7 1568.24 65.7V68.7C1570.07 68.7 1571.33 69.1407 1572.18 69.8523L1574.1 67.5477ZM1568.24 65.7C1566.49 65.7 1564.91 66.0244 1563.69 66.8667L1565.4 69.3333C1565.91 68.9756 1566.8 68.7 1568.24 68.7V65.7ZM1563.64 66.9C1562.44 67.8046 1561.84 69.0978 1561.84 70.6H1564.84C1564.84 69.9688 1565.05 69.5954 1565.44 69.3L1563.64 66.9ZM1561.84 70.6C1561.84 72.6796 1563.11 74.1527 1565 75.0532L1566.29 72.3468C1565.11 71.7806 1564.84 71.1871 1564.84 70.6H1561.84ZM1565.04 75.0756C1566.72 75.8047 1569.31 76.5294 1572.73 77.2663L1573.36 74.3337C1569.98 73.6039 1567.63 72.9286 1566.24 72.3244L1565.04 75.0756ZM1572.73 77.2671C1576.75 78.1231 1580.02 79.0683 1582.59 80.0927L1583.7 77.3073C1580.93 76.1983 1577.47 75.2103 1573.36 74.3329L1572.73 77.2671ZM1582.6 80.0974C1585.08 81.066 1587.24 82.6419 1589.09 84.8603L1591.4 82.9397C1589.24 80.3581 1586.67 78.4674 1583.69 77.3026L1582.6 80.0974ZM1589.12 84.8946C1590.88 86.8787 1591.84 89.6856 1591.84 93.5H1594.84C1594.84 89.181 1593.74 85.588 1591.37 82.9054L1589.12 84.8946ZM1591.84 93.5C1591.84 96.4471 1590.98 99.066 1589.24 101.405L1591.65 103.195C1593.77 100.334 1594.84 97.0863 1594.84 93.5H1591.84ZM1589.22 101.425C1587.55 103.764 1585.08 105.677 1581.75 107.124L1582.94 109.876C1586.67 108.257 1589.61 106.036 1591.66 103.175L1589.22 101.425ZM1581.76 107.119C1578.52 108.49 1574.63 109.2 1570.04 109.2V112.2C1574.93 112.2 1579.23 111.444 1582.93 109.881L1581.76 107.119ZM1641.72 63.8H1640.22V68.6295L1642.96 64.6498L1641.72 63.8ZM1659.82 53.4H1661.32V51.9H1659.82V53.4ZM1659.82 74.3V75.8H1661.32V74.3H1659.82ZM1644.82 76.8L1645.76 77.9676L1644.82 76.8ZM1641.72 110V111.5H1643.22V110H1641.72ZM1622.12 110H1620.62V111.5H1622.12V110ZM1622.12 53.9V52.4H1620.62V53.9H1622.12ZM1641.72 53.9H1643.22V52.4H1641.72V53.9ZM1642.96 64.6498C1645.04 61.6164 1647.55 59.2374 1650.49 57.4886L1648.95 54.9113C1645.62 56.8959 1642.8 59.5836 1640.48 62.9502L1642.96 64.6498ZM1650.49 57.4886C1653.39 55.7584 1656.49 54.9 1659.82 54.9V51.9C1655.95 51.9 1652.31 52.9083 1648.95 54.9113L1650.49 57.4886ZM1658.32 53.4V74.3H1661.32V53.4H1658.32ZM1659.82 72.8H1654.32V75.8H1659.82V72.8ZM1654.32 72.8C1649.9 72.8 1646.33 73.6542 1643.88 75.6324L1645.76 77.9676C1647.44 76.6124 1650.2 75.8 1654.32 75.8V72.8ZM1643.88 75.6324C1641.3 77.7123 1640.22 81.1676 1640.22 85.5H1643.22C1643.22 81.5657 1644.21 79.221 1645.76 77.9676L1643.88 75.6324ZM1640.22 85.5V110H1643.22V85.5H1640.22ZM1641.72 108.5H1622.12V111.5H1641.72V108.5ZM1623.62 110V53.9H1620.62V110H1623.62ZM1622.12 55.4H1641.72V52.4H1622.12V55.4ZM1640.22 53.9V63.8H1643.22V53.9H1640.22ZM1677.85 107.2L1677.14 108.525L1677.15 108.53L1677.85 107.2ZM1667.45 97.2L1668.74 96.443L1667.45 97.2ZM1667.45 66.7L1666.16 65.9283L1666.16 65.9356L1666.15 65.943L1667.45 66.7ZM1677.95 56.7L1677.25 55.3704L1677.24 55.3748L1677.95 56.7ZM1708.05 56.7L1707.34 58.0252L1707.35 58.0295L1708.05 56.7ZM1718.55 66.7L1717.25 67.457L1717.26 67.4644L1717.26 67.4717L1718.55 66.7ZM1718.55 97.2L1717.25 96.4369L1717.25 96.443L1718.55 97.2ZM1708.05 107.2L1707.35 105.87L1708.05 107.2ZM1699.75 90.7L1698.63 89.6946L1698.63 89.6966L1699.75 90.7ZM1699.75 73.2L1698.63 74.2034L1698.64 74.2135L1698.65 74.2235L1699.75 73.2ZM1686.25 90.7L1685.11 91.6824L1686.25 90.7ZM1692.95 109.2C1687.56 109.2 1682.77 108.08 1678.54 105.87L1677.15 108.53C1681.86 110.987 1687.13 112.2 1692.95 112.2V109.2ZM1678.55 105.875C1674.4 103.673 1671.13 100.538 1668.74 96.443L1666.15 97.957C1668.82 102.529 1672.49 106.06 1677.14 108.525L1678.55 105.875ZM1668.74 96.443C1666.36 92.3755 1665.15 87.546 1665.15 81.9H1662.15C1662.15 87.9874 1663.46 93.3578 1666.15 97.957L1668.74 96.443ZM1665.15 81.9C1665.15 76.3241 1666.36 71.527 1668.74 67.457L1666.15 65.943C1663.46 70.5397 1662.15 75.8759 1662.15 81.9H1665.15ZM1668.73 67.4717C1671.19 63.3689 1674.49 60.2286 1678.65 58.0252L1677.24 55.3748C1672.6 57.838 1668.9 61.3644 1666.16 65.9283L1668.73 67.4717ZM1678.64 58.0295C1682.87 55.8202 1687.66 54.7 1693.05 54.7V51.7C1687.23 51.7 1681.96 52.9131 1677.25 55.3705L1678.64 58.0295ZM1693.05 54.7C1698.43 54.7 1703.19 55.8203 1707.34 58.0252L1708.75 55.3748C1704.11 52.913 1698.86 51.7 1693.05 51.7V54.7ZM1707.35 58.0295C1711.57 60.2328 1714.86 63.3682 1717.25 67.457L1719.84 65.943C1717.16 61.3651 1713.46 57.8338 1708.74 55.3705L1707.35 58.0295ZM1717.26 67.4717C1719.7 71.5392 1720.95 76.331 1720.95 81.9H1723.95C1723.95 75.869 1722.59 70.5274 1719.83 65.9283L1717.26 67.4717ZM1720.95 81.9C1720.95 87.4685 1719.7 92.2979 1717.25 96.4369L1719.84 97.9631C1722.59 93.3021 1723.95 87.9315 1723.95 81.9H1720.95ZM1717.25 96.443C1714.86 100.532 1711.57 103.667 1707.35 105.87L1708.74 108.53C1713.46 106.066 1717.16 102.535 1719.84 97.957L1717.25 96.443ZM1707.35 105.87C1703.12 108.08 1698.33 109.2 1692.95 109.2V112.2C1698.76 112.2 1704.04 110.987 1708.74 108.53L1707.35 105.87ZM1692.95 95.2C1696.1 95.2 1698.77 94.0252 1700.86 91.7034L1698.63 89.6966C1697.12 91.3748 1695.26 92.2 1692.95 92.2V95.2ZM1700.86 91.7054C1703.05 89.2762 1704.05 85.9348 1704.05 81.9H1701.05C1701.05 85.4652 1700.17 87.9905 1698.63 89.6946L1700.86 91.7054ZM1704.05 81.9C1704.05 77.8689 1703.05 74.5468 1700.84 72.1765L1698.65 74.2235C1700.17 75.8532 1701.05 78.331 1701.05 81.9H1704.05ZM1700.86 72.1965C1698.78 69.8837 1696.14 68.7 1693.05 68.7V71.7C1695.28 71.7 1697.11 72.5163 1698.63 74.2034L1700.86 72.1965ZM1693.05 68.7C1689.95 68.7 1687.31 69.8837 1685.23 72.1965L1687.46 74.2034C1688.98 72.5163 1690.81 71.7 1693.05 71.7V68.7ZM1685.23 72.1965C1683.1 74.5673 1682.15 77.8816 1682.15 81.9H1685.15C1685.15 78.3184 1685.99 75.8327 1687.46 74.2034L1685.23 72.1965ZM1682.15 81.9C1682.15 85.9648 1683.05 89.3077 1685.11 91.6824L1687.38 89.7176C1685.97 88.0922 1685.15 85.5685 1685.15 81.9H1682.15ZM1685.11 91.6824C1687.14 94.0233 1689.79 95.2 1692.95 95.2V92.2C1690.63 92.2 1688.82 91.3767 1687.38 89.7176L1685.11 91.6824ZM1750.02 36H1751.52V34.5H1750.02V36ZM1750.02 110V111.5H1751.52V110H1750.02ZM1730.42 110H1728.92V111.5H1730.42V110ZM1730.42 36V34.5H1728.92V36H1730.42ZM1748.52 36V110H1751.52V36H1748.52ZM1750.02 108.5H1730.42V111.5H1750.02V108.5ZM1731.92 110V36H1728.92V110H1731.92ZM1730.42 37.5H1750.02V34.5H1730.42V37.5ZM1780.78 36H1782.28V34.5H1780.78V36ZM1780.78 110V111.5H1782.28V110H1780.78ZM1761.18 110H1759.68V111.5H1761.18V110ZM1761.18 36V34.5H1759.68V36H1761.18ZM1779.28 36V110H1782.28V36H1779.28ZM1780.78 108.5H1761.18V111.5H1780.78V108.5ZM1762.68 110V36H1759.68V110H1762.68ZM1761.18 37.5H1780.78V34.5H1761.18V37.5Z" fill="#0D0D0D" mask="url(#path-36-outside-2_1124_1779)"/>
<path d="M1807.5 75C1807.5 50.6995 1827.2 31 1851.5 31H1961.5C1985.8 31 2005.5 50.6995 2005.5 75C2005.5 99.3005 1985.8 119 1961.5 119H1851.5C1827.2 119 1807.5 99.3005 1807.5 75Z" fill="#FF6943" stroke="#0D0D0D" stroke-width="2"/>
<path d="M1945.5 75C1945.5 75.3604 1945.32 76.0162 1944.81 76.9674C1944.31 77.8877 1943.57 78.9826 1942.58 80.1887C1940.61 82.599 1937.75 85.3897 1934.19 88.0387C1927.06 93.3436 1917.26 98 1906.5 98C1895.73 98 1885.93 93.4738 1878.81 88.2396C1875.25 85.6253 1872.39 82.854 1870.42 80.4227C1869.44 79.2063 1868.69 78.0911 1868.2 77.1375C1867.69 76.1608 1867.5 75.4446 1867.5 75C1867.5 74.5554 1867.69 73.8392 1868.2 72.8625C1868.69 71.9089 1869.44 70.7937 1870.42 69.5773C1872.39 67.146 1875.25 64.3747 1878.81 61.7604C1885.93 56.5262 1895.73 52 1906.5 52C1917.26 52 1927.06 56.6564 1934.19 61.9614C1937.75 64.6103 1940.61 67.401 1942.58 69.8113C1943.57 71.0174 1944.31 72.1123 1944.81 73.0326C1945.32 73.9838 1945.5 74.6396 1945.5 75Z" fill="white" stroke="#0D0D0D" stroke-width="2"/>
<circle cx="1906.5" cy="75" r="13" fill="#FFE832" stroke="#0D0D0D" stroke-width="2"/>
<circle cx="1906.5" cy="75" r="6" fill="#0E1418"/>
</svg>
