<svg width="1854" height="150" viewBox="0 0 1854 150" fill="none" xmlns="http://www.w3.org/2000/svg">
<mask id="path-1-outside-1_2315_8221" maskUnits="userSpaceOnUse" x="1.5" y="27" width="1034" height="112" fill="black">
<rect fill="white" x="1.5" y="27" width="1034" height="112"/>
<path d="M3.7 74.6C3.7 67.6667 5.13333 61.5 8 56.1C10.9333 50.6333 15.0667 46.4 20.4 43.4C25.7333 40.3333 31.8667 38.8 38.8 38.8C47.6 38.8 55 41.1667 61 45.9C67 50.5667 70.8667 56.9333 72.6 65H51.5C50.2333 62.3333 48.4667 60.3 46.2 58.9C44 57.5 41.4333 56.8 38.5 56.8C33.9667 56.8 30.3333 58.4333 27.6 61.7C24.9333 64.9 23.6 69.2 23.6 74.6C23.6 80.0667 24.9333 84.4333 27.6 87.7C30.3333 90.9 33.9667 92.5 38.5 92.5C41.4333 92.5 44 91.8 46.2 90.4C48.4667 89 50.2333 86.9667 51.5 84.3H72.6C70.8667 92.3667 67 98.7667 61 103.5C55 108.167 47.6 110.5 38.8 110.5C31.8667 110.5 25.7333 109 20.4 106C15.0667 102.933 10.9333 98.7 8 93.3C5.13333 87.8333 3.7 81.6 3.7 74.6ZM107.981 110.7C102.381 110.7 97.3479 109.533 92.8813 107.2C88.4813 104.867 85.0146 101.533 82.4813 97.2C79.9479 92.8667 78.6813 87.7667 78.6813 81.9C78.6813 76.1 79.9479 71.0333 82.4813 66.7C85.0813 62.3667 88.5813 59.0333 92.9813 56.7C97.4479 54.3667 102.481 53.2 108.081 53.2C113.681 53.2 118.681 54.3667 123.081 56.7C127.548 59.0333 131.048 62.3667 133.581 66.7C136.181 71.0333 137.481 76.1 137.481 81.9C137.481 87.7 136.181 92.8 133.581 97.2C131.048 101.533 127.548 104.867 123.081 107.2C118.615 109.533 113.581 110.7 107.981 110.7ZM107.981 93.7C110.715 93.7 112.981 92.7 114.781 90.7C116.648 88.6333 117.581 85.7 117.581 81.9C117.581 78.1 116.648 75.2 114.781 73.2C112.981 71.2 110.748 70.2 108.081 70.2C105.415 70.2 103.181 71.2 101.381 73.2C99.5813 75.2 98.6813 78.1 98.6813 81.9C98.6813 85.7667 99.5479 88.7 101.281 90.7C103.015 92.7 105.248 93.7 107.981 93.7ZM218.755 53.4C225.822 53.4 231.355 55.5333 235.355 59.8C239.422 64.0667 241.455 69.9 241.455 77.3V110H221.855V79.9C221.855 76.9 221.022 74.5667 219.355 72.9C217.689 71.2333 215.422 70.4 212.555 70.4C209.689 70.4 207.422 71.2333 205.755 72.9C204.089 74.5667 203.255 76.9 203.255 79.9V110H183.655V79.9C183.655 76.9 182.822 74.5667 181.155 72.9C179.555 71.2333 177.322 70.4 174.455 70.4C171.522 70.4 169.222 71.2333 167.555 72.9C165.889 74.5667 165.055 76.9 165.055 79.9V110H145.455V53.9H165.055V61.3C166.789 58.9 169.022 57 171.755 55.6C174.555 54.1333 177.755 53.4 181.355 53.4C185.489 53.4 189.155 54.3 192.355 56.1C195.622 57.9 198.189 60.4333 200.055 63.7C202.055 60.6333 204.689 58.1667 207.955 56.3C211.222 54.3667 214.822 53.4 218.755 53.4ZM271.794 61.7C273.327 59.1 275.494 57.0333 278.294 55.5C281.094 53.9667 284.394 53.2 288.194 53.2C292.66 53.2 296.694 54.3667 300.294 56.7C303.96 59.0333 306.827 62.3667 308.894 66.7C311.027 71.0333 312.094 76.1 312.094 81.9C312.094 87.7 311.027 92.8 308.894 97.2C306.827 101.533 303.96 104.867 300.294 107.2C296.694 109.533 292.66 110.7 288.194 110.7C284.394 110.7 281.094 109.933 278.294 108.4C275.56 106.867 273.394 104.8 271.794 102.2V136.8H252.194V53.9H271.794V61.7ZM292.194 81.9C292.194 78.2333 291.194 75.4 289.194 73.4C287.26 71.3333 284.86 70.3 281.994 70.3C279.127 70.3 276.694 71.3333 274.694 73.4C272.76 75.4667 271.794 78.3 271.794 81.9C271.794 85.5667 272.76 88.4333 274.694 90.5C276.694 92.5667 279.127 93.6 281.994 93.6C284.86 93.6 287.26 92.5667 289.194 90.5C291.194 88.3667 292.194 85.5 292.194 81.9ZM316.963 81.9C316.963 76.1 317.996 71.0333 320.063 66.7C322.196 62.3667 325.063 59.0333 328.663 56.7C332.329 54.3667 336.396 53.2 340.863 53.2C344.729 53.2 348.063 53.9667 350.863 55.5C353.663 57.0333 355.829 59.1 357.363 61.7V53.9H376.963V110H357.363V102.2C355.829 104.8 353.629 106.867 350.763 108.4C347.963 109.933 344.663 110.7 340.863 110.7C336.396 110.7 332.329 109.533 328.663 107.2C325.063 104.867 322.196 101.533 320.063 97.2C317.996 92.8 316.963 87.7 316.963 81.9ZM357.363 81.9C357.363 78.3 356.363 75.4667 354.363 73.4C352.429 71.3333 350.029 70.3 347.163 70.3C344.229 70.3 341.796 71.3333 339.863 73.4C337.929 75.4 336.963 78.2333 336.963 81.9C336.963 85.5 337.929 88.3667 339.863 90.5C341.796 92.5667 344.229 93.6 347.163 93.6C350.029 93.6 352.429 92.5667 354.363 90.5C356.363 88.4333 357.363 85.5667 357.363 81.9ZM421.231 93.3V110H412.731C398.398 110 391.231 102.9 391.231 88.7V70.2H384.331V53.9H391.231V40.3H410.931V53.9H421.131V70.2H410.931V89C410.931 90.5333 411.265 91.6333 411.931 92.3C412.665 92.9667 413.865 93.3 415.531 93.3H421.231ZM440.121 48.7C436.654 48.7 433.854 47.7667 431.721 45.9C429.654 43.9667 428.621 41.5667 428.621 38.7C428.621 35.7667 429.654 33.3333 431.721 31.4C433.854 29.4667 436.654 28.5 440.121 28.5C443.521 28.5 446.254 29.4667 448.321 31.4C450.454 33.3333 451.521 35.7667 451.521 38.7C451.521 41.5667 450.454 43.9667 448.321 45.9C446.254 47.7667 443.521 48.7 440.121 48.7ZM449.821 53.9V110H430.221V53.9H449.821ZM480.583 61.7C482.116 59.0333 484.283 56.9667 487.083 55.5C489.883 53.9667 493.183 53.2 496.983 53.2C501.449 53.2 505.483 54.3667 509.083 56.7C512.749 59.0333 515.616 62.3667 517.683 66.7C519.816 71.0333 520.883 76.1 520.883 81.9C520.883 87.7 519.816 92.8 517.683 97.2C515.616 101.533 512.749 104.867 509.083 107.2C505.483 109.533 501.449 110.7 496.983 110.7C493.183 110.7 489.883 109.967 487.083 108.5C484.283 106.967 482.116 104.867 480.583 102.2V110H460.983V36H480.583V61.7ZM500.983 81.9C500.983 78.2333 499.983 75.4 497.983 73.4C496.049 71.3333 493.649 70.3 490.783 70.3C487.916 70.3 485.483 71.3333 483.483 73.4C481.549 75.4667 480.583 78.3 480.583 81.9C480.583 85.5667 481.549 88.4333 483.483 90.5C485.483 92.5667 487.916 93.6 490.783 93.6C493.649 93.6 496.049 92.5667 497.983 90.5C499.983 88.3667 500.983 85.5 500.983 81.9ZM548.552 36V110H528.952V36H548.552ZM613.313 81.3C613.313 82.8333 613.213 84.3667 613.013 85.9H575.913C576.113 88.9667 576.947 91.2667 578.413 92.8C579.947 94.2667 581.88 95 584.213 95C587.48 95 589.813 93.5333 591.213 90.6H612.113C611.247 94.4667 609.547 97.9333 607.013 101C604.547 104 601.413 106.367 597.613 108.1C593.813 109.833 589.613 110.7 585.013 110.7C579.48 110.7 574.547 109.533 570.213 107.2C565.947 104.867 562.58 101.533 560.113 97.2C557.713 92.8667 556.513 87.7667 556.513 81.9C556.513 76.0333 557.713 70.9667 560.113 66.7C562.513 62.3667 565.847 59.0333 570.113 56.7C574.447 54.3667 579.413 53.2 585.013 53.2C590.547 53.2 595.447 54.3333 599.713 56.6C603.98 58.8667 607.313 62.1333 609.713 66.4C612.113 70.6 613.313 75.5667 613.313 81.3ZM593.313 76.4C593.313 74 592.513 72.1333 590.913 70.8C589.313 69.4 587.313 68.7 584.913 68.7C582.513 68.7 580.547 69.3667 579.013 70.7C577.48 71.9667 576.48 73.8667 576.013 76.4H593.313ZM667.075 110.7C658.875 110.7 652.142 108.767 646.875 104.9C641.608 100.967 638.775 95.3667 638.375 88.1H659.275C659.475 90.5667 660.208 92.3667 661.475 93.5C662.742 94.6333 664.375 95.2 666.375 95.2C668.175 95.2 669.642 94.7667 670.775 93.9C671.975 92.9667 672.575 91.7 672.575 90.1C672.575 88.0333 671.608 86.4333 669.675 85.3C667.742 84.1667 664.608 82.9 660.275 81.5C655.675 79.9667 651.942 78.5 649.075 77.1C646.275 75.6333 643.808 73.5333 641.675 70.8C639.608 68 638.575 64.3667 638.575 59.9C638.575 55.3667 639.708 51.5 641.975 48.3C644.242 45.0333 647.375 42.5667 651.375 40.9C655.375 39.2333 659.908 38.4 664.975 38.4C673.175 38.4 679.708 40.3333 684.575 44.2C689.508 48 692.142 53.3667 692.475 60.3H671.175C671.108 58.1667 670.442 56.5667 669.175 55.5C667.975 54.4333 666.408 53.9 664.475 53.9C663.008 53.9 661.808 54.3333 660.875 55.2C659.942 56.0667 659.475 57.3 659.475 58.9C659.475 60.2333 659.975 61.4 660.975 62.4C662.042 63.3333 663.342 64.1667 664.875 64.9C666.408 65.5667 668.675 66.4333 671.675 67.5C676.142 69.0333 679.808 70.5667 682.675 72.1C685.608 73.5667 688.108 75.6667 690.175 78.4C692.308 81.0667 693.375 84.4667 693.375 88.6C693.375 92.8 692.308 96.5667 690.175 99.9C688.108 103.233 685.075 105.867 681.075 107.8C677.142 109.733 672.475 110.7 667.075 110.7ZM728.587 110.7C722.987 110.7 717.953 109.533 713.487 107.2C709.087 104.867 705.62 101.533 703.087 97.2C700.553 92.8667 699.287 87.7667 699.287 81.9C699.287 76.1 700.553 71.0333 703.087 66.7C705.687 62.3667 709.187 59.0333 713.587 56.7C718.053 54.3667 723.087 53.2 728.687 53.2C734.287 53.2 739.287 54.3667 743.687 56.7C748.153 59.0333 751.653 62.3667 754.187 66.7C756.787 71.0333 758.087 76.1 758.087 81.9C758.087 87.7 756.787 92.8 754.187 97.2C751.653 101.533 748.153 104.867 743.687 107.2C739.22 109.533 734.187 110.7 728.587 110.7ZM728.587 93.7C731.32 93.7 733.587 92.7 735.387 90.7C737.253 88.6333 738.187 85.7 738.187 81.9C738.187 78.1 737.253 75.2 735.387 73.2C733.587 71.2 731.353 70.2 728.687 70.2C726.02 70.2 723.787 71.2 721.987 73.2C720.187 75.2 719.287 78.1 719.287 81.9C719.287 85.7667 720.153 88.7 721.887 90.7C723.62 92.7 725.853 93.7 728.587 93.7ZM762.861 81.9C762.861 76.1 764.061 71.0333 766.461 66.7C768.861 62.3667 772.194 59.0333 776.461 56.7C780.794 54.3667 785.728 53.2 791.261 53.2C798.394 53.2 804.394 55.1667 809.261 59.1C814.128 62.9667 817.261 68.4 818.661 75.4H797.861C796.661 71.7333 794.328 69.9 790.861 69.9C788.394 69.9 786.428 70.9333 784.961 73C783.561 75 782.861 77.9667 782.861 81.9C782.861 85.8333 783.561 88.8333 784.961 90.9C786.428 92.9667 788.394 94 790.861 94C794.394 94 796.728 92.1667 797.861 88.5H818.661C817.261 95.4333 814.128 100.867 809.261 104.8C804.394 108.733 798.394 110.7 791.261 110.7C785.728 110.7 780.794 109.533 776.461 107.2C772.194 104.867 768.861 101.533 766.461 97.2C764.061 92.8667 762.861 87.7667 762.861 81.9ZM836.703 48.7C833.236 48.7 830.436 47.7667 828.303 45.9C826.236 43.9667 825.203 41.5667 825.203 38.7C825.203 35.7667 826.236 33.3333 828.303 31.4C830.436 29.4667 833.236 28.5 836.703 28.5C840.103 28.5 842.836 29.4667 844.903 31.4C847.036 33.3333 848.103 35.7667 848.103 38.7C848.103 41.5667 847.036 43.9667 844.903 45.9C842.836 47.7667 840.103 48.7 836.703 48.7ZM846.403 53.9V110H826.803V53.9H846.403ZM854.365 81.9C854.365 76.1 855.398 71.0333 857.465 66.7C859.598 62.3667 862.465 59.0333 866.065 56.7C869.732 54.3667 873.798 53.2 878.265 53.2C882.132 53.2 885.465 53.9667 888.265 55.5C891.065 57.0333 893.232 59.1 894.765 61.7V53.9H914.365V110H894.765V102.2C893.232 104.8 891.032 106.867 888.165 108.4C885.365 109.933 882.065 110.7 878.265 110.7C873.798 110.7 869.732 109.533 866.065 107.2C862.465 104.867 859.598 101.533 857.465 97.2C855.398 92.8 854.365 87.7 854.365 81.9ZM894.765 81.9C894.765 78.3 893.765 75.4667 891.765 73.4C889.832 71.3333 887.432 70.3 884.565 70.3C881.632 70.3 879.198 71.3333 877.265 73.4C875.332 75.4 874.365 78.2333 874.365 81.9C874.365 85.5 875.332 88.3667 877.265 90.5C879.198 92.5667 881.632 93.6 884.565 93.6C887.432 93.6 889.832 92.5667 891.765 90.5C893.765 88.4333 894.765 85.5667 894.765 81.9ZM945.134 36V110H925.534V36H945.134ZM1004.1 39.5V55.1H975.895V67.5H996.695V82.4H975.895V110H956.295V39.5H1004.1ZM1022.25 48.7C1018.78 48.7 1015.98 47.7667 1013.85 45.9C1011.78 43.9667 1010.75 41.5667 1010.75 38.7C1010.75 35.7667 1011.78 33.3333 1013.85 31.4C1015.98 29.4667 1018.78 28.5 1022.25 28.5C1025.65 28.5 1028.38 29.4667 1030.45 31.4C1032.58 33.3333 1033.65 35.7667 1033.65 38.7C1033.65 41.5667 1032.58 43.9667 1030.45 45.9C1028.38 47.7667 1025.65 48.7 1022.25 48.7ZM1031.95 53.9V110H1012.35V53.9H1031.95Z"/>
</mask>
<path d="M8 56.1L6.67825 55.3908L6.67512 55.3967L8 56.1ZM20.4 43.4L21.1354 44.7074L21.1416 44.7039L21.1477 44.7004L20.4 43.4ZM61 45.9L60.0709 47.0777L60.0791 47.084L61 45.9ZM72.6 65V66.5H74.4566L74.0665 64.6849L72.6 65ZM51.5 65L50.1451 65.6436L50.5519 66.5H51.5V65ZM46.2 58.9L45.3947 60.1655L45.4032 60.1709L45.4118 60.1762L46.2 58.9ZM27.6 61.7L26.4496 60.7374L26.4477 60.7397L27.6 61.7ZM27.6 87.7L26.438 88.6486L26.4486 88.6615L26.4594 88.6742L27.6 87.7ZM46.2 90.4L45.4118 89.1238L45.4032 89.1291L45.3947 89.1345L46.2 90.4ZM51.5 84.3V82.8H50.5519L50.1451 83.6564L51.5 84.3ZM72.6 84.3L74.0665 84.6151L74.4566 82.8H72.6V84.3ZM61 103.5L61.9209 104.684L61.929 104.678L61 103.5ZM20.4 106L19.6523 107.3L19.6584 107.304L19.6646 107.307L20.4 106ZM8 93.3L6.67157 93.9966L6.67667 94.0063L6.68192 94.016L8 93.3ZM5.2 74.6C5.2 67.8787 6.58785 61.9592 9.32489 56.8033L6.67512 55.3967C3.67882 61.0408 2.2 67.4547 2.2 74.6H5.2ZM9.32174 56.8092C12.1224 51.5899 16.054 47.5657 21.1354 44.7074L19.6646 42.0926C14.0794 45.2343 9.74431 49.6768 6.67826 55.3908L9.32174 56.8092ZM21.1477 44.7004C26.2258 41.7804 32.0951 40.3 38.8 40.3V37.3C31.6382 37.3 25.2409 38.8862 19.6523 42.0996L21.1477 44.7004ZM38.8 40.3C47.3164 40.3 54.3748 42.584 60.071 47.0777L61.929 44.7223C55.6252 39.7493 47.8836 37.3 38.8 37.3V40.3ZM60.0791 47.084C65.7762 51.5151 69.4674 57.5616 71.1335 65.3151L74.0665 64.6849C72.2659 56.3051 68.2238 49.6182 61.9209 44.716L60.0791 47.084ZM72.6 63.5H51.5V66.5H72.6V63.5ZM52.8549 64.3564C51.4781 61.4579 49.527 59.1918 46.9882 57.6238L45.4118 60.1762C47.4064 61.4082 48.9885 63.2087 50.1451 65.6436L52.8549 64.3564ZM47.0053 57.6345C44.5354 56.0628 41.6819 55.3 38.5 55.3V58.3C41.1848 58.3 43.4646 58.9372 45.3947 60.1655L47.0053 57.6345ZM38.5 55.3C33.5552 55.3 29.4882 57.1059 26.4496 60.7374L28.7504 62.6626C31.1784 59.7608 34.3782 58.3 38.5 58.3V55.3ZM26.4477 60.7397C23.4969 64.2806 22.1 68.9548 22.1 74.6H25.1C25.1 69.4452 26.3698 65.5193 28.7523 62.6603L26.4477 60.7397ZM22.1 74.6C22.1 80.3085 23.495 85.0434 26.438 88.6486L28.762 86.7514C26.3716 83.8232 25.1 79.8248 25.1 74.6H22.1ZM26.4594 88.6742C29.5018 92.236 33.5663 94 38.5 94V91C34.367 91 31.1649 89.564 28.7406 86.7258L26.4594 88.6742ZM38.5 94C41.6819 94 44.5354 93.2372 47.0053 91.6655L45.3947 89.1345C43.4646 90.3628 41.1848 91 38.5 91V94ZM46.9882 91.6762C49.527 90.1082 51.4781 87.8421 52.8549 84.9436L50.1451 83.6564C48.9885 86.0913 47.4064 87.8918 45.4118 89.1238L46.9882 91.6762ZM51.5 85.8H72.6V82.8H51.5V85.8ZM71.1335 83.9849C69.4672 91.7394 65.7743 97.823 60.071 102.322L61.929 104.678C68.2257 99.7103 72.2661 92.9939 74.0665 84.6151L71.1335 83.9849ZM60.0791 102.316C54.3827 106.746 47.3214 109 38.8 109V112C47.8786 112 55.6173 109.587 61.9209 104.684L60.0791 102.316ZM38.8 109C32.0894 109 26.2157 107.55 21.1354 104.693L19.6646 107.307C25.251 110.45 31.6439 112 38.8 112V109ZM21.1477 104.7C16.0546 101.771 12.1188 97.7399 9.31809 92.584L6.68192 94.016C9.74783 99.6601 14.0787 104.096 19.6523 107.3L21.1477 104.7ZM9.32843 92.6034C6.58879 87.379 5.2 81.3902 5.2 74.6H2.2C2.2 81.8098 3.67788 88.2877 6.67157 93.9966L9.32843 92.6034ZM92.8812 107.2L92.1785 108.525L92.1867 108.53L92.8812 107.2ZM82.4812 97.2L83.7762 96.443L82.4812 97.2ZM82.4812 66.7L81.195 65.9283L81.1906 65.9356L81.1863 65.943L82.4812 66.7ZM92.9813 56.7L92.2867 55.3704L92.2785 55.3748L92.9813 56.7ZM123.081 56.7L122.378 58.0252L122.387 58.0295L123.081 56.7ZM133.581 66.7L132.286 67.457L132.291 67.4644L132.295 67.4717L133.581 66.7ZM133.581 97.2L132.29 96.4369L132.286 96.443L133.581 97.2ZM123.081 107.2L122.387 105.87L123.081 107.2ZM114.781 90.7L113.668 89.6946L113.666 89.6966L114.781 90.7ZM114.781 73.2L113.666 74.2034L113.675 74.2135L113.685 74.2235L114.781 73.2ZM101.281 90.7L100.148 91.6824H100.148L101.281 90.7ZM107.981 109.2C102.596 109.2 97.8051 108.08 93.5758 105.87L92.1867 108.53C96.8908 110.987 102.167 112.2 107.981 112.2V109.2ZM93.584 105.875C89.4324 103.673 86.17 100.538 83.7762 96.443L81.1863 97.957C83.8592 102.529 87.5301 106.06 92.1785 108.525L93.584 105.875ZM83.7762 96.443C81.3983 92.3755 80.1813 87.546 80.1813 81.9H77.1813C77.1813 87.9874 78.4975 93.3578 81.1863 97.957L83.7762 96.443ZM80.1813 81.9C80.1813 76.3241 81.3968 71.527 83.7762 67.457L81.1863 65.943C78.499 70.5397 77.1813 75.8759 77.1813 81.9H80.1813ZM83.7675 67.4717C86.2292 63.3689 89.529 60.2286 93.684 58.0252L92.2785 55.3748C87.6335 57.838 83.9333 61.3644 81.195 65.9283L83.7675 67.4717ZM93.6758 58.0295C97.9051 55.8202 102.696 54.7 108.081 54.7V51.7C102.267 51.7 96.9908 52.9131 92.2867 55.3705L93.6758 58.0295ZM108.081 54.7C113.467 54.7 118.221 55.8203 122.379 58.0252L123.784 55.3748C119.142 52.913 113.895 51.7 108.081 51.7V54.7ZM122.387 58.0295C126.604 60.2328 129.896 63.3682 132.286 67.457L134.876 65.943C132.2 61.3651 128.491 57.8338 123.776 55.3705L122.387 58.0295ZM132.295 67.4717C134.736 71.5392 135.981 76.331 135.981 81.9H138.981C138.981 75.869 137.627 70.5274 134.867 65.9283L132.295 67.4717ZM135.981 81.9C135.981 87.4685 134.736 92.2979 132.29 96.4369L134.873 97.9631C137.627 93.3021 138.981 87.9315 138.981 81.9H135.981ZM132.286 96.443C129.896 100.532 126.604 103.667 122.387 105.87L123.776 108.53C128.491 106.066 132.2 102.535 134.876 97.957L132.286 96.443ZM122.387 105.87C118.157 108.08 113.367 109.2 107.981 109.2V112.2C113.796 112.2 119.072 110.987 123.776 108.53L122.387 105.87ZM107.981 95.2C111.132 95.2 113.807 94.0252 115.896 91.7034L113.666 89.6966C112.156 91.3748 110.297 92.2 107.981 92.2V95.2ZM115.894 91.7054C118.089 89.2762 119.081 85.9348 119.081 81.9H116.081C116.081 85.4652 115.207 87.9905 113.668 89.6946L115.894 91.7054ZM119.081 81.9C119.081 77.8689 118.09 74.5468 115.878 72.1765L113.685 74.2235C115.206 75.8532 116.081 78.331 116.081 81.9H119.081ZM115.896 72.1965C113.815 69.8837 111.178 68.7 108.081 68.7V71.7C110.318 71.7 112.148 72.5163 113.666 74.2034L115.896 72.1965ZM108.081 68.7C104.985 68.7 102.348 69.8837 100.266 72.1965L102.496 74.2034C104.015 72.5163 105.844 71.7 108.081 71.7V68.7ZM100.266 72.1965C98.1326 74.5673 97.1813 77.8816 97.1813 81.9H100.181C100.181 78.3184 101.03 75.8327 102.496 74.2034L100.266 72.1965ZM97.1813 81.9C97.1813 85.9648 98.0897 89.3077 100.148 91.6824L102.415 89.7176C101.006 88.0922 100.181 85.5685 100.181 81.9H97.1813ZM100.148 91.6824C102.176 94.0233 104.829 95.2 107.981 95.2V92.2C105.667 92.2 103.853 91.3767 102.415 89.7176L100.148 91.6824ZM235.355 59.8L234.261 60.8259L234.27 60.8349L235.355 59.8ZM241.455 110V111.5H242.955V110H241.455ZM221.855 110H220.355V111.5H221.855V110ZM219.355 72.9L218.295 73.9607L219.355 72.9ZM205.755 72.9L206.816 73.9607L205.755 72.9ZM203.255 110V111.5H204.755V110H203.255ZM183.655 110H182.155V111.5H183.655V110ZM181.155 72.9L180.073 73.9388L180.084 73.9498L180.095 73.9607L181.155 72.9ZM165.055 110V111.5H166.555V110H165.055ZM145.455 110H143.955V111.5H145.455V110ZM145.455 53.9V52.4H143.955V53.9H145.455ZM165.055 53.9H166.555V52.4H165.055V53.9ZM165.055 61.3H163.555V65.9389L166.271 62.1782L165.055 61.3ZM171.755 55.6L172.439 56.9351L172.451 56.9287L171.755 55.6ZM192.355 56.1L191.62 57.4074L191.632 57.4138L192.355 56.1ZM200.055 63.7L198.753 64.4442L199.971 66.5755L201.312 64.5194L200.055 63.7ZM207.955 56.3L208.7 57.6024L208.71 57.5967L208.719 57.5909L207.955 56.3ZM218.755 54.9C225.501 54.9 230.603 56.9236 234.261 60.8259L236.45 58.7741C232.108 54.1431 226.144 51.9 218.755 51.9V54.9ZM234.27 60.8349C238.007 64.756 239.955 70.1823 239.955 77.3H242.955C242.955 69.6177 240.837 63.3773 236.441 58.7651L234.27 60.8349ZM239.955 77.3V110H242.955V77.3H239.955ZM241.455 108.5H221.855V111.5H241.455V108.5ZM223.355 110V79.9H220.355V110H223.355ZM223.355 79.9C223.355 76.6161 222.436 73.8588 220.416 71.8393L218.295 73.9607C219.609 75.2746 220.355 77.1839 220.355 79.9H223.355ZM220.416 71.8393C218.409 69.8326 215.728 68.9 212.555 68.9V71.9C215.116 71.9 216.968 72.6341 218.295 73.9607L220.416 71.8393ZM212.555 68.9C209.383 68.9 206.702 69.8326 204.695 71.8393L206.816 73.9607C208.143 72.6341 209.995 71.9 212.555 71.9V68.9ZM204.695 71.8393C202.675 73.8588 201.755 76.6161 201.755 79.9H204.755C204.755 77.1839 205.502 75.2746 206.816 73.9607L204.695 71.8393ZM201.755 79.9V110H204.755V79.9H201.755ZM203.255 108.5H183.655V111.5H203.255V108.5ZM185.155 110V79.9H182.155V110H185.155ZM185.155 79.9C185.155 76.6161 184.236 73.8588 182.216 71.8393L180.095 73.9607C181.409 75.2746 182.155 77.1839 182.155 79.9H185.155ZM182.238 71.8612C180.29 69.832 177.626 68.9 174.455 68.9V71.9C177.019 71.9 178.821 72.6347 180.073 73.9388L182.238 71.8612ZM174.455 68.9C171.227 68.9 168.508 69.8261 166.495 71.8393L168.616 73.9607C169.936 72.6405 171.817 71.9 174.455 71.9V68.9ZM166.495 71.8393C164.475 73.8588 163.555 76.6161 163.555 79.9H166.555C166.555 77.1839 167.302 75.2746 168.616 73.9607L166.495 71.8393ZM163.555 79.9V110H166.555V79.9H163.555ZM165.055 108.5H145.455V111.5H165.055V108.5ZM146.955 110V53.9H143.955V110H146.955ZM145.455 55.4H165.055V52.4H145.455V55.4ZM163.555 53.9V61.3H166.555V53.9H163.555ZM166.271 62.1782C167.861 59.9777 169.909 58.2312 172.439 56.9351L171.072 54.2649C168.135 55.7688 165.717 57.8223 163.839 60.4218L166.271 62.1782ZM172.451 56.9287C175.009 55.5893 177.964 54.9 181.355 54.9V51.9C177.547 51.9 174.102 52.6773 171.059 54.2712L172.451 56.9287ZM181.355 54.9C185.264 54.9 188.672 55.7489 191.62 57.4074L193.091 54.7926C189.639 52.8511 185.713 51.9 181.355 51.9V54.9ZM191.632 57.4138C194.655 59.0795 197.022 61.4147 198.753 64.4442L201.358 62.9558C199.356 59.4519 196.59 56.7205 193.079 54.7862L191.632 57.4138ZM201.312 64.5194C203.178 61.6577 205.634 59.3543 208.7 57.6024L207.211 54.9976C203.744 56.979 200.933 59.609 198.799 62.8806L201.312 64.5194ZM208.719 57.5909C211.746 55.7995 215.081 54.9 218.755 54.9V51.9C214.564 51.9 210.698 52.9338 207.191 55.0091L208.719 57.5909ZM271.794 61.7H270.294V67.1963L273.086 62.462L271.794 61.7ZM278.294 55.5L277.573 54.1844L278.294 55.5ZM300.294 56.7L299.478 57.9588L299.488 57.9655L300.294 56.7ZM308.894 66.7L307.54 67.3457L307.544 67.3541L307.548 67.3625L308.894 66.7ZM308.894 97.2L307.544 96.5456L307.54 96.5543L308.894 97.2ZM300.294 107.2L299.488 105.934L299.478 105.941L300.294 107.2ZM278.294 108.4L277.56 109.708L277.567 109.712L277.573 109.716L278.294 108.4ZM271.794 102.2L273.071 101.414L270.294 96.9004V102.2H271.794ZM271.794 136.8V138.3H273.294V136.8H271.794ZM252.194 136.8H250.694V138.3H252.194V136.8ZM252.194 53.9V52.4H250.694V53.9H252.194ZM271.794 53.9H273.294V52.4H271.794V53.9ZM289.194 73.4L288.098 74.4247L288.115 74.443L288.133 74.4607L289.194 73.4ZM274.694 73.4L273.616 72.3569L273.607 72.366L273.598 72.3753L274.694 73.4ZM274.694 90.5L273.598 91.5247L273.607 91.534L273.616 91.5431L274.694 90.5ZM289.194 90.5L288.099 89.4741L288.098 89.4753L289.194 90.5ZM273.086 62.462C274.474 60.1082 276.437 58.227 279.014 56.8156L277.573 54.1844C274.551 55.8396 272.18 58.0918 270.502 60.938L273.086 62.462ZM279.014 56.8156C281.555 55.4244 284.598 54.7 288.194 54.7V51.7C284.19 51.7 280.633 52.509 277.573 54.1844L279.014 56.8156ZM288.194 54.7C292.383 54.7 296.131 55.7896 299.478 57.9587L301.11 55.4413C297.256 52.9438 292.937 51.7 288.194 51.7V54.7ZM299.488 57.9655C302.893 60.1322 305.581 63.2389 307.54 67.3457L310.248 66.0543C308.073 61.4945 305.028 57.9344 301.099 55.4345L299.488 57.9655ZM307.548 67.3625C309.561 71.4524 310.594 76.2841 310.594 81.9H313.594C313.594 75.9159 312.493 70.6143 310.24 66.0375L307.548 67.3625ZM310.594 81.9C310.594 87.5151 309.562 92.3841 307.544 96.5456L310.243 97.8544C312.492 93.2159 313.594 87.8849 313.594 81.9H310.594ZM307.54 96.5543C305.581 100.661 302.893 103.768 299.488 105.935L301.099 108.465C305.028 105.966 308.073 102.406 310.248 97.8457L307.54 96.5543ZM299.478 105.941C296.131 108.11 292.383 109.2 288.194 109.2V112.2C292.937 112.2 297.256 110.956 301.11 108.459L299.478 105.941ZM288.194 109.2C284.598 109.2 281.555 108.476 279.014 107.084L277.573 109.716C280.633 111.391 284.19 112.2 288.194 112.2V109.2ZM279.028 107.092C276.511 105.68 274.534 103.79 273.071 101.414L270.516 102.986C272.254 105.81 274.61 108.053 277.56 109.708L279.028 107.092ZM270.294 102.2V136.8H273.294V102.2H270.294ZM271.794 135.3H252.194V138.3H271.794V135.3ZM253.694 136.8V53.9H250.694V136.8H253.694ZM252.194 55.4H271.794V52.4H252.194V55.4ZM270.294 53.9V61.7H273.294V53.9H270.294ZM293.694 81.9C293.694 77.9585 292.612 74.6971 290.254 72.3393L288.133 74.4607C289.775 76.1029 290.694 78.5081 290.694 81.9H293.694ZM290.289 72.3753C288.068 70.001 285.269 68.8 281.994 68.8V71.8C284.451 71.8 286.453 72.6657 288.098 74.4247L290.289 72.3753ZM281.994 68.8C278.719 68.8 275.897 69.9993 273.616 72.3569L275.772 74.4431C277.49 72.6674 279.535 71.8 281.994 71.8V68.8ZM273.598 72.3753C271.34 74.7895 270.294 78.0271 270.294 81.9H273.294C273.294 78.5729 274.181 76.1438 275.789 74.4247L273.598 72.3753ZM270.294 81.9C270.294 85.831 271.335 89.1056 273.598 91.5247L275.789 89.4753C274.186 87.7611 273.294 85.3024 273.294 81.9H270.294ZM273.616 91.5431C275.897 93.9007 278.719 95.1 281.994 95.1V92.1C279.535 92.1 277.49 91.2326 275.772 89.4569L273.616 91.5431ZM281.994 95.1C285.269 95.1 288.068 93.899 290.289 91.5247L288.098 89.4753C286.453 91.2343 284.451 92.1 281.994 92.1V95.1ZM290.288 91.5259C292.606 89.0537 293.694 85.7885 293.694 81.9H290.694C290.694 85.2115 289.782 87.6797 288.099 89.4741L290.288 91.5259ZM320.062 66.7L318.717 66.0375L318.713 66.0459L318.709 66.0543L320.062 66.7ZM328.663 56.7L327.857 55.4345L327.847 55.4413L328.663 56.7ZM350.862 55.5L350.142 56.8156L350.862 55.5ZM357.363 61.7L356.07 62.462L358.863 67.1963V61.7H357.363ZM357.363 53.9V52.4H355.863V53.9H357.363ZM376.962 53.9H378.462V52.4H376.962V53.9ZM376.962 110V111.5H378.462V110H376.962ZM357.363 110H355.863V111.5H357.363V110ZM357.363 102.2H358.863V96.7037L356.07 101.438L357.363 102.2ZM350.763 108.4L350.055 107.077L350.049 107.081L350.042 107.084L350.763 108.4ZM328.663 107.2L327.847 108.459L327.857 108.465L328.663 107.2ZM320.062 97.2L318.705 97.8377L318.711 97.8502L318.717 97.8625L320.062 97.2ZM354.363 73.4L353.267 74.4247L353.276 74.434L353.285 74.4431L354.363 73.4ZM339.862 73.4L340.941 74.4425L340.95 74.4337L340.958 74.4247L339.862 73.4ZM339.862 90.5L338.751 91.5073L338.759 91.5161L338.767 91.5247L339.862 90.5ZM354.363 90.5L353.285 89.4569L353.276 89.466L353.267 89.4753L354.363 90.5ZM318.462 81.9C318.462 76.2777 319.464 71.4398 321.416 67.3457L318.709 66.0543C316.528 70.6269 315.462 75.9223 315.462 81.9H318.462ZM321.408 67.3625C323.437 63.2408 326.133 60.1269 329.478 57.9587L327.847 55.4413C323.992 57.9397 320.954 61.4925 318.717 66.0375L321.408 67.3625ZM329.468 57.9655C332.887 55.7897 336.673 54.7 340.862 54.7V51.7C336.119 51.7 331.771 52.9436 327.857 55.4345L329.468 57.9655ZM340.862 54.7C344.53 54.7 347.605 55.4263 350.142 56.8156L351.583 54.1844C348.52 52.507 344.928 51.7 340.862 51.7V54.7ZM350.142 56.8156C352.719 58.227 354.682 60.1082 356.07 62.462L358.655 60.938C356.976 58.0918 354.606 55.8396 351.583 54.1844L350.142 56.8156ZM358.863 61.7V53.9H355.863V61.7H358.863ZM357.363 55.4H376.962V52.4H357.363V55.4ZM375.462 53.9V110H378.462V53.9H375.462ZM376.962 108.5H357.363V111.5H376.962V108.5ZM358.863 110V102.2H355.863V110H358.863ZM356.07 101.438C354.688 103.783 352.699 105.663 350.055 107.077L351.47 109.723C354.56 108.07 356.971 105.817 358.655 102.962L356.07 101.438ZM350.042 107.084C347.501 108.476 344.459 109.2 340.862 109.2V112.2C344.866 112.2 348.424 111.391 351.483 109.716L350.042 107.084ZM340.862 109.2C336.673 109.2 332.887 108.11 329.468 105.935L327.857 108.465C331.771 110.956 336.119 112.2 340.862 112.2V109.2ZM329.478 105.941C326.133 103.773 323.437 100.659 321.408 96.5375L318.717 97.8625C320.954 102.407 323.992 105.96 327.847 108.459L329.478 105.941ZM321.42 96.5623C319.464 92.3967 318.462 87.5216 318.462 81.9H315.462C315.462 87.8784 316.528 93.2033 318.705 97.8377L321.42 96.5623ZM358.863 81.9C358.863 78.0136 357.775 74.7694 355.44 72.3569L353.285 74.4431C354.95 76.1639 355.863 78.5863 355.863 81.9H358.863ZM355.458 72.3753C353.237 70.001 350.438 68.8 347.163 68.8V71.8C349.62 71.8 351.622 72.6657 353.267 74.4247L355.458 72.3753ZM347.163 68.8C343.831 68.8 340.996 69.9931 338.767 72.3753L340.958 74.4247C342.596 72.6735 344.627 71.8 347.163 71.8V68.8ZM338.784 72.3575C336.503 74.7172 335.462 77.972 335.462 81.9H338.462C338.462 78.4946 339.355 76.0828 340.941 74.4425L338.784 72.3575ZM335.462 81.9C335.462 85.7753 336.509 89.0337 338.751 91.5073L340.974 89.4927C339.349 87.6996 338.462 85.2247 338.462 81.9H335.462ZM338.767 91.5247C340.996 93.9069 343.831 95.1 347.163 95.1V92.1C344.627 92.1 342.596 91.2265 340.958 89.4753L338.767 91.5247ZM347.163 95.1C350.438 95.1 353.237 93.899 355.458 91.5247L353.267 89.4753C351.622 91.2343 349.62 92.1 347.163 92.1V95.1ZM355.44 91.5431C357.78 89.1255 358.863 85.8442 358.863 81.9H355.863C355.863 85.2891 354.945 87.7411 353.285 89.4569L355.44 91.5431ZM421.231 93.3H422.731V91.8H421.231V93.3ZM421.231 110V111.5H422.731V110H421.231ZM391.231 70.2H392.731V68.7H391.231V70.2ZM384.331 70.2H382.831V71.7H384.331V70.2ZM384.331 53.9V52.4H382.831V53.9H384.331ZM391.231 53.9V55.4H392.731V53.9H391.231ZM391.231 40.3V38.8H389.731V40.3H391.231ZM410.931 40.3H412.431V38.8H410.931V40.3ZM410.931 53.9H409.431V55.4H410.931V53.9ZM421.131 53.9H422.631V52.4H421.131V53.9ZM421.131 70.2V71.7H422.631V70.2H421.131ZM410.931 70.2V68.7H409.431V70.2H410.931ZM411.931 92.3L410.871 93.3607L410.896 93.3859L410.922 93.4099L411.931 92.3ZM419.731 93.3V110H422.731V93.3H419.731ZM421.231 108.5H412.731V111.5H421.231V108.5ZM412.731 108.5C405.792 108.5 400.864 106.782 397.662 103.609C394.462 100.439 392.731 95.5652 392.731 88.7H389.731C389.731 96.0348 391.584 101.811 395.551 105.741C399.515 109.668 405.337 111.5 412.731 111.5V108.5ZM392.731 88.7V70.2H389.731V88.7H392.731ZM391.231 68.7H384.331V71.7H391.231V68.7ZM385.831 70.2V53.9H382.831V70.2H385.831ZM384.331 55.4H391.231V52.4H384.331V55.4ZM392.731 53.9V40.3H389.731V53.9H392.731ZM391.231 41.8H410.931V38.8H391.231V41.8ZM409.431 40.3V53.9H412.431V40.3H409.431ZM410.931 55.4H421.131V52.4H410.931V55.4ZM419.631 53.9V70.2H422.631V53.9H419.631ZM421.131 68.7H410.931V71.7H421.131V68.7ZM409.431 70.2V89H412.431V70.2H409.431ZM409.431 89C409.431 90.693 409.79 92.2801 410.871 93.3607L412.992 91.2393C412.739 90.9866 412.431 90.3736 412.431 89H409.431ZM410.922 93.4099C412.067 94.4508 413.728 94.8 415.531 94.8V91.8C414.001 91.8 413.262 91.4826 412.94 91.1901L410.922 93.4099ZM415.531 94.8H421.231V91.8H415.531V94.8ZM431.721 45.9L430.696 46.9954L430.715 47.0124L430.733 47.0289L431.721 45.9ZM431.721 31.4L430.714 30.2885L430.705 30.2965L430.696 30.3046L431.721 31.4ZM448.321 31.4L447.296 32.4954L447.305 32.5035L447.314 32.5115L448.321 31.4ZM448.321 45.9L449.327 47.0132L449.328 47.0115L448.321 45.9ZM449.821 53.9H451.321V52.4H449.821V53.9ZM449.821 110V111.5H451.321V110H449.821ZM430.221 110H428.721V111.5H430.221V110ZM430.221 53.9V52.4H428.721V53.9H430.221ZM440.121 47.2C436.933 47.2 434.511 46.3482 432.709 44.7711L430.733 47.0289C433.198 49.1851 436.376 50.2 440.121 50.2V47.2ZM432.746 44.8046C430.987 43.159 430.121 41.1576 430.121 38.7H427.121C427.121 41.9757 428.322 44.7743 430.696 46.9954L432.746 44.8046ZM430.121 38.7C430.121 36.1647 430.995 34.1336 432.746 32.4954L430.696 30.3046C428.314 32.533 427.121 35.3686 427.121 38.7H430.121ZM432.728 32.5115C434.532 30.8772 436.947 30 440.121 30V27C436.362 27 433.177 28.0561 430.714 30.2885L432.728 32.5115ZM440.121 30C443.222 30 445.562 30.8726 447.296 32.4954L449.346 30.3046C446.947 28.0607 443.82 27 440.121 27V30ZM447.314 32.5115C449.127 34.1544 450.021 36.181 450.021 38.7H453.021C453.021 35.3523 451.782 32.5122 449.328 30.2885L447.314 32.5115ZM450.021 38.7C450.021 41.1411 449.135 43.1381 447.314 44.7885L449.328 47.0115C451.774 44.7952 453.021 41.9922 453.021 38.7H450.021ZM447.316 44.7868C445.582 46.3523 443.236 47.2 440.121 47.2V50.2C443.807 50.2 446.926 49.181 449.327 47.0131L447.316 44.7868ZM448.321 53.9V110H451.321V53.9H448.321ZM449.821 108.5H430.221V111.5H449.821V108.5ZM431.721 110V53.9H428.721V110H431.721ZM430.221 55.4H449.821V52.4H430.221V55.4ZM480.583 61.7H479.083V67.3179L481.883 62.4477L480.583 61.7ZM487.083 55.5L487.779 56.8287L487.791 56.8223L487.803 56.8156L487.083 55.5ZM509.083 56.7L508.267 57.9588L508.277 57.9655L509.083 56.7ZM517.683 66.7L516.329 67.3457L516.333 67.3541L516.337 67.3625L517.683 66.7ZM517.683 97.2L516.333 96.5456L516.329 96.5543L517.683 97.2ZM509.083 107.2L508.277 105.934L508.267 105.941L509.083 107.2ZM487.083 108.5L486.362 109.816L486.375 109.822L486.387 109.829L487.083 108.5ZM480.583 102.2L481.883 101.452L479.083 96.5821V102.2H480.583ZM480.583 110V111.5H482.083V110H480.583ZM460.983 110H459.483V111.5H460.983V110ZM460.983 36V34.5H459.483V36H460.983ZM480.583 36H482.083V34.5H480.583V36ZM497.983 73.4L496.887 74.4247L496.904 74.443L496.922 74.4607L497.983 73.4ZM483.483 73.4L482.405 72.3569L482.396 72.366L482.387 72.3753L483.483 73.4ZM483.483 90.5L482.387 91.5247L482.396 91.534L482.405 91.5431L483.483 90.5ZM497.983 90.5L496.889 89.4741L496.887 89.4753L497.983 90.5ZM481.883 62.4477C483.27 60.0353 485.224 58.167 487.779 56.8287L486.387 54.1712C483.342 55.7664 480.962 58.0313 479.282 60.9523L481.883 62.4477ZM487.803 56.8156C490.344 55.4244 493.387 54.7 496.983 54.7V51.7C492.979 51.7 489.422 52.509 486.362 54.1844L487.803 56.8156ZM496.983 54.7C501.173 54.7 504.92 55.7896 508.267 57.9587L509.899 55.4413C506.045 52.9438 501.726 51.7 496.983 51.7V54.7ZM508.277 57.9655C511.682 60.1322 514.37 63.2389 516.329 67.3457L519.037 66.0543C516.862 61.4945 513.817 57.9344 509.888 55.4345L508.277 57.9655ZM516.337 67.3625C518.351 71.4524 519.383 76.2841 519.383 81.9H522.383C522.383 75.9159 521.282 70.6143 519.029 66.0375L516.337 67.3625ZM519.383 81.9C519.383 87.5151 518.351 92.3841 516.333 96.5456L519.033 97.8544C521.281 93.2159 522.383 87.8849 522.383 81.9H519.383ZM516.329 96.5543C514.37 100.661 511.682 103.768 508.277 105.935L509.888 108.465C513.817 105.966 516.862 102.406 519.037 97.8457L516.329 96.5543ZM508.267 105.941C504.92 108.11 501.173 109.2 496.983 109.2V112.2C501.726 112.2 506.045 110.956 509.899 108.459L508.267 105.941ZM496.983 109.2C493.377 109.2 490.325 108.505 487.779 107.171L486.387 109.829C489.441 111.428 492.989 112.2 496.983 112.2V109.2ZM487.803 107.184C485.236 105.778 483.274 103.871 481.883 101.452L479.282 102.948C480.959 105.863 483.33 108.155 486.362 109.816L487.803 107.184ZM479.083 102.2V110H482.083V102.2H479.083ZM480.583 108.5H460.983V111.5H480.583V108.5ZM462.483 110V36H459.483V110H462.483ZM460.983 37.5H480.583V34.5H460.983V37.5ZM479.083 36V61.7H482.083V36H479.083ZM502.483 81.9C502.483 77.9585 501.401 74.6971 499.043 72.3393L496.922 74.4607C498.564 76.1029 499.483 78.5081 499.483 81.9H502.483ZM499.078 72.3753C496.857 70.001 494.059 68.8 490.783 68.8V71.8C493.24 71.8 495.242 72.6657 496.887 74.4247L499.078 72.3753ZM490.783 68.8C487.508 68.8 484.686 69.9993 482.405 72.3569L484.561 74.4431C486.279 72.6674 488.324 71.8 490.783 71.8V68.8ZM482.387 72.3753C480.129 74.7895 479.083 78.0271 479.083 81.9H482.083C482.083 78.5729 482.97 76.1438 484.578 74.4247L482.387 72.3753ZM479.083 81.9C479.083 85.831 480.124 89.1056 482.387 91.5247L484.578 89.4753C482.975 87.7611 482.083 85.3024 482.083 81.9H479.083ZM482.405 91.5431C484.686 93.9007 487.508 95.1 490.783 95.1V92.1C488.324 92.1 486.279 91.2326 484.561 89.4569L482.405 91.5431ZM490.783 95.1C494.059 95.1 496.857 93.899 499.078 91.5247L496.887 89.4753C495.242 91.2343 493.24 92.1 490.783 92.1V95.1ZM499.077 91.5259C501.395 89.0537 502.483 85.7885 502.483 81.9H499.483C499.483 85.2115 498.571 87.6797 496.889 89.4741L499.077 91.5259ZM548.552 36H550.052V34.5H548.552V36ZM548.552 110V111.5H550.052V110H548.552ZM528.952 110H527.452V111.5H528.952V110ZM528.952 36V34.5H527.452V36H528.952ZM547.052 36V110H550.052V36H547.052ZM548.552 108.5H528.952V111.5H548.552V108.5ZM530.452 110V36H527.452V110H530.452ZM528.952 37.5H548.552V34.5H528.952V37.5ZM613.013 85.9V87.4H614.33L614.501 86.094L613.013 85.9ZM575.913 85.9V84.4H574.312L574.416 85.9976L575.913 85.9ZM578.413 92.8L577.329 93.8368L577.352 93.8609L577.376 93.884L578.413 92.8ZM591.213 90.6V89.1H590.267L589.86 89.9539L591.213 90.6ZM612.113 90.6L613.577 90.9281L613.987 89.1H612.113V90.6ZM607.013 101L605.857 100.045L605.855 100.047L607.013 101ZM597.613 108.1L598.236 109.465L597.613 108.1ZM570.213 107.2L569.494 108.516L569.502 108.521L570.213 107.2ZM560.113 97.2L558.801 97.9268L558.805 97.9344L558.81 97.942L560.113 97.2ZM560.113 66.7L561.421 67.4354L561.425 67.4268L560.113 66.7ZM570.113 56.7L569.402 55.3793L569.394 55.3839L570.113 56.7ZM599.713 56.6L600.417 55.2753L599.713 56.6ZM609.713 66.4L608.406 67.1354L608.411 67.1442L609.713 66.4ZM593.313 76.4V77.9H594.813V76.4H593.313ZM590.913 70.8L589.926 71.9289L589.939 71.9408L589.953 71.9523L590.913 70.8ZM579.013 70.7L579.969 71.8564L579.983 71.8444L579.998 71.8319L579.013 70.7ZM576.013 76.4L574.538 76.1283L574.212 77.9H576.013V76.4ZM611.813 81.3C611.813 82.7679 611.718 84.2364 611.526 85.706L614.501 86.094C614.709 84.4969 614.813 82.8988 614.813 81.3H611.813ZM613.013 84.4H575.913V87.4H613.013V84.4ZM574.416 85.9976C574.629 89.262 575.53 91.9558 577.329 93.8368L579.497 91.7632C578.363 90.5776 577.597 88.6713 577.41 85.8024L574.416 85.9976ZM577.376 93.884C579.218 95.6453 581.536 96.5 584.213 96.5V93.5C582.224 93.5 580.675 92.888 579.45 91.716L577.376 93.884ZM584.213 96.5C586.076 96.5 587.765 96.0795 589.212 95.17C590.659 94.2601 591.767 92.9224 592.567 91.2461L589.86 89.9539C589.26 91.2109 588.501 92.0732 587.615 92.63C586.729 93.1872 585.617 93.5 584.213 93.5V96.5ZM591.213 92.1H612.113V89.1H591.213V92.1ZM610.65 90.2719C609.835 93.9073 608.24 97.1593 605.857 100.045L608.17 101.955C610.853 98.7074 612.658 95.026 613.577 90.9281L610.65 90.2719ZM605.855 100.047C603.544 102.858 600.599 105.089 596.991 106.735L598.236 109.465C602.228 107.644 605.549 105.142 608.172 101.953L605.855 100.047ZM596.991 106.735C593.405 108.371 589.42 109.2 585.013 109.2V112.2C589.806 112.2 594.221 111.296 598.236 109.465L596.991 106.735ZM585.013 109.2C579.697 109.2 575.013 108.081 570.924 105.879L569.502 108.521C574.08 110.986 579.263 112.2 585.013 112.2V109.2ZM570.933 105.884C566.917 103.688 563.75 100.556 561.417 96.458L558.81 97.942C561.41 102.511 564.976 106.046 569.494 108.516L570.933 105.884ZM561.425 96.4733C559.17 92.4001 558.013 87.5594 558.013 81.9H555.013C555.013 87.974 556.257 93.3333 558.801 97.9268L561.425 96.4733ZM558.013 81.9C558.013 76.2399 559.17 71.4369 561.421 67.4354L558.806 65.9646C556.257 70.4965 555.013 75.8268 555.013 81.9H558.013ZM561.425 67.4268C563.69 63.3371 566.82 60.2104 570.833 58.0161L569.394 55.3839C564.873 57.8563 561.336 61.3962 558.801 65.9732L561.425 67.4268ZM570.824 58.0207C574.911 55.8204 579.627 54.7 585.013 54.7V51.7C579.2 51.7 573.983 52.9129 569.402 55.3793L570.824 58.0207ZM585.013 54.7C590.337 54.7 594.989 55.7889 599.01 57.9247L600.417 55.2753C595.904 52.8778 590.756 51.7 585.013 51.7V54.7ZM599.01 57.9247C603.019 60.0548 606.145 63.1153 608.406 67.1354L611.021 65.6646C608.482 61.1513 604.941 57.6785 600.417 55.2753L599.01 57.9247ZM608.411 67.1442C610.659 71.0788 611.813 75.7792 611.813 81.3H614.813C614.813 75.3542 613.567 70.1212 611.016 65.6558L608.411 67.1442ZM594.813 76.4C594.813 73.6306 593.87 71.3112 591.874 69.6477L589.953 71.9523C591.157 72.9555 591.813 74.3694 591.813 76.4H594.813ZM591.901 69.6711C589.992 68.0009 587.627 67.2 584.913 67.2V70.2C587 70.2 588.634 70.7991 589.926 71.9289L591.901 69.6711ZM584.913 67.2C582.221 67.2 579.883 67.9557 578.029 69.5681L579.998 71.8319C581.21 70.7776 582.806 70.2 584.913 70.2V67.2ZM578.058 69.5436C576.181 71.0942 575.049 73.3523 574.538 76.1283L577.488 76.6717C577.91 74.3811 578.779 72.8392 579.969 71.8564L578.058 69.5436ZM576.013 77.9H593.313V74.9H576.013V77.9ZM646.875 104.9L645.977 106.102L645.987 106.109L646.875 104.9ZM638.375 88.1V86.6H636.79L636.877 88.1824L638.375 88.1ZM659.275 88.1L660.77 87.9788L660.658 86.6H659.275V88.1ZM661.475 93.5L660.475 94.6179L661.475 93.5ZM670.775 93.9L671.686 95.0916L671.696 95.084L670.775 93.9ZM669.675 85.3L670.434 84.006L669.675 85.3ZM660.275 81.5L659.801 82.9231L659.814 82.9274L660.275 81.5ZM649.075 77.1L648.379 78.4287L648.398 78.4386L648.417 78.4478L649.075 77.1ZM641.675 70.8L640.468 71.6908L640.48 71.707L640.493 71.7229L641.675 70.8ZM641.975 48.3L643.199 49.167L643.203 49.1611L643.207 49.1551L641.975 48.3ZM651.375 40.9L650.798 39.5154L651.375 40.9ZM684.575 44.2L683.642 45.3744L683.651 45.3815L683.66 45.3883L684.575 44.2ZM692.475 60.3V61.8H694.049L693.973 60.228L692.475 60.3ZM671.175 60.3L669.676 60.3469L669.721 61.8H671.175V60.3ZM669.175 55.5L668.178 56.6211L668.193 56.6344L668.209 56.6474L669.175 55.5ZM660.875 55.2L661.896 56.2992L660.875 55.2ZM660.975 62.4L659.914 63.4607L659.95 63.496L659.987 63.5289L660.975 62.4ZM664.875 64.9L664.228 66.2532L664.252 66.2648L664.277 66.2756L664.875 64.9ZM671.675 67.5L671.172 68.9133L671.18 68.9161L671.188 68.9187L671.675 67.5ZM682.675 72.1L681.968 73.4227L681.986 73.4324L682.004 73.4416L682.675 72.1ZM690.175 78.4L688.979 79.3047L688.991 79.321L689.004 79.337L690.175 78.4ZM690.175 99.9L688.912 99.0914L688.906 99.1005L688.9 99.1096L690.175 99.9ZM681.075 107.8L680.422 106.449L680.413 106.454L681.075 107.8ZM667.075 109.2C659.112 109.2 652.713 107.325 647.763 103.691L645.987 106.109C651.571 110.208 658.638 112.2 667.075 112.2V109.2ZM647.773 103.698C642.903 100.061 640.251 94.8943 639.873 88.0176L636.877 88.1824C637.299 95.839 640.314 101.872 645.977 106.102L647.773 103.698ZM638.375 89.6H659.275V86.6H638.375V89.6ZM657.78 88.2212C657.997 90.8978 658.814 93.1317 660.475 94.6179L662.475 92.3821C661.603 91.6016 660.953 90.2355 660.77 87.9788L657.78 88.2212ZM660.475 94.6179C662.064 96.0397 664.075 96.7 666.375 96.7V93.7C664.675 93.7 663.419 93.2269 662.475 92.3821L660.475 94.6179ZM666.375 96.7C668.417 96.7 670.229 96.2056 671.686 95.0915L669.864 92.7085C669.054 93.3278 667.933 93.7 666.375 93.7V96.7ZM671.696 95.084C673.283 93.8496 674.075 92.1347 674.075 90.1H671.075C671.075 91.2653 670.667 92.0837 669.854 92.716L671.696 95.084ZM674.075 90.1C674.075 87.4486 672.779 85.3809 670.434 84.006L668.916 86.594C670.438 87.4857 671.075 88.618 671.075 90.1H674.075ZM670.434 84.006C668.353 82.7861 665.09 81.4792 660.736 80.0726L659.814 82.9274C664.127 84.3208 667.131 85.5472 668.916 86.594L670.434 84.006ZM660.749 80.077C656.184 78.555 652.518 77.1123 649.733 75.7521L648.417 78.4478C651.365 79.8877 655.167 81.3783 659.801 82.923L660.749 80.077ZM649.771 75.7712C647.178 74.4129 644.872 72.4585 642.857 69.8771L640.493 71.7229C642.744 74.6081 645.372 76.8537 648.379 78.4287L649.771 75.7712ZM642.882 69.9092C641.053 67.432 640.075 64.1373 640.075 59.9H637.075C637.075 64.596 638.163 68.5679 640.468 71.6908L642.882 69.9092ZM640.075 59.9C640.075 55.6272 641.139 52.0755 643.199 49.167L640.751 47.433C638.278 50.9245 637.075 55.1061 637.075 59.9H640.075ZM643.207 49.1551C645.296 46.145 648.192 43.8513 651.952 42.2846L650.798 39.5154C646.558 41.282 643.187 43.9216 640.743 47.4449L643.207 49.1551ZM651.952 42.2846C655.741 40.7059 660.073 39.9 664.975 39.9V36.9C659.743 36.9 655.009 37.7608 650.798 39.5154L651.952 42.2846ZM664.975 39.9C672.945 39.9 679.115 41.7774 683.642 45.3744L685.508 43.0256C680.302 38.8892 673.405 36.9 664.975 36.9V39.9ZM683.66 45.3883C688.202 48.887 690.662 53.8216 690.977 60.372L693.973 60.228C693.622 52.9117 690.815 47.113 685.49 43.0117L683.66 45.3883ZM692.475 58.8H671.175V61.8H692.475V58.8ZM672.674 60.2531C672.598 57.8248 671.822 55.7681 670.141 54.3526L668.209 56.6474C669.061 57.3652 669.618 58.5085 669.676 60.3469L672.674 60.2531ZM670.172 54.3789C668.643 53.0204 666.697 52.4 664.475 52.4V55.4C666.12 55.4 667.307 55.8462 668.178 56.6211L670.172 54.3789ZM664.475 52.4C662.691 52.4 661.107 52.9375 659.854 54.1008L661.896 56.2992C662.51 55.7291 663.325 55.4 664.475 55.4V52.4ZM659.854 54.1008C658.541 55.3206 657.975 56.9969 657.975 58.9H660.975C660.975 57.6031 661.343 56.8128 661.896 56.2992L659.854 54.1008ZM657.975 58.9C657.975 60.6572 658.652 62.1983 659.914 63.4607L662.036 61.3393C661.298 60.6017 660.975 59.8095 660.975 58.9H657.975ZM659.987 63.5289C661.175 64.5679 662.595 65.4723 664.228 66.2532L665.522 63.5468C664.088 62.8611 662.909 62.0988 661.963 61.2711L659.987 63.5289ZM664.277 66.2756C665.858 66.9631 668.163 67.8434 671.172 68.9133L672.177 66.0867C669.187 65.0232 666.958 64.1702 665.473 63.5244L664.277 66.2756ZM671.188 68.9187C675.609 70.4366 679.195 71.94 681.968 73.4227L683.383 70.7773C680.421 69.1934 676.674 67.6301 672.162 66.0813L671.188 68.9187ZM682.004 73.4416C684.722 74.8004 687.045 76.747 688.979 79.3047L691.372 77.4953C689.172 74.5863 686.495 72.3329 683.346 70.7584L682.004 73.4416ZM689.004 79.337C690.882 81.6852 691.875 84.7332 691.875 88.6H694.875C694.875 84.2001 693.734 80.4482 691.346 77.463L689.004 79.337ZM691.875 88.6C691.875 92.5318 690.881 96.0145 688.912 99.0914L691.438 100.709C693.736 97.1188 694.875 93.0682 694.875 88.6H691.875ZM688.9 99.1096C687.003 102.17 684.201 104.623 680.422 106.449L681.728 109.151C685.949 107.11 689.214 104.297 691.45 100.69L688.9 99.1096ZM680.413 106.454C676.728 108.265 672.298 109.2 667.075 109.2V112.2C672.652 112.2 677.555 111.201 681.737 109.146L680.413 106.454ZM713.487 107.2L712.784 108.525L712.792 108.53L713.487 107.2ZM703.087 97.2L704.382 96.443L703.087 97.2ZM703.087 66.7L701.8 65.9283L701.796 65.9356L701.792 65.943L703.087 66.7ZM713.587 56.7L712.892 55.3704L712.884 55.3748L713.587 56.7ZM743.687 56.7L742.984 58.0252L742.992 58.0295L743.687 56.7ZM754.187 66.7L752.892 67.457L752.896 67.4644L752.9 67.4717L754.187 66.7ZM754.187 97.2L752.895 96.4369L752.892 96.443L754.187 97.2ZM743.687 107.2L742.992 105.87L743.687 107.2ZM735.387 90.7L734.274 89.6946L734.272 89.6966L735.387 90.7ZM735.387 73.2L734.272 74.2034L734.281 74.2135L734.29 74.2235L735.387 73.2ZM721.887 90.7L720.753 91.6824L721.887 90.7ZM728.587 109.2C723.201 109.2 718.411 108.08 714.181 105.87L712.792 108.53C717.496 110.987 722.772 112.2 728.587 112.2V109.2ZM714.189 105.875C710.038 103.673 706.775 100.538 704.382 96.443L701.792 97.957C704.465 102.529 708.136 106.06 712.784 108.525L714.189 105.875ZM704.382 96.443C702.004 92.3755 700.787 87.546 700.787 81.9H697.787C697.787 87.9874 699.103 93.3578 701.792 97.957L704.382 96.443ZM700.787 81.9C700.787 76.3241 702.002 71.527 704.382 67.457L701.792 65.943C699.104 70.5397 697.787 75.8759 697.787 81.9H700.787ZM704.373 67.4717C706.835 63.3689 710.134 60.2286 714.289 58.0252L712.884 55.3748C708.239 57.838 704.539 61.3644 701.8 65.9283L704.373 67.4717ZM714.281 58.0295C718.511 55.8202 723.301 54.7 728.687 54.7V51.7C722.872 51.7 717.596 52.9131 712.892 55.3705L714.281 58.0295ZM728.687 54.7C734.073 54.7 738.826 55.8203 742.984 58.0252L744.389 55.3748C739.747 52.913 734.501 51.7 728.687 51.7V54.7ZM742.992 58.0295C747.21 60.2328 750.501 63.3682 752.892 67.457L755.482 65.943C752.805 61.3651 749.097 57.8338 744.381 55.3705L742.992 58.0295ZM752.9 67.4717C755.341 71.5392 756.587 76.331 756.587 81.9H759.587C759.587 75.869 758.232 70.5274 755.473 65.9283L752.9 67.4717ZM756.587 81.9C756.587 87.4685 755.341 92.2979 752.895 96.4369L755.478 97.9631C758.232 93.3021 759.587 87.9315 759.587 81.9H756.587ZM752.892 96.443C750.501 100.532 747.21 103.667 742.992 105.87L744.381 108.53C749.097 106.066 752.805 102.535 755.482 97.957L752.892 96.443ZM742.992 105.87C738.763 108.08 733.972 109.2 728.587 109.2V112.2C734.401 112.2 739.677 110.987 744.381 108.53L742.992 105.87ZM728.587 95.2C731.738 95.2 734.412 94.0252 736.502 91.7034L734.272 89.6966C732.761 91.3748 730.903 92.2 728.587 92.2V95.2ZM736.5 91.7054C738.694 89.2762 739.687 85.9348 739.687 81.9H736.687C736.687 85.4652 735.813 87.9905 734.274 89.6946L736.5 91.7054ZM739.687 81.9C739.687 77.8689 738.695 74.5468 736.483 72.1765L734.29 74.2235C735.811 75.8532 736.687 78.331 736.687 81.9H739.687ZM736.502 72.1965C734.42 69.8837 731.783 68.7 728.687 68.7V71.7C730.924 71.7 732.753 72.5163 734.272 74.2034L736.502 72.1965ZM728.687 68.7C725.59 68.7 722.953 69.8837 720.872 72.1965L723.102 74.2034C724.62 72.5163 726.45 71.7 728.687 71.7V68.7ZM720.872 72.1965C718.738 74.5673 717.787 77.8816 717.787 81.9H720.787C720.787 78.3184 721.635 75.8327 723.102 74.2034L720.872 72.1965ZM717.787 81.9C717.787 85.9648 718.695 89.3077 720.753 91.6824L723.02 89.7176C721.612 88.0922 720.787 85.5685 720.787 81.9H717.787ZM720.753 91.6824C722.782 94.0233 725.435 95.2 728.587 95.2V92.2C726.272 92.2 724.458 91.3767 723.02 89.7176L720.753 91.6824ZM766.461 66.7L767.773 67.4268L766.461 66.7ZM776.461 56.7L775.75 55.3793L775.741 55.3839L776.461 56.7ZM809.261 59.1L808.318 60.2667L808.328 60.2744L809.261 59.1ZM818.661 75.4V76.9H820.491L820.132 75.1058L818.661 75.4ZM797.861 75.4L796.435 75.8666L796.774 76.9H797.861V75.4ZM784.961 73L783.738 72.1319L783.732 72.1398L784.961 73ZM784.961 90.9L783.719 91.7413L783.728 91.7548L783.738 91.7681L784.961 90.9ZM797.861 88.5V87H796.755L796.428 88.057L797.861 88.5ZM818.661 88.5L820.131 88.7969L820.494 87H818.661V88.5ZM809.261 104.8L810.204 105.967L809.261 104.8ZM776.461 107.2L775.741 108.516L775.75 108.521L776.461 107.2ZM766.461 97.2L767.773 96.4733L766.461 97.2ZM764.361 81.9C764.361 76.3106 765.516 71.5024 767.773 67.4268L765.149 65.9732C762.606 70.5643 761.361 75.8894 761.361 81.9H764.361ZM767.773 67.4268C770.038 63.3371 773.168 60.2104 777.181 58.0161L775.741 55.3839C771.22 57.8563 767.684 61.3962 765.149 65.9732L767.773 67.4268ZM777.172 58.0207C781.261 55.8191 785.945 54.7 791.261 54.7V51.7C785.511 51.7 780.328 52.9143 775.75 55.3793L777.172 58.0207ZM791.261 54.7C798.102 54.7 803.755 56.5788 808.318 60.2666L810.204 57.9334C805.033 53.7545 798.687 51.7 791.261 51.7V54.7ZM808.328 60.2744C812.876 63.8881 815.849 68.9873 817.19 75.6942L820.132 75.1058C818.673 67.8127 815.379 62.0452 810.194 57.9256L808.328 60.2744ZM818.661 73.9H797.861V76.9H818.661V73.9ZM799.287 74.9334C798.622 72.902 797.598 71.243 796.138 70.0955C794.664 68.9375 792.871 68.4 790.861 68.4V71.4C792.317 71.4 793.425 71.7792 794.284 72.4545C795.157 73.1403 795.9 74.2313 796.435 75.8666L799.287 74.9334ZM790.861 68.4C787.893 68.4 785.477 69.6817 783.738 72.1319L786.184 73.8681C787.379 72.1849 788.896 71.4 790.861 71.4V68.4ZM783.732 72.1398C782.077 74.5036 781.361 77.8312 781.361 81.9H784.361C784.361 78.1021 785.044 75.4964 786.19 73.8602L783.732 72.1398ZM781.361 81.9C781.361 85.9741 782.08 89.321 783.719 91.7413L786.203 90.0587C785.042 88.3456 784.361 85.6925 784.361 81.9H781.361ZM783.738 91.7681C785.477 94.2183 787.893 95.5 790.861 95.5V92.5C788.896 92.5 787.379 91.7151 786.184 90.0319L783.738 91.7681ZM790.861 95.5C792.897 95.5 794.709 94.9664 796.188 93.8045C797.656 92.6511 798.664 90.9826 799.294 88.943L796.428 88.057C795.925 89.6841 795.2 90.7655 794.334 91.4455C793.48 92.1169 792.358 92.5 790.861 92.5V95.5ZM797.861 90H818.661V87H797.861V90ZM817.191 88.2031C815.85 94.8413 812.878 99.9482 808.318 103.633L810.204 105.967C815.378 101.785 818.672 96.0254 820.131 88.7969L817.191 88.2031ZM808.318 103.633C803.755 107.321 798.102 109.2 791.261 109.2V112.2C798.687 112.2 805.033 110.145 810.204 105.967L808.318 103.633ZM791.261 109.2C785.945 109.2 781.261 108.081 777.172 105.879L775.75 108.521C780.328 110.986 785.511 112.2 791.261 112.2V109.2ZM777.181 105.884C773.168 103.69 770.038 100.563 767.773 96.4733L765.149 97.9268C767.684 102.504 771.22 106.044 775.741 108.516L777.181 105.884ZM767.773 96.4733C765.517 92.4001 764.361 87.5594 764.361 81.9H761.361C761.361 87.974 762.605 93.3333 765.149 97.9268L767.773 96.4733ZM828.303 45.9L827.278 46.9954L827.297 47.0124L827.315 47.0289L828.303 45.9ZM828.303 31.4L827.296 30.2885L827.287 30.2965L827.278 30.3046L828.303 31.4ZM844.903 31.4L843.878 32.4954L843.887 32.5035L843.896 32.5115L844.903 31.4ZM844.903 45.9L845.909 47.0132L845.91 47.0115L844.903 45.9ZM846.403 53.9H847.903V52.4H846.403V53.9ZM846.403 110V111.5H847.903V110H846.403ZM826.803 110H825.303V111.5H826.803V110ZM826.803 53.9V52.4H825.303V53.9H826.803ZM836.703 47.2C833.515 47.2 831.093 46.3482 829.291 44.7711L827.315 47.0289C829.78 49.1851 832.958 50.2 836.703 50.2V47.2ZM829.328 44.8046C827.569 43.159 826.703 41.1576 826.703 38.7H823.703C823.703 41.9757 824.904 44.7743 827.278 46.9954L829.328 44.8046ZM826.703 38.7C826.703 36.1647 827.577 34.1336 829.328 32.4954L827.278 30.3046C824.896 32.533 823.703 35.3686 823.703 38.7H826.703ZM829.31 32.5115C831.114 30.8772 833.529 30 836.703 30V27C832.944 27 829.759 28.0561 827.296 30.2885L829.31 32.5115ZM836.703 30C839.804 30 842.144 30.8726 843.878 32.4954L845.928 30.3046C843.529 28.0607 840.402 27 836.703 27V30ZM843.896 32.5115C845.709 34.1544 846.603 36.181 846.603 38.7H849.603C849.603 35.3523 848.364 32.5122 845.91 30.2885L843.896 32.5115ZM846.603 38.7C846.603 41.1411 845.717 43.1381 843.896 44.7885L845.91 47.0115C848.356 44.7952 849.603 41.9922 849.603 38.7H846.603ZM843.898 44.7868C842.164 46.3523 839.818 47.2 836.703 47.2V50.2C840.389 50.2 843.508 49.181 845.909 47.0131L843.898 44.7868ZM844.903 53.9V110H847.903V53.9H844.903ZM846.403 108.5H826.803V111.5H846.403V108.5ZM828.303 110V53.9H825.303V110H828.303ZM826.803 55.4H846.403V52.4H826.803V55.4ZM857.465 66.7L856.119 66.0375L856.115 66.0459L856.111 66.0543L857.465 66.7ZM866.065 56.7L865.26 55.4345L865.249 55.4413L866.065 56.7ZM888.265 55.5L887.544 56.8156L888.265 55.5ZM894.765 61.7L893.473 62.462L896.265 67.1963V61.7H894.765ZM894.765 53.9V52.4H893.265V53.9H894.765ZM914.365 53.9H915.865V52.4H914.365V53.9ZM914.365 110V111.5H915.865V110H914.365ZM894.765 110H893.265V111.5H894.765V110ZM894.765 102.2H896.265V96.7037L893.473 101.438L894.765 102.2ZM888.165 108.4L887.457 107.077L887.451 107.081L887.444 107.084L888.165 108.4ZM866.065 107.2L865.249 108.459L865.26 108.465L866.065 107.2ZM857.465 97.2L856.107 97.8377L856.113 97.8502L856.119 97.8625L857.465 97.2ZM891.765 73.4L890.669 74.4247L890.678 74.434L890.687 74.4431L891.765 73.4ZM877.265 73.4L878.343 74.4425L878.352 74.4337L878.36 74.4247L877.265 73.4ZM877.265 90.5L876.153 91.5073L876.161 91.5161L876.169 91.5247L877.265 90.5ZM891.765 90.5L890.687 89.4569L890.678 89.466L890.669 89.4753L891.765 90.5ZM855.865 81.9C855.865 76.2777 856.866 71.4398 858.819 67.3457L856.111 66.0543C853.93 70.6269 852.865 75.9223 852.865 81.9H855.865ZM858.811 67.3625C860.84 63.2408 863.535 60.1269 866.881 57.9587L865.249 55.4413C861.394 57.9397 858.357 61.4925 856.119 66.0375L858.811 67.3625ZM866.87 57.9655C870.289 55.7897 874.075 54.7 878.265 54.7V51.7C873.521 51.7 869.174 52.9436 865.26 55.4345L866.87 57.9655ZM878.265 54.7C881.933 54.7 885.007 55.4263 887.544 56.8156L888.985 54.1844C885.922 52.507 882.331 51.7 878.265 51.7V54.7ZM887.544 56.8156C890.122 58.227 892.085 60.1082 893.473 62.462L896.057 60.938C894.378 58.0918 892.008 55.8396 888.985 54.1844L887.544 56.8156ZM896.265 61.7V53.9H893.265V61.7H896.265ZM894.765 55.4H914.365V52.4H894.765V55.4ZM912.865 53.9V110H915.865V53.9H912.865ZM914.365 108.5H894.765V111.5H914.365V108.5ZM896.265 110V102.2H893.265V110H896.265ZM893.473 101.438C892.09 103.783 890.101 105.663 887.457 107.077L888.872 109.723C891.962 108.07 894.373 105.817 896.057 102.962L893.473 101.438ZM887.444 107.084C884.904 108.476 881.861 109.2 878.265 109.2V112.2C882.269 112.2 885.826 111.391 888.885 109.716L887.444 107.084ZM878.265 109.2C874.075 109.2 870.289 108.11 866.87 105.935L865.26 108.465C869.174 110.956 873.521 112.2 878.265 112.2V109.2ZM866.881 105.941C863.535 103.773 860.84 100.659 858.811 96.5375L856.119 97.8625C858.357 102.407 861.394 105.96 865.249 108.459L866.881 105.941ZM858.823 96.5623C856.866 92.3967 855.865 87.5216 855.865 81.9H852.865C852.865 87.8784 853.93 93.2033 856.107 97.8377L858.823 96.5623ZM896.265 81.9C896.265 78.0136 895.177 74.7694 892.843 72.3569L890.687 74.4431C892.352 76.1639 893.265 78.5863 893.265 81.9H896.265ZM892.86 72.3753C890.639 70.001 887.841 68.8 884.565 68.8V71.8C887.022 71.8 889.024 72.6657 890.669 74.4247L892.86 72.3753ZM884.565 68.8C881.233 68.8 878.398 69.9931 876.169 72.3753L878.36 74.4247C879.998 72.6735 882.03 71.8 884.565 71.8V68.8ZM876.186 72.3575C873.905 74.7172 872.865 77.972 872.865 81.9H875.865C875.865 78.4946 876.758 76.0828 878.343 74.4425L876.186 72.3575ZM872.865 81.9C872.865 85.7753 873.912 89.0337 876.153 91.5073L878.376 89.4927C876.751 87.6996 875.865 85.2247 875.865 81.9H872.865ZM876.169 91.5247C878.398 93.9069 881.233 95.1 884.565 95.1V92.1C882.03 92.1 879.998 91.2265 878.36 89.4753L876.169 91.5247ZM884.565 95.1C887.841 95.1 890.639 93.899 892.86 91.5247L890.669 89.4753C889.024 91.2343 887.022 92.1 884.565 92.1V95.1ZM892.843 91.5431C895.182 89.1255 896.265 85.8442 896.265 81.9H893.265C893.265 85.2891 892.347 87.7411 890.687 89.4569L892.843 91.5431ZM945.134 36H946.634V34.5H945.134V36ZM945.134 110V111.5H946.634V110H945.134ZM925.534 110H924.034V111.5H925.534V110ZM925.534 36V34.5H924.034V36H925.534ZM943.634 36V110H946.634V36H943.634ZM945.134 108.5H925.534V111.5H945.134V108.5ZM927.034 110V36H924.034V110H927.034ZM925.534 37.5H945.134V34.5H925.534V37.5ZM1004.1 39.5H1005.6V38H1004.1V39.5ZM1004.1 55.1V56.6H1005.6V55.1H1004.1ZM975.895 55.1V53.6H974.395V55.1H975.895ZM975.895 67.5H974.395V69H975.895V67.5ZM996.695 67.5H998.195V66H996.695V67.5ZM996.695 82.4V83.9H998.195V82.4H996.695ZM975.895 82.4V80.9H974.395V82.4H975.895ZM975.895 110V111.5H977.395V110H975.895ZM956.295 110H954.795V111.5H956.295V110ZM956.295 39.5V38H954.795V39.5H956.295ZM1002.6 39.5V55.1H1005.6V39.5H1002.6ZM1004.1 53.6H975.895V56.6H1004.1V53.6ZM974.395 55.1V67.5H977.395V55.1H974.395ZM975.895 69H996.695V66H975.895V69ZM995.195 67.5V82.4H998.195V67.5H995.195ZM996.695 80.9H975.895V83.9H996.695V80.9ZM974.395 82.4V110H977.395V82.4H974.395ZM975.895 108.5H956.295V111.5H975.895V108.5ZM957.795 110V39.5H954.795V110H957.795ZM956.295 41H1004.1V38H956.295V41ZM1013.85 45.9L1012.83 46.9954L1012.84 47.0124L1012.86 47.0289L1013.85 45.9ZM1013.85 31.4L1012.84 30.2885L1012.83 30.2965L1012.83 30.3046L1013.85 31.4ZM1030.45 31.4L1029.43 32.4954L1029.43 32.5035L1029.44 32.5115L1030.45 31.4ZM1030.45 45.9L1031.46 47.0132L1031.46 47.0115L1030.45 45.9ZM1031.95 53.9H1033.45V52.4H1031.95V53.9ZM1031.95 110V111.5H1033.45V110H1031.95ZM1012.35 110H1010.85V111.5H1012.35V110ZM1012.35 53.9V52.4H1010.85V53.9H1012.35ZM1022.25 47.2C1019.06 47.2 1016.64 46.3482 1014.84 44.7711L1012.86 47.0289C1015.33 49.1851 1018.5 50.2 1022.25 50.2V47.2ZM1014.87 44.8046C1013.12 43.159 1012.25 41.1576 1012.25 38.7H1009.25C1009.25 41.9757 1010.45 44.7743 1012.83 46.9954L1014.87 44.8046ZM1012.25 38.7C1012.25 36.1647 1013.12 34.1336 1014.87 32.4954L1012.83 30.3046C1010.44 32.533 1009.25 35.3686 1009.25 38.7H1012.25ZM1014.86 32.5115C1016.66 30.8772 1019.08 30 1022.25 30V27C1018.49 27 1015.31 28.0561 1012.84 30.2885L1014.86 32.5115ZM1022.25 30C1025.35 30 1027.69 30.8726 1029.43 32.4954L1031.47 30.3046C1029.08 28.0607 1025.95 27 1022.25 27V30ZM1029.44 32.5115C1031.26 34.1544 1032.15 36.181 1032.15 38.7H1035.15C1035.15 35.3523 1033.91 32.5122 1031.46 30.2885L1029.44 32.5115ZM1032.15 38.7C1032.15 41.1411 1031.26 43.1381 1029.44 44.7885L1031.46 47.0115C1033.9 44.7952 1035.15 41.9922 1035.15 38.7H1032.15ZM1029.44 44.7868C1027.71 46.3523 1025.36 47.2 1022.25 47.2V50.2C1025.94 50.2 1029.06 49.181 1031.46 47.0131L1029.44 44.7868ZM1030.45 53.9V110H1033.45V53.9H1030.45ZM1031.95 108.5H1012.35V111.5H1031.95V108.5ZM1013.85 110V53.9H1010.85V110H1013.85ZM1012.35 55.4H1031.95V52.4H1012.35V55.4Z" fill="#0D0D0D" mask="url(#path-1-outside-1_2315_8221)"/>
<path d="M1059.5 75C1059.5 50.6995 1079.2 31 1103.5 31H1274.5C1298.8 31 1318.5 50.6995 1318.5 75C1318.5 99.3005 1298.8 119 1274.5 119H1103.5C1079.2 119 1059.5 99.3005 1059.5 75Z" fill="#DBFF62" stroke="#0D0D0D" stroke-width="2"/>
<path fill-rule="evenodd" clip-rule="evenodd" d="M1253.51 63.3487H1258.17V58.6885H1253.51V63.3487ZM1258.16 68.0093H1262.82V63.3491H1258.16V68.0093ZM1262.82 76.5523V81.9893H1267.48V77.3293H1272.13V72.6691H1267.48V68.0088H1262.82V73.4468H1105.87V76.5523H1262.82ZM1258.16 86.65H1262.82V81.9898H1258.16V86.65ZM1258.17 91.3106H1253.51V86.6505H1258.17V91.3106Z" fill="black"/>
<path d="M1364.7 55.2V66.7H1387.2V81.6H1364.7V94.3H1390.2V110H1345.1V39.5H1390.2V55.2H1364.7ZM1396.69 81.9C1396.69 76.1 1397.72 71.0333 1399.79 66.7C1401.92 62.3667 1404.79 59.0333 1408.39 56.7C1412.05 54.3667 1416.12 53.2 1420.59 53.2C1424.45 53.2 1427.79 53.9667 1430.59 55.5C1433.39 57.0333 1435.55 59.1 1437.09 61.7V53.9H1456.69V110H1437.09V102.2C1435.55 104.8 1433.35 106.867 1430.49 108.4C1427.69 109.933 1424.39 110.7 1420.59 110.7C1416.12 110.7 1412.05 109.533 1408.39 107.2C1404.79 104.867 1401.92 101.533 1399.79 97.2C1397.72 92.8 1396.69 87.7 1396.69 81.9ZM1437.09 81.9C1437.09 78.3 1436.09 75.4667 1434.09 73.4C1432.15 71.3333 1429.75 70.3 1426.89 70.3C1423.95 70.3 1421.52 71.3333 1419.59 73.4C1417.65 75.4 1416.69 78.2333 1416.69 81.9C1416.69 85.5 1417.65 88.3667 1419.59 90.5C1421.52 92.5667 1423.95 93.6 1426.89 93.6C1429.75 93.6 1432.15 92.5667 1434.09 90.5C1436.09 88.4333 1437.09 85.5667 1437.09 81.9ZM1487.45 63.8C1489.65 60.6 1492.32 58.0667 1495.45 56.2C1498.59 54.3333 1501.95 53.4 1505.55 53.4V74.3H1500.05C1495.79 74.3 1492.62 75.1333 1490.55 76.8C1488.49 78.4667 1487.45 81.3667 1487.45 85.5V110H1467.85V53.9H1487.45V63.8ZM1549.28 53.4C1555.75 53.4 1560.88 55.5667 1564.68 59.9C1568.48 64.1667 1570.38 69.9667 1570.38 77.3V110H1550.78V79.9C1550.78 76.7 1549.95 74.2 1548.28 72.4C1546.61 70.5333 1544.38 69.6 1541.58 69.6C1538.65 69.6 1536.35 70.5333 1534.68 72.4C1533.01 74.2 1532.18 76.7 1532.18 79.9V110H1512.58V53.9H1532.18V61.9C1533.91 59.3667 1536.25 57.3333 1539.18 55.8C1542.11 54.2 1545.48 53.4 1549.28 53.4ZM1591.04 48.7C1587.57 48.7 1584.77 47.7667 1582.64 45.9C1580.57 43.9667 1579.54 41.5667 1579.54 38.7C1579.54 35.7667 1580.57 33.3333 1582.64 31.4C1584.77 29.4667 1587.57 28.5 1591.04 28.5C1594.44 28.5 1597.17 29.4667 1599.24 31.4C1601.37 33.3333 1602.44 35.7667 1602.44 38.7C1602.44 41.5667 1601.37 43.9667 1599.24 45.9C1597.17 47.7667 1594.44 48.7 1591.04 48.7ZM1600.74 53.9V110H1581.14V53.9H1600.74ZM1648.6 53.4C1655.06 53.4 1660.2 55.5667 1664 59.9C1667.8 64.1667 1669.7 69.9667 1669.7 77.3V110H1650.1V79.9C1650.1 76.7 1649.26 74.2 1647.6 72.4C1645.93 70.5333 1643.7 69.6 1640.9 69.6C1637.96 69.6 1635.66 70.5333 1634 72.4C1632.33 74.2 1631.5 76.7 1631.5 79.9V110H1611.9V53.9H1631.5V61.9C1633.23 59.3667 1635.56 57.3333 1638.5 55.8C1641.43 54.2 1644.8 53.4 1648.6 53.4ZM1701.15 53.2C1704.95 53.2 1708.25 53.9667 1711.05 55.5C1713.92 57.0333 1716.12 59.1 1717.65 61.7V53.9H1737.25V109.4C1737.25 114.667 1736.25 119.4 1734.25 123.6C1732.25 127.867 1729.12 131.267 1724.85 133.8C1720.65 136.333 1715.32 137.6 1708.85 137.6C1700.18 137.6 1693.25 135.567 1688.05 131.5C1682.85 127.433 1679.88 121.9 1679.15 114.9H1698.45C1698.85 116.7 1699.85 118.1 1701.45 119.1C1703.05 120.1 1705.12 120.6 1707.65 120.6C1714.32 120.6 1717.65 116.867 1717.65 109.4V102.2C1716.12 104.8 1713.92 106.867 1711.05 108.4C1708.25 109.933 1704.95 110.7 1701.15 110.7C1696.68 110.7 1692.62 109.533 1688.95 107.2C1685.35 104.867 1682.48 101.533 1680.35 97.2C1678.28 92.8 1677.25 87.7 1677.25 81.9C1677.25 76.1 1678.28 71.0333 1680.35 66.7C1682.48 62.3667 1685.35 59.0333 1688.95 56.7C1692.62 54.3667 1696.68 53.2 1701.15 53.2ZM1717.65 81.9C1717.65 78.3 1716.65 75.4667 1714.65 73.4C1712.72 71.3333 1710.32 70.3 1707.45 70.3C1704.52 70.3 1702.08 71.3333 1700.15 73.4C1698.22 75.4 1697.25 78.2333 1697.25 81.9C1697.25 85.5 1698.22 88.3667 1700.15 90.5C1702.08 92.5667 1704.52 93.6 1707.45 93.6C1710.32 93.6 1712.72 92.5667 1714.65 90.5C1716.65 88.4333 1717.65 85.5667 1717.65 81.9Z" fill="#0D0D0D"/>
<rect x="1764.5" y="31" width="88" height="88" rx="44" fill="#9D94FF" stroke="#0D0D0D" stroke-width="2"/>
<path d="M1833.15 49.2861H1828.86V53.5726H1833.15V49.2861Z" fill="#FFF627"/>
<path d="M1813.86 63.217V67.5034H1809.57V71.7898H1805.29V76.0763H1801V80.3627H1796.71V84.6491H1792.43V88.9355H1788.14V93.2219H1783.86V98.58H1789.21V94.2935H1793.5V90.0071H1797.79V85.7207H1802.07V81.4343H1806.36V77.1479H1810.65V72.8614H1814.93V68.575H1819.22V63.217H1813.86Z" fill="#FFF627"/>
<path fill-rule="evenodd" clip-rule="evenodd" d="M1813.86 63.2178H1809.57V67.5042H1813.86V63.2178ZM1819.22 68.5757H1814.93V72.8621H1819.22V68.5757ZM1810.65 72.8621H1814.93V77.1486H1810.65V72.8621ZM1810.64 77.1486H1806.36V81.435H1810.64V77.1486ZM1802.07 81.4351H1806.36V85.7215H1802.07V81.4351ZM1802.07 85.7215H1797.78V90.008H1802.07V85.7215ZM1793.5 90.008H1797.78V94.2944H1793.5V90.008ZM1793.5 94.2942H1789.21V98.5806H1793.5V94.2942ZM1783.86 98.5807H1789.21V102.867H1783.86V98.5807ZM1809.58 67.5042H1805.29V71.7907H1809.58V67.5042ZM1801 71.7907H1805.29V76.0771H1801V71.7907ZM1801 76.0769H1796.72V80.3633H1801V76.0769ZM1792.43 80.3634H1796.71V84.6498H1792.43V80.3634ZM1792.43 84.6499H1788.14V88.9363H1792.43V84.6499ZM1783.86 88.9363H1788.14V93.2227H1783.86V88.9363ZM1783.85 93.2228H1779.57V98.5808H1783.85V93.2228Z" fill="#0D0D0D"/>
<path d="M1794.57 54.6442V49.2861H1818.15V53.5726H1828.86V64.2886H1833.15V87.8639H1827.79V67.5034H1823.51V63.217H1819.22V58.9306H1814.93V54.6442H1794.57Z" fill="#C7C9D0"/>
<path fill-rule="evenodd" clip-rule="evenodd" d="M1818.15 45H1794.57V49.2864H1818.15V45ZM1837.43 87.8643V64.289H1833.15V87.8642H1827.79V67.5038H1823.5V87.8643H1827.79V92.1506H1833.15V87.8643H1837.43ZM1794.57 54.6444H1814.93V58.9308H1794.57V54.6444ZM1790.28 49.2865H1794.57V54.6445H1790.28V49.2865ZM1813.86 58.9308H1819.22V63.2172H1813.86V58.9308ZM1823.5 63.2173H1819.22V68.5753H1823.5V63.2173ZM1818.15 49.2865H1828.86V53.5729H1818.15V49.2865ZM1833.15 64.289V53.5729H1828.86V64.289H1833.15Z" fill="#0D0D0D"/>
<path fill-rule="evenodd" clip-rule="evenodd" d="M1833.15 45H1827.79V49.2864H1833.15V45ZM1837.43 49.2865H1833.15V54.6445H1837.43V49.2865Z" fill="#0D0D0D"/>
<rect x="1816.22" y="95.502" width="6.59574" height="6.59575" fill="#FF6943"/>
<path fill-rule="evenodd" clip-rule="evenodd" d="M1823.08 92.5996H1815.95V95.2379H1813.32V102.361H1815.95V105H1823.08V102.361H1825.72V95.2379H1823.08V92.5996ZM1816.48 95.7656H1822.55V101.834H1816.48V95.7656Z" fill="#0D0D0D"/>
<rect x="1810.02" y="95.502" width="6.59574" height="6.59575" fill="#FFF627"/>
<path fill-rule="evenodd" clip-rule="evenodd" d="M1816.88 92.5996H1809.75V95.2379H1807.12V102.361H1809.75V105H1816.88V102.361H1819.52V95.2379H1816.88V92.5996ZM1810.28 95.7656H1816.35V101.834H1810.28V95.7656Z" fill="#0D0D0D"/>
</svg>
