<svg width="129" height="129" viewBox="0 0 129 129" fill="none" xmlns="http://www.w3.org/2000/svg">
<path id="Union" fill-rule="evenodd" clip-rule="evenodd" d="M125.523 62.0246C126.728 62.7887 127.632 63.8135 128.24 65.0991C128.847 66.3846 129.09 67.8295 128.97 69.4301C128.819 71.4652 128.146 73.1346 126.959 74.4383C125.769 75.7419 124.229 76.5277 122.337 76.7885L122.702 71.9106C123.339 71.6644 123.838 71.295 124.2 70.8025C124.561 70.31 124.768 69.727 124.818 69.0498C124.898 68.0033 124.587 67.1378 123.885 66.457C123.183 65.7762 122.214 65.3888 120.966 65.2946C119.704 65.2004 118.677 65.4358 117.884 66.0044C117.092 66.5729 116.655 67.3804 116.575 68.427C116.524 69.1042 116.64 69.7125 116.926 70.2557C117.212 70.7953 117.649 71.2371 118.242 71.5739L117.877 76.4517C116.043 75.9121 114.64 74.9054 113.656 73.4388C112.676 71.9722 112.26 70.2195 112.412 68.1844C112.531 66.5838 112.987 65.1896 113.783 64.0127C114.575 62.8321 115.624 61.9558 116.93 61.38C118.235 60.8042 119.693 60.5761 121.31 60.6992C122.908 60.8187 124.312 61.2605 125.516 62.0282L125.523 62.0246ZM109.761 41.0705L112.122 46.3611L110.05 48.2514L112.003 52.6332L124.485 40.549L122.351 35.7654L105.026 36.993L106.972 41.353L109.761 41.0705ZM118.933 40.1435L114.832 43.9059L113.407 40.712L118.933 40.1435ZM115.114 23.7748L103.626 35.3815L100.403 32.1838L105.015 27.5266L101.087 23.6263L96.4754 28.2835L93.2527 25.0857L104.74 13.479L107.963 16.6767L103.644 21.0406L107.572 24.9409L111.891 20.577L115.114 23.7748ZM91.2887 16.8715C92.3268 16.8208 93.2238 16.5274 93.9797 15.9843C94.7357 15.4447 95.3216 14.7241 95.7412 13.8296C96.1933 12.8627 96.3814 11.9103 96.3091 10.9724C96.2367 10.0345 95.8823 9.16181 95.2457 8.35065C94.6091 7.53949 93.6976 6.85869 92.5112 6.30102L86.3696 3.42212L79.4503 18.2222L83.5592 20.1487L85.8958 15.1514L87.9285 16.1038C89.1293 16.6651 90.2506 16.9222 91.2887 16.8715ZM90.5653 9.42978C91.7263 9.97659 92.0519 10.7841 91.5491 11.8633C91.0536 12.9243 90.2253 13.185 89.0642 12.6418L87.4294 11.8741L88.9304 8.66207L90.5653 9.42978ZM72.4044 13.3914L77.4175 14.141L76.9039 17.5776L67.4021 16.158L69.8146 -2.58708e-06L74.3033 0.66993L72.4044 13.3914ZM53.379 14.7675L59.0869 13.8229L60.3887 16.3102L65.1161 15.528L56.6126 0.373044L51.4511 1.22766L48.2392 18.32L52.945 17.5414L53.379 14.7675ZM57.4047 10.5777L54.8077 5.65283L53.9541 11.1499L57.4011 10.5814L57.4047 10.5777ZM110.289 88.9532L112.22 84.26L112.22 84.2637L124.098 89.1669L125.827 84.9662L110.741 78.7376L107.077 87.6278L110.289 88.9532ZM115.638 103.86L115.638 103.859L118.528 100.394L111.262 94.317C110.101 93.3465 108.929 92.7525 107.742 92.5353C106.556 92.318 105.424 92.4411 104.35 92.8974C103.275 93.3537 102.31 94.0925 101.46 95.1137C100.606 96.1314 100.038 97.2323 99.7489 98.4092C99.4595 99.5862 99.5174 100.756 99.9225 101.922C100.328 103.085 101.105 104.149 102.255 105.109L109.522 111.186L112.43 107.698L105.164 101.621C104.502 101.067 104.118 100.47 104.017 99.8325C103.916 99.1951 104.133 98.5577 104.668 97.9167C105.203 97.2757 105.786 96.9534 106.415 96.9462C107.044 96.9389 107.695 97.2178 108.372 97.7827L115.638 103.859L115.635 103.863L115.638 103.86ZM85.0857 113.417C85.5631 114.228 86.2286 114.807 87.0859 115.155L87.0822 115.158C87.9395 115.506 88.8365 115.531 89.7697 115.231C89.1692 115.854 88.8148 116.567 88.7063 117.375C88.6014 118.179 88.7895 118.997 89.2741 119.823C89.9541 120.982 90.8909 121.637 92.0845 121.797C93.2781 121.956 94.5947 121.612 96.0307 120.764L102.776 116.792L94.5043 102.708L87.5416 106.807C86.055 107.684 85.0965 108.705 84.6697 109.871C84.2429 111.037 84.3803 112.218 85.0857 113.417ZM90.3882 112.363C89.9939 112.29 89.672 112.04 89.4224 111.613C88.9378 110.787 89.1873 110.085 90.1711 109.505L92.4462 108.165L93.9473 110.722L91.6939 112.051C91.2165 112.334 90.7788 112.435 90.3882 112.363ZM93.6037 114.662L95.5785 113.5L95.5822 113.5L97.0362 115.977L95.0613 117.139C94.0775 117.719 93.336 117.592 92.8441 116.752C92.3667 115.937 92.6198 115.242 93.6037 114.662ZM72.1873 128.543L69.706 112.395L74.1911 111.704L76.6724 127.855L72.1873 128.546L72.1873 128.543ZM66.1469 118.037C66.2048 116.35 65.6659 115.003 64.5301 113.996L64.5374 113.996C63.4016 112.986 61.8897 112.395 59.998 112.229C58.7538 112.116 57.6542 112.243 56.6993 112.609C55.7444 112.975 54.9921 113.518 54.4387 114.246C53.8853 114.97 53.567 115.817 53.4802 116.788C53.397 117.74 53.567 118.551 53.9974 119.218C54.4242 119.884 54.9596 120.42 55.5961 120.826C56.2364 121.231 57.0538 121.658 58.0521 122.104C58.7212 122.412 59.224 122.665 59.564 122.857C59.904 123.049 60.1825 123.27 60.3995 123.513C60.6165 123.759 60.7142 124.034 60.6853 124.342C60.6527 124.711 60.5225 124.986 60.2874 125.167C60.0559 125.345 59.7702 125.421 59.4302 125.392C58.9853 125.352 58.6308 125.196 58.3668 124.925C58.1063 124.653 57.987 124.269 58.0159 123.777L53.104 123.339C53.0389 124.947 53.5308 126.243 54.5834 127.228C55.6359 128.213 57.1044 128.789 58.9961 128.959C60.1644 129.064 61.2278 128.963 62.1827 128.662C63.1412 128.361 63.9116 127.858 64.5012 127.159C65.0907 126.46 65.4307 125.588 65.5248 124.541C65.6188 123.513 65.4488 122.654 65.022 121.973C64.5952 121.289 64.0708 120.753 63.445 120.366C62.8193 119.975 61.9946 119.558 60.9638 119.109C59.9908 118.696 59.2963 118.338 58.8731 118.037C58.45 117.737 58.2582 117.349 58.3017 116.871C58.3342 116.502 58.497 116.227 58.7827 116.042C59.0685 115.857 59.4193 115.785 59.8353 115.821C60.2982 115.861 60.6636 116.027 60.9312 116.313C61.2025 116.603 61.3327 117.034 61.3291 117.606L66.1469 118.037ZM38.5748 119.706C37.3414 120.42 36.0139 120.749 34.5961 120.695C33.1782 120.641 31.7857 120.188 30.4221 119.337C28.6932 118.261 27.5249 116.893 26.9208 115.234C26.3168 113.576 26.3349 111.845 26.9823 110.045L31.131 112.627C31.055 113.308 31.1491 113.92 31.4168 114.47C31.6844 115.02 32.1076 115.473 32.6827 115.832C33.5725 116.386 34.484 116.512 35.4099 116.205C36.3358 115.897 37.128 115.216 37.7899 114.151C38.459 113.076 38.7231 112.055 38.5892 111.088C38.4554 110.121 37.9418 109.36 37.0484 108.806C36.4733 108.448 35.8801 108.27 35.2688 108.27C34.6576 108.27 34.0644 108.459 33.4893 108.828L29.3406 106.246C30.668 104.87 32.2089 104.088 33.9631 103.896C35.7173 103.704 37.4607 104.149 39.1897 105.225C40.5533 106.072 41.5733 107.122 42.2496 108.372C42.926 109.621 43.219 110.957 43.1249 112.384C43.0309 113.807 42.5571 115.209 41.6999 116.588C40.8535 117.954 39.8118 118.993 38.5784 119.706L38.5748 119.706ZM26.9931 101.154C27.5755 99.7957 27.7744 98.3871 27.5899 96.9277L27.5936 96.9277C27.4091 95.4683 26.8665 94.1248 25.9587 92.8936C25.0508 91.6624 23.9295 90.7462 22.5913 90.1378C21.253 89.5295 19.8532 89.3086 18.3883 89.4679C16.9234 89.6272 15.5454 90.1849 14.2541 91.1373C12.9628 92.0933 12.026 93.2449 11.4401 94.5992C10.8541 95.95 10.6552 97.3514 10.8396 98.7999C11.0241 100.248 11.5739 101.595 12.489 102.838C13.3932 104.069 14.5145 104.989 15.8456 105.601C17.1766 106.209 18.5764 106.437 20.0449 106.285C21.5134 106.129 22.8951 105.575 24.1863 104.623C25.4776 103.67 26.4144 102.512 26.9931 101.154ZM16.9849 94.8527C18.0049 94.0995 19.0177 93.77 20.0232 93.8605L20.0268 93.8641C21.0323 93.9546 21.8787 94.4652 22.5659 95.3995C23.2604 96.3447 23.5064 97.3079 23.2966 98.2857C23.0868 99.267 22.4683 100.136 21.4374 100.897C20.3921 101.668 19.3757 102.008 18.3775 101.918C17.3792 101.827 16.5328 101.309 15.8383 100.364C15.1511 99.43 14.9124 98.4703 15.1149 97.4854C15.3175 96.5004 15.9432 95.624 16.9849 94.8527ZM18.0664 80.5585C17.683 81.9781 16.9669 83.2057 15.9143 84.245C14.8618 85.2843 13.5597 85.9977 12.0043 86.3924C10.449 86.7835 8.96245 86.7726 7.5446 86.3598C6.12674 85.9433 4.91866 85.201 3.91675 84.1327C2.91484 83.0644 2.22761 81.7861 1.85506 80.3014C1.47889 78.8022 1.47889 77.3501 1.85506 75.9414C2.23123 74.5328 2.94739 73.3124 3.99994 72.2803C5.05248 71.2483 6.35822 70.5385 7.91353 70.1438C9.46883 69.7527 10.9554 69.7599 12.3697 70.1655C13.7839 70.5747 14.9992 71.3098 16.0084 72.3781C17.0175 73.4464 17.7083 74.7211 18.0809 76.2058C18.4534 77.6905 18.4498 79.139 18.0664 80.5585ZM12.225 74.8514C11.328 74.3843 10.2646 74.3082 9.0384 74.616C7.77969 74.9347 6.87183 75.5105 6.3112 76.3434C5.75057 77.1799 5.6095 78.1576 5.89163 79.2802C6.17737 80.4173 6.76693 81.2176 7.6531 81.6811C8.54288 82.141 9.61351 82.2134 10.8722 81.8948C12.1129 81.5797 13.0171 81.0112 13.5814 80.1819C14.1456 79.3563 14.283 78.3713 13.9973 77.2342C13.7152 76.1116 13.1256 75.3149 12.225 74.8478L12.225 74.8514ZM13.5161 55.4263L13.1471 60.4888L0.332151 59.5546L0.00300318 64.0847L16.2795 65.2725L16.9775 55.6798L13.5161 55.4263Z" fill="black"/>
</svg>
