<svg width="20" height="20" viewBox="0 0 20 20" fill="none" xmlns="http://www.w3.org/2000/svg">
<g id="ic_twitter" clip-path="url(#clip0_1124_1622)">
<g id="Group 40">
<path id="Vector 4" d="M2.5 3.90625H1.25V7.34375H2.5V8.59375H5V9.84375H2.5V11.0938H3.75V12.3438H5V13.5938H3.75V14.8438H1.25V16.0938H2.5V17.3438H10V16.0938H12.5V14.8438H15V13.5938H16.25V12.3438H17.5V5.15625H14.6875V3.90625H11.25V5.15625H10V6.40625H5V5.15625H2.5C2.375 5.15625 2.44792 4.32292 2.5 3.90625Z" fill="#62F6FF"/>
<path id="Union" d="M17.5 5.15625H16.5625V6.40625H15.9375V8.59375H14.6875V11.0938H13.4375V12.3438H12.1875V13.5938H9.6875V14.8438H7.1875V16.0938H2.5V17.3438H10V16.0938H12.5V14.8438H15V13.5938H16.25V12.3438H17.5V5.15625Z" fill="#18B0F1"/>
<g id="Union_2">
<path d="M1.25 3.90625H2.5V5.15625H5.3125V6.40625H10V7.65625H5V6.40625H2.1875V5.15625H1.25V3.90625Z" fill="#CFFCFF"/>
<path d="M11.25 5.15625H10V6.40625H11.25V5.15625Z" fill="#CFFCFF"/>
<path d="M11.25 5.15625V3.90625H12.5V5.15625H11.25Z" fill="#CFFCFF"/>
</g>
<g id="Vector">
<path d="M17.5 1.40625H18.75V2.65625H17.5V1.40625Z" fill="white"/>
<path fill-rule="evenodd" clip-rule="evenodd" d="M17.5 5.15625V2.65625H15.9375V3.90625H14.6875V2.65625H11.25V3.90625H10V5.15625H5V3.90625H2.5V2.65625H1.25V3.90625H0V7.34375H1.25V8.59375H2.5V9.84375H1.25V11.0938H2.5V12.3438H3.75V13.5938H0V16.0938H1.25V17.3438H2.5V18.5938H10V17.3438H12.5V16.0938H15V14.8438H16.25V13.5938H17.5V12.3438H18.75V5.15625H20V3.90625H18.75V5.15625H17.5ZM17.5 5.15625V12.3438H16.25V13.5938H15V14.8438H12.5V16.0938H10V17.3438H2.5V16.0938H1.25V14.8438H3.75V13.5938H5V12.3438H3.75V11.0938H2.5V9.84375H5V8.59375H2.5V7.34375H1.25V3.90625H2.5V5.15625H5V6.40625H10V5.15625H11.25V3.90625H14.6875V5.15625H17.5Z" fill="white"/>
<path d="M17.5 2.65625H18.75V1.40625H17.5V2.65625ZM17.5 2.65625H15.9375V3.90625H14.6875M17.5 2.65625V5.15625M17.5 5.15625H18.75M17.5 5.15625V12.3437M17.5 5.15625H14.6875V3.90625M14.6875 3.90625V2.65625H11.25V3.90625M14.6875 3.90625H11.25M11.25 3.90625H10V5.15625M11.25 3.90625V5.15625H10M10 5.15625H5M10 5.15625V6.40625H5V5.15625M5 5.15625V3.90625H2.5M5 5.15625H2.5V3.90625M2.5 3.90625V2.65625H1.25V3.90625M2.5 3.90625H1.25M1.25 3.90625H0V7.34375H1.25M1.25 3.90625V7.34375M1.25 7.34375V8.59375H2.5M1.25 7.34375H2.5V8.59375M2.5 8.59375V9.84375M2.5 8.59375H5V9.84375H2.5M2.5 9.84375H1.25V11.0937H2.5M2.5 9.84375V11.0937M2.5 11.0937V12.3437H3.75M2.5 11.0937H3.75V12.3437M3.75 12.3437V13.5937M3.75 12.3437H5V13.5937H3.75M3.75 13.5937H0V16.0937H1.25M3.75 13.5937V14.8437H1.25V16.0937M1.25 16.0937V17.3437H2.5M1.25 16.0937H2.5V17.3437M2.5 17.3437V18.5937H10V17.3437M2.5 17.3437H10M10 17.3437H12.5V16.0937M10 17.3437V16.0937H12.5M12.5 16.0937H15V14.8437M12.5 16.0937V14.8437H15M15 14.8437H16.25V13.5937M15 14.8437V13.5937H16.25M16.25 13.5937H17.5V12.3437M16.25 13.5937V12.3437H17.5M17.5 12.3437H18.75V5.15625M18.75 5.15625H20V3.90625H18.75V5.15625Z" stroke="white" stroke-width="0.2"/>
</g>
<path id="Vector_2" d="M12.1875 5.15625H13.8542V6.82292H12.1875V5.15625Z" fill="#0D0D0D"/>
</g>
</g>
<defs>
<clipPath id="clip0_1124_1622">
<rect width="20" height="20" fill="white"/>
</clipPath>
</defs>
</svg>
