<svg width="28" height="28" viewBox="0 0 28 28" fill="none" xmlns="http://www.w3.org/2000/svg">
<path d="M27 14C27 21.1797 21.1797 27 14 27C6.8203 27 1 21.1797 1 14C1 6.8203 6.8203 1 14 1C18.0687 1 21.7008 2.86912 24.0845 5.79554" stroke="#0D0D0D" stroke-width="1.5" stroke-linecap="round" stroke-linejoin="round"/>
<path d="M25.3711 2.625V6.95833H21.0378" stroke="#0D0D0D" stroke-width="1.5" stroke-linecap="round" stroke-linejoin="round"/>
<path d="M8.86169 10.8V9.252H11.7537V18H10.0257V10.8H8.86169ZM19.2933 10.704H15.4053V12.756C15.5733 12.548 15.8133 12.38 16.1253 12.252C16.4373 12.116 16.7693 12.048 17.1213 12.048C17.7613 12.048 18.2853 12.188 18.6933 12.468C19.1013 12.748 19.3973 13.108 19.5813 13.548C19.7653 13.98 19.8573 14.444 19.8573 14.94C19.8573 15.86 19.5933 16.6 19.0653 17.16C18.5453 17.72 17.8013 18 16.8333 18C15.9213 18 15.1933 17.772 14.6493 17.316C14.1053 16.86 13.7973 16.264 13.7253 15.528H15.3573C15.4293 15.848 15.5893 16.104 15.8373 16.296C16.0933 16.488 16.4173 16.584 16.8093 16.584C17.2813 16.584 17.6373 16.436 17.8773 16.14C18.1173 15.844 18.2373 15.452 18.2373 14.964C18.2373 14.468 18.1133 14.092 17.8653 13.836C17.6253 13.572 17.2693 13.44 16.7973 13.44C16.4613 13.44 16.1813 13.524 15.9573 13.692C15.7333 13.86 15.5733 14.084 15.4773 14.364H13.8693V9.228H19.2933V10.704Z" fill="black"/>
</svg>
