<svg width="20" height="20" viewBox="0 0 20 20" fill="none" xmlns="http://www.w3.org/2000/svg">
<g clip-path="url(#clip0_2421_9787)">
<path fill-rule="evenodd" clip-rule="evenodd" d="M7.70703 3.56932H10.2793V0.99707H7.70703V3.56932ZM5.13672 6.14164H7.70897V3.56939H5.13672V6.14164ZM2.5625 6.13976V8.7111H0V11.2833H2.5625V13.8547H5.13475V11.2833H20V8.7111H5.13475V6.13976H2.5625ZM5.13672 16.426H7.70897V13.8538H5.13672V16.426ZM10.2793 18.9984H7.70703V16.4261H10.2793V18.9984Z" fill="#0D0D0D"/>
<path d="M10.2793 3.56932V3.86932H10.5793V3.56932H10.2793ZM7.70703 3.56932H7.40703V3.86932H7.70703V3.56932ZM10.2793 0.99707H10.5793V0.69707H10.2793V0.99707ZM7.70703 0.99707V0.69707H7.40703V0.99707H7.70703ZM7.70897 6.14164V6.44164H8.00897V6.14164H7.70897ZM5.13672 6.14164H4.83672V6.44164H5.13672V6.14164ZM7.70897 3.56939H8.00897V3.26939H7.70897V3.56939ZM5.13672 3.56939V3.26939H4.83672V3.56939H5.13672ZM2.5625 8.7111V9.0111H2.8625V8.7111H2.5625ZM2.5625 6.13976V5.83976H2.2625V6.13976H2.5625ZM0 8.7111V8.4111H-0.3V8.7111H0ZM0 11.2833H-0.3V11.5833H0V11.2833ZM2.5625 11.2833H2.8625V10.9833H2.5625V11.2833ZM2.5625 13.8547H2.2625V14.1547H2.5625V13.8547ZM5.13475 13.8547V14.1547H5.43475V13.8547H5.13475ZM5.13475 11.2833V10.9833H4.83475V11.2833H5.13475ZM20 11.2833V11.5833H20.3V11.2833H20ZM20 8.7111H20.3V8.4111H20V8.7111ZM5.13475 8.7111H4.83475V9.0111H5.13475V8.7111ZM5.13475 6.13976H5.43475V5.83976H5.13475V6.13976ZM7.70897 16.426V16.726H8.00897V16.426H7.70897ZM5.13672 16.426H4.83672V16.726H5.13672V16.426ZM7.70897 13.8538H8.00897V13.5538H7.70897V13.8538ZM5.13672 13.8538V13.5538H4.83672V13.8538H5.13672ZM7.70703 18.9984H7.40703V19.2984H7.70703V18.9984ZM10.2793 18.9984V19.2984H10.5793V18.9984H10.2793ZM7.70703 16.4261V16.1261H7.40703V16.4261H7.70703ZM10.2793 16.4261H10.5793V16.1261H10.2793V16.4261ZM10.2793 3.26932H7.70703V3.86932H10.2793V3.26932ZM9.97928 0.99707V3.56932H10.5793V0.99707H9.97928ZM7.70703 1.29707H10.2793V0.69707H7.70703V1.29707ZM8.00703 3.56932V0.99707H7.40703V3.56932H8.00703ZM7.70897 5.84164H5.13672V6.44164H7.70897V5.84164ZM7.40897 3.56939V6.14164H8.00897V3.56939H7.40897ZM5.13672 3.86939H7.70897V3.26939H5.13672V3.86939ZM5.43672 6.14164V3.56939H4.83672V6.14164H5.43672ZM2.8625 8.7111V6.13976H2.2625V8.7111H2.8625ZM0 9.0111H2.5625V8.4111H0V9.0111ZM0.3 11.2833V8.7111H-0.3V11.2833H0.3ZM2.5625 10.9833H0V11.5833H2.5625V10.9833ZM2.8625 13.8547V11.2833H2.2625V13.8547H2.8625ZM5.13475 13.5547H2.5625V14.1547H5.13475V13.5547ZM4.83475 11.2833V13.8547H5.43475V11.2833H4.83475ZM20 10.9833H5.13475V11.5833H20V10.9833ZM19.7 8.7111V11.2833H20.3V8.7111H19.7ZM5.13475 9.0111H20V8.4111H5.13475V9.0111ZM4.83475 6.13976V8.7111H5.43475V6.13976H4.83475ZM2.5625 6.43976H5.13475V5.83976H2.5625V6.43976ZM7.70897 16.126H5.13672V16.726H7.70897V16.126ZM7.40897 13.8538V16.426H8.00897V13.8538H7.40897ZM5.13672 14.1538H7.70897V13.5538H5.13672V14.1538ZM5.43672 16.426V13.8538H4.83672V16.426H5.43672ZM7.70703 19.2984H10.2793V18.6984H7.70703V19.2984ZM7.40703 16.4261V18.9984H8.00703V16.4261H7.40703ZM10.2793 16.1261H7.70703V16.7261H10.2793V16.1261ZM10.5793 18.9984V16.4261H9.97928V18.9984H10.5793Z" fill="#0D0D0D"/>
</g>
<defs>
<clipPath id="clip0_2421_9787">
<rect width="20" height="20" fill="white" transform="matrix(-1 0 0 1 20 0)"/>
</clipPath>
</defs>
</svg>
