<svg width="12" height="12" viewBox="0 0 12 12" fill="none" xmlns="http://www.w3.org/2000/svg">
<g clip-path="url(#clip0_605_260)">
<path fill-rule="evenodd" clip-rule="evenodd" d="M7.47218 1.24365H5.53125V1.88916H4.23639V2.53897H5.53176V1.88921L7.47218 1.88921V1.24365ZM7.47254 1.88916H8.7679V2.53897H7.47254V1.88916ZM8.76758 2.53906H9.41314V3.18462H8.76758V2.53906ZM9.41406 3.18457H10.0596V4.47994H9.41406V3.18457ZM10.7084 4.47998H10.0586V7.71627H10.7084V4.47998ZM10.7089 7.71625H11.3545V8.36181H10.7089V7.71625ZM11.9991 8.36182H11.3535V9.65718H11.9991V8.36182ZM11.3545 9.6572H10.7089V10.3027H9.41406V10.9525H10.7094V10.3028H11.3545V9.6572ZM10.0596 9.00732H9.41406V9.65713H10.0596V9.00732ZM4.88096 9.65718H5.53077V10.3027H7.4717V9.65718H8.11726V9.00738H9.41263V8.36182H3.58984V9.00732H2.94141V9.65713H3.59121L3.59121 9.00738H4.88096V9.65718ZM9.41263 10.9526H3.58984V11.5982H9.41263V10.9526ZM4.2354 2.53906H3.58984V3.18457H2.94141V4.47994H3.59121V3.18462H4.2354V2.53906ZM2.29629 10.3027H3.59029V10.9525H2.29492V10.3028H1.64648V9.65723H2.29629V10.3027ZM2.94048 4.47998H2.29492V7.71627H2.94048V4.47998ZM2.29629 7.71631H1.64648V8.36187H2.29629V7.71631ZM1 8.36176H1.64556V9.65713H1V8.36176Z" fill="#0D0D0D"/>
<path d="M5.53125 1.24365V1.09365L5.38125 1.09365V1.24365H5.53125ZM7.47218 1.24365H7.62218V1.09365H7.47218V1.24365ZM5.53125 1.88916V2.03916H5.68125V1.88916H5.53125ZM4.23639 1.88916V1.73916H4.08639V1.88916H4.23639ZM4.23639 2.53897H4.08639V2.68897H4.23639V2.53897ZM5.53176 2.53897V2.68897H5.68176V2.53897H5.53176ZM5.53176 1.88921V1.73921H5.38176V1.88921H5.53176ZM7.47218 1.88921V2.03921H7.62218V1.88921H7.47218ZM8.7679 1.88916H8.9179V1.73916H8.7679V1.88916ZM7.47254 1.88916V1.73916H7.32254V1.88916H7.47254ZM8.7679 2.53897V2.68897H8.9179V2.53897H8.7679ZM7.47254 2.53897H7.32254V2.68897H7.47254V2.53897ZM9.41314 2.53906H9.56314V2.38906H9.41314V2.53906ZM8.76758 2.53906V2.38906H8.61758V2.53906H8.76758ZM9.41314 3.18462V3.33462H9.56314V3.18462H9.41314ZM8.76758 3.18462H8.61758V3.33462H8.76758V3.18462ZM10.0596 3.18457H10.2096V3.03457H10.0596V3.18457ZM9.41406 3.18457V3.03457H9.26406V3.18457H9.41406ZM10.0596 4.47994V4.62994H10.2096V4.47994H10.0596ZM9.41406 4.47994H9.26406V4.62994H9.41406V4.47994ZM10.0586 4.47998V4.32998H9.90859V4.47998H10.0586ZM10.7084 4.47998H10.8584V4.32998H10.7084V4.47998ZM10.0586 7.71627H9.90859V7.86627H10.0586V7.71627ZM10.7084 7.71627V7.86627H10.8584V7.71627H10.7084ZM11.3545 7.71625H11.5045V7.56625H11.3545V7.71625ZM10.7089 7.71625V7.56625H10.5589V7.71625H10.7089ZM11.3545 8.36181V8.51181H11.5045V8.36181H11.3545ZM10.7089 8.36181H10.5589V8.51181H10.7089V8.36181ZM11.3535 8.36182V8.21182H11.2035V8.36182H11.3535ZM11.9991 8.36182H12.1491V8.21182H11.9991V8.36182ZM11.3535 9.65718H11.2035V9.80718H11.3535V9.65718ZM11.9991 9.65718V9.80718H12.1491V9.65718H11.9991ZM10.7089 9.6572V9.5072H10.5589V9.6572H10.7089ZM11.3545 9.6572H11.5045V9.5072H11.3545V9.6572ZM10.7089 10.3027V10.4527H10.8589V10.3027H10.7089ZM9.41406 10.3027V10.1527H9.26406V10.3027H9.41406ZM9.41406 10.9525H9.26406V11.1025H9.41406V10.9525ZM10.7094 10.9525V11.1025H10.8594V10.9525H10.7094ZM10.7094 10.3028V10.1528H10.5594V10.3028H10.7094ZM11.3545 10.3028V10.4528H11.5045V10.3028H11.3545ZM9.41406 9.00732V8.85732H9.26406V9.00732H9.41406ZM10.0596 9.00732H10.2096V8.85732H10.0596V9.00732ZM9.41406 9.65713H9.26406V9.80713H9.41406V9.65713ZM10.0596 9.65713V9.80713H10.2096V9.65713H10.0596ZM5.53077 9.65718H5.68077V9.50718H5.53077V9.65718ZM4.88096 9.65718H4.73096V9.80718H4.88096V9.65718ZM5.53077 10.3027H5.38077V10.4527H5.53077V10.3027ZM7.4717 10.3027V10.4527H7.6217V10.3027H7.4717ZM7.4717 9.65718V9.50718H7.3217V9.65718H7.4717ZM8.11726 9.65718V9.80718H8.26726V9.65718H8.11726ZM8.11726 9.00738V8.85738H7.96726V9.00738H8.11726ZM9.41263 9.00738V9.15738H9.56262V9.00738H9.41263ZM9.41263 8.36182H9.56262V8.21182H9.41263V8.36182ZM3.58984 8.36182V8.21182H3.43984V8.36182H3.58984ZM3.58984 9.00732V9.15732H3.73984V9.00732H3.58984ZM2.94141 9.00732V8.85732H2.79141V9.00732H2.94141ZM2.94141 9.65713H2.79141V9.80713H2.94141V9.65713ZM3.59121 9.65713V9.80713H3.74121V9.65713H3.59121ZM3.59121 9.00738V8.85738H3.44121V9.00738H3.59121ZM4.88096 9.00738H5.03096V8.85738H4.88096V9.00738ZM3.58984 10.9526V10.8026H3.43984V10.9526H3.58984ZM9.41263 10.9526H9.56262V10.8026H9.41263V10.9526ZM3.58984 11.5982H3.43984V11.7482H3.58984V11.5982ZM9.41263 11.5982V11.7482H9.56262V11.5982H9.41263ZM3.58984 2.53906V2.38906H3.43984V2.53906H3.58984ZM4.2354 2.53906H4.3854V2.38906H4.2354V2.53906ZM3.58984 3.18457V3.33457H3.73984V3.18457H3.58984ZM2.94141 3.18457V3.03457H2.79141V3.18457H2.94141ZM2.94141 4.47994H2.79141V4.62994H2.94141V4.47994ZM3.59121 4.47994V4.62994H3.74121V4.47994H3.59121ZM3.59121 3.18462V3.03462H3.44121V3.18462H3.59121ZM4.2354 3.18462V3.33462H4.3854V3.18462H4.2354ZM3.59029 10.3027H3.74029V10.1527H3.59029V10.3027ZM2.29629 10.3027H2.14629V10.4527H2.29629V10.3027ZM3.59029 10.9525V11.1025H3.74029V10.9525H3.59029ZM2.29492 10.9525H2.14492V11.1025H2.29492V10.9525ZM2.29492 10.3028H2.44492V10.1528H2.29492V10.3028ZM1.64648 10.3028H1.49648V10.4528H1.64648V10.3028ZM1.64648 9.65723V9.50723H1.49648V9.65723H1.64648ZM2.29629 9.65723H2.44629V9.50723H2.29629V9.65723ZM2.29492 4.47998V4.32998H2.14492V4.47998H2.29492ZM2.94048 4.47998H3.09048V4.32998H2.94048V4.47998ZM2.29492 7.71627H2.14492V7.86627H2.29492V7.71627ZM2.94048 7.71627V7.86627H3.09048V7.71627H2.94048ZM1.64648 7.71631V7.56631H1.49648V7.71631H1.64648ZM2.29629 7.71631H2.44629V7.56631H2.29629V7.71631ZM1.64648 8.36187H1.49648V8.51187H1.64648V8.36187ZM2.29629 8.36187V8.51187H2.44629V8.36187H2.29629ZM1.64556 8.36176H1.79556V8.21176H1.64556V8.36176ZM1 8.36176V8.21176H0.85V8.36176H1ZM1.64556 9.65713V9.80713H1.79556V9.65713H1.64556ZM1 9.65713H0.85V9.80713H1V9.65713ZM5.53125 1.39365H7.47218V1.09365H5.53125V1.39365ZM5.68125 1.88916V1.24365H5.38125V1.88916H5.68125ZM4.23639 2.03916H5.53125V1.73916H4.23639V2.03916ZM4.38639 2.53897V1.88916H4.08639V2.53897H4.38639ZM5.53176 2.38897H4.23639V2.68897H5.53176V2.38897ZM5.38176 1.88921V2.53897H5.68176V1.88921H5.38176ZM7.47218 1.73921L5.53176 1.73921V2.03921H7.47218V1.73921ZM7.32218 1.24365V1.88921H7.62218V1.24365H7.32218ZM8.7679 1.73916H7.47254V2.03916H8.7679V1.73916ZM8.9179 2.53897V1.88916H8.6179V2.53897H8.9179ZM7.47254 2.68897H8.7679V2.38897H7.47254V2.68897ZM7.32254 1.88916V2.53897H7.62254V1.88916H7.32254ZM9.41314 2.38906H8.76758V2.68906H9.41314V2.38906ZM9.56314 3.18462V2.53906H9.26314V3.18462H9.56314ZM8.76758 3.33462L9.41314 3.33462V3.03462H8.76758V3.33462ZM8.61758 2.53906V3.18462H8.91758V2.53906H8.61758ZM10.0596 3.03457H9.41406V3.33457H10.0596V3.03457ZM10.2096 4.47994V3.18457H9.90962V4.47994H10.2096ZM9.41406 4.62994H10.0596V4.32994H9.41406V4.62994ZM9.26406 3.18457V4.47994H9.56406V3.18457H9.26406ZM10.0586 4.62998H10.7084V4.32998H10.0586V4.62998ZM10.2086 7.71627V4.47998H9.90859V7.71627H10.2086ZM10.7084 7.56627H10.0586V7.86627H10.7084V7.56627ZM10.5584 4.47998V7.71627H10.8584V4.47998H10.5584ZM11.3545 7.56625H10.7089V7.86625H11.3545V7.56625ZM11.5045 8.36181V7.71625H11.2045V8.36181H11.5045ZM10.7089 8.51181H11.3545V8.21181H10.7089V8.51181ZM10.5589 7.71625V8.36181H10.8589V7.71625H10.5589ZM11.3535 8.51182H11.9991V8.21182H11.3535V8.51182ZM11.5035 9.65718V8.36182H11.2035V9.65718H11.5035ZM11.9991 9.50718H11.3535V9.80718H11.9991V9.50718ZM11.8491 8.36182V9.65718H12.1491V8.36182H11.8491ZM10.7089 9.8072H11.3545V9.5072H10.7089V9.8072ZM10.8589 10.3027V9.6572H10.5589V10.3027H10.8589ZM9.41406 10.4527H10.7089V10.1527H9.41406V10.4527ZM9.56406 10.9525V10.3027H9.26406V10.9525H9.56406ZM10.7094 10.8025H9.41406V11.1025H10.7094V10.8025ZM10.5594 10.3028V10.9525H10.8594V10.3028H10.5594ZM11.3545 10.1528H10.7094V10.4528H11.3545V10.1528ZM11.2045 9.6572V10.3028H11.5045V9.6572H11.2045ZM9.41406 9.15732H10.0596V8.85732H9.41406V9.15732ZM9.56406 9.65713V9.00732H9.26406V9.65713H9.56406ZM10.0596 9.50713H9.41406V9.80713H10.0596V9.50713ZM9.90962 9.00732V9.65713H10.2096V9.00732H9.90962ZM5.53077 9.50718H4.88096V9.80718H5.53077V9.50718ZM5.68077 10.3027V9.65718H5.38077V10.3027H5.68077ZM7.4717 10.1527H5.53077V10.4527H7.4717V10.1527ZM7.3217 9.65718V10.3027H7.6217V9.65718H7.3217ZM8.11726 9.50718H7.4717V9.80718H8.11726V9.50718ZM7.96726 9.00738V9.65718H8.26726V9.00738H7.96726ZM9.41263 8.85738H8.11726V9.15738H9.41263V8.85738ZM9.26263 8.36182V9.00738H9.56262V8.36182H9.26263ZM3.58984 8.51182H9.41263V8.21182H3.58984V8.51182ZM3.73984 9.00732V8.36182H3.43984V9.00732H3.73984ZM2.94141 9.15732H3.58984V8.85732H2.94141V9.15732ZM3.09141 9.65713L3.09141 9.00732H2.79141V9.65713H3.09141ZM3.59121 9.50713H2.94141V9.80713H3.59121V9.50713ZM3.44121 9.00738L3.44121 9.65713H3.74121L3.74121 9.00738H3.44121ZM4.88096 8.85738H3.59121V9.15738H4.88096V8.85738ZM5.03096 9.65718V9.00738H4.73096V9.65718H5.03096ZM3.58984 11.1026H9.41263V10.8026H3.58984V11.1026ZM3.73984 11.5982V10.9526H3.43984V11.5982H3.73984ZM9.41263 11.4482H3.58984V11.7482H9.41263V11.4482ZM9.26263 10.9526V11.5982H9.56262V10.9526H9.26263ZM3.58984 2.68906H4.2354V2.38906H3.58984V2.68906ZM3.73984 3.18457V2.53906H3.43984V3.18457H3.73984ZM2.94141 3.33457H3.58984V3.03457H2.94141V3.33457ZM3.09141 4.47994V3.18457H2.79141V4.47994H3.09141ZM3.59121 4.32994H2.94141V4.62994H3.59121V4.32994ZM3.44121 3.18462V4.47994H3.74121V3.18462H3.44121ZM4.2354 3.03462H3.59121V3.33462H4.2354V3.03462ZM4.0854 2.53906V3.18462H4.3854V2.53906H4.0854ZM3.59029 10.1527H2.29629V10.4527H3.59029V10.1527ZM3.74029 10.9525V10.3027H3.44029V10.9525H3.74029ZM2.29492 11.1025H3.59029V10.8025H2.29492V11.1025ZM2.14492 10.3028V10.9525H2.44492V10.3028H2.14492ZM1.64648 10.4528H2.29492V10.1528H1.64648V10.4528ZM1.49648 9.65723V10.3028H1.79648V9.65723H1.49648ZM2.29629 9.50723H1.64648V9.80723H2.29629V9.50723ZM2.44629 10.3027V9.65723H2.14629V10.3027H2.44629ZM2.29492 4.62998H2.94048V4.32998H2.29492V4.62998ZM2.44492 7.71627V4.47998H2.14492V7.71627H2.44492ZM2.94048 7.56627H2.29492V7.86627H2.94048V7.56627ZM2.79048 4.47998V7.71627H3.09048V4.47998H2.79048ZM1.64648 7.86631H2.29629V7.56631H1.64648V7.86631ZM1.79648 8.36187V7.71631H1.49648V8.36187H1.79648ZM2.29629 8.21187H1.64648V8.51187H2.29629V8.21187ZM2.14629 7.71631V8.36187H2.44629V7.71631H2.14629ZM1.64556 8.21176H1V8.51176H1.64556V8.21176ZM1.79556 9.65713V8.36176H1.49556V9.65713H1.79556ZM1 9.80713H1.64556V9.50713H1V9.80713ZM0.85 8.36176V9.65713H1.15V8.36176H0.85Z" fill="#0D0D0D"/>
</g>
<defs>
<clipPath id="clip0_605_260">
<rect width="12" height="12" fill="white"/>
</clipPath>
</defs>
</svg>
