<svg width="24" height="24" viewBox="0 0 24 24" fill="none" xmlns="http://www.w3.org/2000/svg">
<g id="ic_chat" clip-path="url(#clip0_737_6530)">
<g id="Union">
<path fill-rule="evenodd" clip-rule="evenodd" d="M10.2891 0H22.8591V1.1475H10.29V8.00246H9.1425V1.14746H10.2891V0ZM22.8594 1.14746H23.9994V12.57H22.8594V1.14746ZM22.8605 12.5703H18.293V13.7178H22.8605V12.5703ZM17.1445 13.7178H18.292V14.8578H17.1459V16.0049H16.0059V14.8574H17.1445V13.7178ZM12.5781 13.7178H13.7181V16.0053H16.0056V17.1453H12.5781V13.7178ZM11.4297 22.8604H9.14258V21.7129H11.4301V22.8604H13.7172V24.0004H11.4297V22.8604ZM10.29 19.4325H9.1425V20.5723H3.43555V21.7123H5.71555V23.9998H6.86305V21.7123H9.14305V20.5725H10.29V19.4325ZM8.00195 17.1445H9.14195V18.2845H8.00195V17.1445ZM9.14195 14.8574H8.00195V16.0049H9.14195V14.8574ZM5.715 18.285H8.0025V19.4325H5.715V18.285ZM4.57555 14.8574H3.43555V16.0049H4.57555V14.8574ZM2.28711 19.4326H3.43461V20.5726H2.28711V19.4326ZM3.43594 21.7129H1.14844V22.8604H3.43594V21.7129ZM3.43594 13.7176H2.28844V19.4326H1.14844V11.4301H2.28844V10.2901H3.43594V9.14258H9.14344V10.2901H10.2909V11.4301H11.4309V19.4326H10.2909V13.7176H9.14344V12.5701H3.43594V13.7176ZM1.1475 22.8604H0V24.0004H1.1475V22.8604ZM14.5 6H12.5V8H14.5V6ZM17.5 6H15.5V8H17.5V6ZM18.5 6H20.5V8H18.5V6Z" fill="black"/>
<path d="M22.8591 0H23.0091V-0.15H22.8591V0ZM10.2891 0V-0.15H10.1391V0H10.2891ZM22.8591 1.1475V1.2975H23.0091V1.1475H22.8591ZM10.29 1.1475V0.9975H10.14V1.1475H10.29ZM10.29 8.00246V8.15246H10.44V8.00246H10.29ZM9.1425 8.00246H8.9925V8.15246H9.1425V8.00246ZM9.1425 1.14746V0.997461H8.9925V1.14746H9.1425ZM10.2891 1.14746V1.29746H10.4391V1.14746H10.2891ZM23.9994 1.14746H24.1494V0.997461H23.9994V1.14746ZM22.8594 1.14746V0.997461H22.7094V1.14746H22.8594ZM23.9994 12.57V12.72H24.1494V12.57H23.9994ZM22.8594 12.57H22.7094V12.72H22.8594V12.57ZM18.293 12.5703V12.4203H18.143V12.5703H18.293ZM22.8605 12.5703H23.0105V12.4203H22.8605V12.5703ZM18.293 13.7178H18.143V13.8678H18.293V13.7178ZM22.8605 13.7178V13.8678H23.0105V13.7178H22.8605ZM18.292 13.7178H18.442V13.5678H18.292V13.7178ZM17.1445 13.7178V13.5678H16.9945V13.7178H17.1445ZM18.292 14.8578V15.0078H18.442V14.8578H18.292ZM17.1459 14.8578V14.7078H16.9959V14.8578H17.1459ZM17.1459 16.0049V16.1549H17.2959V16.0049H17.1459ZM16.0059 16.0049H15.8559V16.1549H16.0059V16.0049ZM16.0059 14.8574V14.7074H15.8559V14.8574H16.0059ZM17.1445 14.8574V15.0074H17.2945V14.8574H17.1445ZM13.7181 13.7178H13.8681V13.5678H13.7181V13.7178ZM12.5781 13.7178V13.5678H12.4281V13.7178H12.5781ZM13.7181 16.0053H13.5681V16.1553H13.7181V16.0053ZM16.0056 16.0053H16.1556V15.8553H16.0056V16.0053ZM16.0056 17.1453V17.2953H16.1556V17.1453H16.0056ZM12.5781 17.1453H12.4281V17.2953H12.5781V17.1453ZM9.14258 22.8604H8.99258V23.0104H9.14258V22.8604ZM11.4297 22.8604H11.5797V22.7104H11.4297V22.8604ZM9.14258 21.7129V21.5629H8.99258V21.7129H9.14258ZM11.4301 21.7129H11.5801V21.5629H11.4301V21.7129ZM11.4301 22.8604H11.2801V23.0104H11.4301V22.8604ZM13.7172 22.8604H13.8672V22.7104H13.7172V22.8604ZM13.7172 24.0004V24.1504H13.8672V24.0004H13.7172ZM11.4297 24.0004H11.2797V24.1504H11.4297V24.0004ZM9.1425 19.4325V19.2825H8.9925V19.4325H9.1425ZM10.29 19.4325H10.44V19.2825H10.29V19.4325ZM9.1425 20.5723V20.7223H9.2925V20.5723H9.1425ZM3.43555 20.5723V20.4223H3.28555V20.5723H3.43555ZM3.43555 21.7123H3.28555V21.8623H3.43555V21.7123ZM5.71555 21.7123H5.86555V21.5623H5.71555V21.7123ZM5.71555 23.9998H5.56555V24.1498H5.71555V23.9998ZM6.86305 23.9998V24.1498H7.01305V23.9998H6.86305ZM6.86305 21.7123V21.5623H6.71305V21.7123H6.86305ZM9.14305 21.7123V21.8623H9.29305V21.7123H9.14305ZM9.14305 20.5725V20.4225H8.99305V20.5725H9.14305ZM10.29 20.5725V20.7225H10.44V20.5725H10.29ZM9.14195 17.1445H9.29195V16.9945H9.14195V17.1445ZM8.00195 17.1445V16.9945H7.85195V17.1445H8.00195ZM9.14195 18.2845V18.4345H9.29195V18.2845H9.14195ZM8.00195 18.2845H7.85195V18.4345H8.00195V18.2845ZM8.00195 14.8574V14.7074H7.85195V14.8574H8.00195ZM9.14195 14.8574H9.29195V14.7074H9.14195V14.8574ZM8.00195 16.0049H7.85195V16.1549H8.00195V16.0049ZM9.14195 16.0049V16.1549H9.29195V16.0049H9.14195ZM8.0025 18.285H8.1525V18.135H8.0025V18.285ZM5.715 18.285V18.135H5.565V18.285H5.715ZM8.0025 19.4325V19.5825H8.1525V19.4325H8.0025ZM5.715 19.4325H5.565V19.5825H5.715V19.4325ZM3.43555 14.8574V14.7074H3.28555V14.8574H3.43555ZM4.57555 14.8574H4.72555V14.7074H4.57555V14.8574ZM3.43555 16.0049H3.28555V16.1549H3.43555V16.0049ZM4.57555 16.0049V16.1549H4.72555V16.0049H4.57555ZM3.43461 19.4326H3.58461V19.2826H3.43461V19.4326ZM2.28711 19.4326V19.2826H2.13711V19.4326H2.28711ZM3.43461 20.5726V20.7226H3.58461V20.5726H3.43461ZM2.28711 20.5726H2.13711V20.7226H2.28711V20.5726ZM1.14844 21.7129V21.5629H0.998437V21.7129H1.14844ZM3.43594 21.7129H3.58594V21.5629H3.43594V21.7129ZM1.14844 22.8604H0.998437V23.0104H1.14844V22.8604ZM3.43594 22.8604V23.0104H3.58594V22.8604H3.43594ZM2.28844 13.7176V13.5676H2.13844V13.7176H2.28844ZM3.43594 13.7176V13.8676H3.58594V13.7176H3.43594ZM2.28844 19.4326V19.5826H2.43844V19.4326H2.28844ZM1.14844 19.4326H0.998437V19.5826H1.14844V19.4326ZM1.14844 11.4301V11.2801H0.998437V11.4301H1.14844ZM2.28844 11.4301V11.5801H2.43844V11.4301H2.28844ZM2.28844 10.2901V10.1401H2.13844V10.2901H2.28844ZM3.43594 10.2901V10.4401H3.58594V10.2901H3.43594ZM3.43594 9.14258V8.99258H3.28594V9.14258H3.43594ZM9.14344 9.14258H9.29344V8.99258H9.14344V9.14258ZM9.14344 10.2901H8.99344V10.4401H9.14344V10.2901ZM10.2909 10.2901H10.4409V10.1401H10.2909V10.2901ZM10.2909 11.4301H10.1409V11.5801H10.2909V11.4301ZM11.4309 11.4301H11.5809V11.2801H11.4309V11.4301ZM11.4309 19.4326V19.5826H11.5809V19.4326H11.4309ZM10.2909 19.4326H10.1409V19.5826H10.2909V19.4326ZM10.2909 13.7176H10.4409V13.5676H10.2909V13.7176ZM9.14344 13.7176H8.99344V13.8676H9.14344V13.7176ZM9.14344 12.5701H9.29344V12.4201H9.14344V12.5701ZM3.43594 12.5701V12.4201H3.28594V12.5701H3.43594ZM0 22.8604V22.7104H-0.15V22.8604H0ZM1.1475 22.8604H1.2975V22.7104H1.1475V22.8604ZM0 24.0004H-0.15V24.1504H0V24.0004ZM1.1475 24.0004V24.1504H1.2975V24.0004H1.1475ZM12.5 6V5.85H12.35V6H12.5ZM14.5 6H14.65V5.85H14.5V6ZM12.5 8H12.35V8.15H12.5V8ZM14.5 8V8.15H14.65V8H14.5ZM15.5 6V5.85H15.35V6H15.5ZM17.5 6H17.65V5.85H17.5V6ZM15.5 8H15.35V8.15H15.5V8ZM17.5 8V8.15H17.65V8H17.5ZM20.5 6H20.65V5.85H20.5V6ZM18.5 6V5.85H18.35V6H18.5ZM20.5 8V8.15H20.65V8H20.5ZM18.5 8H18.35V8.15H18.5V8ZM22.8591 -0.15H10.2891V0.15H22.8591V-0.15ZM23.0091 1.1475V0H22.7091V1.1475H23.0091ZM10.29 1.2975H22.8591V0.9975H10.29V1.2975ZM10.44 8.00246V1.1475H10.14V8.00246H10.44ZM9.1425 8.15246H10.29V7.85246H9.1425V8.15246ZM8.9925 1.14746V8.00246H9.2925V1.14746H8.9925ZM10.2891 0.997461H9.1425V1.29746H10.2891V0.997461ZM10.1391 0V1.14746H10.4391V0H10.1391ZM23.9994 0.997461H22.8594V1.29746H23.9994V0.997461ZM24.1494 12.57V1.14746H23.8494V12.57H24.1494ZM22.8594 12.72H23.9994V12.42H22.8594V12.72ZM22.7094 1.14746V12.57H23.0094V1.14746H22.7094ZM18.293 12.7203H22.8605V12.4203H18.293V12.7203ZM18.443 13.7178V12.5703H18.143V13.7178H18.443ZM22.8605 13.5678H18.293V13.8678H22.8605V13.5678ZM22.7105 12.5703V13.7178H23.0105V12.5703H22.7105ZM18.292 13.5678H17.1445V13.8678H18.292V13.5678ZM18.442 14.8578V13.7178H18.142V14.8578H18.442ZM17.1459 15.0078H18.292V14.7078H17.1459V15.0078ZM17.2959 16.0049V14.8578H16.9959V16.0049H17.2959ZM16.0059 16.1549H17.1459V15.8549H16.0059V16.1549ZM15.8559 14.8574V16.0049H16.1559V14.8574H15.8559ZM17.1445 14.7074H16.0059V15.0074H17.1445V14.7074ZM16.9945 13.7178V14.8574H17.2945V13.7178H16.9945ZM13.7181 13.5678H12.5781V13.8678H13.7181V13.5678ZM13.8681 16.0053V13.7178H13.5681V16.0053H13.8681ZM16.0056 15.8553H13.7181V16.1553H16.0056V15.8553ZM16.1556 17.1453V16.0053H15.8556V17.1453H16.1556ZM12.5781 17.2953H16.0056V16.9953H12.5781V17.2953ZM12.4281 13.7178V17.1453H12.7281V13.7178H12.4281ZM9.14258 23.0104H11.4297V22.7104H9.14258V23.0104ZM8.99258 21.7129V22.8604H9.29258V21.7129H8.99258ZM11.4301 21.5629H9.14258V21.8629H11.4301V21.5629ZM11.5801 22.8604V21.7129H11.2801V22.8604H11.5801ZM13.7172 22.7104H11.4301V23.0104H13.7172V22.7104ZM13.8672 24.0004V22.8604H13.5672V24.0004H13.8672ZM11.4297 24.1504H13.7172V23.8504H11.4297V24.1504ZM11.2797 22.8604V24.0004H11.5797V22.8604H11.2797ZM9.1425 19.5825H10.29V19.2825H9.1425V19.5825ZM9.2925 20.5723V19.4325H8.9925V20.5723H9.2925ZM3.43555 20.7223H9.1425V20.4223H3.43555V20.7223ZM3.58555 21.7123V20.5723H3.28555V21.7123H3.58555ZM5.71555 21.5623H3.43555V21.8623H5.71555V21.5623ZM5.86555 23.9998V21.7123H5.56555V23.9998H5.86555ZM6.86305 23.8498H5.71555V24.1498H6.86305V23.8498ZM6.71305 21.7123V23.9998H7.01305V21.7123H6.71305ZM9.14305 21.5623H6.86305V21.8623H9.14305V21.5623ZM8.99305 20.5725V21.7123H9.29305V20.5725H8.99305ZM10.29 20.4225H9.14305V20.7225H10.29V20.4225ZM10.14 19.4325V20.5725H10.44V19.4325H10.14ZM9.14195 16.9945H8.00195V17.2945H9.14195V16.9945ZM9.29195 18.2845V17.1445H8.99195V18.2845H9.29195ZM8.00195 18.4345H9.14195V18.1345H8.00195V18.4345ZM7.85195 17.1445V18.2845H8.15195V17.1445H7.85195ZM8.00195 15.0074H9.14195V14.7074H8.00195V15.0074ZM8.15195 16.0049V14.8574H7.85195V16.0049H8.15195ZM9.14195 15.8549H8.00195V16.1549H9.14195V15.8549ZM8.99195 14.8574V16.0049H9.29195V14.8574H8.99195ZM8.0025 18.135H5.715V18.435H8.0025V18.135ZM8.1525 19.4325V18.285H7.8525V19.4325H8.1525ZM5.715 19.5825H8.0025V19.2825H5.715V19.5825ZM5.565 18.285V19.4325H5.865V18.285H5.565ZM3.43555 15.0074H4.57555V14.7074H3.43555V15.0074ZM3.58555 16.0049V14.8574H3.28555V16.0049H3.58555ZM4.57555 15.8549H3.43555V16.1549H4.57555V15.8549ZM4.42555 14.8574V16.0049H4.72555V14.8574H4.42555ZM3.43461 19.2826H2.28711V19.5826H3.43461V19.2826ZM3.58461 20.5726V19.4326H3.28461V20.5726H3.58461ZM2.28711 20.7226H3.43461V20.4226H2.28711V20.7226ZM2.13711 19.4326V20.5726H2.43711V19.4326H2.13711ZM1.14844 21.8629H3.43594V21.5629H1.14844V21.8629ZM1.29844 22.8604V21.7129H0.998437V22.8604H1.29844ZM3.43594 22.7104H1.14844V23.0104H3.43594V22.7104ZM3.28594 21.7129V22.8604H3.58594V21.7129H3.28594ZM2.28844 13.8676H3.43594V13.5676H2.28844V13.8676ZM2.43844 19.4326V13.7176H2.13844V19.4326H2.43844ZM1.14844 19.5826H2.28844V19.2826H1.14844V19.5826ZM0.998437 11.4301V19.4326H1.29844V11.4301H0.998437ZM2.28844 11.2801H1.14844V11.5801H2.28844V11.2801ZM2.13844 10.2901V11.4301H2.43844V10.2901H2.13844ZM3.43594 10.1401H2.28844V10.4401H3.43594V10.1401ZM3.28594 9.14258V10.2901H3.58594V9.14258H3.28594ZM9.14344 8.99258H3.43594V9.29258H9.14344V8.99258ZM9.29344 10.2901V9.14258H8.99344V10.2901H9.29344ZM10.2909 10.1401H9.14344V10.4401H10.2909V10.1401ZM10.4409 11.4301V10.2901H10.1409V11.4301H10.4409ZM11.4309 11.2801H10.2909V11.5801H11.4309V11.2801ZM11.5809 19.4326V11.4301H11.2809V19.4326H11.5809ZM10.2909 19.5826H11.4309V19.2826H10.2909V19.5826ZM10.1409 13.7176V19.4326H10.4409V13.7176H10.1409ZM9.14344 13.8676H10.2909V13.5676H9.14344V13.8676ZM8.99344 12.5701V13.7176H9.29344V12.5701H8.99344ZM3.43594 12.7201H9.14344V12.4201H3.43594V12.7201ZM3.58594 13.7176V12.5701H3.28594V13.7176H3.58594ZM0 23.0104H1.1475V22.7104H0V23.0104ZM0.15 24.0004V22.8604H-0.15V24.0004H0.15ZM1.1475 23.8504H0V24.1504H1.1475V23.8504ZM0.9975 22.8604V24.0004H1.2975V22.8604H0.9975ZM12.5 6.15H14.5V5.85H12.5V6.15ZM12.65 8V6H12.35V8H12.65ZM14.5 7.85H12.5V8.15H14.5V7.85ZM14.35 6V8H14.65V6H14.35ZM15.5 6.15H17.5V5.85H15.5V6.15ZM15.65 8V6H15.35V8H15.65ZM17.5 7.85H15.5V8.15H17.5V7.85ZM17.35 6V8H17.65V6H17.35ZM20.5 5.85H18.5V6.15H20.5V5.85ZM20.65 8V6H20.35V8H20.65ZM18.5 8.15H20.5V7.85H18.5V8.15ZM18.35 6V8H18.65V6H18.35Z" fill="#0D0D0D"/>
</g>
</g>
<defs>
<clipPath id="clip0_737_6530">
<rect width="24" height="24" fill="white"/>
</clipPath>
</defs>
</svg>
