<svg width="16" height="16" viewBox="0 0 16 16" fill="none" xmlns="http://www.w3.org/2000/svg">
<g id="edit-box">
<g id="Union">
<path fill-rule="evenodd" clip-rule="evenodd" d="M12.0013 1.33301H10.668V2.66634H12V3.99935H13.3333V2.66602H12.0013V1.33301ZM2.66732 2.66602H6.66732V3.99935H2.66732V13.333H12V9.33301H13.3333V13.333H13.334V14.6664H1.33398V14.666V13.333V3.99935V2.66602H2.66732ZM5.33333 8H4V10.666V11.9993V12H5.33333V11.9993H8V10.6663H9.33333V9.33301H8V10.666H5.33333V8ZM6.66732 6.66602H5.33398V7.99935H6.66732V6.66602ZM8.0013 5.33333H9.33333V4H8V5.33301H6.66797V6.66634H8.0013V5.33333ZM9.33398 2.66602H10.6673V3.99935H9.33398V2.66602ZM14.6673 4H13.334V5.33333H14.6673V4ZM12 5.33301H13.3333V6.66634H12.0013V7.99935H10.668V6.66602H12V5.33301ZM9.33398 8H10.6673V9.33333H9.33398V8Z" fill="#0D0D0D"/>
<path d="M10.668 1.33301V1.23301H10.568V1.33301H10.668ZM12.0013 1.33301H12.1013V1.23301H12.0013V1.33301ZM10.668 2.66634H10.568V2.76634H10.668V2.66634ZM12 2.66634H12.1V2.56634H12V2.66634ZM12 3.99935H11.9V4.09935H12V3.99935ZM13.3333 3.99935V4.09935H13.4333V3.99935H13.3333ZM13.3333 2.66602H13.4333V2.56602H13.3333V2.66602ZM12.0013 2.66602H11.9013V2.76602H12.0013V2.66602ZM6.66732 2.66602H6.76732V2.56602H6.66732V2.66602ZM6.66732 3.99935V4.09935H6.76732V3.99935H6.66732ZM2.66732 3.99935V3.89935H2.56732V3.99935H2.66732ZM2.66732 13.333H2.56732V13.433H2.66732V13.333ZM12 13.333V13.433H12.1V13.333H12ZM12 9.33301V9.23301H11.9V9.33301H12ZM13.3333 9.33301H13.4333V9.23301H13.3333V9.33301ZM13.3333 13.333H13.2333V13.433H13.3333V13.333ZM13.334 13.333H13.434V13.233H13.334V13.333ZM13.334 14.6664V14.7664H13.434V14.6664H13.334ZM1.33398 14.6664H1.23398V14.7664H1.33398V14.6664ZM1.33398 2.66602V2.56602H1.23398V2.66602H1.33398ZM4 8V7.9H3.9V8H4ZM5.33333 8H5.43333V7.9H5.33333V8ZM4 12H3.9V12.1H4V12ZM5.33333 12V12.1H5.43333V12H5.33333ZM5.33333 11.9993V11.8993H5.23333V11.9993H5.33333ZM8 11.9993V12.0993H8.1V11.9993H8ZM8 10.6663V10.5663H7.9V10.6663H8ZM9.33333 10.6663V10.7663H9.43333V10.6663H9.33333ZM9.33333 9.33301H9.43333V9.23301H9.33333V9.33301ZM8 9.33301V9.23301H7.9V9.33301H8ZM8 10.666V10.766H8.1V10.666H8ZM5.33333 10.666H5.23333V10.766H5.33333V10.666ZM5.33398 6.66602V6.56602H5.23398V6.66602H5.33398ZM6.66732 6.66602H6.76732V6.56602H6.66732V6.66602ZM5.33398 7.99935H5.23398V8.09935H5.33398V7.99935ZM6.66732 7.99935V8.09935H6.76732V7.99935H6.66732ZM9.33333 5.33333V5.43333H9.43333V5.33333H9.33333ZM8.0013 5.33333V5.23333H7.9013V5.33333H8.0013ZM9.33333 4H9.43333V3.9H9.33333V4ZM8 4V3.9H7.9V4H8ZM8 5.33301V5.43301H8.1V5.33301H8ZM6.66797 5.33301V5.23301H6.56797V5.33301H6.66797ZM6.66797 6.66634H6.56797V6.76634H6.66797V6.66634ZM8.0013 6.66634V6.76634H8.1013V6.66634H8.0013ZM10.6673 2.66602H10.7673V2.56602H10.6673V2.66602ZM9.33398 2.66602V2.56602H9.23398V2.66602H9.33398ZM10.6673 3.99935V4.09935H10.7673V3.99935H10.6673ZM9.33398 3.99935H9.23398V4.09935H9.33398V3.99935ZM13.334 4V3.9H13.234V4H13.334ZM14.6673 4H14.7673V3.9H14.6673V4ZM13.334 5.33333H13.234V5.43333H13.334V5.33333ZM14.6673 5.33333V5.43333H14.7673V5.33333H14.6673ZM13.3333 5.33301H13.4333V5.23301H13.3333V5.33301ZM12 5.33301V5.23301H11.9V5.33301H12ZM13.3333 6.66634V6.76634H13.4333V6.66634H13.3333ZM12.0013 6.66634V6.56634H11.9013V6.66634H12.0013ZM12.0013 7.99935V8.09935H12.1013V7.99935H12.0013ZM10.668 7.99935H10.568V8.09935H10.668V7.99935ZM10.668 6.66602V6.56602H10.568V6.66602H10.668ZM12 6.66602V6.76602H12.1V6.66602H12ZM10.6673 8H10.7673V7.9H10.6673V8ZM9.33398 8V7.9H9.23398V8H9.33398ZM10.6673 9.33333V9.43333H10.7673V9.33333H10.6673ZM9.33398 9.33333H9.23398V9.43333H9.33398V9.33333ZM10.668 1.43301H12.0013V1.23301H10.668V1.43301ZM10.768 2.66634V1.33301H10.568V2.66634H10.768ZM12 2.56634H10.668V2.76634H12V2.56634ZM12.1 3.99935V2.66634H11.9V3.99935H12.1ZM13.3333 3.89935H12V4.09935H13.3333V3.89935ZM13.2333 2.66602V3.99935H13.4333V2.66602H13.2333ZM12.0013 2.76602H13.3333V2.56602H12.0013V2.76602ZM11.9013 1.33301V2.66602H12.1013V1.33301H11.9013ZM6.66732 2.56602H2.66732V2.76602H6.66732V2.56602ZM6.76732 3.99935V2.66602H6.56732V3.99935H6.76732ZM2.66732 4.09935H6.66732V3.89935H2.66732V4.09935ZM2.76732 13.333V3.99935H2.56732V13.333H2.76732ZM12 13.233H2.66732V13.433H12V13.233ZM11.9 9.33301V13.333H12.1V9.33301H11.9ZM13.3333 9.23301H12V9.43301H13.3333V9.23301ZM13.4333 13.333V9.33301H13.2333V13.333H13.4333ZM13.334 13.233H13.3333V13.433H13.334V13.233ZM13.434 14.6664V13.333H13.234V14.6664H13.434ZM1.33398 14.7664H13.334V14.5664H1.33398V14.7664ZM1.23398 14.666V14.6664H1.43398V14.666H1.23398ZM1.23398 13.333V14.666H1.43398V13.333H1.23398ZM1.23398 3.99935V13.333H1.43398V3.99935H1.23398ZM1.23398 2.66602V3.99935H1.43398V2.66602H1.23398ZM2.66732 2.56602H1.33398V2.76602H2.66732V2.56602ZM4 8.1H5.33333V7.9H4V8.1ZM4.1 10.666V8H3.9V10.666H4.1ZM4.1 11.9993V10.666H3.9V11.9993H4.1ZM4.1 12V11.9993H3.9V12H4.1ZM5.33333 11.9H4V12.1H5.33333V11.9ZM5.23333 11.9993V12H5.43333V11.9993H5.23333ZM8 11.8993H5.33333V12.0993H8V11.8993ZM7.9 10.6663V11.9993H8.1V10.6663H7.9ZM9.33333 10.5663H8V10.7663H9.33333V10.5663ZM9.23333 9.33301V10.6663H9.43333V9.33301H9.23333ZM8 9.43301H9.33333V9.23301H8V9.43301ZM8.1 10.666V9.33301H7.9V10.666H8.1ZM5.33333 10.766H8V10.566H5.33333V10.766ZM5.23333 8V10.666H5.43333V8H5.23333ZM5.33398 6.76602H6.66732V6.56602H5.33398V6.76602ZM5.43398 7.99935V6.66602H5.23398V7.99935H5.43398ZM6.66732 7.89935H5.33398V8.09935H6.66732V7.89935ZM6.56732 6.66602V7.99935H6.76732V6.66602H6.56732ZM9.33333 5.23333H8.0013V5.43333H9.33333V5.23333ZM9.23333 4V5.33333H9.43333V4H9.23333ZM8 4.1H9.33333V3.9H8V4.1ZM8.1 5.33301V4H7.9V5.33301H8.1ZM6.66797 5.43301H8V5.23301H6.66797V5.43301ZM6.76797 6.66634V5.33301H6.56797V6.66634H6.76797ZM8.0013 6.56634H6.66797V6.76634H8.0013V6.56634ZM7.9013 5.33333V6.66634H8.1013V5.33333H7.9013ZM10.6673 2.56602H9.33398V2.76602H10.6673V2.56602ZM10.7673 3.99935V2.66602H10.5673V3.99935H10.7673ZM9.33398 4.09935H10.6673V3.89935H9.33398V4.09935ZM9.23398 2.66602V3.99935H9.43398V2.66602H9.23398ZM13.334 4.1H14.6673V3.9H13.334V4.1ZM13.434 5.33333V4H13.234V5.33333H13.434ZM14.6673 5.23333H13.334V5.43333H14.6673V5.23333ZM14.5673 4V5.33333H14.7673V4H14.5673ZM13.3333 5.23301H12V5.43301H13.3333V5.23301ZM13.4333 6.66634V5.33301H13.2333V6.66634H13.4333ZM12.0013 6.76634H13.3333V6.56634H12.0013V6.76634ZM12.1013 7.99935V6.66634H11.9013V7.99935H12.1013ZM10.668 8.09935H12.0013V7.89935H10.668V8.09935ZM10.568 6.66602V7.99935H10.768V6.66602H10.568ZM12 6.56602H10.668V6.76602H12V6.56602ZM11.9 5.33301V6.66602H12.1V5.33301H11.9ZM10.6673 7.9H9.33398V8.1H10.6673V7.9ZM10.7673 9.33333V8H10.5673V9.33333H10.7673ZM9.33398 9.43333H10.6673V9.23333H9.33398V9.43333ZM9.23398 8V9.33333H9.43398V8H9.23398Z" fill="#0D0D0D"/>
</g>
</g>
</svg>
