<svg width="18" height="19" viewBox="0 0 18 19" fill="none" xmlns="http://www.w3.org/2000/svg">
<g id="ethereum-crypto-cryptocurrency-2-svgrepo-com 1">
<g id="Group 1707479734">
<path id="Union" d="M8.02365 10.418H9.97657V11.3333H11.1539V12.2486H12.3837V13.1639H13.5895V14.0793H13.2461V14.9946H11.5671V15.9099H11.0709V16.8311H6.92929V15.9099H6.43306V14.9946H4.50014V14.0793H4.42383V13.1639H5.62964V12.2486H6.85947V11.3333H8.02365V10.418Z" fill="#00FC6E"/>
<g id="Union_2">
<path d="M9.00018 2.47266H9.61441V10.1007H9L9.00018 2.47266Z" fill="#0D0D0D"/>
<path d="M9.61494 3.67934H11.445V6.13716H12.4719V7.34745H13.3329V8.58056H14.3144V9.8036H16.0302L16.0304 13.1671H13.2925V12.2497H11.445L11.4451 11.3362H10.5296L10.5297 10.4195H9.61439L9.61494 3.67934Z" fill="#0D0D0D"/>
</g>
<g id="Union_3">
<path d="M8.38802 1.25H9.61129V2.47222H8.38802V1.25Z" fill="#0D0D0D"/>
<path d="M7.47135 3.69444V2.47222H8.38802V3.69444H7.47135Z" fill="#0D0D0D"/>
<path d="M6.55469 4.91667V3.69444H7.47135V4.91667H6.55469Z" fill="#0D0D0D"/>
<path d="M5.63802 6.13889V4.91667H6.55469V6.13889H5.63802Z" fill="#0D0D0D"/>
<path d="M4.72135 7.36111V6.13889H5.63802V7.36111H4.72135Z" fill="#0D0D0D"/>
<path d="M3.80469 8.58333V7.36111H4.72135V8.58333H3.80469Z" fill="#0D0D0D"/>
<path d="M2.88802 9.80556V8.58333H3.80469V9.80556H2.88802Z" fill="#0D0D0D"/>
<path d="M1.97135 11.0278V9.80556H2.88802V11.0278H1.97135Z" fill="#0D0D0D"/>
<path d="M1.97135 12.25H1.05469V11.0278H1.97135V12.25Z" fill="#0D0D0D"/>
<path d="M3.19358 13.1667H1.97135V12.25H3.19358V13.1667Z" fill="#0D0D0D"/>
<path d="M4.4158 14.0833H3.19358V13.1667H4.4158V14.0833Z" fill="#0D0D0D"/>
<path d="M5.63802 15H4.4158V14.0833H5.63802V15Z" fill="#0D0D0D"/>
<path d="M6.86024 15.9167H5.63802V15H6.86024V15.9167Z" fill="#0D0D0D"/>
<path d="M6.86024 15.9167H8.08247V16.8333H6.86024V15.9167Z" fill="#0D0D0D"/>
<path d="M10.528 3.69444H9.61129V2.47222H10.528V3.69444Z" fill="#0D0D0D"/>
<path d="M11.4446 4.91667H10.528V3.69444H11.4446V4.91667Z" fill="#0D0D0D"/>
<path d="M12.3613 6.13889H11.4446V4.91667H12.3613V6.13889Z" fill="#0D0D0D"/>
<path d="M13.278 7.36111H12.3613V6.13889H13.278V7.36111Z" fill="#0D0D0D"/>
<path d="M14.1946 8.58333H13.278V7.36111H14.1946V8.58333Z" fill="#0D0D0D"/>
<path d="M15.1113 9.80556H14.1946V8.58333H15.1113V9.80556Z" fill="#0D0D0D"/>
<path d="M16.028 11.0278H15.1113V9.80556H16.028V11.0278Z" fill="#0D0D0D"/>
<path d="M16.028 12.25V11.0278H16.9446V12.25H16.028Z" fill="#0D0D0D"/>
<path d="M14.8057 13.1667V12.25H16.028V13.1667H14.8057Z" fill="#0D0D0D"/>
<path d="M13.5835 14.0833V13.1667H14.8057V14.0833H13.5835Z" fill="#0D0D0D"/>
<path d="M12.3613 15V14.0833H13.5835V15H12.3613Z" fill="#0D0D0D"/>
<path d="M11.1391 15.9167V15H12.3613V15.9167H11.1391Z" fill="#0D0D0D"/>
<path d="M11.1391 15.9167V16.8333H9.91684V15.9167H11.1391Z" fill="#0D0D0D"/>
<path d="M8.08247 16.8333V17.75H9.91684V16.8333H8.08247Z" fill="#0D0D0D"/>
<path d="M5.64018 12.2522L4.4158 12.25V13.1667L5.64018 13.1689V12.2522Z" fill="#0D0D0D"/>
<path d="M5.64018 12.2522H6.86241V11.3356H5.64018V12.2522Z" fill="#0D0D0D"/>
<path d="M8.09701 10.4189H6.87479V11.3356H8.09701V10.4189Z" fill="#0D0D0D"/>
<path d="M9.90334 10.4189H11.1256V11.3356H9.90334V10.4189Z" fill="#0D0D0D"/>
<path d="M12.3478 12.25L11.1256 12.2522V11.3356H12.3478V12.25Z" fill="#0D0D0D"/>
<path d="M12.3478 12.25H13.5835V13.1667L12.3478 13.1689V12.25Z" fill="#0D0D0D"/>
<path d="M9.90334 10.4189H8.09701V9.50224H9.90334V10.4189Z" fill="#0D0D0D"/>
<path d="M9.61129 2.47222V1.25H8.38802V2.47222M9.61129 2.47222V3.69444H10.528M9.61129 2.47222H10.528V3.69444M9.61129 2.47222H8.38802M8.38802 2.47222H7.47135V3.69444M8.38802 2.47222V3.69444H7.47135M7.47135 3.69444H6.55469V4.91667M7.47135 3.69444V4.91667H6.55469M6.55469 4.91667H5.63802V6.13889M6.55469 4.91667V6.13889H5.63802M5.63802 6.13889H4.72135V7.36111M5.63802 6.13889V7.36111H4.72135M4.72135 7.36111H3.80469V8.58333M4.72135 7.36111V8.58333H3.80469M3.80469 8.58333H2.88802V9.80556M3.80469 8.58333V9.80556H2.88802M2.88802 9.80556H1.97135V11.0278M2.88802 9.80556V11.0278H1.97135M1.97135 11.0278H1.05469V12.25H1.97135M1.97135 11.0278V12.25M1.97135 12.25V13.1667H3.19358M1.97135 12.25H3.19358V13.1667M3.19358 13.1667V14.0833H4.4158M3.19358 13.1667H4.4158M4.4158 14.0833V13.1667M4.4158 14.0833V15H5.63802M4.4158 14.0833H5.63802V15M4.4158 13.1667V12.25L5.64018 12.2522M4.4158 13.1667L5.64018 13.1689V12.2522M5.63802 15V15.9167H6.86024M5.63802 15H6.86024V15.9167M6.86024 15.9167H8.08247V16.8333M6.86024 15.9167V16.8333H8.08247M8.08247 16.8333V17.75H9.91684V16.8333M8.08247 16.8333H9.91684M10.528 3.69444V4.91667H11.4446M10.528 3.69444H11.4446V4.91667M11.4446 4.91667V6.13889H12.3613M11.4446 4.91667H12.3613V6.13889M12.3613 6.13889V7.36111H13.278M12.3613 6.13889H13.278V7.36111M13.278 7.36111V8.58333H14.1946M13.278 7.36111H14.1946V8.58333M14.1946 8.58333V9.80556H15.1113M14.1946 8.58333H15.1113V9.80556M15.1113 9.80556V11.0278H16.028M15.1113 9.80556H16.028V11.0278M16.028 11.0278V12.25M16.028 11.0278H16.9446V12.25H16.028M16.028 12.25H14.8057V13.1667M16.028 12.25V13.1667H14.8057M14.8057 13.1667H13.5835M14.8057 13.1667V14.0833H13.5835M13.5835 13.1667V14.0833M13.5835 13.1667V12.25H12.3478M13.5835 13.1667L12.3478 13.1689V12.25M13.5835 14.0833H12.3613V15M13.5835 14.0833V15H12.3613M12.3613 15H11.1391V15.9167M12.3613 15V15.9167H11.1391M11.1391 15.9167V16.8333H9.91684M11.1391 15.9167H9.91684V16.8333M5.64018 12.2522H6.86241V11.3356H5.64018V12.2522ZM8.09701 10.4189H6.87479V11.3356H8.09701V10.4189ZM8.09701 10.4189H9.90334M8.09701 10.4189V9.50224H9.90334V10.4189M9.90334 10.4189H11.1256V11.3356M9.90334 10.4189V11.3356H11.1256M11.1256 11.3356V12.2522L12.3478 12.25M11.1256 11.3356H12.3478V12.25" stroke="#0D0D0D" stroke-width="0.2"/>
</g>
</g>
</g>
</svg>
