<svg width="20" height="20" viewBox="0 0 20 20" fill="none" xmlns="http://www.w3.org/2000/svg">
<g id="ic_invite">
<g id="Group">
<path id="Vector" d="M1.48828 4.01172V7.82172H2.43828V8.77172H3.39828V11.6317H2.43828V12.5817H1.48828V16.3917H17.6283V12.5817H16.6783V11.6317H15.7283V8.77172H16.6783V7.82172H17.6283V4.01172H1.48828Z" fill="#00FC6E"/>
<path id="Union" fill-rule="evenodd" clip-rule="evenodd" d="M1.42709 2.85547H18.5708V3.81172H1.42709V2.85547ZM17.6142 8.575V7.61875H17.5704V3.8125H19.5204V8.575H17.6142ZM17.5704 16.1922V12.3797H17.6142V11.4297H19.5204V16.1922H17.5704ZM18.5708 16.1931H1.42709V17.1431H18.5708V16.1931ZM15.6636 8.57373H17.6136V11.43H15.6636V8.57373ZM3.33384 8.57373H2.37759V11.43H3.33384V8.57373ZM1.42656 7.61875V3.8125H0.476562V8.575H2.37656V7.61875H1.42656ZM2.37656 12.3797H1.42656V16.1922H0.476562V11.4297H2.37656V12.3797Z" fill="#0D0D0D"/>
<g id="Union_2">
<path d="M1.42709 2.85547H17.5708V3.81172H1.42709V2.85547Z" fill="#0D0D0D"/>
<path d="M16.6142 8.575V7.61875H17.5704L17.5708 3.81172L18.5204 3.8125V8.575H16.6142Z" fill="#0D0D0D"/>
<path d="M17.5704 16.1922V12.3797H16.6142V11.4297H18.5204V16.1922H17.5704Z" fill="#0D0D0D"/>
<path d="M17.5708 16.1931H1.42709V17.1431H17.5708V16.1931Z" fill="#0D0D0D"/>
<path d="M15.6636 8.57373H16.6136L16.6142 11.4297L15.6636 11.43V8.57373Z" fill="#0D0D0D"/>
<path d="M3.33384 8.57373H2.37759V11.43H3.33384V8.57373Z" fill="#0D0D0D"/>
<path d="M1.42656 7.61875L1.42709 3.81172L0.476562 3.8125V8.575H2.37656V7.61875H1.42656Z" fill="#0D0D0D"/>
<path d="M2.37656 12.3797H1.42656V16.1922H0.476562V11.4297H2.37656V12.3797Z" fill="#0D0D0D"/>
<path d="M17.5708 3.81172V2.85547H1.42709V3.81172M17.5708 3.81172H1.42709M17.5708 3.81172L17.5704 7.61875H16.6142V8.575H18.5204V3.8125L17.5708 3.81172ZM1.42709 3.81172L1.42656 7.61875H2.37656V8.575H0.476562V3.8125L1.42709 3.81172ZM16.6142 11.4297V12.3797H17.5704V16.1922H18.5204V11.4297H16.6142ZM16.6142 11.4297L16.6136 8.57373H15.6636V11.43L16.6142 11.4297ZM1.42709 16.1931H17.5708V17.1431H1.42709V16.1931ZM2.37759 8.57373H3.33384V11.43H2.37759V8.57373ZM1.42656 12.3797H2.37656V11.4297H0.476562V16.1922H1.42656V12.3797Z" stroke="#0D0D0D" stroke-width="0.5"/>
</g>
<path id="Vector_2" d="M11.5762 6.99902H9.57398V7.99683H8.57617V6.99902H6.57398V7.99683H5.57617V9.99902H6.57398V10.9968H7.5718V11.9946H8.57617V12.999H9.57398V11.9946H10.5718V10.9968H11.5762V9.99902H12.574V7.99683H11.5762V6.99902Z" fill="#0D0D0D"/>
</g>
</g>
</svg>
