<svg width="21" height="20" viewBox="0 0 21 20" fill="none" xmlns="http://www.w3.org/2000/svg">
<g clip-path="url(#clip0_1778_6576)">
<path fill-rule="evenodd" clip-rule="evenodd" d="M6.68907 0V0.95H5.73907V2.85625H6.68907V3.8125H7.64532V4.7625H8.59532V5.7125H9.55157V4.7625H10.5016V3.8125H11.4516V2.85625H12.4078V0.95H11.4516V0H9.55157V0.95H8.59532V0H6.68907ZM12.4078 5.71289H14.3078V6.66914H12.4078V7.61895H11.4516V6.66895H12.4078V5.71289ZM15.2641 6.66895H14.3078V9.5252H15.2641V6.66895ZM13.3578 14.2871H15.2641V15.2371H13.3578V14.2873H11.4516V13.3311H13.3578V14.2871ZM15.2641 15.2373H16.2141V16.1936H15.2641V15.2373ZM16.2141 16.1934H17.1703V17.1434H16.2141V16.1934ZM17.1703 17.1436H18.1203V19.9998H17.1703V17.1436ZM16.2141 17.1436H15.2641V18.0936H16.2141V17.1436ZM15.2641 18.0937H14.3078V19.0499H13.3578V19.9999H14.3078V19.0499H15.2641V18.0937ZM14.3078 9.52539H13.3578V10.4754H14.3078V9.52539ZM13.3578 15.2373H12.4078L12.4078 16.1934H11.4516V17.1434H12.4078L12.4078 16.1936H13.3578V15.2373ZM13.3578 10.4746H12.4078V11.4307H11.4516V12.3807H12.4078V11.4309H13.3578V10.4746ZM11.4516 17.1436H10.5016V18.0936H11.4516V17.1436ZM10.5016 12.3809H11.4516V13.3309H10.5016V12.3809ZM11.4516 7.61914H10.5016V8.56914H11.4516V7.61914ZM9.55157 13.3311H10.5016V14.2873H9.55157V13.3311ZM10.5016 8.56934H9.55157V9.52559H10.5016V8.56934ZM8.59531 14.2871H9.55156V15.2371H8.59531V14.2871ZM9.55156 9.52539H8.59531V10.4754H9.55156V9.52539ZM7.64529 10.4746H8.59529V11.4309H7.64531V12.3807H6.68906V11.4307H7.64529V10.4746ZM8.59529 7.61914H7.64529V9.52539H8.59529V7.61914ZM4.78906 6.66895H7.64531V7.61895H4.78906V6.66895ZM5.73906 10.4746H4.78907V7.61914H3.83282V10.4754H4.78906V14.2871H3.83282V15.2371H4.78907V14.2871H5.73906V13.3309H6.68906V12.3809H5.73906V10.4746ZM2.88281 15.2373H3.83281V19.9998H2.88281V15.2373Z" fill="#0D0D0D"/>
<path d="M6.68907 0.95V1.2H6.93907V0.95H6.68907ZM6.68907 0V-0.25H6.43907V0H6.68907ZM5.73907 0.95V0.7H5.48907V0.95H5.73907ZM5.73907 2.85625H5.48907V3.10625H5.73907V2.85625ZM6.68907 2.85625H6.93907V2.60625H6.68907V2.85625ZM6.68907 3.8125H6.43907V4.0625H6.68907V3.8125ZM7.64532 3.8125H7.89532V3.5625H7.64532V3.8125ZM7.64532 4.7625H7.39532V5.0125H7.64532V4.7625ZM8.59532 4.7625H8.84532V4.5125H8.59532V4.7625ZM8.59532 5.7125H8.34532V5.9625H8.59532V5.7125ZM9.55157 5.7125V5.9625H9.80157V5.7125H9.55157ZM9.55157 4.7625V4.5125H9.30157V4.7625H9.55157ZM10.5016 4.7625V5.0125H10.7516V4.7625H10.5016ZM10.5016 3.8125V3.5625H10.2516V3.8125H10.5016ZM11.4516 3.8125V4.0625H11.7016V3.8125H11.4516ZM11.4516 2.85625V2.60625H11.2016V2.85625H11.4516ZM12.4078 2.85625V3.10625H12.6578V2.85625H12.4078ZM12.4078 0.95H12.6578V0.7H12.4078V0.95ZM11.4516 0.95H11.2016V1.2H11.4516V0.95ZM11.4516 0H11.7016V-0.25H11.4516V0ZM9.55157 0V-0.25H9.30157V0H9.55157ZM9.55157 0.95V1.2H9.80157V0.95H9.55157ZM8.59532 0.95H8.34532V1.2H8.59532V0.95ZM8.59532 0H8.84532V-0.25H8.59532V0ZM14.3078 5.71289H14.5578V5.46289H14.3078V5.71289ZM12.4078 5.71289V5.46289H12.1578V5.71289H12.4078ZM14.3078 6.66914V6.91914H14.5578V6.66914H14.3078ZM12.4078 6.66914V6.41914H12.1578V6.66914H12.4078ZM12.4078 7.61895V7.86895H12.6578V7.61895H12.4078ZM11.4516 7.61895H11.2016V7.86895H11.4516V7.61895ZM11.4516 6.66895V6.41895H11.2016V6.66895H11.4516ZM12.4078 6.66895V6.91895H12.6578V6.66895H12.4078ZM14.3078 6.66895V6.41895H14.0578V6.66895H14.3078ZM15.2641 6.66895H15.5141V6.41895H15.2641V6.66895ZM14.3078 9.5252H14.0578V9.7752H14.3078V9.5252ZM15.2641 9.5252V9.7752H15.5141V9.5252H15.2641ZM15.2641 14.2871H15.5141V14.0371H15.2641V14.2871ZM13.3578 14.2871H13.1078V14.5371H13.3578V14.2871ZM15.2641 15.2371V15.4871H15.5141V15.2371H15.2641ZM13.3578 15.2371H13.1078V15.4871H13.3578V15.2371ZM13.3578 14.2873H13.6078V14.0373H13.3578V14.2873ZM11.4516 14.2873H11.2016V14.5373H11.4516V14.2873ZM11.4516 13.3311V13.0811H11.2016V13.3311H11.4516ZM13.3578 13.3311H13.6078V13.0811H13.3578V13.3311ZM16.2141 15.2373H16.4641V14.9873H16.2141V15.2373ZM15.2641 15.2373V14.9873H15.0141V15.2373H15.2641ZM16.2141 16.1936V16.4436H16.4641V16.1936H16.2141ZM15.2641 16.1936H15.0141V16.4436H15.2641V16.1936ZM17.1703 16.1934H17.4203V15.9434H17.1703V16.1934ZM16.2141 16.1934V15.9434H15.9641V16.1934H16.2141ZM17.1703 17.1434V17.3934H17.4203V17.1434H17.1703ZM16.2141 17.1434H15.9641V17.3934H16.2141V17.1434ZM18.1203 17.1436H18.3703V16.8936H18.1203V17.1436ZM17.1703 17.1436V16.8936H16.9203V17.1436H17.1703ZM18.1203 19.9998V20.2498H18.3703V19.9998H18.1203ZM17.1703 19.9998H16.9203V20.2498H17.1703V19.9998ZM15.2641 17.1436V16.8936H15.0141V17.1436H15.2641ZM16.2141 17.1436H16.4641V16.8936H16.2141V17.1436ZM15.2641 18.0936H15.0141V18.3436H15.2641V18.0936ZM16.2141 18.0936V18.3436H16.4641V18.0936H16.2141ZM14.3078 18.0937V17.8437H14.0578V18.0937H14.3078ZM15.2641 18.0937H15.5141V17.8437H15.2641V18.0937ZM14.3078 19.0499V19.2999H14.5578V19.0499H14.3078ZM13.3578 19.0499V18.7999H13.1078V19.0499H13.3578ZM13.3578 19.9999H13.1078V20.2499H13.3578V19.9999ZM14.3078 19.9999V20.2499H14.5578V19.9999H14.3078ZM14.3078 19.0499V18.7999H14.0578V19.0499H14.3078ZM15.2641 19.0499V19.2999H15.5141V19.0499H15.2641ZM13.3578 9.52539V9.27539H13.1078V9.52539H13.3578ZM14.3078 9.52539H14.5578V9.27539H14.3078V9.52539ZM13.3578 10.4754H13.1078V10.7254H13.3578V10.4754ZM14.3078 10.4754V10.7254H14.5578V10.4754H14.3078ZM12.4078 15.2373V14.9873H12.1578L12.1578 15.2373L12.4078 15.2373ZM13.3578 15.2373H13.6078V14.9873H13.3578V15.2373ZM12.4078 16.1934V16.4434H12.6578L12.6578 16.1934L12.4078 16.1934ZM11.4516 16.1934V15.9434H11.2016V16.1934H11.4516ZM11.4516 17.1434H11.2016V17.3934H11.4516V17.1434ZM12.4078 17.1434V17.3934H12.6578L12.6578 17.1434L12.4078 17.1434ZM12.4078 16.1936V15.9436H12.1578L12.1578 16.1936L12.4078 16.1936ZM13.3578 16.1936V16.4436H13.6078V16.1936H13.3578ZM12.4078 10.4746V10.2246H12.1578V10.4746H12.4078ZM13.3578 10.4746H13.6078V10.2246H13.3578V10.4746ZM12.4078 11.4307V11.6807H12.6578V11.4307H12.4078ZM11.4516 11.4307V11.1807H11.2016V11.4307H11.4516ZM11.4516 12.3807H11.2016V12.6307H11.4516V12.3807ZM12.4078 12.3807V12.6307H12.6578V12.3807H12.4078ZM12.4078 11.4309V11.1809H12.1578V11.4309H12.4078ZM13.3578 11.4309V11.6809H13.6078V11.4309H13.3578ZM10.5016 17.1436V16.8936H10.2516V17.1436H10.5016ZM11.4516 17.1436H11.7016V16.8936H11.4516V17.1436ZM10.5016 18.0936H10.2516V18.3436H10.5016V18.0936ZM11.4516 18.0936V18.3436H11.7016V18.0936H11.4516ZM11.4516 12.3809H11.7016V12.1309H11.4516V12.3809ZM10.5016 12.3809V12.1309H10.2516V12.3809H10.5016ZM11.4516 13.3309V13.5809H11.7016V13.3309H11.4516ZM10.5016 13.3309H10.2516V13.5809H10.5016V13.3309ZM10.5016 7.61914V7.36914H10.2516V7.61914H10.5016ZM11.4516 7.61914H11.7016V7.36914H11.4516V7.61914ZM10.5016 8.56914H10.2516V8.81914H10.5016V8.56914ZM11.4516 8.56914V8.81914H11.7016V8.56914H11.4516ZM10.5016 13.3311H10.7516V13.0811H10.5016V13.3311ZM9.55157 13.3311V13.0811H9.30157V13.3311H9.55157ZM10.5016 14.2873V14.5373H10.7516V14.2873H10.5016ZM9.55157 14.2873H9.30157V14.5373H9.55157V14.2873ZM9.55157 8.56934V8.31934H9.30157V8.56934H9.55157ZM10.5016 8.56934H10.7516V8.31934H10.5016V8.56934ZM9.55157 9.52559H9.30157V9.77559H9.55157V9.52559ZM10.5016 9.52559V9.77559H10.7516V9.52559H10.5016ZM9.55156 14.2871H9.80156V14.0371H9.55156V14.2871ZM8.59531 14.2871V14.0371H8.34531V14.2871H8.59531ZM9.55156 15.2371V15.4871H9.80156V15.2371H9.55156ZM8.59531 15.2371H8.34531V15.4871H8.59531V15.2371ZM8.59531 9.52539V9.27539H8.34531V9.52539H8.59531ZM9.55156 9.52539H9.80156V9.27539H9.55156V9.52539ZM8.59531 10.4754H8.34531V10.7254H8.59531V10.4754ZM9.55156 10.4754V10.7254H9.80156V10.4754H9.55156ZM8.59529 10.4746H8.84529V10.2246H8.59529V10.4746ZM7.64529 10.4746V10.2246H7.39529V10.4746H7.64529ZM8.59529 11.4309V11.6809H8.84529V11.4309H8.59529ZM7.64531 11.4309V11.1809H7.39531V11.4309H7.64531ZM7.64531 12.3807V12.6307H7.89531V12.3807H7.64531ZM6.68906 12.3807H6.43906V12.6307H6.68906V12.3807ZM6.68906 11.4307V11.1807H6.43906V11.4307H6.68906ZM7.64529 11.4307V11.6807H7.89529V11.4307H7.64529ZM7.64529 7.61914V7.36914H7.39529V7.61914H7.64529ZM8.59529 7.61914H8.84529V7.36914H8.59529V7.61914ZM7.64529 9.52539H7.39529V9.77539H7.64529V9.52539ZM8.59529 9.52539V9.77539H8.84529V9.52539H8.59529ZM7.64531 6.66895H7.89531V6.41895H7.64531V6.66895ZM4.78906 6.66895V6.41895H4.53906V6.66895H4.78906ZM7.64531 7.61895V7.86895H7.89531V7.61895H7.64531ZM4.78906 7.61895H4.53906V7.86895H4.78906V7.61895ZM4.78907 10.4746H4.53907V10.7246H4.78907V10.4746ZM5.73906 10.4746H5.98906V10.2246H5.73906V10.4746ZM4.78907 7.61914H5.03907V7.36914H4.78907V7.61914ZM3.83282 7.61914V7.36914H3.58282V7.61914H3.83282ZM3.83282 10.4754H3.58282V10.7254H3.83282V10.4754ZM4.78906 10.4754H5.03906V10.2254H4.78906V10.4754ZM4.78906 14.2871V14.5371H5.03906V14.2871H4.78906ZM3.83282 14.2871V14.0371H3.58282V14.2871H3.83282ZM3.83282 15.2371H3.58282V15.4871H3.83282V15.2371ZM4.78907 15.2371V15.4871H5.03907V15.2371H4.78907ZM4.78907 14.2871V14.0371H4.53907V14.2871H4.78907ZM5.73906 14.2871V14.5371H5.98906V14.2871H5.73906ZM5.73906 13.3309V13.0809H5.48906V13.3309H5.73906ZM6.68906 13.3309V13.5809H6.93906V13.3309H6.68906ZM6.68906 12.3809H6.93906V12.1309H6.68906V12.3809ZM5.73906 12.3809H5.48906V12.6309H5.73906V12.3809ZM3.83281 15.2373H4.08281V14.9873H3.83281V15.2373ZM2.88281 15.2373V14.9873H2.63281V15.2373H2.88281ZM3.83281 19.9998V20.2498H4.08281V19.9998H3.83281ZM2.88281 19.9998H2.63281V20.2498H2.88281V19.9998ZM6.93907 0.95V0H6.43907V0.95H6.93907ZM5.73907 1.2H6.68907V0.7H5.73907V1.2ZM5.98907 2.85625V0.95H5.48907V2.85625H5.98907ZM6.68907 2.60625H5.73907V3.10625H6.68907V2.60625ZM6.93907 3.8125V2.85625H6.43907V3.8125H6.93907ZM7.64532 3.5625H6.68907V4.0625H7.64532V3.5625ZM7.89532 4.7625V3.8125H7.39532V4.7625H7.89532ZM8.59532 4.5125H7.64532V5.0125H8.59532V4.5125ZM8.84532 5.7125V4.7625H8.34532V5.7125H8.84532ZM9.55157 5.4625H8.59532V5.9625H9.55157V5.4625ZM9.30157 4.7625V5.7125H9.80157V4.7625H9.30157ZM10.5016 4.5125H9.55157V5.0125H10.5016V4.5125ZM10.2516 3.8125V4.7625H10.7516V3.8125H10.2516ZM11.4516 3.5625H10.5016V4.0625H11.4516V3.5625ZM11.2016 2.85625V3.8125H11.7016V2.85625H11.2016ZM12.4078 2.60625H11.4516V3.10625H12.4078V2.60625ZM12.1578 0.95V2.85625H12.6578V0.95H12.1578ZM11.4516 1.2H12.4078V0.7H11.4516V1.2ZM11.2016 0V0.95H11.7016V0H11.2016ZM9.55157 0.25H11.4516V-0.25H9.55157V0.25ZM9.80157 0.95V0H9.30157V0.95H9.80157ZM8.59532 1.2H9.55157V0.7H8.59532V1.2ZM8.34532 0V0.95H8.84532V0H8.34532ZM6.68907 0.25H8.59532V-0.25H6.68907V0.25ZM14.3078 5.46289H12.4078V5.96289H14.3078V5.46289ZM14.5578 6.66914V5.71289H14.0578V6.66914H14.5578ZM12.4078 6.91914H14.3078V6.41914H12.4078V6.91914ZM12.6578 7.61895V6.66914H12.1578V7.61895H12.6578ZM11.4516 7.86895H12.4078V7.36895H11.4516V7.86895ZM11.2016 6.66895V7.61895H11.7016V6.66895H11.2016ZM12.4078 6.41895H11.4516V6.91895H12.4078V6.41895ZM12.1578 5.71289V6.66895H12.6578V5.71289H12.1578ZM14.3078 6.91895H15.2641V6.41895H14.3078V6.91895ZM14.5578 9.5252V6.66895H14.0578V9.5252H14.5578ZM15.2641 9.2752H14.3078V9.7752H15.2641V9.2752ZM15.0141 6.66895V9.5252H15.5141V6.66895H15.0141ZM15.2641 14.0371H13.3578V14.5371H15.2641V14.0371ZM15.5141 15.2371V14.2871H15.0141V15.2371H15.5141ZM13.3578 15.4871H15.2641V14.9871H13.3578V15.4871ZM13.1078 14.2873V15.2371H13.6078V14.2873H13.1078ZM11.4516 14.5373H13.3578V14.0373H11.4516V14.5373ZM11.2016 13.3311V14.2873H11.7016V13.3311H11.2016ZM13.3578 13.0811H11.4516V13.5811H13.3578V13.0811ZM13.6078 14.2871V13.3311H13.1078V14.2871H13.6078ZM16.2141 14.9873H15.2641V15.4873H16.2141V14.9873ZM16.4641 16.1936V15.2373H15.9641V16.1936H16.4641ZM15.2641 16.4436H16.2141V15.9436H15.2641V16.4436ZM15.0141 15.2373V16.1936H15.5141V15.2373H15.0141ZM17.1703 15.9434H16.2141V16.4434H17.1703V15.9434ZM17.4203 17.1434V16.1934H16.9203V17.1434H17.4203ZM16.2141 17.3934H17.1703V16.8934H16.2141V17.3934ZM15.9641 16.1934V17.1434H16.4641V16.1934H15.9641ZM18.1203 16.8936H17.1703V17.3936H18.1203V16.8936ZM18.3703 19.9998V17.1436H17.8703V19.9998H18.3703ZM17.1703 20.2498H18.1203V19.7498H17.1703V20.2498ZM16.9203 17.1436V19.9998H17.4203V17.1436H16.9203ZM15.2641 17.3936H16.2141V16.8936H15.2641V17.3936ZM15.5141 18.0936V17.1436H15.0141V18.0936H15.5141ZM16.2141 17.8436H15.2641V18.3436H16.2141V17.8436ZM15.9641 17.1436V18.0936H16.4641V17.1436H15.9641ZM14.3078 18.3437H15.2641V17.8437H14.3078V18.3437ZM14.5578 19.0499V18.0937H14.0578V19.0499H14.5578ZM13.3578 19.2999H14.3078V18.7999H13.3578V19.2999ZM13.6078 19.9999V19.0499H13.1078V19.9999H13.6078ZM14.3078 19.7499H13.3578V20.2499H14.3078V19.7499ZM14.0578 19.0499V19.9999H14.5578V19.0499H14.0578ZM15.2641 18.7999H14.3078V19.2999H15.2641V18.7999ZM15.0141 18.0937V19.0499H15.5141V18.0937H15.0141ZM13.3578 9.77539H14.3078V9.27539H13.3578V9.77539ZM13.6078 10.4754V9.52539H13.1078V10.4754H13.6078ZM14.3078 10.2254H13.3578V10.7254H14.3078V10.2254ZM14.0578 9.52539V10.4754H14.5578V9.52539H14.0578ZM12.4078 15.4873H13.3578V14.9873H12.4078V15.4873ZM12.6578 16.1934L12.6578 15.2373L12.1578 15.2373L12.1578 16.1934L12.6578 16.1934ZM11.4516 16.4434H12.4078V15.9434H11.4516V16.4434ZM11.7016 17.1434V16.1934H11.2016V17.1434H11.7016ZM12.4078 16.8934H11.4516V17.3934H12.4078V16.8934ZM12.1578 16.1936L12.1578 17.1434L12.6578 17.1434L12.6578 16.1936L12.1578 16.1936ZM13.3578 15.9436H12.4078V16.4436H13.3578V15.9436ZM13.1078 15.2373V16.1936H13.6078V15.2373H13.1078ZM12.4078 10.7246H13.3578V10.2246H12.4078V10.7246ZM12.6578 11.4307V10.4746H12.1578V11.4307H12.6578ZM11.4516 11.6807H12.4078V11.1807H11.4516V11.6807ZM11.7016 12.3807V11.4307H11.2016V12.3807H11.7016ZM12.4078 12.1307H11.4516V12.6307H12.4078V12.1307ZM12.1578 11.4309V12.3807H12.6578V11.4309H12.1578ZM13.3578 11.1809H12.4078V11.6809H13.3578V11.1809ZM13.1078 10.4746V11.4309H13.6078V10.4746H13.1078ZM10.5016 17.3936H11.4516V16.8936H10.5016V17.3936ZM10.7516 18.0936V17.1436H10.2516V18.0936H10.7516ZM11.4516 17.8436H10.5016V18.3436H11.4516V17.8436ZM11.2016 17.1436V18.0936H11.7016V17.1436H11.2016ZM11.4516 12.1309H10.5016V12.6309H11.4516V12.1309ZM11.7016 13.3309V12.3809H11.2016V13.3309H11.7016ZM10.5016 13.5809H11.4516V13.0809H10.5016V13.5809ZM10.2516 12.3809V13.3309H10.7516V12.3809H10.2516ZM10.5016 7.86914H11.4516V7.36914H10.5016V7.86914ZM10.7516 8.56914V7.61914H10.2516V8.56914H10.7516ZM11.4516 8.31914H10.5016V8.81914H11.4516V8.31914ZM11.2016 7.61914V8.56914H11.7016V7.61914H11.2016ZM10.5016 13.0811H9.55157V13.5811H10.5016V13.0811ZM10.7516 14.2873V13.3311H10.2516V14.2873H10.7516ZM9.55157 14.5373H10.5016V14.0373H9.55157V14.5373ZM9.30157 13.3311V14.2873H9.80157V13.3311H9.30157ZM9.55157 8.81934H10.5016V8.31934H9.55157V8.81934ZM9.80157 9.52559V8.56934H9.30157V9.52559H9.80157ZM10.5016 9.27559H9.55157V9.77559H10.5016V9.27559ZM10.2516 8.56934V9.52559H10.7516V8.56934H10.2516ZM9.55156 14.0371H8.59531V14.5371H9.55156V14.0371ZM9.80156 15.2371V14.2871H9.30156V15.2371H9.80156ZM8.59531 15.4871H9.55156V14.9871H8.59531V15.4871ZM8.34531 14.2871V15.2371H8.84531V14.2871H8.34531ZM8.59531 9.77539H9.55156V9.27539H8.59531V9.77539ZM8.84531 10.4754V9.52539H8.34531V10.4754H8.84531ZM9.55156 10.2254H8.59531V10.7254H9.55156V10.2254ZM9.30156 9.52539V10.4754H9.80156V9.52539H9.30156ZM8.59529 10.2246H7.64529V10.7246H8.59529V10.2246ZM8.84529 11.4309V10.4746H8.34529V11.4309H8.84529ZM7.64531 11.6809H8.59529V11.1809H7.64531V11.6809ZM7.89531 12.3807V11.4309H7.39531V12.3807H7.89531ZM6.68906 12.6307H7.64531V12.1307H6.68906V12.6307ZM6.43906 11.4307V12.3807H6.93906V11.4307H6.43906ZM7.64529 11.1807H6.68906V11.6807H7.64529V11.1807ZM7.39529 10.4746V11.4307H7.89529V10.4746H7.39529ZM7.64529 7.86914H8.59529V7.36914H7.64529V7.86914ZM7.89529 9.52539V7.61914H7.39529V9.52539H7.89529ZM8.59529 9.27539H7.64529V9.77539H8.59529V9.27539ZM8.34529 7.61914V9.52539H8.84529V7.61914H8.34529ZM7.64531 6.41895H4.78906V6.91895H7.64531V6.41895ZM7.89531 7.61895V6.66895H7.39531V7.61895H7.89531ZM4.78906 7.86895H7.64531V7.36895H4.78906V7.86895ZM4.53906 6.66895V7.61895H5.03906V6.66895H4.53906ZM4.78907 10.7246H5.73906V10.2246H4.78907V10.7246ZM4.53907 7.61914V10.4746H5.03907V7.61914H4.53907ZM3.83282 7.86914H4.78907V7.36914H3.83282V7.86914ZM4.08282 10.4754V7.61914H3.58282V10.4754H4.08282ZM4.78906 10.2254H3.83282V10.7254H4.78906V10.2254ZM5.03906 14.2871V10.4754H4.53906V14.2871H5.03906ZM3.83282 14.5371H4.78906V14.0371H3.83282V14.5371ZM4.08282 15.2371V14.2871H3.58282V15.2371H4.08282ZM4.78907 14.9871H3.83282V15.4871H4.78907V14.9871ZM4.53907 14.2871V15.2371H5.03907V14.2871H4.53907ZM5.73906 14.0371H4.78907V14.5371H5.73906V14.0371ZM5.48906 13.3309V14.2871H5.98906V13.3309H5.48906ZM6.68906 13.0809H5.73906V13.5809H6.68906V13.0809ZM6.43906 12.3809V13.3309H6.93906V12.3809H6.43906ZM5.73906 12.6309H6.68906V12.1309H5.73906V12.6309ZM5.48906 10.4746V12.3809H5.98906V10.4746H5.48906ZM3.83281 14.9873H2.88281V15.4873H3.83281V14.9873ZM4.08281 19.9998V15.2373H3.58281V19.9998H4.08281ZM2.88281 20.2498H3.83281V19.7498H2.88281V20.2498ZM2.63281 15.2373V19.9998H3.13281V15.2373H2.63281Z" fill="#0D0D0D"/>
</g>
<defs>
<clipPath id="clip0_1778_6576">
<rect width="20" height="20" fill="white" transform="translate(0.5)"/>
</clipPath>
</defs>
</svg>
