<svg width="12" height="12" viewBox="0 0 12 12" fill="none" xmlns="http://www.w3.org/2000/svg">
<g id="ic_event" clip-path="url(#clip0_737_6662)">
<g id="Union">
<path fill-rule="evenodd" clip-rule="evenodd" d="M2 2H10H11V3V9V10H10H3.00012V11H2.00012V10H3V9H10V3H2V12H1V3H1V2H1H2ZM4.5 5.5H3.5V6.5H4.5V5.5ZM5.5 5.5H6.5V6.5H5.5V5.5ZM8.5 5.5H7.5V6.5H8.5V5.5Z" fill="#0D0D0D"/>
<path d="M11 2H11.1V1.9H11V2ZM11 10V10.1H11.1V10H11ZM3.00012 10V9.9H2.90012V10H3.00012ZM3.00012 11V11.1H3.10012V11H3.00012ZM2.00012 11H1.90012V11.1H2.00012V11ZM2.00012 10V9.9H1.90012V10H2.00012ZM3 10V10.1H3.1V10H3ZM3 9V8.9H2.9V9H3ZM10 9V9.1H10.1V9H10ZM10 3H10.1V2.9H10V3ZM2 3V2.9H1.9V3H2ZM2 12V12.1H2.1V12H2ZM1 12H0.900002V12.1H1V12ZM1 3H1.1V2.9H1V3ZM1 3H0.9V3.1H1V3ZM1 2V1.9H0.9V2H1ZM3.5 5.5V5.4H3.4V5.5H3.5ZM4.5 5.5H4.6V5.4H4.5V5.5ZM3.5 6.5H3.4V6.6H3.5V6.5ZM4.5 6.5V6.6H4.6V6.5H4.5ZM6.5 5.5H6.6V5.4H6.5V5.5ZM5.5 5.5V5.4H5.4V5.5H5.5ZM6.5 6.5V6.6H6.6V6.5H6.5ZM5.5 6.5H5.4V6.6H5.5V6.5ZM7.5 5.5V5.4H7.4V5.5H7.5ZM8.5 5.5H8.6V5.4H8.5V5.5ZM7.5 6.5H7.4V6.6H7.5V6.5ZM8.5 6.5V6.6H8.6V6.5H8.5ZM10 1.9H2V2.1H10V1.9ZM11 1.9H10V2.1H11V1.9ZM11.1 3V2H10.9V3H11.1ZM11.1 9V3H10.9V9H11.1ZM11.1 10V9H10.9V10H11.1ZM10 10.1H11V9.9H10V10.1ZM3.00012 10.1H10V9.9H3.00012V10.1ZM3.10012 11V10H2.90012V11H3.10012ZM2.00012 11.1H3.00012V10.9H2.00012V11.1ZM1.90012 10V11H2.10012V10H1.90012ZM3 9.9H2.00012V10.1H3V9.9ZM2.9 9V10H3.1V9H2.9ZM10 8.9H3V9.1H10V8.9ZM9.9 3V9H10.1V3H9.9ZM2 3.1H10V2.9H2V3.1ZM2.1 12V3H1.9V12H2.1ZM1 12.1H2V11.9H1V12.1ZM0.900002 3V12H1.1V3H0.900002ZM1 3.1H1V2.9H1V3.1ZM0.9 2V3H1.1V2H0.9ZM1 1.9H1V2.1H1V1.9ZM2 1.9H1V2.1H2V1.9ZM3.5 5.6H4.5V5.4H3.5V5.6ZM3.6 6.5V5.5H3.4V6.5H3.6ZM4.5 6.4H3.5V6.6H4.5V6.4ZM4.4 5.5V6.5H4.6V5.5H4.4ZM6.5 5.4H5.5V5.6H6.5V5.4ZM6.6 6.5V5.5H6.4V6.5H6.6ZM5.5 6.6H6.5V6.4H5.5V6.6ZM5.4 5.5V6.5H5.6V5.5H5.4ZM7.5 5.6H8.5V5.4H7.5V5.6ZM7.6 6.5V5.5H7.4V6.5H7.6ZM8.5 6.4H7.5V6.6H8.5V6.4ZM8.4 5.5V6.5H8.6V5.5H8.4Z" fill="#0D0D0D"/>
</g>
</g>
<defs>
<clipPath id="clip0_737_6662">
<rect width="12" height="12" fill="white"/>
</clipPath>
</defs>
</svg>
