<svg width="24" height="24" viewBox="0 0 24 24" fill="none" xmlns="http://www.w3.org/2000/svg">
<g id="ic_microphone_l">
<g id="Vector">
<path d="M5 11.6991H6.86018V13.5593H5V11.6991Z" fill="white"/>
<path d="M5 13.5593H6.86018V15.4195H5V13.5593Z" fill="white"/>
<path d="M5 15.4195H6.86018V17.2796H5V15.4195Z" fill="white"/>
<path d="M6.86018 15.4195H8.72036V17.2796H6.86018V15.4195Z" fill="white"/>
<path d="M8.72036 15.4195H10.5805V17.2796H8.72036V15.4195Z" fill="white"/>
<path d="M10.5805 15.4195H12.4407V17.2796H10.5805V15.4195Z" fill="white"/>
<path d="M10.5805 17.2796H12.4407V19.1398H10.5805V17.2796Z" fill="white"/>
<path d="M10.5805 19.1398H12.4407V21H10.5805V19.1398Z" fill="white"/>
<path d="M12.4407 15.4195H14.3009V17.2796H12.4407V15.4195Z" fill="white"/>
<path d="M14.3009 15.4195H16.1611V17.2796H14.3009V15.4195Z" fill="white"/>
<path d="M16.1611 15.4195H18.0213V17.2796H16.1611V15.4195Z" fill="white"/>
<path d="M16.1611 13.5593H18.0213V15.4195H16.1611V13.5593Z" fill="white"/>
<path d="M16.1611 11.6991H18.0213V13.5593H16.1611V11.6991Z" fill="white"/>
<path d="M11.5106 12.3009H13.3708V14.1611H11.5106V12.3009Z" fill="white"/>
<path d="M9.65045 12.3009H11.5106V14.1611H9.65045V12.3009Z" fill="white"/>
<path d="M7.79027 10.4407H9.65045V12.3009H7.79027V10.4407Z" fill="white"/>
<path d="M7.79027 8.58055H9.65045V10.4407H7.79027V8.58055Z" fill="white"/>
<path d="M7.79027 6.72036H9.65045V8.58055H7.79027V6.72036Z" fill="white"/>
<path d="M7.79027 4.86018H9.65045V6.72036H7.79027V4.86018Z" fill="white"/>
<path d="M9.65045 3H11.5106V4.86018H9.65045V3Z" fill="white"/>
<path d="M11.5106 3H13.3708V4.86018H11.5106V3Z" fill="white"/>
<path d="M13.3708 4.86018H15.231V6.72036H13.3708V4.86018Z" fill="white"/>
<path d="M13.3708 6.72036H15.231V8.58055H13.3708V6.72036Z" fill="white"/>
<path d="M13.3708 8.58055H15.231V10.4407H13.3708V8.58055Z" fill="white"/>
<path d="M13.3708 10.4407H15.231V12.3009H13.3708V10.4407Z" fill="white"/>
</g>
</g>
</svg>
