<svg width="14" height="12" viewBox="0 0 14 12" fill="none" xmlns="http://www.w3.org/2000/svg">
<rect x="3.88477" y="5.07129" width="6.3877" height="1.47064" fill="#00FC6E"/>
<rect x="3.88477" y="8.68555" width="6.2334" height="1.15063" fill="#00FC6E"/>
<path fill-rule="evenodd" clip-rule="evenodd" d="M12.4305 1.71582H1.57422V2.28582H12.4305V1.71582ZM12.9997 2.28613H12.4297V9.71423H10.7167V9.14423H10.143V9.71423H3.85797V9.14423H3.28797V9.71423H1.57422V10.2842H12.4305V9.71488H12.9997V2.28613ZM11.2865 8.57129H11.8602V9.14504H11.2865V8.57129ZM11.8602 2.85645H11.2865V3.4302H11.8602V2.85645ZM10.7163 5.14332H11.2863V6.28895H10.7163V6.85895H3.28753V6.28895H2.71753V5.1452H3.28753V4.5752H10.7163V5.14332ZM3.85753 6.28707H5.00128V5.14332H3.85753V6.28707ZM6.14503 5.71332H7.85878V5.14332H6.14503V5.71332ZM9.00253 6.28707H10.1425V5.14332H9.00253V6.28707ZM10.1429 8.57129H9.57288V9.14504H10.1429V8.57129ZM4.43103 8.00098H9.57228V8.57098H4.43103V8.00098ZM9.57228 2.85645H4.43103V3.4302H9.57228V2.85645ZM3.85803 8.57129H4.43178V9.14504H3.85803V8.57129ZM2.71828 8.57129H2.14453V9.14504H2.71828V8.57129ZM2.14453 2.85645H2.71828V3.4302H2.14453V2.85645ZM1 2.28613H1.57375V9.71488H1V2.28613Z" fill="#0D0D0D"/>
<path d="M1.57422 1.71582V1.56582H1.42422V1.71582H1.57422ZM12.4305 1.71582H12.5805V1.56582H12.4305V1.71582ZM1.57422 2.28582H1.42422V2.43582H1.57422V2.28582ZM12.4305 2.28582V2.43582H12.5805V2.28582H12.4305ZM12.4297 2.28613V2.13613H12.2797V2.28613H12.4297ZM12.9997 2.28613H13.1497V2.13613H12.9997V2.28613ZM12.4297 9.71423V9.86423H12.5797V9.71423H12.4297ZM10.7167 9.71423H10.5667V9.86423H10.7167V9.71423ZM10.7167 9.14423H10.8667V8.99423H10.7167V9.14423ZM10.143 9.14423V8.99423H9.99297V9.14423H10.143ZM10.143 9.71423V9.86423H10.293V9.71423H10.143ZM3.85797 9.71423H3.70797V9.86423H3.85797V9.71423ZM3.85797 9.14423H4.00797V8.99423H3.85797V9.14423ZM3.28797 9.14423V8.99423H3.13797V9.14423H3.28797ZM3.28797 9.71423V9.86423H3.43797V9.71423H3.28797ZM1.57422 9.71423V9.56423H1.42422V9.71423H1.57422ZM1.57422 10.2842H1.42422V10.4342H1.57422V10.2842ZM12.4305 10.2842V10.4342H12.5805V10.2842H12.4305ZM12.4305 9.71488V9.56488H12.2805V9.71488H12.4305ZM12.9997 9.71488V9.86488H13.1497V9.71488H12.9997ZM11.8602 8.57129H12.0102V8.42129H11.8602V8.57129ZM11.2865 8.57129V8.42129H11.1365V8.57129H11.2865ZM11.8602 9.14504V9.29504H12.0102V9.14504H11.8602ZM11.2865 9.14504H11.1365V9.29504H11.2865V9.14504ZM11.2865 2.85645V2.70645H11.1365V2.85645H11.2865ZM11.8602 2.85645H12.0102V2.70645H11.8602V2.85645ZM11.2865 3.4302H11.1365V3.5802H11.2865V3.4302ZM11.8602 3.4302V3.5802H12.0102V3.4302H11.8602ZM11.2863 5.14332H11.4363V4.99332H11.2863V5.14332ZM10.7163 5.14332H10.5663V5.29332H10.7163V5.14332ZM11.2863 6.28895V6.43895H11.4363V6.28895H11.2863ZM10.7163 6.28895V6.13895H10.5663V6.28895H10.7163ZM10.7163 6.85895V7.00895H10.8663V6.85895H10.7163ZM3.28753 6.85895H3.13753V7.00895H3.28753V6.85895ZM3.28753 6.28895H3.43753V6.13895H3.28753V6.28895ZM2.71753 6.28895H2.56753V6.43895H2.71753V6.28895ZM2.71753 5.1452V4.9952H2.56753V5.1452H2.71753ZM3.28753 5.1452V5.2952H3.43753V5.1452H3.28753ZM3.28753 4.5752V4.4252H3.13753V4.5752H3.28753ZM10.7163 4.5752H10.8663V4.4252H10.7163V4.5752ZM5.00128 6.28707V6.43707H5.15128V6.28707H5.00128ZM3.85753 6.28707H3.70753V6.43707H3.85753V6.28707ZM5.00128 5.14332H5.15128V4.99332H5.00128V5.14332ZM3.85753 5.14332V4.99332H3.70753V5.14332H3.85753ZM7.85878 5.71332V5.86332H8.00878V5.71332H7.85878ZM6.14503 5.71332H5.99503V5.86332H6.14503V5.71332ZM7.85878 5.14332H8.00878V4.99332H7.85878V5.14332ZM6.14503 5.14332V4.99332H5.99503V5.14332H6.14503ZM10.1425 6.28707V6.43707H10.2925V6.28707H10.1425ZM9.00253 6.28707H8.85253V6.43707H9.00253V6.28707ZM10.1425 5.14332H10.2925V4.99332H10.1425V5.14332ZM9.00253 5.14332V4.99332H8.85253V5.14332H9.00253ZM9.57288 8.57129V8.42129H9.42288V8.57129H9.57288ZM10.1429 8.57129H10.2929V8.42129H10.1429V8.57129ZM9.57288 9.14504H9.42288V9.29504H9.57288V9.14504ZM10.1429 9.14504V9.29504H10.2929V9.14504H10.1429ZM9.57228 8.00098H9.72228V7.85098H9.57228V8.00098ZM4.43103 8.00098V7.85098H4.28103V8.00098H4.43103ZM9.57228 8.57098V8.72098H9.72228V8.57098H9.57228ZM4.43103 8.57098H4.28103V8.72098H4.43103V8.57098ZM4.43103 2.85645V2.70645H4.28103V2.85645H4.43103ZM9.57228 2.85645H9.72228V2.70645H9.57228V2.85645ZM4.43103 3.4302H4.28103V3.5802H4.43103V3.4302ZM9.57228 3.4302V3.5802H9.72228V3.4302H9.57228ZM4.43178 8.57129H4.58178V8.42129H4.43178V8.57129ZM3.85803 8.57129V8.42129H3.70803V8.57129H3.85803ZM4.43178 9.14504V9.29504H4.58178V9.14504H4.43178ZM3.85803 9.14504H3.70803V9.29504H3.85803V9.14504ZM2.14453 8.57129V8.42129H1.99453V8.57129H2.14453ZM2.71828 8.57129H2.86828V8.42129H2.71828V8.57129ZM2.14453 9.14504H1.99453V9.29504H2.14453V9.14504ZM2.71828 9.14504V9.29504H2.86828V9.14504H2.71828ZM2.71828 2.85645H2.86828V2.70645H2.71828V2.85645ZM2.14453 2.85645V2.70645H1.99453V2.85645H2.14453ZM2.71828 3.4302V3.5802H2.86828V3.4302H2.71828ZM2.14453 3.4302H1.99453V3.5802H2.14453V3.4302ZM1.57375 2.28613H1.72375V2.13613H1.57375V2.28613ZM1 2.28613V2.13613H0.85V2.28613H1ZM1.57375 9.71488V9.86488H1.72375V9.71488H1.57375ZM1 9.71488H0.85V9.86488H1V9.71488ZM1.57422 1.86582H12.4305V1.56582H1.57422V1.86582ZM1.72422 2.28582V1.71582H1.42422V2.28582H1.72422ZM12.4305 2.13582H1.57422V2.43582H12.4305V2.13582ZM12.2805 1.71582V2.28582H12.5805V1.71582H12.2805ZM12.4297 2.43613H12.9997V2.13613H12.4297V2.43613ZM12.5797 9.71423V2.28613H12.2797V9.71423H12.5797ZM10.7167 9.86423H12.4297V9.56423H10.7167V9.86423ZM10.5667 9.14423V9.71423H10.8667V9.14423H10.5667ZM10.143 9.29423H10.7167V8.99423H10.143V9.29423ZM10.293 9.71423V9.14423H9.99297V9.71423H10.293ZM3.85797 9.86423H10.143V9.56423H3.85797V9.86423ZM3.70797 9.14423V9.71423H4.00797V9.14423H3.70797ZM3.28797 9.29423H3.85797V8.99423H3.28797V9.29423ZM3.43797 9.71423V9.14423H3.13797V9.71423H3.43797ZM1.57422 9.86423H3.28797V9.56423H1.57422V9.86423ZM1.72422 10.2842V9.71423H1.42422V10.2842H1.72422ZM12.4305 10.1342H1.57422V10.4342H12.4305V10.1342ZM12.2805 9.71488V10.2842H12.5805V9.71488H12.2805ZM12.9997 9.56488H12.4305V9.86488H12.9997V9.56488ZM12.8497 2.28613V9.71488H13.1497V2.28613H12.8497ZM11.8602 8.42129H11.2865V8.72129H11.8602V8.42129ZM12.0102 9.14504V8.57129H11.7102V9.14504H12.0102ZM11.2865 9.29504H11.8602V8.99504H11.2865V9.29504ZM11.1365 8.57129V9.14504H11.4365V8.57129H11.1365ZM11.2865 3.00645H11.8602V2.70645H11.2865V3.00645ZM11.4365 3.4302V2.85645H11.1365V3.4302H11.4365ZM11.8602 3.2802H11.2865V3.5802H11.8602V3.2802ZM11.7102 2.85645V3.4302H12.0102V2.85645H11.7102ZM11.2863 4.99332H10.7163V5.29332H11.2863V4.99332ZM11.4363 6.28895V5.14332H11.1363V6.28895H11.4363ZM10.7163 6.43895H11.2863V6.13895H10.7163V6.43895ZM10.8663 6.85895V6.28895H10.5663V6.85895H10.8663ZM3.28753 7.00895H10.7163V6.70895H3.28753V7.00895ZM3.13753 6.28895V6.85895H3.43753V6.28895H3.13753ZM2.71753 6.43895H3.28753V6.13895H2.71753V6.43895ZM2.56753 5.1452V6.28895H2.86753V5.1452H2.56753ZM3.28753 4.9952H2.71753V5.2952H3.28753V4.9952ZM3.13753 4.5752V5.1452H3.43753V4.5752H3.13753ZM10.7163 4.4252H3.28753V4.7252H10.7163V4.4252ZM10.8663 5.14332V4.5752H10.5663V5.14332H10.8663ZM5.00128 6.13707H3.85753V6.43707H5.00128V6.13707ZM4.85128 5.14332V6.28707H5.15128V5.14332H4.85128ZM3.85753 5.29332H5.00128V4.99332H3.85753V5.29332ZM4.00753 6.28707V5.14332H3.70753V6.28707H4.00753ZM7.85878 5.56332H6.14503V5.86332H7.85878V5.56332ZM7.70878 5.14332V5.71332H8.00878V5.14332H7.70878ZM6.14503 5.29332H7.85878V4.99332H6.14503V5.29332ZM6.29503 5.71332V5.14332H5.99503V5.71332H6.29503ZM10.1425 6.13707H9.00253V6.43707H10.1425V6.13707ZM9.99253 5.14332V6.28707H10.2925V5.14332H9.99253ZM9.00253 5.29332H10.1425V4.99332H9.00253V5.29332ZM9.15253 6.28707V5.14332H8.85253V6.28707H9.15253ZM9.57288 8.72129H10.1429V8.42129H9.57288V8.72129ZM9.72288 9.14504V8.57129H9.42288V9.14504H9.72288ZM10.1429 8.99504H9.57288V9.29504H10.1429V8.99504ZM9.99288 8.57129V9.14504H10.2929V8.57129H9.99288ZM9.57228 7.85098H4.43103V8.15098H9.57228V7.85098ZM9.72228 8.57098V8.00098H9.42228V8.57098H9.72228ZM4.43103 8.72098H9.57228V8.42098H4.43103V8.72098ZM4.28103 8.00098V8.57098H4.58103V8.00098H4.28103ZM4.43103 3.00645H9.57228V2.70645H4.43103V3.00645ZM4.58103 3.4302V2.85645H4.28103V3.4302H4.58103ZM9.57228 3.2802H4.43103V3.5802H9.57228V3.2802ZM9.42228 2.85645V3.4302H9.72228V2.85645H9.42228ZM4.43178 8.42129H3.85803V8.72129H4.43178V8.42129ZM4.58178 9.14504V8.57129H4.28178V9.14504H4.58178ZM3.85803 9.29504H4.43178V8.99504H3.85803V9.29504ZM3.70803 8.57129V9.14504H4.00803V8.57129H3.70803ZM2.14453 8.72129H2.71828V8.42129H2.14453V8.72129ZM2.29453 9.14504V8.57129H1.99453V9.14504H2.29453ZM2.71828 8.99504H2.14453V9.29504H2.71828V8.99504ZM2.56828 8.57129V9.14504H2.86828V8.57129H2.56828ZM2.71828 2.70645H2.14453V3.00645H2.71828V2.70645ZM2.86828 3.4302V2.85645H2.56828V3.4302H2.86828ZM2.14453 3.5802H2.71828V3.2802H2.14453V3.5802ZM1.99453 2.85645V3.4302H2.29453V2.85645H1.99453ZM1.57375 2.13613H1V2.43613H1.57375V2.13613ZM1.72375 9.71488V2.28613H1.42375V9.71488H1.72375ZM1 9.86488H1.57375V9.56488H1V9.86488ZM0.85 2.28613V9.71488H1.15V2.28613H0.85Z" fill="#0D0D0D"/>
</svg>
