<svg width="17" height="17" viewBox="0 0 17 17" fill="none" xmlns="http://www.w3.org/2000/svg">
<path d="M10.7335 6.92037C10.9653 6.57709 10.875 6.11089 10.5317 5.87909C10.1884 5.64729 9.72222 5.73766 9.49042 6.08094L10.7335 6.92037ZM7.41095 10.5007L6.84055 10.9876C6.99267 11.1658 7.2193 11.2627 7.4532 11.2495C7.6871 11.2363 7.9014 11.1145 8.03251 10.9204L7.41095 10.5007ZM6.68238 8.4922C6.41342 8.17718 5.94002 8.13983 5.625 8.40878C5.30998 8.67773 5.27263 9.15114 5.54158 9.46616L6.68238 8.4922ZM9.49042 6.08094L6.78938 10.0809L8.03251 10.9204L10.7335 6.92037L9.49042 6.08094ZM7.98134 10.0137L6.68238 8.4922L5.54158 9.46616L6.84055 10.9876L7.98134 10.0137ZM14.0286 8.50065C14.0286 11.7683 11.3797 14.4173 8.11198 14.4173V15.9173C12.2081 15.9173 15.5286 12.5968 15.5286 8.50065H14.0286ZM8.11198 14.4173C4.84429 14.4173 2.19531 11.7683 2.19531 8.50065H0.695312C0.695312 12.5968 4.01587 15.9173 8.11198 15.9173V14.4173ZM2.19531 8.50065C2.19531 5.23297 4.84429 2.58398 8.11198 2.58398V1.08398C4.01587 1.08398 0.695312 4.40454 0.695312 8.50065H2.19531ZM8.11198 2.58398C11.3797 2.58398 14.0286 5.23297 14.0286 8.50065H15.5286C15.5286 4.40454 12.2081 1.08398 8.11198 1.08398V2.58398Z" fill="#004D22"/>
</svg>
