<svg width="20" height="20" viewBox="0 0 20 20" fill="none" xmlns="http://www.w3.org/2000/svg">
<g id="settings">
<path id="Union" fill-rule="evenodd" clip-rule="evenodd" d="M7.33442 2H12.6678V3.77734H13.5551V4.66699H14.4457V3.77734L16.2235 3.77734V4.66699H17.1122V5.55566H18.0009V9.11122L17.1118 9.11122V10.8888H18.0009V14.4443H17.1122V15.333H16.2235V16.2227H14.4457V15.333H13.5551V16.2227H12.6678V18.0004H7.33442V16.2227H6.44575V15.333H5.55512V16.2227H3.77734L3.77734 15.333H2.88867V14.4443H2L2 10.8888H2.88867L2.88867 9.11122H2L2 5.55566H2.88867V4.66699H3.77734L3.77734 3.77734L5.55512 3.77734V5.55512H4.66645V6.44477H3.77778L3.77778 8.22266H4.66645V11.7782H3.77778L3.77778 13.5552H4.66645V14.4449H5.55512V13.5552H7.3329V14.4449H8.22352V16.2227H11.7773V14.4449H12.668V13.5552H14.4457V14.4449H15.3344V13.5552H16.2231V11.7782H15.334V8.22266H16.2231V6.44477H15.3344V5.55512H14.4457V6.44477H12.668V5.55512H11.7773V3.77778H8.22309V5.55512H7.33442V6.44477H5.55664V4.66699H6.44531V3.77734L7.33442 3.77734V2ZM10.8891 6.44434H9.11133V7.33301H7.33398L7.33398 9.11079L9.11176 9.11079V8.22211L10.8887 8.22211V9.11079L12.6664 9.11079V7.33301H10.8891V6.44434ZM13.5551 9.11133H11.7773V10.8887H10.8887V11.7773H9.11176V10.8887H8.22309V9.11133H6.44531V10.8891H7.33398L7.33398 12.6664H9.11133V13.5551H10.8891V12.6664H12.6664V10.8891H13.5551V9.11133Z" fill="#0D0D0D"/>
</g>
</svg>
