<svg width="120" height="84" viewBox="0 0 120 84" fill="none" xmlns="http://www.w3.org/2000/svg">
<path fill-rule="evenodd" clip-rule="evenodd" d="M50.9385 20.9492V25.9192H45.9704V30.8792H40.9922V53.0029H74.1466V30.8792H69.1785V25.9192H64.2003V20.9492H50.9385Z" fill="white"/>
<path fill-rule="evenodd" clip-rule="evenodd" d="M50.9219 16H84.0798V20.9648H89.052V25.9297H94.0247V30.8952H69.1562V25.9304H64.1836V20.9655H50.9229V25.9304H45.9492V20.9648H50.9219V16ZM40.9727 25.9297H45.9463V30.8952H40.9727V25.9297ZM36 30.8984H40.9737V59.0019H36V30.8984ZM99.0012 30.8984H74.1328V52.0019H99.0012V30.8984Z" fill="#0D0D0D"/>
<path fill-rule="evenodd" clip-rule="evenodd" d="M48.4336 32.6875H53.4073V35.653H48.4336V32.6875ZM58.3789 32.6875H63.3526V35.653H58.3789V32.6875ZM58.5195 36.9297H53.2695V45.8952H58.5195V36.9297Z" fill="#0D0D0D"/>
<path fill-rule="evenodd" clip-rule="evenodd" d="M46.5 39H30V46.5H27V49.5V54H30V58.5H46.5V54H49.5V49.5V46.5H46.5V39Z" fill="#FFF96D"/>
<path fill-rule="evenodd" clip-rule="evenodd" d="M34.5001 36H42.0001V39H34.5001V36ZM27 54.0002V51.7503H49.5V48.7503H27V46.5003H24V54.0003H26.9999V58.5002H29.9999V61.5002H30V67.5001H32.9999V81L35.9997 81V84H40.4997V81L35.9999 81V67.5H33V61.5002H41.9999V58.5002H29.9999V54.0002H27ZM34.4998 39.0001H29.9998V42.0001H26.9999V46.5001H29.9999V42.0001H34.4998V39.0001ZM42 39H46.5V42L49.4999 42V46.5H46.4999V42L42 42V39ZM46.5 58.5001H42V61.5001H46.5V58.5002H49.5V54.0002H46.5V58.5001ZM52.5 46.5002H49.5V54.0002H52.5V46.5002ZM43.4999 61.5001H46.4999V67.5001H43.5001V80.9999H40.5001V67.4999H43.4999V61.5001Z" fill="#0D0D0D"/>
<path fill-rule="evenodd" clip-rule="evenodd" d="M36 61.5H33V67.5H36V81H40.5V67.5H43.5V61.5H40.5H36Z" fill="white"/>
<path fill-rule="evenodd" clip-rule="evenodd" d="M6.8125 3.32422H33.1955V6.09347H6.8125V3.32422ZM36.5981 6.09375H3.40653L3.40625 21.6016H36.5977L36.5981 6.09375ZM23.832 26.0324H6.8125V21.6016H33.1955V26.0324H27.2363V29.3544H23.832V26.0324Z" fill="#0D0D0D"/>
<path fill-rule="evenodd" clip-rule="evenodd" d="M33.1916 0H6.80865V3.3231H33.1916V0ZM20.4256 22.7072H6.80859V26.0303H20.4256V22.7072ZM3.40625 3.32422H6.8105V6.64732H3.40625V3.32422ZM36.5957 3.32422H33.1914V6.64732H36.5938V19.3828H33.1914V22.7059H36.5957V19.3831H39.998V6.64453H36.5957V3.32422ZM3.40625 19.3828H6.8105V22.7059H3.40625V19.3828ZM28.9375 22.707H33.1928V26.0301H30.6386V34.9996H27.2344V22.7072H28.9375V22.707ZM23.83 26.0312H20.4258V29.3544H23.8281V32.6747H27.2324V29.3516H23.83V26.0312ZM0 6.64453H3.40425V19.3831H0V6.64453Z" fill="#0D0D0D"/>
<path fill-rule="evenodd" clip-rule="evenodd" d="M19.9991 7.0625C19.3525 7.0625 18.8284 7.58667 18.8284 8.23327V17.8917C18.8284 18.5383 19.3525 19.0625 19.9991 19.0625C20.6457 19.0625 21.1699 18.5383 21.1699 17.8917V8.23327C21.1699 7.58667 20.6457 7.0625 19.9991 7.0625ZM10.6328 9.94811C10.6328 9.30151 11.157 8.77734 11.8036 8.77734C12.4502 8.77734 12.9743 9.30151 12.9743 9.94811V16.178C12.9743 16.8246 12.4502 17.3488 11.8036 17.3488C11.157 17.3488 10.6328 16.8246 10.6328 16.178V9.94811ZM27.0234 9.94811C27.0234 9.30151 27.5476 8.77734 28.1942 8.77734C28.8408 8.77734 29.365 9.30151 29.365 9.94811V16.178C29.365 16.8246 28.8408 17.3488 28.1942 17.3488C27.5476 17.3488 27.0234 16.8246 27.0234 16.178V9.94811ZM15.9014 10.7774C15.2548 10.7774 14.7306 11.3015 14.7306 11.9481V14.178C14.7306 14.8246 15.2548 15.3488 15.9014 15.3488C16.548 15.3488 17.0722 14.8246 17.0722 14.178V11.9481C17.0722 11.3015 16.548 10.7774 15.9014 10.7774ZM6.53516 13.0647C6.53516 12.4335 7.04683 11.9219 7.67801 11.9219H7.73383C8.36502 11.9219 8.87669 12.4335 8.87669 13.0647C8.87669 13.6959 8.36502 14.2076 7.73383 14.2076H7.67801C7.04683 14.2076 6.53516 13.6959 6.53516 13.0647ZM32.264 11.9219C31.6328 11.9219 31.1211 12.4335 31.1211 13.0647C31.1211 13.6959 31.6328 14.2076 32.264 14.2076H32.3198C32.951 14.2076 33.4626 13.6959 33.4626 13.0647C33.4626 12.4335 32.951 11.9219 32.3198 11.9219H32.264ZM22.9258 11.9481C22.9258 11.3015 23.45 10.7773 24.0965 10.7773C24.7431 10.7773 25.2673 11.3015 25.2673 11.9481V14.178C25.2673 14.8246 24.7431 15.3488 24.0965 15.3488C23.45 15.3488 22.9258 14.8246 22.9258 14.178V11.9481Z" fill="#00FC6E"/>
<path d="M95.8692 8.57422H93.5742V10.8542H95.8692V8.57422Z" fill="#0D0D0D"/>
<path d="M93.5769 10.8555H91.2969V13.1505H93.5769V10.8555Z" fill="#0D0D0D"/>
<path d="M93.5769 6.29688H91.2969V8.57687H93.5769V6.29688Z" fill="#0D0D0D"/>
<path d="M91.295 8.57422H89V10.8542H91.295V8.57422Z" fill="#0D0D0D"/>
<path d="M93.7247 19.1484H91.4297V21.4284H93.7247V19.1484Z" fill="#0D0D0D"/>
<path d="M101.725 12.1484H99.4297V14.4284H101.725V12.1484Z" fill="#0D0D0D"/>
<path d="M77.6309 10.7812H75.3359V13.0612H77.6309V10.7812Z" fill="#0D0D0D"/>
<path d="M104.885 29.3516H102.59V31.6316H104.885V29.3516Z" fill="#0D0D0D"/>
<path d="M102.593 17.5234V19.8184H100.312V22.0984H102.593V24.3784H104.872V22.0984H107.168V19.8184H104.872V17.5234H102.593Z" fill="#0D0D0D"/>
</svg>
