<svg width="158" height="17" viewBox="0 0 158 17" fill="none" xmlns="http://www.w3.org/2000/svg">
<path fill-rule="evenodd" clip-rule="evenodd" d="M6.81497 6.4375V7.76953H9.18164V6.4375H10.5176V4.07083H5.48294V6.4375H6.81497ZM6.81497 9.7375H9.18164V11.0695H10.5176V13.4362H5.48294V11.0695H6.81497V9.7375Z" fill="white"/>
<rect x="5.36328" y="5.72266" width="5.19531" height="2.18555" fill="#FFF94D"/>
<path fill-rule="evenodd" clip-rule="evenodd" d="M12 2.58594H4V3.91797V3.91927V6.58464H5.33333V3.91927H10.668V6.58464H12.0013V3.91797H12V2.58594ZM10.6654 6.58594H9.33203V7.91797H6.66797V8.2526V9.2513V9.58594H9.33203V10.918H10.6654V9.58463H9.33464V9.2513V8.2526V7.91927H10.6654V6.58594ZM5.33203 6.58594H6.66536V7.91927H5.33203V6.58594ZM4 14.918H12V13.5859H12.0013V10.9193H10.668V13.5846H5.33333V10.9193H4V13.5846V13.5859V14.918ZM5.33203 10.918H6.66536V9.58463H5.33203V10.918Z" fill="#0D0D0D"/>
<path d="M4 2.58594V2.43594H3.85V2.58594H4ZM12 2.58594H12.15V2.43594H12V2.58594ZM4 6.58464H3.85V6.73464H4V6.58464ZM5.33333 6.58464V6.73464H5.48333V6.58464H5.33333ZM5.33333 3.91927V3.76927H5.18333V3.91927H5.33333ZM10.668 3.91927H10.818V3.76927H10.668V3.91927ZM10.668 6.58464H10.518V6.73464H10.668V6.58464ZM12.0013 6.58464V6.73464H12.1513V6.58464H12.0013ZM12.0013 3.91797H12.1513V3.76797H12.0013V3.91797ZM12 3.91797H11.85V4.06797H12V3.91797ZM9.33203 6.58594V6.43594H9.18203V6.58594H9.33203ZM10.6654 6.58594H10.8154V6.43594H10.6654V6.58594ZM9.33203 7.91797V8.06797H9.48203V7.91797H9.33203ZM6.66797 7.91797V7.76797H6.51797V7.91797H6.66797ZM6.66797 9.58594H6.51797V9.73594H6.66797V9.58594ZM9.33203 9.58594H9.48203V9.43594H9.33203V9.58594ZM9.33203 10.918H9.18203V11.068H9.33203V10.918ZM10.6654 10.918V11.068H10.8154V10.918H10.6654ZM10.6654 9.58463H10.8154V9.43463H10.6654V9.58463ZM9.33464 9.58463H9.18464V9.73463H9.33464V9.58463ZM9.33464 7.91927V7.76927H9.18464V7.91927H9.33464ZM10.6654 7.91927V8.06927H10.8154V7.91927H10.6654ZM6.66536 6.58594H6.81536V6.43594H6.66536V6.58594ZM5.33203 6.58594V6.43594H5.18203V6.58594H5.33203ZM6.66536 7.91927V8.06927H6.81536V7.91927H6.66536ZM5.33203 7.91927H5.18203V8.06927H5.33203V7.91927ZM12 14.918V15.068H12.15V14.918H12ZM4 14.918H3.85V15.068H4V14.918ZM12 13.5859V13.4359H11.85V13.5859H12ZM12.0013 13.5859V13.7359H12.1513V13.5859H12.0013ZM12.0013 10.9193H12.1513V10.7693H12.0013V10.9193ZM10.668 10.9193V10.7693H10.518V10.9193H10.668ZM10.668 13.5846V13.7346H10.818V13.5846H10.668ZM5.33333 13.5846H5.18333V13.7346H5.33333V13.5846ZM5.33333 10.9193H5.48333V10.7693H5.33333V10.9193ZM4 10.9193V10.7693H3.85V10.9193H4ZM6.66536 10.918V11.068H6.81536V10.918H6.66536ZM5.33203 10.918H5.18203V11.068H5.33203V10.918ZM6.66536 9.58463H6.81536V9.43463H6.66536V9.58463ZM5.33203 9.58463V9.43463H5.18203V9.58463H5.33203ZM4 2.73594H12V2.43594H4V2.73594ZM4.15 3.91797V2.58594H3.85V3.91797H4.15ZM4.15 3.91927V3.91797H3.85V3.91927H4.15ZM4.15 6.58464V3.91927H3.85V6.58464H4.15ZM5.33333 6.43464H4V6.73464H5.33333V6.43464ZM5.18333 3.91927V6.58464H5.48333V3.91927H5.18333ZM10.668 3.76927H5.33333V4.06927H10.668V3.76927ZM10.818 6.58464V3.91927H10.518V6.58464H10.818ZM12.0013 6.43464H10.668V6.73464H12.0013V6.43464ZM11.8513 3.91797V6.58464H12.1513V3.91797H11.8513ZM12 4.06797H12.0013V3.76797H12V4.06797ZM11.85 2.58594V3.91797H12.15V2.58594H11.85ZM9.33203 6.73594H10.6654V6.43594H9.33203V6.73594ZM9.48203 7.91797V6.58594H9.18203V7.91797H9.48203ZM6.66797 8.06797H9.33203V7.76797H6.66797V8.06797ZM6.81797 8.2526V7.91797H6.51797V8.2526H6.81797ZM6.51797 8.2526V9.2513H6.81797V8.2526H6.51797ZM6.51797 9.2513V9.58594H6.81797V9.2513H6.51797ZM6.66797 9.73594H9.33203V9.43594H6.66797V9.73594ZM9.18203 9.58594V10.918H9.48203V9.58594H9.18203ZM9.33203 11.068H10.6654V10.768H9.33203V11.068ZM10.8154 10.918V9.58463H10.5154V10.918H10.8154ZM10.6654 9.43463H9.33464V9.73463H10.6654V9.43463ZM9.48464 9.58463V9.2513H9.18464V9.58463H9.48464ZM9.48464 9.2513V8.2526H9.18464V9.2513H9.48464ZM9.18464 7.91927V8.2526H9.48464V7.91927H9.18464ZM10.6654 7.76927H9.33464V8.06927H10.6654V7.76927ZM10.5154 6.58594V7.91927H10.8154V6.58594H10.5154ZM6.66536 6.43594H5.33203V6.73594H6.66536V6.43594ZM6.81536 7.91927V6.58594H6.51536V7.91927H6.81536ZM5.33203 8.06927H6.66536V7.76927H5.33203V8.06927ZM5.18203 6.58594V7.91927H5.48203V6.58594H5.18203ZM12 14.768H4V15.068H12V14.768ZM11.85 13.5859V14.918H12.15V13.5859H11.85ZM12.0013 13.4359H12V13.7359H12.0013V13.4359ZM11.8513 10.9193V13.5859H12.1513V10.9193H11.8513ZM10.668 11.0693H12.0013V10.7693H10.668V11.0693ZM10.818 13.5846V10.9193H10.518V13.5846H10.818ZM5.33333 13.7346H10.668V13.4346H5.33333V13.7346ZM5.18333 10.9193V13.5846H5.48333V10.9193H5.18333ZM4 11.0693H5.33333V10.7693H4V11.0693ZM4.15 13.5846V10.9193H3.85V13.5846H4.15ZM4.15 13.5859V13.5846H3.85V13.5859H4.15ZM4.15 14.918V13.5859H3.85V14.918H4.15ZM6.66536 10.768H5.33203V11.068H6.66536V10.768ZM6.51536 9.58463V10.918H6.81536V9.58463H6.51536ZM5.33203 9.73463H6.66536V9.43463H5.33203V9.73463ZM5.48203 10.918V9.58463H5.18203V10.918H5.48203Z" fill="#0D0D0D"/>
<path d="M23.58 8.454C24.052 8.542 24.44 8.778 24.744 9.162C25.048 9.546 25.2 9.986 25.2 10.482C25.2 10.93 25.088 11.326 24.864 11.67C24.648 12.006 24.332 12.27 23.916 12.462C23.5 12.654 23.008 12.75 22.44 12.75H18.828V4.374H22.284C22.852 4.374 23.34 4.466 23.748 4.65C24.164 4.834 24.476 5.09 24.684 5.418C24.9 5.746 25.008 6.118 25.008 6.534C25.008 7.022 24.876 7.43 24.612 7.758C24.356 8.086 24.012 8.318 23.58 8.454ZM20.508 7.83H22.044C22.444 7.83 22.752 7.742 22.968 7.566C23.184 7.382 23.292 7.122 23.292 6.786C23.292 6.45 23.184 6.19 22.968 6.006C22.752 5.822 22.444 5.73 22.044 5.73H20.508V7.83ZM22.2 11.382C22.608 11.382 22.924 11.286 23.148 11.094C23.38 10.902 23.496 10.63 23.496 10.278C23.496 9.918 23.376 9.638 23.136 9.438C22.896 9.23 22.572 9.126 22.164 9.126H20.508V11.382H22.2ZM32.8149 6.102V12.75H31.1229V11.91C30.9069 12.198 30.6229 12.426 30.2709 12.594C29.9269 12.754 29.5509 12.834 29.1429 12.834C28.6229 12.834 28.1629 12.726 27.7629 12.51C27.3629 12.286 27.0469 11.962 26.8149 11.538C26.5909 11.106 26.4789 10.594 26.4789 10.002V6.102H28.1589V9.762C28.1589 10.29 28.2909 10.698 28.5549 10.986C28.8189 11.266 29.1789 11.406 29.6349 11.406C30.0989 11.406 30.4629 11.266 30.7269 10.986C30.9909 10.698 31.1229 10.29 31.1229 9.762V6.102H32.8149ZM40.8325 6.102L36.7165 15.894H34.9285L36.3685 12.582L33.7045 6.102H35.5885L37.3045 10.746L39.0445 6.102H40.8325ZM51.7615 12.75H50.0815L46.2775 7.002V12.75H44.5975V4.362H46.2775L50.0815 10.122V4.362H51.7615V12.75ZM56.3738 12.858C55.7338 12.858 55.1578 12.718 54.6458 12.438C54.1338 12.15 53.7298 11.746 53.4338 11.226C53.1458 10.706 53.0018 10.106 53.0018 9.426C53.0018 8.746 53.1498 8.146 53.4458 7.626C53.7498 7.106 54.1618 6.706 54.6818 6.426C55.2018 6.138 55.7818 5.994 56.4218 5.994C57.0618 5.994 57.6418 6.138 58.1618 6.426C58.6818 6.706 59.0898 7.106 59.3858 7.626C59.6898 8.146 59.8418 8.746 59.8418 9.426C59.8418 10.106 59.6858 10.706 59.3737 11.226C59.0698 11.746 58.6538 12.15 58.1258 12.438C57.6058 12.718 57.0218 12.858 56.3738 12.858ZM56.3738 11.394C56.6778 11.394 56.9618 11.322 57.2258 11.178C57.4978 11.026 57.7138 10.802 57.8738 10.506C58.0338 10.21 58.1138 9.85 58.1138 9.426C58.1138 8.794 57.9458 8.31 57.6098 7.974C57.2818 7.63 56.8778 7.458 56.3978 7.458C55.9178 7.458 55.5138 7.63 55.1858 7.974C54.8658 8.31 54.7058 8.794 54.7058 9.426C54.7058 10.058 54.8618 10.546 55.1738 10.89C55.4938 11.226 55.8938 11.394 56.3738 11.394ZM70.2901 6.102L68.3461 12.75H66.5341L65.3221 8.106L64.1101 12.75H62.2861L60.3301 6.102H62.0341L63.2101 11.166L64.4821 6.102H66.2581L67.5061 11.154L68.6821 6.102H70.2901ZM73.0351 10.986L71.6311 14.358H70.5511L71.3311 10.986H73.0351ZM78.7853 11.418H81.5453V12.75H77.1053V4.374H78.7853V11.418ZM83.4652 5.31C83.1692 5.31 82.9212 5.218 82.7212 5.034C82.5292 4.842 82.4332 4.606 82.4332 4.326C82.4332 4.046 82.5292 3.814 82.7212 3.63C82.9212 3.438 83.1692 3.342 83.4652 3.342C83.7612 3.342 84.0052 3.438 84.1972 3.63C84.3972 3.814 84.4972 4.046 84.4972 4.326C84.4972 4.606 84.3972 4.842 84.1972 5.034C84.0052 5.218 83.7612 5.31 83.4652 5.31ZM84.2932 6.102V12.75H82.6132V6.102H84.2932ZM94.209 6.006C95.025 6.006 95.681 6.258 96.177 6.762C96.681 7.258 96.933 7.954 96.933 8.85V12.75H95.253V9.078C95.253 8.558 95.121 8.162 94.857 7.89C94.593 7.61 94.233 7.47 93.777 7.47C93.321 7.47 92.957 7.61 92.685 7.89C92.421 8.162 92.289 8.558 92.289 9.078V12.75H90.609V9.078C90.609 8.558 90.477 8.162 90.213 7.89C89.949 7.61 89.589 7.47 89.133 7.47C88.669 7.47 88.301 7.61 88.029 7.89C87.765 8.162 87.633 8.558 87.633 9.078V12.75H85.953V6.102H87.633V6.906C87.849 6.626 88.125 6.406 88.461 6.246C88.805 6.086 89.181 6.006 89.589 6.006C90.109 6.006 90.573 6.118 90.981 6.342C91.389 6.558 91.705 6.87 91.929 7.278C92.145 6.894 92.457 6.586 92.865 6.354C93.281 6.122 93.729 6.006 94.209 6.006ZM99.3792 5.31C99.0832 5.31 98.8352 5.218 98.6352 5.034C98.4432 4.842 98.3472 4.606 98.3472 4.326C98.3472 4.046 98.4432 3.814 98.6352 3.63C98.8352 3.438 99.0832 3.342 99.3792 3.342C99.6752 3.342 99.9192 3.438 100.111 3.63C100.311 3.814 100.411 4.046 100.411 4.326C100.411 4.606 100.311 4.842 100.111 5.034C99.9192 5.218 99.6752 5.31 99.3792 5.31ZM100.207 6.102V12.75H98.5272V6.102H100.207ZM103.823 7.482V10.698C103.823 10.922 103.875 11.086 103.979 11.19C104.091 11.286 104.275 11.334 104.531 11.334H105.311V12.75H104.255C102.839 12.75 102.131 12.062 102.131 10.686V7.482H101.339V6.102H102.131V4.458H103.823V6.102H105.311V7.482H103.823ZM112.699 9.282C112.699 9.522 112.683 9.738 112.651 9.93H107.791C107.831 10.41 107.999 10.786 108.295 11.058C108.591 11.33 108.955 11.466 109.387 11.466C110.011 11.466 110.455 11.198 110.719 10.662H112.531C112.339 11.302 111.971 11.83 111.427 12.246C110.883 12.654 110.215 12.858 109.423 12.858C108.783 12.858 108.207 12.718 107.695 12.438C107.191 12.15 106.795 11.746 106.507 11.226C106.227 10.706 106.087 10.106 106.087 9.426C106.087 8.738 106.227 8.134 106.507 7.614C106.787 7.094 107.179 6.694 107.683 6.414C108.187 6.134 108.767 5.994 109.423 5.994C110.055 5.994 110.619 6.13 111.115 6.402C111.619 6.674 112.007 7.062 112.279 7.566C112.559 8.062 112.699 8.634 112.699 9.282ZM110.959 8.802C110.951 8.37 110.795 8.026 110.491 7.77C110.187 7.506 109.815 7.374 109.375 7.374C108.959 7.374 108.607 7.502 108.319 7.758C108.039 8.006 107.867 8.354 107.803 8.802H110.959ZM113.494 9.402C113.494 8.73 113.626 8.134 113.89 7.614C114.162 7.094 114.53 6.694 114.994 6.414C115.458 6.134 115.974 5.994 116.542 5.994C116.974 5.994 117.386 6.09 117.778 6.282C118.17 6.466 118.482 6.714 118.714 7.026V3.87H120.418V12.75H118.714V11.766C118.506 12.094 118.214 12.358 117.838 12.558C117.462 12.758 117.026 12.858 116.53 12.858C115.97 12.858 115.458 12.714 114.994 12.426C114.53 12.138 114.162 11.734 113.89 11.214C113.626 10.686 113.494 10.082 113.494 9.402ZM118.726 9.426C118.726 9.018 118.646 8.67 118.486 8.382C118.326 8.086 118.11 7.862 117.838 7.71C117.566 7.55 117.274 7.47 116.962 7.47C116.65 7.47 116.362 7.546 116.098 7.698C115.834 7.85 115.618 8.074 115.45 8.37C115.29 8.658 115.21 9.002 115.21 9.402C115.21 9.802 115.29 10.154 115.45 10.458C115.618 10.754 115.834 10.982 116.098 11.142C116.37 11.302 116.658 11.382 116.962 11.382C117.274 11.382 117.566 11.306 117.838 11.154C118.11 10.994 118.326 10.77 118.486 10.482C118.646 10.186 118.726 9.834 118.726 9.426ZM130.618 4.374V5.73H128.386V12.75H126.706V5.73H124.474V4.374H130.618ZM132.696 5.31C132.4 5.31 132.152 5.218 131.952 5.034C131.76 4.842 131.664 4.606 131.664 4.326C131.664 4.046 131.76 3.814 131.952 3.63C132.152 3.438 132.4 3.342 132.696 3.342C132.992 3.342 133.236 3.438 133.428 3.63C133.628 3.814 133.728 4.046 133.728 4.326C133.728 4.606 133.628 4.842 133.428 5.034C133.236 5.218 132.992 5.31 132.696 5.31ZM133.524 6.102V12.75H131.844V6.102H133.524ZM143.439 6.006C144.255 6.006 144.911 6.258 145.407 6.762C145.911 7.258 146.163 7.954 146.163 8.85V12.75H144.483V9.078C144.483 8.558 144.351 8.162 144.087 7.89C143.823 7.61 143.463 7.47 143.007 7.47C142.551 7.47 142.187 7.61 141.915 7.89C141.651 8.162 141.519 8.558 141.519 9.078V12.75H139.839V9.078C139.839 8.558 139.707 8.162 139.443 7.89C139.179 7.61 138.819 7.47 138.363 7.47C137.899 7.47 137.531 7.61 137.259 7.89C136.995 8.162 136.863 8.558 136.863 9.078V12.75H135.183V6.102H136.863V6.906C137.079 6.626 137.355 6.406 137.691 6.246C138.035 6.086 138.411 6.006 138.819 6.006C139.339 6.006 139.803 6.118 140.211 6.342C140.619 6.558 140.935 6.87 141.159 7.278C141.375 6.894 141.687 6.586 142.095 6.354C142.511 6.122 142.959 6.006 143.439 6.006ZM153.938 9.282C153.938 9.522 153.922 9.738 153.89 9.93H149.03C149.07 10.41 149.238 10.786 149.534 11.058C149.83 11.33 150.194 11.466 150.626 11.466C151.25 11.466 151.694 11.198 151.958 10.662H153.77C153.578 11.302 153.21 11.83 152.666 12.246C152.122 12.654 151.454 12.858 150.662 12.858C150.022 12.858 149.446 12.718 148.934 12.438C148.43 12.15 148.034 11.746 147.746 11.226C147.466 10.706 147.326 10.106 147.326 9.426C147.326 8.738 147.466 8.134 147.746 7.614C148.026 7.094 148.418 6.694 148.922 6.414C149.426 6.134 150.006 5.994 150.662 5.994C151.294 5.994 151.858 6.13 152.354 6.402C152.858 6.674 153.246 7.062 153.518 7.566C153.798 8.062 153.938 8.634 153.938 9.282ZM152.198 8.802C152.19 8.37 152.034 8.026 151.73 7.77C151.426 7.506 151.054 7.374 150.614 7.374C150.198 7.374 149.846 7.502 149.558 7.758C149.278 8.006 149.106 8.354 149.042 8.802H152.198ZM155.908 12.834C155.604 12.834 155.352 12.742 155.152 12.558C154.96 12.366 154.864 12.13 154.864 11.85C154.864 11.57 154.96 11.338 155.152 11.154C155.352 10.962 155.604 10.866 155.908 10.866C156.204 10.866 156.448 10.962 156.64 11.154C156.832 11.338 156.928 11.57 156.928 11.85C156.928 12.13 156.832 12.366 156.64 12.558C156.448 12.742 156.204 12.834 155.908 12.834ZM155.908 7.866C155.604 7.866 155.352 7.774 155.152 7.59C154.96 7.398 154.864 7.162 154.864 6.882C154.864 6.602 154.96 6.37 155.152 6.186C155.352 5.994 155.604 5.898 155.908 5.898C156.204 5.898 156.448 5.994 156.64 6.186C156.832 6.37 156.928 6.602 156.928 6.882C156.928 7.162 156.832 7.398 156.64 7.59C156.448 7.774 156.204 7.866 155.908 7.866Z" fill="#0D0D0D"/>
</svg>
