<svg width="40" height="40" viewBox="0 0 40 40" fill="none" xmlns="http://www.w3.org/2000/svg">
<g id="business-prodect-diamond-25">
<g id="Group">
<path id="Vector 25" d="M12.4844 16.1076L12.4844 9.07032H26.2153L26.2153 17.8121H14.081V16.1076H12.4844Z" fill="#00FC6E"/>
<path id="Vector 26" d="M30.8306 10.8281H29.1055L29.1055 17.7405H35.8355V15.8181H34.1866V14.1614H32.5064V12.5119H30.8307L30.8306 10.8281Z" fill="#00FC6E"/>
<path id="Vector 27" d="M25.8393 22.4996V19.1406H19.0195V32.5144H21.0553V29.2176H22.633V25.9947H24.2616V22.4996H25.8393Z" fill="#00FC6E"/>
<path id="Vector" d="M35.8266 17.5078H29.1656V10.8359H30.8281V9.17344H29.1656V7.5H10.8344V9.17344H9.16094V10.8359H7.49844V12.4984H5.83594V14.1719H4.1625V15.8344H2.5V20.8328H4.1625V19.1703H12.4969V22.5063H14.1594V25.8313H15.8328V29.1672H17.4953V32.5031H19.1687V19.1703H25.8297V22.5063H24.1672V25.8313H22.4938V29.1672H20.8313V32.5031H19.1687V34.1656H17.4953V35.8391H19.1687V37.5016H20.8313V35.8391H22.4938V34.1656H24.1672V32.5031H25.8297V30.8406H27.5031V29.1672H29.1656V27.5047H30.8281V25.8313H32.5016V24.1687H34.1641V22.5063H35.8266V20.8328H37.5V15.8344H35.8266V17.5078ZM25.8297 17.5078H14.1594V15.8344H12.4969V9.17344H19.1687V10.8359H20.8313V12.4984H22.4938V14.1719H24.1672V15.8344H25.8297V17.5078Z" fill="#0D0D0D"/>
<path id="Vector_2" d="M35.8266 14.1719H34.1641V15.8344H35.8266V14.1719Z" fill="#0D0D0D"/>
<path id="Vector_3" d="M34.1664 12.5H32.5039V14.1734H34.1664V12.5Z" fill="#0D0D0D"/>
<path id="Vector_4" d="M32.5016 10.8359H30.8281V12.4984H32.5016V10.8359Z" fill="#0D0D0D"/>
<path id="Vector_5" d="M19.1695 10.8359H17.4961V12.4984H19.1695V10.8359Z" fill="#0D0D0D"/>
<path id="Vector_6" d="M17.4945 32.5039H15.832V34.1664H17.4945V32.5039Z" fill="#0D0D0D"/>
<path id="Vector_7" d="M17.4945 12.5H15.832V14.1734H17.4945V12.5Z" fill="#0D0D0D"/>
<path id="Vector_8" d="M15.8336 30.8398H14.1602V32.5023H15.8336V30.8398Z" fill="#0D0D0D"/>
<path id="Vector_9" d="M15.8336 14.1719H14.1602V15.8344H15.8336V14.1719Z" fill="#0D0D0D"/>
<path id="Vector_10" d="M14.1586 29.168H12.4961V30.8414H14.1586V29.168Z" fill="#0D0D0D"/>
<path id="Vector_11" d="M12.4984 27.5039H10.8359V29.1664H12.4984V27.5039Z" fill="#0D0D0D"/>
<path id="Vector_12" d="M10.8336 25.832H9.16016V27.5055H10.8336V25.832Z" fill="#0D0D0D"/>
<path id="Vector_13" d="M9.15859 24.168H7.49609V25.8305H9.15859V24.168Z" fill="#0D0D0D"/>
<path id="Vector_14" d="M7.49844 22.5078H5.83594V24.1703H7.49844V22.5078Z" fill="#0D0D0D"/>
<path id="Vector_15" d="M5.8375 20.832H4.16406V22.5055H5.8375V20.832Z" fill="#0D0D0D"/>
</g>
</g>
</svg>
