<svg width="24" height="24" viewBox="0 0 24 24" fill="none" xmlns="http://www.w3.org/2000/svg">
<g id="business-prodect-diamond-25">
<g id="Group">
<path id="Vector 25" d="M7.27541 7.98201L7.27539 3.5586H15.9062L15.9062 9.05345H8.27897V7.98201H7.27541Z" fill="#00FC6E"/>
<path id="Vector 26" d="M18.809 4.66211H17.7246L17.7246 9.00705H21.9549V7.79867H20.9185V6.75731H19.8624V5.72046H18.809L18.809 4.66211Z" fill="#00FC6E"/>
<path id="Vector 27" d="M15.6715 11.999V9.8877H11.3848V18.2941H12.6644V16.2218H13.6561V14.196H14.6798V11.999H15.6715Z" fill="#00FC6E"/>
<path id="Vector" d="M21.9481 8.86191H17.7612V4.66816H18.8062V3.62316H17.7612V2.57129H6.23875V3.62316H5.18688V4.66816H4.14188V5.71316H3.09687V6.76504H2.045V7.81004H1V10.9519H2.045V9.90691H7.28375V12.0038H8.32875V14.0938H9.38062V16.1907H10.4256V18.2875H11.4775V9.90691H15.6644V12.0038H14.6194V14.0938H13.5675V16.1907H12.5225V18.2875H11.4775V19.3325H10.4256V20.3844H11.4775V21.4294H12.5225V20.3844H13.5675V19.3325H14.6194V18.2875H15.6644V17.2425H16.7163V16.1907H17.7612V15.1457H18.8062V14.0938H19.8581V13.0488H20.9031V12.0038H21.9481V10.9519H23V7.81004H21.9481V8.86191ZM15.6644 8.86191H8.32875V7.81004H7.28375V3.62316H11.4775V4.66816H12.5225V5.71316H13.5675V6.76504H14.6194V7.81004H15.6644V8.86191Z" fill="#0D0D0D"/>
<path id="Vector_2" d="M21.9473 6.76465H20.9023V7.80965H21.9473V6.76465Z" fill="#0D0D0D"/>
<path id="Vector_3" d="M20.9024 5.71289H19.8574V6.76477H20.9024V5.71289Z" fill="#0D0D0D"/>
<path id="Vector_4" d="M19.8585 4.66797H18.8066V5.71297H19.8585V4.66797Z" fill="#0D0D0D"/>
<path id="Vector_5" d="M11.4777 4.66797H10.4258V5.71297H11.4777V4.66797Z" fill="#0D0D0D"/>
<path id="Vector_6" d="M10.4259 18.2881H9.38086V19.3331H10.4259V18.2881Z" fill="#0D0D0D"/>
<path id="Vector_7" d="M10.4259 5.71289H9.38086V6.76477H10.4259V5.71289Z" fill="#0D0D0D"/>
<path id="Vector_8" d="M9.38 17.2422H8.32812V18.2872H9.38V17.2422Z" fill="#0D0D0D"/>
<path id="Vector_9" d="M9.38 6.76465H8.32812V7.80965H9.38V6.76465Z" fill="#0D0D0D"/>
<path id="Vector_10" d="M8.3282 16.1904H7.2832V17.2423H8.3282V16.1904Z" fill="#0D0D0D"/>
<path id="Vector_11" d="M7.28328 15.1455H6.23828V16.1905H7.28328V15.1455Z" fill="#0D0D0D"/>
<path id="Vector_12" d="M6.23937 14.0938H5.1875V15.1456H6.23937V14.0938Z" fill="#0D0D0D"/>
<path id="Vector_13" d="M5.18758 13.0488H4.14258V14.0938H5.18758V13.0488Z" fill="#0D0D0D"/>
<path id="Vector_14" d="M4.14266 12.0039H3.09766V13.0489H4.14266V12.0039Z" fill="#0D0D0D"/>
<path id="Vector_15" d="M3.0968 10.9521H2.04492V12.004H3.0968V10.9521Z" fill="#0D0D0D"/>
</g>
</g>
</svg>
