<svg width="24" height="24" viewBox="0 0 24 24" fill="none" xmlns="http://www.w3.org/2000/svg">
<g id="users">
<g id="Union">
<path fill-rule="evenodd" clip-rule="evenodd" d="M11.3674 3.80078H5.96741V5.46743H4.30076V10.8674H5.96741V12.534H11.3674V10.8674H13.034V5.46743H11.3674V3.80078ZM6.3674 5.86743V10.4674H10.9674V5.86743H6.3674Z" fill="#0D0D0D"/>
<path d="M18.034 3.80078H14.3007V5.86743H17.634V10.4674H14.3007V12.534H18.034V10.8674H19.7006V5.46743H18.034V3.80078Z" fill="#0D0D0D"/>
<path fill-rule="evenodd" clip-rule="evenodd" d="M13.8673 13.8007H3.46743V15.4673H1.80078V20.8673H15.534V15.4673H13.8673V13.8007ZM3.86743 15.8673H13.4673V18.8006H3.86743V15.8673Z" fill="#0D0D0D"/>
<path d="M20.5339 13.8007H16.8006V15.8673H20.1339V18.8006L16.8006 18.8006V20.8673H22.2006V15.4673H20.5339V13.8007Z" fill="#0D0D0D"/>
</g>
</g>
</svg>
