<svg width="24" height="24" viewBox="0 0 24 24" fill="none" xmlns="http://www.w3.org/2000/svg">
<g id="contact-plus">
<path id="Union" fill-rule="evenodd" clip-rule="evenodd" d="M3.42578 5H20.5686V6.71429H3.42578V5ZM3.42578 18.7109H13.7115V20.4252H3.42578V18.7109ZM3.42522 6.72266H1.71094V18.7227H3.42522V6.72266ZM20.5703 6.72266H22.2846V14.4369H20.5703V6.72266ZM10.2801 8.44531H6.85156V11.8739H10.2801V8.44531ZM5.14062 13.5781H11.9978V17.0067H5.14062V13.5781ZM18.8499 8.44531H13.707V10.1596H18.8499V8.44531ZM13.707 11.8555H18.8499V13.5698H13.707V11.8555ZM16.2785 15.3008H13.707V17.0151H16.2785V15.3008ZM17.9961 16.1445H19.7104V18.7109H22.279V20.4252H19.7104V23.0017H17.9961V20.4252H15.4219V18.7109H17.9961V16.1445Z" fill="#0D0D0D"/>
</g>
</svg>
