<svg width="24" height="24" viewBox="0 0 24 24" fill="none" xmlns="http://www.w3.org/2000/svg">
<g id="ic_cards">
<path id="Union" fill-rule="evenodd" clip-rule="evenodd" d="M0.75 18.75V5.25H3L3 18.75H0.75ZM21 18.75H3V21H21V18.75ZM21 5.25L23.25 5.25V18.75H21V5.25ZM21 5.25L3 5.25L3 3H21V5.25Z" fill="#0D0D0D"/>
<path id="Vector" d="M14.891 7.5V8.14105H14.25V9.42737H14.891V10.0726H15.5363V10.7137H16.1774V11.3547H16.8226V10.7137H17.4637V10.0726H18.1047V9.42737H18.75V8.14105H18.1047V7.5H16.8226V8.14105H16.1774V7.5H14.891Z" fill="#0D0D0D"/>
<path id="Union_2" fill-rule="evenodd" clip-rule="evenodd" d="M18.75 12.5625H14.25V14.25H18.75V12.5625ZM18.75 14.8125H14.25V16.5H18.75V14.8125Z" fill="#0D0D0D"/>
<path id="1" d="M8 16.375V9.375H6.25V7.625H9.75V16.375H8Z" fill="#0D0D0D"/>
</g>
</svg>
